<?xml version="1.0" standalone="no"?>
<!DOCTYPE svg PUBLIC "-//W3C//DTD SVG 1.1//EN" "http://www.w3.org/Graphics/SVG/1.1/DTD/svg11.dtd" >
<svg xmlns="http://www.w3.org/2000/svg" xmlns:xlink="http://www.w3.org/1999/xlink" version="1.1">
<metadata>
Created by FontForge 20190801 at Wed Jul 12 23:43:18 2017
 By Jimmy Wärting
Copyright 2015 Indian Type Foundry. All rights reserved.
</metadata>
<defs>
<font id="KohinoorTelugu-Light" horiz-adv-x="0" >
  <font-face 
    font-family="Kohinoor Telugu"
    font-weight="300"
    font-stretch="normal"
    units-per-em="1000"
    panose-1="2 0 0 0 0 0 0 0 0 0"
    ascent="800"
    descent="-200"
    x-height="539"
    cap-height="701"
    bbox="-647 -592 1933 1109"
    underline-thickness="50"
    underline-position="-100"
    stemh="52"
    stemv="58"
    unicode-range="U+000D-FB02"
  />
<missing-glyph horiz-adv-x="750" 
d="M180 0v701h390v-701h-390zM234 651v-601h282v601h-282z" />
    <glyph glyph-name=".notdef" horiz-adv-x="750" 
d="M180 0v701h390v-701h-390zM234 651v-601h282v601h-282z" />
    <glyph glyph-name="NULL" 
 />
    <glyph glyph-name="NULL" 
 />
    <glyph glyph-name="CR" unicode="&#xd;" horiz-adv-x="300" 
 />
    <glyph glyph-name="space" unicode=" " horiz-adv-x="300" 
 />
    <glyph glyph-name="tlA" unicode="&#xc05;" horiz-adv-x="879" 
d="M559 311v5c-26 13 -50 54 -50 100c0 80 57 139 146 139c98 0 170 -80 170 -199c0 -198 -150 -365 -385 -365s-386 167 -386 365c0 118 76 199 171 199c92 0 146 -66 146 -146c0 -96 -71 -146 -144 -146c-82 0 -108 54 -112 65l-4 -1c18 -157 147 -281 329 -281
c198 0 327 144 327 310c0 89 -48 147 -111 147c-54 0 -91 -35 -91 -90c0 -60 36 -99 102 -102v-49h-228v49h120zM224 503c-55 0 -101 -48 -101 -98c0 -46 30 -92 98 -92c52 0 94 33 94 96c0 53 -36 94 -91 94z" />
    <glyph glyph-name="tlAA" unicode="&#xc06;" horiz-adv-x="853" 
d="M568 421c0 -63 45 -83 90 -107c54 10 87 48 87 100s-34 89 -92 89c-51 0 -85 -34 -85 -82zM440 46c151 0 243 80 243 159c0 26 -14 43 -33 57h-12h-216v50h146c-31 23 -56 54 -56 110c0 72 55 133 142 133c93 0 148 -64 148 -141c0 -67 -35 -115 -89 -138
c16 -17 27 -40 27 -74c0 -107 -113 -211 -300 -211c-235 0 -386 167 -386 365c0 118 76 199 171 199c92 0 146 -66 146 -146c0 -96 -71 -146 -144 -146c-82 0 -108 54 -112 65l-4 -1c18 -157 147 -281 329 -281zM224 503c-55 0 -101 -48 -101 -98c0 -46 30 -92 98 -92
c52 0 94 33 94 96c0 53 -36 94 -91 94z" />
    <glyph glyph-name="tlI" unicode="&#xc07;" horiz-adv-x="774" 
d="M687 -51h-56c-6 37 -19 80 -40 120c-56 -48 -127 -78 -204 -78c-132 0 -201 63 -201 143c0 83 74 137 190 137c94 0 168 -47 221 -112c39 51 64 115 64 183c0 93 -46 158 -125 158s-124 -57 -124 -148v-16h-57v15c0 93 -67 149 -137 149c-65 0 -114 -40 -114 -113
c0 -35 10 -64 31 -87l-46 -35c-29 32 -45 75 -45 122c0 103 75 168 172 168c91 0 151 -64 165 -105h4c14 43 52 105 153 105c113 0 182 -90 182 -213c0 -84 -34 -168 -89 -232c31 -52 50 -110 56 -161zM387 45c62 0 123 28 173 74c-42 55 -103 98 -184 98
c-85 0 -131 -32 -131 -83c0 -46 45 -89 142 -89z" />
    <glyph glyph-name="tlII" unicode="&#xc08;" horiz-adv-x="992" 
d="M35 252v51h68c11 125 80 210 184 235l-109 106l40 41l67 -67c45 -46 59 -59 67 -72h4c8 12 22 28 67 73l144 144l41 -41l-187 -184c103 -25 172 -110 183 -235h164h15c45 21 87 41 87 85c0 32 -21 58 -72 58c-31 0 -62 -19 -84 -50l-46 38c31 42 83 69 127 69
c89 0 131 -53 131 -112c0 -52 -29 -81 -64 -103c48 -19 81 -55 81 -117c0 -74 -45 -138 -139 -138c-86 0 -139 59 -139 128c0 41 15 70 36 91h-96c-7 -161 -106 -261 -251 -261c-146 0 -245 100 -252 261h-67zM803 85c58 0 83 37 83 86c0 54 -35 75 -96 80
c-38 -20 -69 -43 -69 -89s32 -77 82 -77zM353 491c-103 0 -177 -65 -189 -188h380c-12 123 -88 188 -191 188zM353 46c109 0 187 72 193 206h-384c6 -134 83 -206 191 -206z" />
    <glyph glyph-name="tlU" unicode="&#xc09;" horiz-adv-x="888" 
d="M676 44l-1 3c-1 -1 -9 -2 -14 -2c-51 0 -113 43 -113 125c0 32 10 61 28 84h-405c-3 -15 -4 -31 -4 -47c0 -101 53 -161 132 -161c80 0 133 57 133 149v15h56v-15c0 -95 59 -158 147 -158c15 0 28 3 41 7zM602 166c0 -67 53 -98 92 -98c35 0 74 34 74 98
c0 50 -36 87 -82 87c-48 0 -84 -34 -84 -87zM835 254h-40c18 -23 29 -54 29 -89c0 -114 -88 -174 -187 -174c-106 0 -159 63 -175 105h-4c-15 -44 -61 -105 -162 -105c-114 0 -189 85 -189 216c0 16 1 32 3 47h-75v51h86c40 131 157 226 304 239l-1 161h64l-5 -160
c75 -3 140 -26 194 -69l-36 -44c-48 37 -111 59 -181 59c-134 0 -237 -77 -276 -186h651v-51z" />
    <glyph glyph-name="tlUU" unicode="&#xc0a;" horiz-adv-x="1209" 
d="M557 705l-6 -169c47 -11 89 -31 126 -60l-36 -44c-48 37 -111 59 -181 59c-134 0 -237 -77 -276 -186h801h14c45 21 88 41 88 84c0 33 -21 58 -73 58c-30 0 -61 -18 -83 -49l-47 37c31 43 84 69 127 69c89 0 132 -52 132 -111c0 -53 -29 -81 -65 -103
c49 -19 82 -56 82 -117c0 -74 -46 -138 -139 -138c-87 0 -139 59 -139 128c0 41 15 70 36 91h-123c18 -23 29 -54 29 -89c0 -114 -88 -174 -187 -174c-106 0 -159 63 -175 105h-4c-15 -44 -61 -105 -162 -105c-114 0 -189 85 -189 216c0 16 1 32 3 47h-75v51h86
c35 116 130 204 254 232l-9 168h63l-7 -161c12 1 25 2 38 2c14 0 29 -1 42 -2l-6 161h61zM1021 87c56 0 83 37 83 86c0 53 -36 75 -98 80c-37 -20 -68 -44 -68 -90c0 -45 31 -76 83 -76zM676 44l-1 3c-1 -1 -9 -2 -14 -2c-51 0 -113 43 -113 125c0 32 10 61 28 84h-405
c-3 -15 -4 -31 -4 -47c0 -101 53 -161 132 -161c80 0 133 57 133 149v15h56v-15c0 -95 59 -158 147 -158c15 0 28 3 41 7zM602 166c0 -67 53 -98 92 -98c35 0 74 34 74 98c0 50 -36 87 -82 87c-48 0 -84 -34 -84 -87z" />
    <glyph glyph-name="tlvR" unicode="&#xc0b;" horiz-adv-x="1473" 
d="M673 257c0 154 -86 231 -196 231v58c131 0 254 -89 254 -289c0 -61 -9 -112 -25 -152c37 -38 85 -59 141 -59c99 0 168 79 168 224c0 140 -82 221 -177 221v55c138 0 236 -109 236 -276c0 -63 -11 -116 -31 -158c38 -43 87 -66 147 -66c99 0 167 79 167 224
c0 140 -81 221 -177 221v55c138 0 237 -109 237 -276c0 -182 -91 -279 -226 -279c-73 0 -131 26 -178 73c-40 -48 -97 -73 -165 -73s-124 23 -169 65c-34 -44 -82 -65 -141 -65c-98 0 -142 63 -157 105h-4c-14 -43 -60 -105 -163 -105s-163 61 -163 142
c0 155 237 170 237 289c0 42 -28 79 -81 79c-48 0 -78 -35 -78 -76c0 -13 3 -35 11 -52h-59c-7 18 -10 37 -10 54c0 73 56 129 136 129c91 0 140 -65 140 -134c0 -155 -236 -163 -236 -288c0 -55 42 -88 106 -88c80 0 133 57 133 148v26h58v-25c0 -94 52 -149 128 -149
c84 0 137 72 137 211z" />
    <glyph glyph-name="tlvRR" unicode="&#xc60;" horiz-adv-x="1795" 
d="M673 257c0 154 -86 231 -196 231v58c131 0 254 -89 254 -289c0 -61 -9 -112 -25 -152c37 -38 85 -59 141 -59c99 0 168 79 168 224c0 140 -82 221 -177 221v55c138 0 236 -109 236 -276c0 -63 -11 -116 -31 -158c38 -43 87 -66 147 -66c99 0 167 85 167 225
s-81 220 -177 220v55h428c97 0 157 -53 157 -138c0 -89 -67 -144 -140 -144c-99 0 -148 69 -148 138c0 59 35 88 48 91h-209c63 -42 101 -118 101 -222c0 -176 -91 -280 -226 -280c-73 0 -131 26 -178 73c-40 -48 -97 -73 -165 -73s-124 23 -169 65
c-34 -44 -82 -65 -141 -65c-98 0 -142 63 -157 105h-4c-14 -43 -60 -105 -163 -105s-163 61 -163 142c0 155 237 170 237 289c0 42 -28 79 -81 79c-48 0 -78 -35 -78 -76c0 -13 3 -35 11 -52h-59c-7 18 -10 37 -10 54c0 73 56 129 136 129c91 0 140 -65 140 -134
c0 -155 -236 -163 -236 -288c0 -55 42 -88 106 -88c80 0 133 57 133 148v26h58v-25c0 -94 52 -149 128 -149c84 0 137 72 137 211zM1532 407c0 -54 34 -91 93 -91c49 0 84 37 84 92c0 57 -44 86 -91 86c-51 0 -86 -37 -86 -87z" />
    <glyph glyph-name="tlvL" unicode="&#xc0c;" horiz-adv-x="973" 
d="M858 252c0 180 -83 238 -147 238v56c97 0 206 -88 206 -294c0 -202 -136 -350 -339 -350c-153 0 -218 85 -218 173c0 172 253 159 253 314c0 64 -43 107 -109 107c-72 0 -123 -57 -123 -147v-18h-56v17c0 92 -47 148 -117 148c-58 0 -104 -41 -104 -109
c0 -47 19 -95 56 -122l-45 -34c-36 26 -71 87 -71 156c0 102 76 164 162 164c95 0 137 -67 145 -106h4c11 44 59 106 151 106c97 0 163 -67 163 -161c0 -197 -251 -183 -251 -315c0 -73 61 -118 159 -118c167 0 281 119 281 295z" />
    <glyph glyph-name="tlvLL" unicode="&#xc61;" horiz-adv-x="1312" 
d="M1050 407c0 -54 33 -91 93 -91c49 0 84 37 84 92c0 57 -44 86 -91 86c-51 0 -86 -37 -86 -87zM858 252c0 180 -83 240 -147 240v54h415c97 0 157 -53 157 -138c0 -89 -67 -144 -140 -144c-99 0 -148 69 -148 138c0 59 34 88 48 91h-213c50 -41 87 -116 87 -241
c0 -202 -136 -350 -339 -350c-153 0 -218 85 -218 173c0 172 253 159 253 314c0 64 -43 107 -109 107c-72 0 -123 -57 -123 -147v-18h-56v17c0 92 -47 148 -117 148c-58 0 -104 -41 -104 -109c0 -47 19 -95 56 -122l-45 -34c-36 26 -71 87 -71 156c0 102 76 164 162 164
c95 0 137 -67 145 -106h4c11 44 59 106 151 106c97 0 163 -67 163 -161c0 -197 -251 -183 -251 -315c0 -73 61 -118 159 -118c167 0 281 119 281 295z" />
    <glyph glyph-name="tlE" unicode="&#xc0e;" horiz-adv-x="752" 
d="M290 694v58c163 -9 406 -166 406 -496c0 -202 -81 -265 -180 -265c-74 0 -115 42 -147 93c-47 -65 -97 -93 -167 -93c-97 0 -162 70 -162 169c0 91 62 165 156 165c188 0 180 -280 320 -280c65 0 121 50 121 211c0 286 -203 429 -347 438zM202 44c63 0 111 47 136 95
c-35 67 -68 131 -142 131c-54 0 -98 -38 -98 -110c0 -66 42 -116 104 -116z" />
    <glyph glyph-name="tlEE" unicode="&#xc0f;" horiz-adv-x="752" 
d="M219 859l45 -28c-26 -29 -42 -63 -42 -109c0 -47 15 -81 42 -110l-45 -27c-27 27 -52 72 -52 137c0 64 25 110 52 137zM290 694v58c163 -9 406 -166 406 -496c0 -202 -81 -265 -180 -265c-74 0 -115 42 -147 93c-47 -65 -97 -93 -167 -93c-97 0 -162 70 -162 169
c0 91 62 165 156 165c188 0 180 -280 320 -280c65 0 121 50 121 211c0 286 -203 429 -347 438zM202 44c63 0 111 47 136 95c-35 67 -68 131 -142 131c-54 0 -98 -38 -98 -110c0 -66 42 -116 104 -116z" />
    <glyph glyph-name="tlAI" unicode="&#xc10;" horiz-adv-x="797" 
d="M61 409c34 88 99 142 184 142c91 0 146 -62 159 -105h4c12 43 55 105 144 105c100 0 189 -85 189 -285c0 -181 -71 -275 -184 -275c-79 0 -126 47 -164 102c-49 -71 -103 -102 -176 -102c-96 0 -163 70 -163 169c0 91 70 164 162 164c181 0 198 -278 341 -278
c80 0 125 81 125 221c0 92 -23 228 -135 228c-66 0 -111 -56 -111 -121h-56c0 60 -56 122 -133 122c-63 0 -110 -41 -134 -111zM217 44c66 0 117 52 143 101c-39 64 -76 124 -144 124c-53 0 -103 -37 -103 -109c0 -66 43 -116 104 -116z" />
    <glyph glyph-name="tlO" unicode="&#xc12;" horiz-adv-x="735" 
d="M51 133c0 155 237 170 237 289c0 42 -28 79 -81 79c-48 0 -78 -35 -78 -76c0 -13 3 -35 11 -52h-59c-7 18 -10 37 -10 54c0 73 56 129 136 129c91 0 140 -65 140 -134c0 -155 -236 -163 -236 -288c0 -55 42 -88 106 -88c80 0 133 57 133 148v26h58v-25
c0 -94 53 -149 123 -149c65 0 106 39 106 113c0 55 -31 93 -74 120l35 43c62 -31 98 -91 98 -163c0 -103 -66 -168 -162 -168c-92 0 -139 63 -153 105h-4c-14 -43 -60 -105 -163 -105s-163 61 -163 142z" />
    <glyph glyph-name="tlOO" unicode="&#xc13;" horiz-adv-x="735" 
d="M51 133c0 155 237 170 237 289c0 42 -28 79 -81 79c-48 0 -78 -35 -78 -76c0 -13 3 -35 11 -52h-59c-7 18 -10 37 -10 54c0 73 56 129 136 129h11c-36 21 -57 59 -57 97c0 23 4 42 15 59h67c-19 -20 -27 -48 -27 -75c0 -39 16 -70 43 -89c58 -20 88 -72 88 -126
c0 -155 -236 -163 -236 -288c0 -55 42 -88 106 -88c80 0 133 57 133 148v26h58v-25c0 -94 53 -149 123 -149c65 0 106 39 106 113c0 55 -31 93 -74 120l35 43c62 -31 98 -91 98 -163c0 -103 -66 -168 -162 -168c-92 0 -139 63 -153 105h-4c-14 -43 -60 -105 -163 -105
s-163 61 -163 142z" />
    <glyph glyph-name="tlAU" unicode="&#xc14;" horiz-adv-x="757" 
d="M52 133c0 155 245 170 245 289c0 43 -27 80 -80 80c-49 0 -78 -36 -78 -76c0 -14 4 -36 11 -53h-59c-7 18 -11 37 -11 54c0 29 9 56 26 77h-53v51h172c73 0 99 22 99 61c0 32 -26 58 -67 58h-204v52h507c97 0 157 -53 157 -138c0 -89 -67 -145 -140 -145
c-99 0 -148 69 -148 138c0 60 34 89 48 93h-136v-4c20 -7 39 -30 39 -64c0 -42 -21 -72 -62 -88c25 -25 38 -60 38 -96c0 -155 -245 -163 -245 -288c0 -55 42 -88 106 -88c81 0 134 57 134 148v26h57v-25c0 -94 54 -149 123 -149c66 0 106 39 106 113c0 55 -31 93 -74 120
l35 43c62 -31 98 -91 98 -163c0 -103 -66 -168 -161 -168c-92 0 -140 63 -154 105h-4c-13 -43 -60 -105 -162 -105c-104 0 -163 61 -163 142zM484 587c0 -54 33 -92 93 -92c49 0 84 38 84 93c0 56 -44 86 -91 86c-51 0 -86 -37 -86 -87z" />
    <glyph glyph-name="tlmAA" unicode="&#xc3e;" horiz-adv-x="324" 
d="M-265 639v52h423c96 0 157 -53 157 -138c0 -89 -67 -145 -140 -145c-99 0 -149 69 -149 138c0 56 28 87 42 93h-333zM81 552c0 -54 33 -92 94 -92c49 0 84 38 84 93c0 57 -45 86 -92 86c-51 0 -86 -36 -86 -87z" />
    <glyph glyph-name="tlmI" unicode="&#xc3f;" 
d="M-294 800c44 1 68 28 67 60c-2 30 -27 57 -72 56s-68 -30 -67 -60c1 -34 28 -57 72 -56zM-487 714c35 -28 90 -49 149 -49c85 0 152 46 152 136c0 14 -1 28 -4 41c-4 -53 -47 -97 -113 -97c-61 0 -123 42 -123 113c0 62 47 112 129 112c102 0 167 -79 167 -169
c0 -119 -88 -190 -208 -190c-68 0 -130 17 -177 52z" />
    <glyph glyph-name="tlmII" unicode="&#xc40;" 
d="M-294 800c44 1 68 28 67 60c-2 30 -27 57 -72 56s-68 -30 -67 -60c1 -34 28 -57 72 -56zM-487 714c35 -28 90 -49 149 -49c85 0 152 46 152 136c0 14 -1 28 -4 41c-4 -53 -47 -97 -113 -97c-61 0 -123 42 -123 113c0 62 47 112 129 112h13c-6 13 -10 27 -10 42
c0 54 43 97 116 97c37 0 74 -11 96 -28l-25 -46c-18 13 -44 23 -71 23c-36 0 -60 -17 -60 -51c0 -30 24 -52 47 -73c39 -31 61 -80 61 -133c0 -119 -88 -190 -208 -190c-68 0 -130 17 -177 52z" />
    <glyph glyph-name="tlmU" unicode="&#xc41;" horiz-adv-x="346" 
d="M-138 92l35 47c38 -60 95 -93 166 -93c100 0 168 78 168 224c0 140 -82 221 -177 221v55c138 0 236 -109 236 -277c0 -181 -91 -278 -225 -278c-87 0 -153 37 -203 101z" />
    <glyph glyph-name="tlmUU" unicode="&#xc42;" horiz-adv-x="590" 
d="M403 407c0 -54 33 -91 92 -91c50 0 85 37 85 92c0 57 -44 86 -91 86c-51 0 -86 -37 -86 -87zM-138 92l35 47c38 -60 95 -93 166 -93c100 0 168 78 168 224c0 140 -82 221 -177 221v55h425c96 0 157 -53 157 -138c0 -89 -67 -144 -141 -144c-98 0 -148 69 -148 138
c0 59 35 88 49 91h-204c61 -46 98 -124 98 -224c0 -181 -91 -278 -225 -278c-87 0 -153 37 -203 101z" />
    <glyph glyph-name="tlmvR" unicode="&#xc43;" horiz-adv-x="415" 
d="M-33 -153l-5 1c-1 -6 -1 -12 -1 -18c1 -121 84 -194 183 -194c110 0 199 80 199 264c0 204 -123 335 -243 426l38 42c114 -85 264 -242 264 -468c0 -208 -104 -318 -258 -318c-135 0 -239 102 -239 250c0 108 79 191 173 191c84 0 144 -59 144 -137
c0 -81 -61 -137 -136 -137c-86 0 -120 66 -119 98zM78 -31c-57 0 -91 -41 -91 -83s25 -83 90 -83c57 0 86 34 86 83c0 45 -35 83 -85 83z" />
    <glyph glyph-name="tlmvRR" unicode="&#xc44;" horiz-adv-x="716" 
d="M475 220c0 -54 33 -91 92 -91c49 0 85 37 85 92c0 57 -44 85 -91 85c-51 0 -86 -36 -86 -86zM-33 -153l-5 1c-1 -6 -1 -12 -1 -18c1 -121 84 -194 183 -194c110 0 199 80 199 264c0 189 -104 315 -215 405v54h423c96 0 157 -54 157 -138c0 -90 -67 -145 -141 -145
c-98 0 -148 69 -148 138c0 60 35 89 49 92h-257c95 -87 191 -227 191 -406c0 -208 -104 -318 -258 -318c-135 0 -239 102 -239 250c0 108 79 191 173 191c84 0 144 -59 144 -137c0 -81 -61 -137 -136 -137c-86 0 -120 66 -119 98zM78 -31c-57 0 -91 -41 -91 -83
s25 -83 90 -83c57 0 86 34 86 83c0 45 -35 83 -85 83z" />
    <glyph glyph-name="tlmvL" unicode="&#xc62;" 
d="M-51 -140h4c10 24 42 56 95 56c65 0 109 -44 109 -104c0 -117 -157 -123 -157 -208c0 -39 35 -65 92 -65c102 0 173 74 173 182c0 116 -55 147 -95 147v47c68 -1 145 -51 145 -194c0 -132 -89 -229 -222 -229c-103 0 -145 56 -145 112c0 113 158 118 158 208
c0 36 -24 58 -60 58c-41 0 -71 -34 -71 -87v-17h-51v16c0 55 -26 88 -67 88c-32 0 -58 -24 -58 -64c0 -28 13 -58 38 -77l-39 -31c-27 20 -52 63 -52 108c0 69 53 110 110 110c52 0 83 -28 93 -56z" />
    <glyph glyph-name="tlmvLL" unicode="&#xc63;" 
d="M330 -182c0 -33 17 -53 52 -53c28 0 48 21 48 53c0 34 -25 51 -52 51c-30 0 -48 -21 -48 -51zM97 -131v45h275c67 0 109 -37 109 -97c0 -62 -48 -99 -99 -99c-69 0 -104 47 -104 95c0 28 9 44 21 56h-106c29 -28 49 -75 49 -148c0 -132 -90 -229 -222 -229
c-103 0 -145 56 -145 112c0 113 157 118 157 208c0 36 -23 58 -59 58c-41 0 -70 -34 -70 -87v-17h-52v16c0 55 -27 88 -67 88c-32 0 -59 -24 -59 -64c0 -28 13 -58 38 -77l-39 -31c-27 20 -51 63 -51 108c0 69 53 110 109 110c53 0 84 -28 94 -56h4c9 24 41 56 94 56
c67 0 110 -44 110 -104c0 -117 -158 -123 -158 -208c0 -39 35 -65 93 -65c101 0 172 74 172 182c0 116 -54 147 -94 148z" />
    <glyph glyph-name="tlmE" unicode="&#xc46;" 
d="M-201 824h-305v52h312c87 0 143 -45 143 -119c0 -73 -56 -118 -143 -118h-167v52h160c64 0 93 23 93 66s-29 67 -93 67z" />
    <glyph glyph-name="tlmEE" unicode="&#xc47;" 
d="M-194 639h-172v52h165c64 0 93 23 93 66s-29 67 -93 67h-307v52h304c-18 19 -31 42 -31 74c0 59 46 102 116 102c36 0 73 -10 95 -27l-25 -47c-17 13 -43 22 -71 22c-35 0 -59 -16 -59 -50c0 -48 51 -71 88 -105c26 -20 40 -50 40 -88c0 -73 -55 -118 -143 -118z" />
    <glyph glyph-name="tlmAI" unicode="&#xc48;" horiz-adv-x="626" 
d="M139 517c0 25 18 44 44 44s44 -19 44 -44c0 -26 -18 -45 -44 -45s-44 19 -44 45zM57 407c0 25 20 44 46 44c24 0 44 -19 44 -44s-20 -44 -44 -44c-26 0 -46 19 -46 44zM44 281c0 26 19 45 44 45c26 0 44 -19 44 -45c0 -25 -18 -43 -44 -43c-25 0 -44 18 -44 43zM96 165
c0 25 18 44 44 44c25 0 44 -19 44 -44c0 -26 -19 -44 -44 -44c-26 0 -44 18 -44 44zM197 90c0 24 19 44 45 44c25 0 44 -20 44 -44c0 -26 -19 -46 -44 -46c-26 0 -45 20 -45 46zM324 74c0 26 18 44 44 44s45 -18 45 -44s-19 -44 -45 -44s-44 18 -44 44zM445 127
c0 25 19 44 44 44s45 -19 45 -44c0 -26 -20 -44 -45 -44s-44 18 -44 44zM518 225c0 26 19 45 45 45c24 0 43 -19 43 -45c0 -25 -19 -44 -43 -44c-26 0 -45 19 -45 44zM528 359c0 26 18 44 44 44c25 0 44 -18 44 -44s-19 -44 -44 -44c-26 0 -44 18 -44 44zM478 477
c0 26 19 45 44 45c26 0 44 -19 44 -45c0 -25 -18 -44 -44 -44c-25 0 -44 19 -44 44zM383 545c0 26 19 45 45 45c25 0 43 -19 43 -45c0 -24 -18 -44 -43 -44c-26 0 -45 20 -45 44zM257 560c0 26 18 44 44 44s44 -18 44 -44s-18 -44 -44 -44s-44 18 -44 44zM394 824h-305v52
h312c87 0 143 -45 143 -119c0 -73 -56 -118 -143 -118h-167v52h160c64 0 93 23 93 66s-29 67 -93 67zM689 -276v-52h-447c-97 0 -157 57 -157 141c0 89 67 143 139 143c100 0 149 -70 149 -138c0 -64 -37 -93 -49 -94h365zM141 -187c0 -57 44 -89 91 -89c51 0 86 37 86 87
c0 54 -33 92 -94 92c-49 0 -83 -35 -83 -90z" />
    <glyph glyph-name="tlmO" unicode="&#xc4a;" 
d="M-111 744h-53c-6 37 -34 93 -93 93c-43 0 -73 -28 -73 -79c0 -63 44 -113 93 -144l-32 -40c-65 38 -116 107 -116 184c0 81 57 131 129 131c68 0 108 -53 118 -83h4c18 35 67 87 159 87c88 0 146 -56 146 -127c0 -63 -45 -104 -104 -104c-64 0 -105 40 -105 98
s50 83 74 85v4c-73 7 -131 -42 -147 -105zM68 825c-36 0 -59 -26 -59 -62c0 -32 24 -54 56 -54c33 0 54 22 54 58c0 32 -18 58 -51 58z" />
    <glyph glyph-name="tlmOO" unicode="&#xc4b;" 
d="M9 763c0 -32 24 -54 56 -54c33 0 54 22 54 58c0 32 -18 58 -51 58c-36 0 -59 -26 -59 -62zM-111 744h-53c-6 37 -34 93 -93 93c-43 0 -73 -28 -73 -79c0 -63 44 -113 93 -144l-32 -40c-65 38 -116 107 -116 184c0 81 57 131 129 131c68 0 108 -53 118 -83h4
c17 34 63 83 149 87c-17 17 -30 39 -30 70c0 59 43 102 114 102c37 0 74 -10 97 -27l-26 -47c-18 14 -43 22 -71 22c-36 0 -59 -17 -59 -50c0 -47 49 -70 87 -103c28 -23 44 -57 44 -94c0 -63 -45 -104 -104 -104c-64 0 -105 40 -105 98s50 83 74 85v4
c-73 7 -131 -42 -147 -105z" />
    <glyph glyph-name="tlmAU" unicode="&#xc4c;" horiz-adv-x="333" 
d="M-74 824v-4c20 -5 39 -38 39 -72c0 -65 -51 -109 -153 -109h-80v52h79c73 0 99 29 99 67c0 33 -26 66 -68 66h-253v52h577c97 0 158 -53 158 -137c0 -90 -68 -146 -141 -146c-99 0 -148 69 -148 138c0 61 35 89 48 93h-157zM90 738c0 -54 34 -92 93 -92c49 0 84 38 84 93
c0 56 -43 85 -91 85c-51 0 -86 -36 -86 -86z" />
    <glyph glyph-name="tlLengthmark" unicode="&#xc55;" 
d="M-279 649l-36 -37c-56 23 -109 91 -109 161c0 89 58 140 137 140c59 0 94 -22 116 -52l-35 -40c-20 26 -50 38 -78 38c-51 0 -83 -35 -83 -86c0 -57 40 -95 88 -124z" />
    <glyph glyph-name="tlAIlengthmark" unicode="&#xc56;" 
d="M-11 -276v-52h-447c-97 0 -157 57 -157 141c0 89 67 143 139 143c100 0 149 -70 149 -138c0 -64 -37 -93 -49 -94h365zM-559 -187c0 -57 44 -89 91 -89c51 0 86 37 86 87c0 54 -33 92 -94 92c-49 0 -83 -35 -83 -90z" />
    <glyph glyph-name="tlKA" unicode="&#xc15;" horiz-adv-x="506" 
d="M48 41l25 52c49 -26 112 -47 184 -47c107 0 155 43 155 97c0 147 -356 28 -356 249c0 65 48 125 137 146l-109 106l40 41l68 -67c45 -46 57 -59 66 -72h4c8 12 22 28 68 73l143 144l41 -41l-185 -182c46 -8 88 -24 113 -42l-27 -47c-45 29 -101 40 -152 40
c-99 0 -148 -47 -148 -99c0 -155 356 -43 356 -249c0 -86 -74 -152 -214 -152c-85 0 -161 21 -209 50z" />
    <glyph glyph-name="tlKHA" unicode="&#xc16;" horiz-adv-x="893" 
d="M516 296c0 -73 -25 -142 -70 -195c44 -32 92 -56 150 -56c100 0 182 76 182 223c0 149 -93 219 -184 220v58c112 -1 243 -86 243 -278c0 -188 -105 -277 -241 -277c-79 0 -139 31 -191 69c-51 -43 -119 -69 -196 -69c-124 0 -179 67 -179 142c0 65 45 128 144 128
c94 0 160 -67 229 -126c37 45 57 101 57 160c0 45 -7 83 -20 114l-5 -1c10 -60 -42 -124 -125 -124c-97 0 -144 70 -144 137c0 68 51 134 147 134c118 0 203 -102 203 -259zM209 45c61 0 113 19 153 50c-64 56 -118 113 -188 113c-57 0 -86 -31 -86 -75
c0 -46 29 -88 121 -88zM450 -152c0 -25 -17 -44 -45 -44c-27 0 -44 19 -44 44c0 20 5 40 13 70l18 67h27l17 -67c9 -30 14 -50 14 -70zM224 421c0 -43 30 -83 87 -83c59 0 90 41 90 83c0 44 -30 82 -88 82c-57 0 -89 -39 -89 -82z" />
    <glyph glyph-name="tlGA" unicode="&#xc17;" horiz-adv-x="589" 
d="M178 13l-51 -25c-34 46 -71 132 -71 251c0 145 67 263 174 297l-111 108l40 41l67 -67c46 -46 58 -59 67 -72h4c8 12 23 28 68 73l144 144l39 -41l-188 -186c106 -35 172 -154 172 -297c0 -121 -29 -205 -62 -251l-51 25c35 57 54 123 54 226c0 146 -79 252 -179 252
c-99 4 -178 -105 -178 -252c0 -103 28 -172 62 -226z" />
    <glyph glyph-name="tlGHA" unicode="&#xc18;" horiz-adv-x="1094" 
d="M346 -15h27l18 -67c9 -30 12 -50 13 -70c0 -25 -16 -44 -44 -44s-44 19 -44 44c0 20 4 40 12 70zM447 488v58c159 -4 248 -139 248 -301c0 -56 -8 -103 -23 -141c36 -38 83 -58 139 -58c99 0 167 79 167 224c0 140 -81 221 -177 221v55c138 0 237 -109 237 -276
c0 -182 -91 -279 -226 -279c-67 0 -122 23 -167 63c-32 -42 -76 -63 -128 -63c-73 0 -115 43 -149 95c-46 -66 -96 -95 -167 -95c-96 0 -162 70 -162 169c0 91 63 165 156 165c180 0 189 -280 317 -280c75 0 125 69 125 202c0 116 -56 241 -190 241zM201 44
c63 0 110 47 135 95c-36 67 -71 131 -141 131c-54 0 -97 -38 -97 -110c0 -66 41 -116 103 -116zM243 537h4c8 11 22 27 68 73l143 143l41 -41l-220 -219h-66l-144 142l40 41l68 -67c45 -47 56 -61 66 -72z" />
    <glyph glyph-name="tlNGA" unicode="&#xc19;" horiz-adv-x="755" 
d="M585 264l39 42c45 -33 72 -86 72 -147c0 -103 -66 -168 -162 -168c-92 0 -139 63 -153 105h-4c-14 -43 -60 -105 -163 -105s-163 61 -163 142c0 155 237 170 237 289c0 42 -28 79 -81 79c-48 0 -78 -35 -78 -76c0 -13 3 -35 11 -52h-59c-7 18 -10 37 -10 54
c0 73 56 129 136 129c91 0 140 -65 140 -134v-5h121v139h57v-139h160v-53h-351c-49 -102 -223 -123 -223 -230c0 -55 42 -88 106 -88c80 0 133 57 133 148v26h58v-25c0 -94 53 -149 123 -149c65 0 106 39 106 113c0 45 -19 79 -52 105z" />
    <glyph glyph-name="tlCA" unicode="&#xc1a;" horiz-adv-x="791" 
d="M135 281v3h-91v55h230v-55h-6c-89 0 -132 -63 -132 -126c0 -67 49 -112 114 -112c71 0 123 55 123 150v24h57v-26c0 -91 55 -148 126 -148s121 59 121 183c0 148 -97 264 -247 264h-66l-144 142l40 41l67 -67c46 -47 59 -60 67 -72h4c9 11 23 27 68 73l144 143l39 -41
l-169 -169c144 -13 255 -146 255 -311c0 -163 -73 -241 -179 -241c-91 0 -138 61 -152 105h-4c-15 -42 -61 -105 -152 -105c-96 0 -171 69 -171 165c0 70 41 112 58 125z" />
    <glyph glyph-name="tlCHA" unicode="&#xc1b;" horiz-adv-x="791" 
d="M387 -15h28l18 -67c7 -30 12 -50 12 -70c0 -25 -15 -44 -43 -44c-29 0 -45 19 -45 44c0 20 4 40 13 70zM394 537h4c9 10 22 27 68 73l144 143l39 -41l-169 -169c144 -13 255 -146 255 -311c0 -163 -73 -241 -179 -241c-91 0 -138 61 -152 105h-4
c-15 -42 -61 -105 -152 -105c-96 0 -171 69 -171 165c0 70 41 112 58 125v3h-91v55h230v-55h-6c-89 0 -132 -63 -132 -126c0 -67 49 -112 114 -112c71 0 123 55 123 150v24h57v-26c0 -91 55 -148 126 -148s121 59 121 183c0 148 -97 264 -247 264h-66l-144 142l40 41l67 -67
c46 -47 58 -61 67 -72z" />
    <glyph glyph-name="tlJA" unicode="&#xc1c;" horiz-adv-x="751" 
d="M51 133c0 155 237 170 237 289c0 42 -28 79 -81 79c-48 0 -78 -35 -78 -76c0 -13 3 -35 11 -52h-59c-7 18 -10 37 -10 54c0 73 56 129 136 129h1c6 0 12 0 18 -1c2 0 3 0 4 -1h3h1c10 -2 19 -4 28 -7c92 -33 144 -139 276 -139c43 0 77 21 77 78c0 16 -6 39 -19 54l54 21
c11 -16 23 -48 23 -76c0 -87 -63 -130 -130 -130c-80 0 -151 50 -198 92c1 -8 2 -16 2 -25c0 -155 -236 -163 -236 -288c0 -55 42 -88 106 -88c80 0 133 57 133 148v26h58v-25c0 -94 53 -149 123 -149c65 0 106 39 106 113c0 54 -31 92 -73 119l35 42c61 -30 97 -89 97 -161
c0 -104 -66 -168 -162 -168c-92 0 -139 63 -153 105h-4c-14 -43 -60 -105 -163 -105s-163 61 -163 142z" />
    <glyph glyph-name="tlJHA" unicode="&#xc1d;" horiz-adv-x="1301" 
d="M827 -15h27l17 -67c8 -30 13 -50 13 -70c0 -25 -16 -44 -44 -44c-29 0 -44 19 -44 44c0 20 5 40 13 70zM306 546h4c8 12 22 28 67 73l144 144l41 -41l-187 -184c112 -27 184 -126 184 -270c0 -59 -12 -110 -34 -152c38 -45 89 -70 150 -70c99 0 168 79 168 224
c0 140 -82 221 -177 221v55c138 0 236 -109 236 -276c0 -63 -11 -116 -31 -158c38 -43 87 -66 147 -66c99 0 167 79 167 224c0 140 -81 221 -176 221v55c137 0 236 -109 236 -276c0 -182 -91 -279 -226 -279c-73 0 -131 26 -178 73c-40 -48 -97 -73 -165 -73
c-75 0 -135 28 -183 78c-44 -50 -108 -78 -185 -78c-151 0 -252 107 -252 277c0 144 72 243 185 270l-109 106l40 41l67 -67c45 -46 59 -59 67 -72zM116 268c0 -144 79 -222 191 -222c113 0 193 78 193 222c0 145 -80 223 -193 223c-112 0 -191 -78 -191 -223z" />
    <glyph glyph-name="tlNYA" unicode="&#xc1e;" horiz-adv-x="1021" 
d="M687 -51h-56c-6 37 -19 80 -40 120c-56 -48 -127 -78 -204 -78c-132 0 -201 63 -201 143c0 83 74 137 190 137c94 0 168 -47 221 -112c39 51 64 115 64 183c0 93 -46 158 -125 158s-124 -57 -124 -148v-16h-57v15c0 93 -67 149 -137 149c-65 0 -114 -40 -114 -113
c0 -35 10 -64 31 -87l-46 -35c-29 32 -45 75 -45 122c0 103 75 168 172 168c91 0 151 -64 165 -105h4c14 43 52 105 153 105c98 0 163 -67 178 -165h92v166h58v-166h121v-53h-267c-1 -83 -35 -164 -89 -227c31 -52 50 -110 56 -161zM387 45c62 0 123 28 173 74
c-42 55 -103 98 -184 98c-85 0 -131 -32 -131 -83c0 -46 45 -89 142 -89z" />
    <glyph glyph-name="tlTTA" unicode="&#xc1f;" horiz-adv-x="849" 
d="M130 378h-4c-6 -27 -11 -61 -11 -96c0 -141 61 -236 158 -236c79 0 132 57 132 149v25h57v-25c0 -92 50 -149 130 -149c75 0 142 65 142 221c0 130 -59 206 -127 223v62c93 -17 186 -112 186 -286c0 -184 -81 -275 -199 -275c-101 0 -144 62 -158 105h-4
c-14 -43 -60 -105 -162 -105c-133 0 -214 119 -214 291c0 170 89 256 178 271l-6 152h66l-6 -152c74 -11 122 -72 122 -146c0 -88 -61 -143 -143 -143c-99 0 -136 74 -137 114zM262 502c-66 0 -100 -46 -100 -91c0 -46 33 -93 99 -93c54 0 90 36 90 90c0 46 -28 94 -89 94z
" />
    <glyph glyph-name="tlTTHA" unicode="&#xc20;" horiz-adv-x="615" 
d="M56 268c0 144 72 243 185 270l-109 106l40 41l67 -67c45 -46 59 -59 67 -72h4c8 12 22 28 67 73l144 144l41 -41l-187 -184c112 -27 184 -126 184 -270c0 -170 -101 -277 -251 -277c-151 0 -252 107 -252 277zM115 268c0 -144 80 -223 192 -223c113 0 193 79 193 223
c0 145 -80 223 -193 223c-112 0 -192 -78 -192 -223zM308 320c29 0 51 -21 51 -51c0 -27 -22 -50 -51 -50c-27 0 -50 23 -50 50c0 30 23 51 50 51z" />
    <glyph glyph-name="tlDDA" unicode="&#xc21;" horiz-adv-x="810" 
d="M405 546h3c8 12 22 28 68 73l143 144l41 -41l-184 -182c55 -9 104 -30 148 -64l-36 -44c-48 37 -112 59 -181 59c-171 0 -293 -126 -293 -284c0 -101 53 -161 131 -161c80 0 132 57 132 149v25h58v-25c0 -95 59 -158 146 -158c16 0 29 3 41 7l-1 3c-1 -1 -8 -2 -13 -2
c-51 0 -114 43 -114 126c0 73 56 134 137 134c77 0 140 -56 140 -140c0 -114 -88 -174 -188 -174c-107 0 -159 64 -175 105h-3c-15 -44 -62 -105 -163 -105c-113 0 -188 85 -188 216c0 168 119 303 283 333l-106 104l39 41l68 -67c45 -46 58 -59 67 -72zM547 166
c0 -67 54 -98 94 -98c35 0 74 34 74 98c0 50 -36 87 -83 87c-48 0 -85 -35 -85 -87z" />
    <glyph glyph-name="tlDDHA" unicode="&#xc22;" horiz-adv-x="810" 
d="M420 -15l18 -67c7 -30 12 -50 12 -70c0 -25 -16 -44 -43 -44c-29 0 -45 19 -45 44c0 20 5 40 13 70l17 67h28zM405 546h3c8 12 22 28 68 73l143 144l41 -41l-184 -182c55 -9 104 -30 148 -64l-36 -44c-48 37 -112 59 -181 59c-171 0 -293 -126 -293 -284
c0 -101 53 -161 131 -161c80 0 132 57 132 149v25h58v-25c0 -95 59 -158 146 -158c16 0 29 3 41 7l-1 3c-1 -1 -8 -2 -13 -2c-51 0 -114 43 -114 126c0 73 56 134 137 134c77 0 140 -56 140 -140c0 -114 -88 -174 -188 -174c-107 0 -159 64 -175 105h-3
c-15 -44 -62 -105 -163 -105c-113 0 -188 85 -188 216c0 168 119 303 283 333l-106 104l39 41l68 -67c45 -46 58 -59 67 -72zM547 166c0 -67 54 -98 94 -98c35 0 74 34 74 98c0 50 -36 87 -83 87c-48 0 -85 -35 -85 -87z" />
    <glyph glyph-name="tlNNA" unicode="&#xc23;" horiz-adv-x="819" 
d="M707 263c0 150 -62 233 -157 233c-71 0 -114 -50 -121 -129h-58c-8 79 -61 129 -135 129c-76 0 -112 -41 -112 -93c0 -63 46 -100 125 -100h22v-54h-21c-89 0 -131 -43 -131 -104c0 -59 40 -96 116 -96c26 0 53 8 74 21l20 -54c-27 -14 -58 -21 -96 -21
c-106 0 -174 57 -174 149c0 78 53 122 106 131v4c-42 12 -101 44 -101 125c0 85 64 147 169 147c102 0 150 -62 165 -108h4c14 45 51 108 150 108c132 0 210 -108 210 -288c0 -187 -103 -268 -201 -268c-89 0 -145 64 -145 141c0 87 62 143 142 143c98 0 132 -72 133 -111h4
c5 26 12 60 12 95zM562 48c65 0 96 38 96 83c0 47 -26 94 -96 94c-52 0 -87 -37 -87 -90c0 -42 24 -87 87 -87z" />
    <glyph glyph-name="tlTA" unicode="&#xc24;" horiz-adv-x="819" 
d="M765 275c0 -155 -131 -284 -356 -284s-355 129 -355 284c0 94 67 161 157 161c89 0 148 -60 148 -144c0 -83 -61 -140 -139 -140c-35 0 -60 8 -80 26l-3 -3c43 -76 136 -130 272 -130s230 54 272 130l-3 3c-20 -18 -44 -26 -79 -26c-78 0 -140 57 -140 140
c0 84 60 144 149 144c29 0 55 -7 78 -19c-19 47 -73 76 -158 76h-146l-145 143l40 40l67 -67c46 -46 59 -60 67 -72h4c8 11 23 27 68 73l143 144l41 -41l-170 -168h30c137 0 219 -63 219 -182v-8c12 -23 19 -50 19 -80zM112 287c0 -51 31 -90 97 -90c59 0 93 41 93 95
c0 56 -36 92 -92 92c-59 0 -98 -45 -98 -97zM516 292c0 -54 34 -95 94 -95c66 0 96 39 96 90c0 56 -40 97 -98 97c-55 0 -92 -36 -92 -92z" />
    <glyph glyph-name="tlTHA" unicode="&#xc25;" horiz-adv-x="812" 
d="M408 96h-3c-15 -44 -62 -105 -163 -105c-113 0 -188 85 -188 216c0 168 118 303 283 333l-107 104l39 41l69 -67c45 -46 57 -59 67 -72h3c8 12 22 28 68 73l143 144l41 -41l-185 -182c165 -30 283 -165 283 -333c0 -131 -75 -216 -188 -216c-101 0 -147 61 -162 105z
M406 411c29 0 52 -23 52 -52c0 -27 -23 -49 -52 -49c-28 0 -50 22 -50 49c0 29 22 52 50 52zM435 219v-24c0 -92 52 -149 132 -149c78 0 131 60 131 161c0 158 -120 284 -291 284s-293 -126 -293 -284c0 -101 53 -161 131 -161c80 0 132 57 132 149v24h58zM392 -15h28
l17 -67c8 -30 13 -50 13 -70c0 -25 -16 -44 -43 -44c-29 0 -45 19 -45 44c0 20 5 40 12 70z" />
    <glyph glyph-name="tlDA" unicode="&#xc26;" horiz-adv-x="812" 
d="M435 220v-25c0 -92 52 -149 132 -149c78 0 131 60 131 161c0 158 -120 284 -291 284s-293 -126 -293 -284c0 -101 53 -161 131 -161c80 0 132 57 132 149v25h58zM408 96h-3c-15 -44 -62 -105 -163 -105c-113 0 -188 85 -188 216c0 168 118 303 283 333l-107 104l39 41
l69 -67c45 -46 57 -59 67 -72h3c8 12 22 28 68 73l143 144l41 -41l-185 -182c165 -30 283 -165 283 -333c0 -131 -75 -216 -188 -216c-101 0 -147 61 -162 105z" />
    <glyph glyph-name="tlDHA" unicode="&#xc27;" horiz-adv-x="812" 
d="M392 -15h28l17 -67c8 -30 13 -50 13 -70c0 -25 -16 -44 -43 -44c-29 0 -45 19 -45 44c0 20 5 40 12 70zM435 220v-25c0 -92 52 -149 132 -149c78 0 131 60 131 161c0 158 -120 284 -291 284s-293 -126 -293 -284c0 -101 53 -161 131 -161c80 0 132 57 132 149v25h58z
M408 96h-3c-15 -44 -62 -105 -163 -105c-113 0 -188 85 -188 216c0 168 118 303 283 333l-107 104l39 41l69 -67c45 -46 57 -59 67 -72h3c8 12 22 28 68 73l143 144l41 -41l-185 -182c165 -30 283 -165 283 -333c0 -131 -75 -216 -188 -216c-101 0 -147 61 -162 105z" />
    <glyph glyph-name="tlNA" unicode="&#xc28;" horiz-adv-x="751" 
d="M159 17l-46 -32c-33 32 -73 89 -73 175c0 91 63 165 156 165c181 0 184 -280 321 -280c74 0 121 70 121 195c0 148 -89 253 -254 253h-79l-144 142l39 41l67 -67c47 -47 59 -60 68 -73h3c8 11 22 28 68 73l143 144l41 -41l-170 -168c162 -2 275 -132 275 -303
c0 -163 -68 -250 -174 -250c-187 0 -183 278 -325 278c-54 0 -97 -37 -97 -110c0 -65 30 -110 60 -142z" />
    <glyph glyph-name="tlPA" unicode="&#xc2a;" horiz-adv-x="752" 
d="M246 537h4c7 11 22 27 68 73l142 143l41 -41l-222 -219h-63l-144 142l40 41l67 -67c46 -47 58 -60 67 -72zM448 488v58c159 -4 248 -140 248 -301c0 -169 -73 -254 -178 -254c-73 0 -116 43 -150 95c-46 -66 -96 -95 -166 -95c-96 0 -162 70 -162 169
c0 91 62 165 156 165c180 0 188 -280 317 -280c74 0 125 69 125 202c0 116 -57 241 -190 241zM202 44c62 0 109 47 135 96c-37 66 -71 130 -141 130c-54 0 -98 -38 -98 -110c0 -66 42 -116 104 -116z" />
    <glyph glyph-name="tlPHA" unicode="&#xc2b;" horiz-adv-x="752" 
d="M346 -15h27l19 -67c7 -30 12 -50 12 -70c0 -25 -15 -44 -44 -44c-28 0 -44 19 -44 44c0 20 4 40 13 70zM246 537h4c7 11 22 27 68 73l142 143l41 -41l-222 -219h-63l-144 142l40 41l67 -67c46 -47 58 -60 67 -72zM448 488v58c159 -4 248 -140 248 -301
c0 -169 -73 -254 -178 -254c-73 0 -116 43 -150 95c-46 -66 -96 -95 -166 -95c-96 0 -162 70 -162 169c0 91 62 165 156 165c180 0 188 -280 317 -280c74 0 125 69 125 202c0 116 -57 241 -190 241zM202 44c62 0 109 47 135 96c-37 66 -71 130 -141 130
c-54 0 -98 -38 -98 -110c0 -66 42 -116 104 -116z" />
    <glyph glyph-name="tlBA" unicode="&#xc2c;" horiz-adv-x="799" 
d="M684 246c0 124 -65 242 -207 242v58c121 0 266 -90 266 -291c0 -179 -89 -264 -199 -264c-95 0 -149 63 -163 105h-4c-14 -43 -60 -105 -163 -105s-163 61 -163 142c0 155 237 170 237 289c0 42 -28 79 -81 79c-48 0 -78 -35 -78 -76c0 -13 3 -35 11 -52h-59
c-7 18 -10 37 -10 54c0 73 56 129 136 129c91 0 140 -65 140 -134c0 -155 -236 -163 -236 -288c0 -55 42 -88 106 -88c80 0 133 57 133 148v26h58v-25c0 -94 60 -149 134 -149s142 68 142 200z" />
    <glyph glyph-name="tlBHA" unicode="&#xc2d;" horiz-adv-x="799" 
d="M423 -152c0 -25 -16 -44 -44 -44c-29 0 -45 19 -45 44c0 20 6 40 14 70l17 67h28l17 -67c8 -30 13 -50 13 -70zM684 246c0 124 -65 242 -206 242h-8l-144 142l40 41l67 -67c45 -47 58 -60 67 -72h4c7 11 22 27 67 73l143 143l41 -40l-183 -181c91 -36 171 -123 171 -272
c0 -179 -89 -264 -199 -264c-95 0 -149 63 -163 105h-4c-14 -43 -60 -105 -163 -105s-163 61 -163 142c0 155 237 170 237 289c0 42 -28 79 -81 79c-48 0 -78 -35 -78 -76c0 -13 3 -35 11 -52h-59c-7 18 -10 37 -10 54c0 73 56 129 136 129c91 0 140 -65 140 -134
c0 -155 -236 -163 -236 -288c0 -55 42 -88 106 -88c80 0 133 57 133 148v26h58v-25c0 -94 60 -149 134 -149s142 68 142 200z" />
    <glyph glyph-name="tlMA" unicode="&#xc2e;" horiz-adv-x="1094" 
d="M336 536h3c8 11 21 28 67 73l144 144l41 -41l-173 -171c179 -24 277 -159 277 -314c0 -49 -8 -91 -21 -125c36 -36 82 -56 137 -56c99 0 168 79 168 224c0 140 -82 221 -177 221v55c138 0 236 -109 236 -276c0 -182 -91 -279 -226 -279c-66 0 -121 22 -165 62
c-31 -41 -75 -62 -125 -62c-76 0 -120 43 -154 95c-46 -66 -96 -95 -166 -95c-96 0 -162 70 -162 169c0 91 62 165 156 165c183 0 183 -280 322 -280c69 0 120 64 120 185c0 123 -79 263 -273 263h-59l-145 142l39 41l68 -67c46 -47 58 -60 68 -73zM202 44
c62 0 109 47 135 96c-37 66 -71 130 -141 130c-54 0 -98 -38 -98 -110c0 -66 42 -116 104 -116z" />
    <glyph glyph-name="tlYA" unicode="&#xc2f;" horiz-adv-x="1301" 
d="M56 268c0 171 101 278 252 278c150 0 251 -107 251 -278c0 -59 -12 -110 -34 -152c38 -45 89 -70 150 -70c99 0 168 79 168 224c0 140 -82 223 -178 223h-37l-145 142l40 41l67 -67c46 -47 58 -60 67 -72h4c8 11 22 27 68 73l143 143l40 -41l-179 -177
c102 -29 169 -128 169 -265c0 -63 -11 -116 -31 -158c38 -43 87 -66 147 -66c99 0 167 79 167 224c0 140 -81 221 -176 221v55c137 0 236 -109 236 -276c0 -182 -91 -279 -226 -279c-73 0 -131 26 -178 73c-40 -48 -97 -73 -165 -73c-75 0 -135 28 -183 78
c-44 -50 -108 -78 -185 -78c-151 0 -252 107 -252 277zM116 268c0 -144 79 -222 191 -222c113 0 193 78 193 222c0 145 -80 223 -193 223c-112 0 -191 -78 -191 -223z" />
    <glyph glyph-name="tlRA" unicode="&#xc30;" horiz-adv-x="615" 
d="M56 268c0 144 72 243 185 270l-109 106l40 41l67 -67c45 -46 59 -59 67 -72h4c8 12 22 28 67 73l144 144l41 -41l-187 -184c112 -27 184 -126 184 -270c0 -170 -101 -277 -251 -277c-151 0 -252 107 -252 277zM116 268c0 -144 79 -222 191 -222c113 0 193 78 193 222
c0 145 -80 223 -193 223c-112 0 -191 -78 -191 -223z" />
    <glyph glyph-name="tlLA" unicode="&#xc32;" horiz-adv-x="766" 
d="M710 295c0 -174 -131 -304 -326 -304c-203 0 -328 148 -328 315c0 140 91 249 205 249c90 0 149 -66 149 -148c0 -90 -63 -145 -144 -145c-99 0 -137 79 -138 117h-4c-6 -27 -10 -37 -10 -73c0 -129 103 -260 270 -260c156 0 266 104 266 249c0 139 -71 204 -137 211v56
c108 -8 197 -106 197 -267zM161 410c0 -45 34 -94 100 -94c55 0 90 37 90 92c0 46 -28 94 -90 94c-65 0 -100 -47 -100 -92z" />
    <glyph glyph-name="tlVA" unicode="&#xc35;" horiz-adv-x="751" 
d="M336 536h3c8 11 21 28 67 73l144 144l41 -41l-173 -171c179 -24 277 -159 277 -314c0 -154 -74 -236 -173 -236c-76 0 -120 43 -154 95c-46 -66 -96 -95 -166 -95c-96 0 -162 70 -162 169c0 91 62 165 156 165c183 0 183 -280 322 -280c69 0 120 64 120 185
c0 123 -79 263 -273 263h-59l-145 142l39 41l68 -67c46 -47 58 -60 68 -73zM202 44c62 0 109 47 135 96c-37 66 -71 130 -141 130c-54 0 -98 -38 -98 -110c0 -66 42 -116 104 -116z" />
    <glyph glyph-name="tlSHA" unicode="&#xc36;" horiz-adv-x="553" 
d="M129 165l-51 -20c-12 17 -24 49 -24 88c0 82 66 167 193 167c45 0 89 -13 128 -35c13 18 21 38 21 60c0 37 -27 68 -94 68h-61l-145 143l39 40l68 -67c45 -46 58 -60 67 -72h4c8 11 22 27 67 73l144 144l41 -41l-178 -175c44 -5 106 -37 106 -113c0 -36 -14 -66 -35 -94
c49 -44 80 -107 80 -178c0 -96 -64 -162 -157 -162c-96 0 -144 67 -144 136c0 86 82 140 141 197c-28 14 -60 22 -92 22c-100 0 -135 -63 -135 -113c0 -32 8 -53 17 -68zM342 44c53 0 100 36 100 109c0 57 -23 105 -59 139c-56 -56 -127 -102 -127 -165c0 -46 29 -83 86 -83
z" />
    <glyph glyph-name="tlSSA" unicode="&#xc37;" horiz-adv-x="751" 
d="M246 537h4c7 11 21 27 67 73l143 143l41 -41l-222 -219h-63l-144 142l40 41l67 -67c45 -47 58 -60 67 -72zM448 488v58c158 -4 247 -139 247 -301c0 -48 -6 -90 -17 -124l1 1c-15 -45 -25 -86 -25 -135c0 -47 12 -82 45 -114l-48 -27c-30 33 -47 70 -47 116
c0 22 6 44 15 64c-28 -23 -62 -35 -101 -35c-73 0 -116 43 -150 95c-46 -66 -96 -95 -166 -95c-96 0 -162 70 -162 169c0 91 62 165 156 165c180 0 188 -280 317 -280c74 0 125 69 125 202c0 116 -57 241 -190 241zM202 44c62 0 109 47 135 96c-37 66 -71 130 -141 130
c-54 0 -98 -38 -98 -110c0 -66 42 -116 104 -116z" />
    <glyph glyph-name="tlSA" unicode="&#xc38;" horiz-adv-x="752" 
d="M246 537h4c7 11 22 27 68 73l142 143l41 -41l-222 -219h-63l-144 142l40 41l67 -67c46 -47 58 -60 67 -72zM99 159c0 -65 30 -110 60 -142l-45 -32c-36 31 -74 89 -74 175c0 91 63 165 156 165c181 0 189 -280 317 -280c74 0 125 69 125 202c0 116 -57 241 -190 241v58
c158 -4 248 -139 248 -301c0 -168 -73 -254 -178 -254c-186 0 -176 278 -322 278c-54 0 -97 -37 -97 -110z" />
    <glyph glyph-name="tlHA" unicode="&#xc39;" horiz-adv-x="1060" 
d="M246 537h4c7 11 22 27 68 73l142 143l41 -41l-222 -219h-63l-144 142l40 41l67 -67c46 -47 58 -60 67 -72zM797 407c0 -54 33 -91 94 -91c49 0 84 37 84 92c0 57 -45 86 -92 86c-51 0 -86 -37 -86 -87zM448 492v54h426c96 0 156 -53 156 -138c0 -89 -67 -144 -139 -144
c-100 0 -149 69 -149 138c0 59 34 88 48 91h-203c74 -57 109 -161 109 -266c0 -154 -75 -236 -174 -236c-76 0 -119 43 -154 95c-45 -66 -96 -95 -166 -95c-96 0 -162 70 -162 169c0 91 62 165 156 165c183 0 184 -280 323 -280c68 0 119 64 119 185c0 109 -52 262 -190 262
zM202 44c62 0 109 47 135 96c-37 66 -71 130 -141 130c-54 0 -97 -38 -97 -110c0 -66 41 -116 103 -116z" />
    <glyph glyph-name="tlRRA" unicode="&#xc31;" horiz-adv-x="871" 
d="M520 304v5c-23 13 -50 50 -50 100c0 86 57 142 146 142c99 0 199 -82 199 -269c0 -173 -83 -287 -215 -287c-102 0 -148 62 -162 106h-4c-15 -44 -61 -106 -163 -106c-133 0 -215 115 -215 286c0 187 108 270 206 270c89 0 147 -67 147 -148c0 -88 -62 -144 -144 -144
c-99 0 -134 75 -135 114h-4c-6 -23 -11 -56 -11 -92c0 -141 61 -231 158 -231c80 0 133 58 133 149v16h58v-15c0 -92 54 -150 133 -150c98 0 159 89 159 231c0 161 -78 216 -140 216c-61 0 -90 -43 -90 -92c0 -60 37 -97 98 -101h18v-49h-231v49h109zM262 497
c-66 0 -100 -45 -100 -91c0 -45 33 -93 98 -93c55 0 90 36 90 92c0 45 -27 92 -88 92z" />
    <glyph glyph-name="tlRRRA" unicode="&#xc5a;" horiz-adv-x="812" 
d="M407 491c-134 0 -239 -78 -277 -188h552c-38 110 -141 188 -275 188zM377 190h58c2 -89 54 -144 132 -144s131 60 131 161c0 15 -1 30 -3 45h-578c-2 -15 -3 -30 -3 -45c0 -101 53 -161 131 -161s130 55 132 144zM408 96h-3c-15 -44 -62 -105 -163 -105
c-113 0 -188 85 -188 216c0 191 152 339 353 339c199 0 351 -148 351 -339c0 -131 -75 -216 -188 -216c-101 0 -147 61 -162 105z" />
    <glyph glyph-name="tlLLA" unicode="&#xc33;" horiz-adv-x="643" 
d="M206 312l-2 -4c52 -19 102 -33 146 -46c87 32 179 62 179 155c0 44 -30 69 -70 76h-1l-145 142l39 41l68 -67c45 -47 58 -60 67 -72h4c8 11 22 27 67 73l144 143l41 -41l-202 -198c24 -18 46 -46 46 -97c0 -108 -82 -149 -165 -180c66 -26 107 -58 107 -120
c0 -67 -57 -126 -169 -126s-169 60 -169 126c0 56 35 89 82 113c-112 31 -229 72 -229 193c0 72 58 128 139 128c83 0 136 -60 136 -128c0 -72 -59 -111 -113 -111zM360 44c70 0 109 30 109 73c0 48 -54 72 -123 92c-54 -20 -96 -45 -96 -92c0 -43 41 -73 110 -73zM102 422
c0 -53 38 -80 78 -80c42 0 84 29 84 79c0 46 -28 78 -80 78s-82 -34 -82 -77z" />
    <glyph glyph-name="tlLLLA" unicode="&#xc34;" horiz-adv-x="871" 
d="M262 497c-66 0 -100 -45 -100 -91c0 -45 33 -93 98 -93c55 0 90 36 90 92c0 45 -27 92 -88 92zM438 101h-4c-15 -44 -61 -106 -163 -106c-133 0 -215 115 -215 286c0 187 108 270 206 270c89 0 147 -67 147 -148c0 -88 -62 -144 -144 -144c-99 0 -134 75 -135 114h-4
c-6 -23 -11 -56 -11 -92c0 -141 61 -231 158 -231c80 0 133 58 133 149v17h58v-17c0 -91 53 -149 133 -149c98 0 159 90 159 231c0 36 -6 69 -11 92h-4c-1 -39 -37 -114 -135 -114c-82 0 -145 56 -145 144c0 81 59 148 148 148c98 0 206 -83 206 -270
c0 -171 -83 -286 -216 -286c-101 0 -147 62 -161 106zM610 497c-63 0 -90 -47 -90 -92c0 -56 36 -92 91 -92c65 0 98 48 98 93c0 46 -34 91 -99 91z" />
    <glyph glyph-name="tlTSA" unicode="&#xc58;" horiz-adv-x="791" 
d="M44 780h325c-14 4 -49 32 -49 93c0 68 49 138 148 138c73 0 141 -56 141 -146c0 -84 -60 -137 -158 -137h-407v52zM375 866c0 -50 36 -86 86 -86c48 0 91 30 91 85s-35 93 -84 93c-59 0 -93 -38 -93 -92zM135 281v3h-91v55h230v-55h-6c-89 0 -132 -63 -132 -126
c0 -67 49 -112 114 -112c71 0 123 55 123 150v24h57v-26c0 -91 55 -148 126 -148s121 59 121 183c0 148 -97 264 -247 264h-66l-144 142l40 41l67 -67c46 -47 59 -60 67 -72h4c9 11 23 27 68 73l144 143l39 -41l-169 -169c144 -13 255 -146 255 -311
c0 -163 -73 -241 -179 -241c-91 0 -138 61 -152 105h-4c-15 -42 -61 -105 -152 -105c-96 0 -171 69 -171 165c0 70 41 112 58 125z" />
    <glyph glyph-name="tlDZA" unicode="&#xc59;" horiz-adv-x="752" 
d="M51 133c0 155 237 170 237 289c0 42 -28 79 -81 79c-48 0 -78 -35 -78 -76c0 -13 3 -35 11 -52h-59c-7 18 -10 37 -10 54c0 73 56 129 136 129h1c6 0 12 0 18 -1c2 0 3 0 4 -1h3h1c10 -2 19 -4 28 -7c92 -33 144 -139 276 -139c43 0 77 21 77 78c0 16 -6 39 -19 54l54 21
c11 -16 23 -48 23 -76c0 -87 -63 -130 -130 -130c-80 0 -151 50 -198 92c1 -8 2 -16 2 -25c0 -155 -236 -163 -236 -288c0 -55 42 -88 106 -88c80 0 133 57 133 148v26h58v-25c0 -94 53 -149 123 -149c65 0 106 39 106 113c0 54 -31 92 -73 119l35 42c61 -30 97 -89 97 -161
c0 -104 -66 -168 -162 -168c-92 0 -139 63 -153 105h-4c-14 -43 -60 -105 -163 -105s-163 61 -163 142zM52 673h382c-14 4 -49 32 -49 93c0 68 49 138 148 138c73 0 141 -56 141 -146c0 -84 -60 -137 -158 -137h-464v52zM440 759c0 -50 36 -86 86 -86c48 0 91 30 91 85
s-35 93 -84 93c-59 0 -93 -38 -93 -92z" />
    <glyph glyph-name="tlAnusvara" unicode="&#xc02;" horiz-adv-x="615" 
d="M56 273c0 170 101 283 252 283c150 0 251 -113 251 -283s-101 -282 -251 -282c-151 0 -252 112 -252 282zM116 273c0 -144 79 -227 191 -227c113 0 193 83 193 227c0 145 -80 228 -193 228c-112 0 -191 -83 -191 -228z" />
    <glyph glyph-name="tlArasunna" unicode="&#xc01;" horiz-adv-x="346" 
d="M290 46v-55c-142 0 -234 116 -234 282c0 167 92 283 234 283v-55c-102 0 -174 -87 -174 -228s72 -227 174 -227z" />
    <glyph glyph-name="tlCandrabindu" unicode="&#xc00;" 
d="M-75 821c-30 -58 -86 -108 -185 -108c-100 0 -157 50 -187 108l46 26c25 -44 71 -79 141 -79c69 0 115 35 140 79zM-217 922c0 -24 -19 -42 -45 -42c-24 0 -43 18 -43 42c0 26 19 45 43 45c26 0 45 -19 45 -45z" />
    <glyph glyph-name="tlVisarga" unicode="&#xc03;" horiz-adv-x="373" 
d="M187 556c76 0 131 -53 131 -129c0 -75 -55 -128 -131 -128s-131 53 -131 128c0 76 55 129 131 129zM187 349c45 0 76 34 76 78c0 45 -31 78 -76 78s-76 -33 -76 -78c0 -44 31 -78 76 -78zM187 247c76 0 131 -53 131 -128c0 -76 -55 -128 -131 -128s-131 52 -131 128
c0 75 55 128 131 128zM187 41c45 0 76 33 76 78c0 44 -31 78 -76 78s-76 -34 -76 -78c0 -45 31 -78 76 -78z" />
    <glyph glyph-name="tlAvagraha" unicode="&#xc3d;" horiz-adv-x="620" 
d="M620 0h-402c-103 0 -162 57 -162 138c0 155 245 165 245 284c0 42 -27 79 -80 79c-48 0 -78 -35 -78 -76c0 -13 4 -35 11 -52h-59c-7 18 -11 37 -11 54c0 73 58 129 137 129c92 0 140 -65 140 -134c0 -155 -245 -165 -245 -283c0 -56 41 -84 105 -84h399v-55z" />
    <glyph glyph-name="tlVirama" unicode="&#xc4d;" 
d="M-376 674v4c-24 4 -53 31 -53 73c0 61 46 96 112 96h323v-52h-323c-33 0 -55 -17 -55 -47c0 -31 23 -48 56 -48h168v-52h-168c-37 0 -56 -18 -56 -46c0 -30 23 -47 56 -47h63v-52h-63c-66 0 -113 35 -113 96c0 41 29 66 53 75z" />
    <glyph glyph-name="tlZero" unicode="&#xc66;" horiz-adv-x="573" 
d="M286 46c104 0 182 86 182 227c0 140 -78 228 -182 228c-103 0 -181 -88 -181 -228c0 -141 78 -227 181 -227zM287 -9c-142 0 -241 116 -241 282s99 283 241 283s240 -117 240 -283s-98 -282 -240 -282z" />
    <glyph glyph-name="tlOne" unicode="&#xc67;" horiz-adv-x="555" 
d="M494 254c0 -124 -37 -220 -73 -266l-52 25c38 57 67 135 67 240c0 137 -67 238 -170 238s-169 -101 -169 -238c0 -105 28 -183 65 -240l-51 -25c-36 46 -74 142 -74 265c0 165 82 293 230 293c146 0 227 -128 227 -292z" />
    <glyph glyph-name="tlTwo" unicode="&#xc68;" horiz-adv-x="680" 
d="M0 55h287c194 0 290 108 290 244c0 55 -15 99 -38 132c3 -9 4 -18 4 -25c0 -65 -39 -157 -147 -157c-112 0 -164 77 -164 149c0 83 63 158 171 158c128 0 231 -100 231 -256c0 -162 -102 -300 -346 -300h-288v55zM398 303c67 0 108 54 108 128c0 17 -2 29 -4 39
c-30 21 -65 32 -99 32c-72 0 -111 -47 -111 -104c0 -53 37 -95 106 -95z" />
    <glyph glyph-name="tlThree" unicode="&#xc69;" horiz-adv-x="490" 
d="M353 281v-5c69 -10 116 -59 116 -127c0 -81 -61 -158 -205 -158c-94 0 -182 51 -206 130l58 16c23 -63 88 -93 150 -93c107 0 143 54 143 105c0 59 -59 98 -149 99h-28v54h27c89 0 131 44 131 100c0 51 -39 91 -123 91c-61 0 -118 -28 -140 -92l-57 14
c22 81 101 131 196 131c121 0 184 -64 184 -144c0 -63 -39 -105 -97 -121z" />
    <glyph glyph-name="tlFour" unicode="&#xc6a;" horiz-adv-x="578" 
d="M75 125c0 74 60 108 135 133c-87 30 -163 75 -163 176c0 37 18 89 72 126l43 -37c-51 -33 -56 -68 -56 -90c0 -92 94 -122 192 -150c98 28 192 58 192 150c0 22 -3 56 -54 90l42 37c54 -37 72 -89 72 -126c0 -101 -76 -146 -163 -176c74 -25 135 -59 135 -133
c0 -68 -89 -134 -223 -134c-135 0 -224 66 -224 134zM299 44c91 0 164 36 164 81c0 61 -77 83 -164 107c-88 -24 -165 -46 -165 -107c0 -45 73 -81 165 -81z" />
    <glyph glyph-name="tlFive" unicode="&#xc6b;" horiz-adv-x="632" 
d="M456 546c82 0 138 -61 138 -126c0 -116 -86 -158 -183 -192c57 -90 151 -155 200 -171v-64c-101 39 -196 123 -253 217c-109 -36 -215 -76 -215 -210h-59c0 122 65 181 146 220c-24 135 -86 237 -165 262v65c82 -14 179 -109 217 -306c17 7 34 12 50 18
c-17 40 -27 80 -27 119c0 101 69 168 151 168zM364 377c0 -35 8 -69 21 -100c83 29 150 62 150 143c0 45 -35 71 -80 71c-48 0 -91 -42 -91 -114z" />
    <glyph glyph-name="tlSix" unicode="&#xc6c;" horiz-adv-x="442" 
d="M124 271v4c-53 26 -78 70 -78 122c0 82 63 149 169 149h38v-53h-38c-68 0 -111 -35 -111 -97c0 -61 43 -96 111 -96h139v-53h-140c-69 0 -110 -37 -110 -97c0 -62 44 -97 112 -97h255v-53h-258c-105 0 -168 67 -168 148c0 51 22 96 79 123z" />
    <glyph glyph-name="tlSeven" unicode="&#xc6d;" horiz-adv-x="510" 
d="M84 444l-25 51c49 29 124 51 208 51c139 0 214 -67 214 -153c0 -206 -355 -94 -355 -249c0 -52 48 -98 147 -98c52 0 108 11 153 40l28 -47c-38 -28 -115 -48 -181 -48c-132 0 -207 73 -207 153c0 221 355 102 355 249c0 54 -48 98 -154 98c-71 0 -134 -21 -183 -47z" />
    <glyph glyph-name="tlEight" unicode="&#xc6e;" horiz-adv-x="585" 
d="M37 289c0 124 47 212 91 257l43 -33c-49 -67 -74 -118 -74 -224c0 -135 66 -246 169 -246s169 110 169 246c0 106 -31 160 -72 217l39 40l2 -2h171v-55h-130c28 -49 49 -117 49 -200c0 -163 -81 -301 -227 -301c-149 0 -230 139 -230 301z" />
    <glyph glyph-name="tlNine" unicode="&#xc6f;" horiz-adv-x="442" 
d="M124 270v4c-57 28 -79 72 -79 123c0 82 63 149 168 149h258v-54h-255c-68 0 -112 -34 -112 -96c0 -59 41 -96 110 -96h140v-53h-139c-68 0 -111 -35 -111 -98c0 -61 43 -96 111 -96h38v-53h-38c-106 0 -169 67 -169 149c0 52 25 96 78 121z" />
    <glyph glyph-name="tlZeroforodd" unicode="&#xc78;" horiz-adv-x="519" 
d="M92 386c0 99 76 170 174 170c97 0 174 -71 174 -170c0 -53 -22 -98 -57 -129c48 -20 82 -63 82 -119c0 -99 -77 -149 -175 -149h-42v56h42c67 0 115 26 115 93c0 51 -41 79 -101 79h-10c-9 -1 -19 -2 -28 -2c-98 0 -174 71 -174 171zM150 386c0 -67 49 -116 116 -116
c66 0 115 49 115 116s-49 115 -115 115c-67 0 -116 -48 -116 -115z" />
    <glyph glyph-name="tlOneforodd" unicode="&#xc79;" horiz-adv-x="248" 
d="M157 0h-59v546h59v-546z" />
    <glyph glyph-name="tlTwoforodd" unicode="&#xc7a;" horiz-adv-x="471" 
d="M321 546h60v-546h-60v266h-4c-10 -23 -41 -49 -109 -49c-80 0 -136 54 -136 149v180h60v-179c0 -60 23 -97 93 -97c54 0 96 33 96 97v179z" />
    <glyph glyph-name="tlThreeforodd" unicode="&#xc7b;" horiz-adv-x="737" 
d="M336 367v179h60v-179c0 -60 19 -97 89 -97c54 0 91 33 91 97v179h60v-546h-60v266h-3c-11 -23 -37 -49 -105 -49c-55 0 -97 26 -118 73c-8 -30 -39 -73 -121 -73c-80 0 -132 54 -132 149v180h59v-179c0 -60 20 -97 90 -97c54 0 90 33 90 97z" />
    <glyph glyph-name="tlOneforeven" unicode="&#xc7c;" horiz-adv-x="668" 
d="M43 247v53h573v-53h-573z" />
    <glyph glyph-name="tlTwoforeven" unicode="&#xc7d;" horiz-adv-x="661" 
d="M88 474v54h139c89 0 144 -51 144 -123c0 -152 -250 -153 -250 -269c0 -48 32 -81 112 -81h453v-55h-454c-121 0 -170 61 -170 134c0 156 250 160 250 270c0 49 -31 70 -92 70h-132z" />
    <glyph glyph-name="tlThreeforeven" unicode="&#xc7e;" horiz-adv-x="656" 
d="M310 223c0 62 -228 -11 -228 115c0 121 231 62 231 119c0 28 -22 34 -81 34h-152v55h158c89 0 134 -26 134 -87c0 -119 -230 -58 -230 -119c0 -58 228 3 228 -117c0 -128 -241 -60 -241 -124c0 -34 22 -45 102 -45h356v-54h-356c-121 0 -161 32 -161 97
c0 125 240 59 240 126z" />
    <glyph glyph-name="tlTuumu" unicode="&#xc7f;" horiz-adv-x="777" 
d="M648 266l52 -27c-45 -107 -144 -248 -363 -248c-176 0 -286 128 -286 292c0 108 79 191 172 191c85 0 145 -58 145 -137c0 -80 -62 -137 -136 -137c-86 0 -120 66 -119 99h-5c-1 -5 -1 -11 -1 -18c1 -138 89 -236 231 -236c168 0 260 101 310 221zM223 420
c-57 0 -91 -40 -91 -83c0 -41 26 -83 92 -83c56 0 85 34 85 83c0 46 -35 83 -86 83z" />
    <glyph glyph-name="uni0964" unicode="&#x964;" horiz-adv-x="440" 
d="M251 0h-61v603h61v-603z" />
    <glyph glyph-name="uni0965" unicode="&#x965;" horiz-adv-x="695" 
d="M251 0h-61v603h61v-603zM506 0h-62v603h62v-603z" />
    <glyph glyph-name="uni20B9" unicode="&#x20b9;" horiz-adv-x="442" 
d="M330 7v-7h-69l-179 226l-49 55l16 49c105 -24 193 8 200 108h-210v53h205c-16 48 -60 71 -106 71h-99v53h394l-24 -53h-154v-4c17 -11 37 -32 46 -67h132l-24 -53h-102c-5 -112 -104 -168 -197 -162l-1 -3c25 -26 49 -57 72 -84z" />
    <glyph glyph-name="uni200C" unicode="&#x200c;" 
d="M-23 -230v1041h47v-1041h-47z" />
    <glyph glyph-name="uni200D" unicode="&#x200d;" 
d="M96 560l-72 75v-865h-47v865l-69 -73l-33 33l93 93l-95 95l33 33l95 -95l96 95l32 -32l-96 -96l96 -95z" />
    <glyph glyph-name="uni25CC" unicode="&#x25cc;" horiz-adv-x="660" 
d="M139 517c0 25 18 44 44 44s44 -19 44 -44c0 -26 -18 -45 -44 -45s-44 19 -44 45zM57 407c0 25 20 44 46 44c24 0 44 -19 44 -44s-20 -44 -44 -44c-26 0 -46 19 -46 44zM44 281c0 26 19 45 44 45c26 0 44 -19 44 -45c0 -25 -18 -43 -44 -43c-25 0 -44 18 -44 43zM96 165
c0 25 18 44 44 44c25 0 44 -19 44 -44c0 -26 -19 -44 -44 -44c-26 0 -44 18 -44 44zM197 90c0 24 19 44 45 44c25 0 44 -20 44 -44c0 -26 -19 -46 -44 -46c-26 0 -45 20 -45 46zM324 74c0 26 18 44 44 44s45 -18 45 -44s-19 -44 -45 -44s-44 18 -44 44zM445 127
c0 25 19 44 44 44s45 -19 45 -44c0 -26 -20 -44 -45 -44s-44 18 -44 44zM518 225c0 26 19 45 45 45c24 0 43 -19 43 -45c0 -25 -19 -44 -43 -44c-26 0 -45 19 -45 44zM528 359c0 26 18 44 44 44c25 0 44 -18 44 -44s-19 -44 -44 -44c-26 0 -44 18 -44 44zM478 477
c0 26 19 45 44 45c26 0 44 -19 44 -45c0 -25 -18 -44 -44 -44c-25 0 -44 19 -44 44zM383 545c0 26 19 45 45 45c25 0 43 -19 43 -45c0 -24 -18 -44 -43 -44c-26 0 -45 20 -45 44zM257 560c0 26 18 44 44 44s44 -18 44 -44s-18 -44 -44 -44s-44 18 -44 44z" />
    <glyph glyph-name="ITF" horiz-adv-x="1717" 
d="M98 0v701h217v-701h-217zM359 496v205h217v-205h-217zM620 0v701h217v-701h-217zM881 496v205h217v-205h-217zM1142 0v701h216v-701h-216zM1403 496v205h216v-205h-216zM1403 248v204h216v-204h-216z" />
    <glyph glyph-name="tlReph" horiz-adv-x="542" 
d="M146 266v7c-25 4 -91 38 -91 122c0 80 61 145 154 145h333v-53h-333c-50 0 -96 -35 -96 -95c0 -63 54 -96 102 -96h137v-53h-137c-48 0 -102 -33 -102 -97c0 -60 46 -95 96 -95h64v-53h-64c-93 0 -154 65 -154 146c0 84 66 117 91 122z" />
    <glyph glyph-name="tlKAc2" horiz-adv-x="308" 
d="M332 -240c0 -103 -72 -193 -205 -193c-106 0 -209 74 -209 209c0 190 206 314 206 506c0 85 -31 153 -87 209l40 36c67 -66 104 -150 104 -247c0 -213 -208 -334 -208 -504c0 -96 67 -157 154 -157c100 0 150 63 150 143c0 78 -48 135 -130 142v48h209v-51h-105
c28 -8 81 -50 81 -141z" />
    <glyph glyph-name="tlKHAc2" 
d="M-67 -214c30 0 54 9 70 17c-11 53 -44 85 -89 85c-25 0 -52 -16 -52 -47c0 -32 27 -55 71 -55zM-153 -451c-88 0 -125 53 -125 99c0 45 37 89 106 89c60 0 106 -38 151 -74c19 27 29 59 29 94v4c-19 -9 -47 -17 -75 -17c-81 0 -119 50 -119 99c0 47 36 89 100 89
c87 0 142 -71 142 -174c0 -45 -14 -88 -40 -123c31 -22 63 -38 102 -38c60 0 111 43 111 138c0 100 -67 142 -129 142v49c81 0 179 -56 179 -191c0 -129 -81 -186 -161 -186c-53 0 -96 23 -133 51c-36 -31 -83 -51 -138 -51zM-154 -406c39 0 74 13 101 35
c-40 33 -77 64 -119 64c-27 0 -55 -14 -55 -47c0 -22 13 -52 73 -52zM-2 -440l8 -28c12 -38 14 -48 14 -59c0 -19 -11 -33 -35 -33c-21 0 -34 14 -34 33c0 13 4 24 14 58l9 29h24z" />
    <glyph glyph-name="tlGAc2" 
d="M157 -272c0 -82 -28 -147 -52 -180l-43 20c26 40 43 91 43 160c0 89 -41 154 -106 154s-106 -66 -106 -154c0 -69 18 -120 43 -160l-42 -20c-24 34 -51 98 -51 180c0 110 55 198 156 198c102 0 158 -88 158 -198z" />
    <glyph glyph-name="tlGHAc2" 
d="M-69 -120v46c83 0 170 -62 170 -198c0 -39 -5 -71 -14 -97c22 -21 53 -35 86 -35c59 0 112 48 112 141c0 95 -63 152 -128 152v43c102 0 179 -80 179 -197c0 -116 -78 -185 -162 -185c-45 0 -81 17 -108 40c-21 -27 -50 -40 -86 -40c-45 0 -71 29 -92 59
c-31 -39 -66 -59 -112 -59c-67 0 -111 50 -111 116c0 63 43 115 107 115c114 0 135 -185 209 -185c45 0 70 45 70 132c0 102 -56 152 -120 152zM-139 -347c-30 49 -47 82 -89 82c-32 0 -58 -23 -58 -69c0 -41 26 -72 62 -72s67 28 85 59zM-102 -436l9 -29
c11 -37 14 -47 14 -59c0 -18 -12 -33 -36 -33c-21 0 -33 15 -33 33c0 14 4 25 14 59l9 29h23z" />
    <glyph glyph-name="tlNGAc2" 
d="M132 -266l32 34c33 -25 54 -61 54 -102c0 -70 -46 -116 -113 -116c-57 0 -88 34 -102 63c-16 -27 -50 -63 -108 -63c-71 0 -113 44 -113 100c0 104 156 116 156 190c0 25 -16 49 -48 49c-28 0 -45 -23 -45 -46c0 -8 3 -23 10 -40h-51c-6 15 -8 28 -8 40c0 51 40 89 94 89
c64 0 97 -44 97 -92v-1h70v93h49v-93h103v-42h-233c-35 -63 -143 -80 -143 -147c0 -34 26 -55 63 -55c49 0 82 37 82 94v21h50v-20c0 -59 32 -94 76 -94c37 0 63 24 63 70c0 29 -13 51 -35 68z" />
    <glyph glyph-name="tlCAc2" horiz-adv-x="228" 
d="M1 502l51 20c60 -151 142 -403 142 -687c0 -236 -69 -285 -147 -285c-61 0 -90 33 -105 62c-14 -27 -55 -62 -108 -62c-65 0 -120 46 -120 115c0 34 19 63 48 80h-68v44h157v-44c-68 0 -86 -45 -86 -79c0 -46 31 -70 70 -70c44 0 85 35 85 94v21h48v-22
c0 -61 27 -93 77 -93c49 0 97 34 97 240c0 262 -81 521 -141 666z" />
    <glyph glyph-name="tlCHAc2" horiz-adv-x="228" 
d="M-306 -211h157v-44c-68 0 -86 -45 -86 -79c0 -46 31 -70 70 -70c44 0 85 35 85 94v21h48v-22c0 -61 27 -93 77 -93c49 0 97 34 97 240c0 262 -81 521 -141 666l51 20c60 -151 142 -403 142 -687c0 -236 -69 -285 -147 -285c-61 0 -90 33 -105 62
c-14 -27 -55 -62 -108 -62c-65 0 -120 46 -120 115c0 34 19 63 48 80h-68v44zM-46 -437l9 -29c11 -37 13 -47 13 -59c0 -18 -11 -33 -35 -33c-21 0 -34 15 -34 33c0 14 5 25 15 59l8 29h24z" />
    <glyph glyph-name="tlJAc2" 
d="M140 -81l45 18c7 -12 18 -35 18 -56c0 -59 -44 -88 -91 -88c-54 0 -85 19 -125 53v-6c0 -101 -154 -110 -154 -190c0 -34 26 -55 63 -55c49 0 82 37 82 94v21h50v-20c0 -59 32 -94 76 -94c37 0 63 24 63 70c0 29 -13 52 -36 69l33 33c33 -25 54 -61 54 -102
c0 -70 -46 -116 -113 -116c-57 0 -88 34 -102 63c-16 -27 -50 -63 -108 -63c-71 0 -113 44 -113 100c0 104 156 116 156 190c0 25 -16 49 -48 49c-28 0 -46 -23 -46 -46c0 -8 3 -23 11 -40h-52c-6 15 -8 28 -8 40c0 51 41 89 94 89h1c15 0 29 -3 41 -7
c62 -23 96 -89 177 -89c26 0 46 10 46 45c0 13 -3 28 -14 38z" />
    <glyph glyph-name="tlJHAc2" 
d="M-236 -404c64 0 105 53 105 143c0 89 -41 143 -105 143c-63 0 -103 -54 -103 -143c0 -90 40 -143 103 -143zM-235 -450c-97 0 -154 77 -154 189c0 110 57 187 154 187s153 -77 153 -187c0 -38 -6 -72 -19 -100c21 -26 55 -43 92 -43c59 0 112 48 112 141
c0 95 -63 152 -129 152v43c102 0 180 -80 180 -197c0 -36 -8 -68 -21 -95c21 -26 55 -44 94 -44c59 0 112 48 112 141c0 95 -64 152 -129 152v43c102 0 180 -80 180 -197c0 -116 -78 -185 -162 -185c-55 0 -94 24 -121 52c-30 -34 -72 -52 -115 -52c-52 0 -89 21 -117 49
c-26 -31 -63 -49 -110 -49zM122 -440l8 -28c12 -38 14 -47 14 -59c0 -19 -11 -33 -35 -33c-21 0 -34 14 -34 33c0 13 4 25 14 59l9 28h24z" />
    <glyph glyph-name="tlNYAc2" 
d="M206 -475h-46c-5 26 -13 52 -24 75c-38 -31 -84 -50 -134 -50c-90 0 -138 46 -138 100c0 56 52 94 131 94c63 0 112 -28 147 -70c22 33 36 73 36 113c0 59 -29 102 -77 102c-50 0 -76 -37 -76 -94v-15h-50v14c0 59 -41 95 -84 95c-40 0 -71 -27 -71 -71
c0 -22 7 -41 22 -57l-37 -32c-22 26 -34 55 -34 89c0 70 53 114 118 114c54 0 95 -33 112 -60c12 28 40 60 102 60c71 0 115 -52 123 -123h45v110h46v-110h69v-42h-160c-4 -50 -25 -97 -57 -134c18 -33 31 -70 37 -108zM2 -405c41 0 80 18 110 45c-27 38 -66 62 -117 62
c-52 0 -81 -20 -81 -52c0 -29 28 -55 88 -55z" />
    <glyph glyph-name="tlTTAc2" 
d="M-124 -229c49 0 71 29 71 65c0 27 -17 54 -54 54c-43 0 -77 -45 -89 -100c18 -12 42 -19 72 -19zM-100 -404c49 0 82 36 82 93v21h48v-21c0 -57 31 -93 80 -93c50 0 91 40 91 141c0 76 -35 132 -86 146v49c67 -14 133 -80 133 -197c0 -126 -55 -185 -138 -185
c-58 0 -90 33 -105 61c-14 -28 -47 -61 -107 -61c-91 0 -146 81 -146 197c0 110 66 185 141 185c61 0 103 -41 103 -96c0 -67 -48 -107 -120 -107c-20 0 -53 7 -76 19v-1c0 -91 39 -151 100 -151z" />
    <glyph glyph-name="tlTTHAc2" 
d="M-1 -405c66 0 109 54 109 144c0 89 -43 143 -109 143c-64 0 -106 -54 -106 -143c0 -90 42 -144 106 -144zM1 -450c-97 0 -158 77 -158 189c0 110 61 187 158 187c96 0 156 -77 156 -187c0 -112 -60 -189 -156 -189zM-1 -223c24 0 40 -16 40 -38c0 -19 -16 -36 -40 -36
c-20 0 -37 17 -37 36c0 22 17 38 37 38z" />
    <glyph glyph-name="tlDDAc2" 
d="M91 -331c0 -22 9 -52 36 -76c36 6 66 32 66 77c0 31 -21 53 -49 53s-53 -20 -53 -54zM-4 -387c-11 -29 -44 -63 -107 -63c-79 0 -130 59 -130 148c0 128 103 228 237 228c58 0 108 -17 150 -48l-28 -37c-35 25 -77 41 -122 41c-108 0 -186 -83 -186 -184
c0 -65 32 -102 80 -102c49 0 83 36 83 93v23h49v-23c0 -55 32 -87 70 -95c-33 24 -40 62 -40 82c0 53 39 89 91 89c61 0 98 -41 98 -95c0 -78 -59 -119 -128 -119c-64 0 -101 34 -117 62z" />
    <glyph glyph-name="tlDDHAc2" 
d="M91 -331c0 -22 9 -52 36 -76c36 6 66 32 66 77c0 31 -21 53 -49 53s-53 -20 -53 -54zM-4 -387c-11 -29 -44 -63 -107 -63c-79 0 -130 59 -130 148c0 128 103 228 237 228c58 0 108 -17 150 -48l-28 -37c-35 25 -77 41 -122 41c-108 0 -186 -83 -186 -184
c0 -65 32 -102 80 -102c49 0 83 36 83 93v23h49v-23c0 -55 32 -87 70 -95c-33 24 -40 62 -40 82c0 53 39 89 91 89c61 0 98 -41 98 -95c0 -78 -59 -119 -128 -119c-64 0 -101 34 -117 62zM10 -437l8 -28c11 -38 14 -48 14 -59c0 -19 -12 -34 -36 -34c-20 0 -33 15 -33 34
c0 13 4 24 14 58l9 29h24z" />
    <glyph glyph-name="tlNNAc2" 
d="M94 -111c-45 0 -71 -34 -74 -85h-51c-5 51 -39 85 -84 85c-46 0 -68 -28 -68 -60c0 -38 29 -62 77 -62h20v-44h-19c-55 0 -82 -28 -82 -67c0 -37 26 -60 72 -60c16 0 35 5 52 15l16 -45c-20 -10 -42 -16 -69 -16c-73 0 -121 43 -121 105c0 49 31 79 64 91
c-28 10 -60 34 -60 84c0 58 43 102 116 102c65 0 97 -32 110 -61c15 29 42 61 102 61c92 0 142 -82 142 -197c0 -127 -63 -185 -130 -185s-110 45 -110 100c0 61 45 102 109 102c36 0 62 -10 81 -23v6c0 93 -33 154 -93 154zM107 -405c38 0 67 34 77 95
c-17 11 -39 22 -72 22c-44 0 -65 -29 -65 -63c0 -28 18 -54 60 -54z" />
    <glyph glyph-name="tlTAc2" 
d="M-277 -298h304c-19 26 -26 60 -26 84c0 69 46 135 141 135c70 0 135 -53 135 -139c0 -79 -61 -131 -154 -131h-400v51zM54 -217c0 -37 18 -63 42 -81h27c63 0 100 34 100 81c0 52 -34 89 -81 89c-56 0 -88 -37 -88 -89z" />
    <glyph glyph-name="tlTHAc2" 
d="M0 -164c23 0 40 -17 40 -38c0 -20 -17 -36 -40 -36c-20 0 -38 16 -38 36c0 21 18 38 38 38zM26 -290v-21c0 -57 32 -93 80 -93s81 37 81 102c0 101 -79 184 -187 184s-187 -83 -187 -184c0 -65 33 -102 81 -102c49 0 82 36 82 93v21h50zM1 -386c-13 -28 -45 -64 -107 -64
c-80 0 -132 59 -132 148c0 128 104 228 238 228c135 0 238 -100 238 -228c0 -89 -51 -148 -131 -148c-60 0 -94 36 -106 64zM12 -436l8 -29c11 -37 14 -47 14 -59c0 -18 -12 -33 -36 -33c-20 0 -33 15 -33 33c0 14 4 25 14 59l9 29h24z" />
    <glyph glyph-name="tlDAc2" 
d="M26 -289v-22c0 -57 32 -93 80 -93s81 37 81 102c0 101 -79 184 -187 184s-187 -83 -187 -184c0 -65 33 -102 81 -102c49 0 82 36 82 93v22h50zM1 -386c-13 -28 -45 -64 -107 -64c-80 0 -132 59 -132 148c0 128 104 228 238 228c135 0 238 -100 238 -228
c0 -89 -51 -148 -131 -148c-60 0 -94 36 -106 64z" />
    <glyph glyph-name="tlDHAc2" 
d="M26 -289v-22c0 -57 32 -93 80 -93s81 37 81 102c0 101 -79 184 -187 184s-187 -83 -187 -184c0 -65 33 -102 81 -102c49 0 82 36 82 93v22h50zM1 -386c-13 -28 -45 -64 -107 -64c-80 0 -132 59 -132 148c0 128 104 228 238 228c135 0 238 -100 238 -228
c0 -89 -51 -148 -131 -148c-60 0 -94 36 -106 64zM14 -437l8 -29c11 -37 14 -47 14 -59c0 -18 -12 -33 -36 -33c-21 0 -33 15 -33 33c0 14 4 25 14 59l9 29h24z" />
    <glyph glyph-name="tlNAc2" horiz-adv-x="234" 
d="M8 500l51 24c78 -153 120 -355 120 -524c0 -115 -23 -205 -60 -271c41 -42 76 -94 101 -152l-44 -23c-22 51 -52 96 -85 133c-51 -64 -119 -96 -190 -96c-93 0 -158 52 -158 128c0 66 52 122 147 122c65 0 131 -28 189 -75c28 58 45 136 45 235c0 169 -44 369 -116 499z
M-99 -359c59 0 113 27 153 82c-51 44 -108 70 -163 70c-64 0 -96 -32 -96 -74c0 -47 36 -78 106 -78z" />
    <glyph glyph-name="tlPAc2" horiz-adv-x="215" 
d="M-281 -360c43 0 76 18 107 56c-34 46 -64 90 -120 90c-42 0 -69 -30 -69 -72c0 -47 27 -74 82 -74zM9 504l52 23c59 -122 119 -386 119 -582c0 -223 -62 -349 -200 -349c-56 0 -92 26 -122 59c-39 -41 -81 -63 -139 -63c-87 0 -135 56 -135 122c0 63 45 120 122 120
c137 0 166 -186 275 -186c101 0 144 89 144 298c0 171 -46 421 -116 558z" />
    <glyph glyph-name="tlPHAc2" horiz-adv-x="214" 
d="M-281 -360c43 0 76 18 107 56c-34 46 -64 90 -120 90c-42 0 -69 -30 -69 -72c0 -47 27 -74 82 -74zM9 504l52 23c59 -122 119 -386 119 -582c0 -223 -62 -349 -200 -349c-56 0 -92 26 -122 59c-39 -41 -81 -63 -139 -63c-87 0 -135 56 -135 122c0 63 45 120 122 120
c137 0 166 -186 275 -186c101 0 144 89 144 298c0 171 -46 421 -116 558zM-129 -388l8 -29c11 -37 14 -47 14 -59c0 -18 -12 -33 -36 -33c-20 0 -33 15 -33 33c0 14 4 25 14 59l9 29h24z" />
    <glyph glyph-name="tlBAc2" horiz-adv-x="227" 
d="M10 511l44 17c69 -157 153 -440 153 -717c0 -172 -47 -261 -153 -261c-57 0 -84 33 -99 62c-14 -27 -44 -62 -122 -62c-71 0 -113 46 -113 102c0 100 154 115 154 188c0 28 -16 49 -46 49c-31 0 -45 -23 -45 -49c0 -12 3 -26 9 -37h-49c-5 15 -7 28 -7 40
c0 51 38 89 92 89c60 0 95 -43 95 -92c0 -101 -153 -116 -153 -188c0 -35 26 -57 65 -57c69 0 97 37 97 94v21h48v-20c0 -59 30 -94 73 -94c65 0 106 56 106 215c0 285 -86 545 -149 700z" />
    <glyph glyph-name="tlBHAc2" horiz-adv-x="232" 
d="M16 510l45 18c51 -127 151 -413 151 -717c0 -172 -48 -261 -153 -261c-57 0 -85 33 -99 62c-15 -27 -44 -62 -122 -62c-72 0 -113 46 -113 102c0 100 153 115 153 188c0 28 -16 49 -45 49c-31 0 -47 -23 -47 -49c0 -12 4 -26 11 -37h-50c-5 15 -7 28 -7 40
c0 51 39 89 93 89c60 0 95 -43 95 -92c0 -101 -154 -116 -154 -188c0 -35 27 -57 66 -57c69 0 95 37 95 94v21h50v-20c0 -59 29 -94 72 -94c65 0 106 56 106 215c0 285 -94 571 -147 699zM-29 -438l9 -29c11 -37 14 -47 14 -59c0 -18 -12 -33 -36 -33c-21 0 -33 15 -33 33
c0 14 4 25 14 59l9 29h23z" />
    <glyph glyph-name="tlMAc2" horiz-adv-x="206" 
d="M42 -236c33 0 51 20 51 53c0 26 -18 51 -54 59c-24 -4 -46 -29 -46 -63c0 -30 20 -49 49 -49zM4 501l48 27c38 -59 92 -173 92 -330c0 -125 -50 -229 -80 -277c53 -16 84 -57 84 -104c0 -60 -44 -103 -104 -103s-100 38 -100 93c0 32 18 57 38 69
c-64 -12 -103 -60 -103 -127c0 -80 55 -132 134 -132c89 0 124 31 157 57l26 -49c-44 -32 -96 -59 -183 -59c-116 0 -190 79 -190 183c0 105 87 176 185 179c38 58 82 160 82 271c0 150 -54 251 -86 302z" />
    <glyph glyph-name="tlYAc2" horiz-adv-x="279" 
d="M283 -216c0 -111 -82 -197 -220 -197c-114 0 -169 55 -169 116c0 98 173 99 173 158c0 27 -14 45 -51 45c-32 0 -50 -23 -50 -48v-9h-55v10c0 48 37 94 105 94c71 0 104 -40 104 -92c0 -95 -171 -97 -171 -159c0 -36 38 -66 114 -66c92 0 165 58 165 149
c0 173 -194 376 -194 589c0 108 70 153 137 153c58 0 101 -34 120 -75l-43 -27c-12 24 -40 53 -76 53c-45 0 -83 -32 -83 -104c0 -211 194 -403 194 -590z" />
    <glyph glyph-name="tlRAc2" 
d="M320 -131c-61 -47 -177 -92 -321 -92c-142 0 -258 45 -319 92l30 45c62 -48 170 -87 289 -87c121 0 229 39 291 87z" />
    <glyph glyph-name="tlLAc2" 
d="M210 -268h-53c8 19 11 38 11 52c0 43 -28 71 -70 71c-44 0 -71 -32 -71 -84v-10h-54v10c0 52 -27 84 -71 84c-42 0 -70 -28 -70 -71c0 -14 4 -35 11 -52h-53c-7 13 -11 36 -11 53c0 72 57 119 121 119c47 0 83 -25 100 -64c17 39 53 64 100 64c64 0 120 -47 120 -119
c0 -16 -3 -39 -10 -53z" />
    <glyph glyph-name="tlVAc2" horiz-adv-x="278" 
d="M-52 -404c39 0 70 29 88 49c-29 47 -52 93 -91 93c-32 0 -59 -24 -59 -70c0 -40 17 -72 62 -72zM159 -398c49 0 79 22 80 105c0 174 -211 436 -211 667c0 108 69 153 137 153c58 0 100 -34 119 -75l-42 -27c-13 24 -40 53 -77 53c-43 0 -82 -32 -82 -104
c0 -236 212 -480 212 -667c-5 -101 -48 -154 -136 -154c-42 0 -72 23 -95 52c-29 -27 -65 -53 -116 -53c-73 0 -113 51 -113 117c0 67 48 114 109 114c112 0 130 -181 215 -181z" />
    <glyph glyph-name="tlSHAc2" horiz-adv-x="219" 
d="M-6 497l47 29c84 -128 133 -253 133 -416c0 -127 -50 -215 -98 -286c50 -28 83 -78 83 -139c0 -80 -48 -132 -113 -132s-108 42 -108 103c0 51 29 96 64 146c-5 1 -10 1 -15 1c-61 0 -115 -47 -115 -114c-1 -14 1 -26 4 -36l-47 -3c-3 11 -6 27 -6 46
c1 87 73 152 161 152c16 0 31 -2 45 -5c46 68 91 149 91 266c0 163 -41 258 -126 388zM43 -402c38 0 67 34 67 91c0 42 -24 78 -60 98c-35 -49 -63 -90 -63 -132c0 -39 23 -57 56 -57z" />
    <glyph glyph-name="tlSSAc2" 
d="M223 -518l-39 -24c-21 24 -32 47 -32 78c0 9 1 18 3 26c-15 -8 -33 -12 -53 -12c-46 0 -79 30 -102 60c-29 -39 -66 -60 -112 -60c-67 0 -111 50 -111 116c0 63 42 115 107 115c122 0 128 -185 218 -185c45 0 71 45 71 132c0 102 -66 152 -129 152v46
c82 0 177 -62 177 -198c0 -44 -6 -80 -17 -107c-5 -20 -9 -41 -9 -63c0 -27 6 -56 28 -76zM-24 -348c-26 43 -50 83 -92 83c-32 0 -58 -23 -58 -69c0 -41 26 -72 62 -72c41 0 70 28 88 58z" />
    <glyph glyph-name="tlSAc2" horiz-adv-x="212" 
d="M-1 503l48 22c94 -209 146 -448 146 -635c0 -141 -24 -312 -159 -312s-146 184 -240 184c-42 0 -72 -29 -72 -71c0 -44 17 -71 39 -92l-39 -26c-23 23 -50 58 -50 118c0 62 47 117 122 117c126 0 142 -184 240 -184c87 0 108 146 108 269c0 182 -56 423 -143 610z" />
    <glyph glyph-name="tlHAc2" 
d="M265 -117h-118c44 -30 75 -84 75 -170c0 -110 -47 -163 -119 -163c-46 0 -79 30 -102 60c-29 -39 -66 -60 -112 -60c-67 0 -112 50 -112 116c0 63 43 115 108 115c122 0 128 -185 218 -185c42 0 71 39 71 115c0 113 -63 169 -129 169v46h292c69 0 112 -38 112 -95
c0 -61 -47 -100 -98 -100c-70 0 -104 48 -104 97c0 16 6 36 18 55zM336 -117h-13c-15 -11 -27 -29 -27 -53c0 -33 20 -56 55 -56c29 0 50 23 50 57c0 29 -23 52 -65 52zM-24 -348c-25 43 -49 83 -91 83c-32 0 -58 -23 -58 -69c0 -41 26 -72 62 -72c40 0 70 28 87 58z" />
    <glyph glyph-name="tlRRAc2" 
d="M-128 -227c44 0 65 26 65 63c0 27 -15 54 -53 54c-35 0 -74 -32 -86 -97c19 -13 41 -20 74 -20zM-206 -253c0 -91 37 -151 98 -151c49 0 83 36 83 93v15h50v-15c0 -57 33 -93 81 -93c61 0 100 61 100 151c0 102 -48 143 -86 143c-37 0 -55 -29 -55 -56
c0 -34 19 -66 63 -66h15v-40h-166v40h72c-19 16 -31 40 -31 70c0 55 40 94 102 94c66 0 137 -57 137 -185c0 -115 -56 -197 -149 -197c-61 0 -95 33 -110 61c-13 -28 -46 -61 -107 -61c-94 0 -148 82 -148 197c0 128 74 185 140 185c62 0 104 -41 104 -96
c0 -61 -44 -104 -111 -104c-34 0 -62 11 -82 23v-8z" />
    <glyph glyph-name="tlRRRAc2" 
d="M1 -386c-13 -28 -45 -64 -107 -64c-80 0 -132 59 -132 148c0 128 104 228 238 228c135 0 238 -100 238 -228c0 -89 -51 -148 -131 -148c-60 0 -94 36 -106 64zM0 -118c-78 0 -141 -44 -170 -106h340c-29 62 -92 106 -170 106zM-24 -311h50c0 -57 32 -93 80 -93
s81 37 81 102c0 12 -1 24 -3 35h-368c-2 -11 -3 -23 -3 -35c0 -65 33 -102 81 -102c49 0 82 36 82 93z" />
    <glyph glyph-name="tlLLAc2" horiz-adv-x="267" 
d="M30 496l45 32c68 -87 165 -244 165 -438c0 -141 -67 -211 -133 -257c57 -14 103 -40 103 -108c0 -52 -50 -100 -141 -100c-90 0 -142 42 -142 97c0 41 26 66 62 90c-71 15 -138 42 -142 132c-3 55 48 99 110 99c63 0 105 -46 105 -99c0 -46 -33 -79 -78 -86l-2 -2
c19 -4 39 -7 60 -11c69 44 145 102 145 246c0 190 -92 322 -157 405zM68 -329c55 0 90 26 90 56c0 48 -46 62 -103 73c-42 -25 -74 -46 -74 -76c0 -28 30 -53 87 -53zM-104 -54c0 -41 26 -60 57 -60s62 21 62 59c0 31 -24 54 -58 54c-38 0 -61 -24 -61 -53z" />
    <glyph glyph-name="tlLLLAc2" 
d="M128 -227c33 0 55 7 74 20c-12 65 -51 97 -86 97c-38 0 -53 -27 -53 -54c0 -37 21 -63 65 -63zM-128 -227c44 0 65 26 65 63c0 27 -15 54 -53 54c-35 0 -74 -32 -86 -97c19 -13 41 -20 74 -20zM0 -389c-13 -28 -48 -61 -109 -61c-94 0 -148 82 -148 197
c0 128 74 185 140 185c62 0 104 -41 104 -96c0 -61 -44 -104 -111 -104c-34 0 -62 11 -82 23v-8c0 -91 37 -151 98 -151c49 0 83 36 83 93v15h50v-15c0 -57 34 -93 83 -93c61 0 98 60 98 151v8c-20 -12 -48 -23 -82 -23c-67 0 -111 43 -111 104c0 55 42 96 104 96
c66 0 140 -57 140 -185c0 -115 -54 -197 -148 -197c-61 0 -96 33 -109 61z" />
    <glyph glyph-name="tlKSSAc2" 
d="M139 -320c0 -59 -49 -104 -144 -104c-57 0 -108 15 -140 35l18 42c33 -17 74 -33 122 -33c54 0 92 23 92 60c0 89 -227 17 -227 165c0 54 50 106 140 106c43 0 94 -14 120 -32l-19 -43c-31 20 -69 30 -101 30c-58 0 -88 -25 -88 -61c0 -94 227 -28 227 -165zM251 -592
h-47l-32 65c-16 -39 -55 -63 -99 -63c-41 0 -73 22 -88 56c-15 -34 -47 -56 -88 -56c-58 0 -107 42 -107 105c0 15 3 34 9 48h48c-8 -16 -10 -34 -10 -47c0 -37 24 -62 61 -62c40 0 64 27 64 75v8h47v-8c0 -48 25 -75 64 -75c36 0 62 25 62 62c0 13 -3 29 -11 47h48z" />
    <glyph glyph-name="tlTAc2_RAc2" 
d="M305 -299c-58 -44 -169 -88 -306 -88c-135 0 -246 44 -304 88l28 42c59 -45 163 -82 276 -82c115 0 219 37 278 82zM73 -263h-272v44h195c-18 19 -24 42 -24 65c0 55 38 110 116 110c56 0 110 -43 110 -112c0 -65 -50 -107 -125 -107zM18 -157c0 -29 14 -49 33 -62h21
c47 0 79 25 79 63c0 40 -27 68 -63 68c-43 0 -70 -26 -70 -69z" />
    <glyph glyph-name="tlK" horiz-adv-x="506" 
d="M194 664v4c-24 6 -52 32 -52 75c0 59 45 94 110 94h319v-52h-318c-33 0 -54 -17 -54 -46c0 -30 22 -47 55 -47h167v-52h-167c-36 0 -55 -19 -55 -46c0 -32 22 -48 55 -48h21c63 -3 132 -23 167 -48l-27 -47c-45 29 -101 40 -152 40c-99 0 -148 -47 -148 -99
c0 -155 356 -43 356 -249c0 -86 -74 -152 -214 -152c-85 0 -161 21 -209 50l25 52c49 -26 112 -47 184 -47c107 0 155 43 155 97c0 147 -356 28 -356 249c0 57 37 111 107 137c-13 16 -21 36 -21 61c0 41 28 66 52 74z" />
    <glyph glyph-name="tlKH" horiz-adv-x="893" 
d="M544 594c0 -75 294 -88 294 -355c0 -165 -112 -248 -241 -248c-79 0 -140 31 -191 69c-52 -43 -120 -69 -197 -69c-124 0 -179 67 -179 142c0 65 45 128 144 128c94 0 160 -67 230 -126c36 45 56 102 56 160c0 45 -7 83 -20 114l-5 -1c9 -68 -49 -124 -125 -124
c-97 0 -144 70 -144 137c0 68 51 134 147 134c118 0 203 -102 203 -259c0 -73 -25 -141 -69 -195c44 -32 91 -56 150 -56c97 0 182 66 182 194c0 252 -292 221 -292 351c0 41 29 66 52 74v4c-23 6 -53 32 -53 75c0 59 45 94 112 94h318v-52h-317c-34 0 -56 -17 -56 -46
c0 -30 22 -47 57 -47h165v-52h-165c-37 0 -56 -19 -56 -46zM209 45c61 0 113 19 153 50c-64 56 -118 113 -188 113c-57 0 -86 -31 -86 -75c0 -46 29 -88 121 -88zM450 -152c0 -25 -17 -44 -45 -44c-27 0 -44 19 -44 44c0 20 5 40 13 70l18 67h27l17 -67c8 -30 13 -50 14 -70
zM224 421c0 -43 30 -83 87 -83c59 0 90 41 90 83c0 44 -30 82 -88 82c-57 0 -89 -39 -89 -82z" />
    <glyph glyph-name="tlG" horiz-adv-x="589" 
d="M178 13l-51 -25c-34 46 -71 132 -71 251c0 129 53 237 141 283c-18 16 -28 39 -28 68c0 41 30 66 53 74v4c-23 6 -53 32 -53 75c0 59 47 94 112 94h281v-52h-280c-34 0 -56 -17 -56 -46c0 -30 23 -47 56 -47h148v-52h-148c-37 0 -56 -19 -56 -46c0 -32 23 -48 56 -48h21
c138 -5 229 -139 229 -307c0 -121 -29 -205 -62 -251l-51 25c35 57 54 123 54 226c0 146 -79 252 -179 252c-99 0 -178 -106 -178 -252c0 -103 28 -172 62 -226z" />
    <glyph glyph-name="tlGH" horiz-adv-x="1094" 
d="M184 664v4c-24 6 -52 32 -52 75c0 59 45 94 110 94h288v-52h-287c-34 0 -55 -17 -55 -46c0 -30 22 -47 56 -47h150v-52h-150c-37 0 -56 -19 -56 -46c0 -32 22 -48 56 -48h24v-52h-25c-65 0 -111 34 -111 96c0 41 28 66 52 74zM346 -15h27l18 -67c9 -30 12 -50 13 -70
c0 -25 -16 -44 -44 -44s-44 19 -44 44c0 20 4 40 12 70zM447 488v58c159 -4 248 -139 248 -301c0 -56 -8 -103 -23 -141c36 -38 83 -58 139 -58c99 0 167 79 167 224c0 140 -81 221 -177 221v55c138 0 237 -109 237 -276c0 -182 -91 -279 -226 -279c-67 0 -122 23 -167 63
c-32 -42 -76 -63 -128 -63c-73 0 -115 43 -149 95c-46 -66 -96 -95 -167 -95c-96 0 -162 70 -162 169c0 91 63 165 156 165c180 0 189 -280 317 -280c75 0 125 69 125 202c0 116 -56 241 -190 241zM201 44c63 0 110 47 135 95c-36 67 -71 131 -141 131
c-54 0 -97 -38 -97 -110c0 -66 41 -116 103 -116z" />
    <glyph glyph-name="tlNG" horiz-adv-x="755" 
d="M585 264l39 42c45 -33 72 -86 72 -147c0 -103 -66 -168 -162 -168c-92 0 -139 63 -153 105h-4c-14 -43 -60 -105 -163 -105s-163 61 -163 142c0 155 237 170 237 289c0 42 -28 79 -81 79c-48 0 -78 -35 -78 -76c0 -13 3 -35 11 -52h-59c-7 18 -10 37 -10 54
c0 73 56 129 136 129c91 0 140 -65 140 -134v-5h121v81c-48 10 -79 42 -79 92c0 41 28 66 52 74v4c-23 6 -52 32 -52 75c0 59 46 94 112 94h282v-52h-282c-33 0 -55 -17 -55 -46c0 -30 23 -47 56 -47h149v-52h-149c-37 0 -56 -19 -56 -46s17 -43 43 -47h36v-130h160v-53
h-351c-49 -102 -223 -123 -223 -230c0 -55 42 -88 106 -88c80 0 133 57 133 148v26h58v-25c0 -94 53 -149 123 -149c65 0 106 39 106 113c0 45 -19 79 -52 105z" />
    <glyph glyph-name="tlC" horiz-adv-x="791" 
d="M677 173c0 197 -323 200 -323 367c0 40 30 68 56 76v4c-24 5 -53 32 -53 74c0 60 46 95 112 95h281v-52h-281c-33 0 -55 -17 -55 -47s23 -47 56 -47h148v-52h-147c-37 0 -59 -20 -59 -49c0 -127 323 -143 323 -370c0 -113 -73 -181 -179 -181c-91 0 -138 61 -152 105h-4
c-15 -42 -61 -105 -152 -105c-96 0 -171 63 -171 165c0 70 41 112 58 125v3h-91v55h230v-55h-6c-89 0 -132 -63 -132 -126c0 -74 49 -112 114 -112c71 0 123 55 123 150v24h57v-26c0 -91 55 -148 126 -148c72 0 121 47 121 127z" />
    <glyph glyph-name="tlCH" horiz-adv-x="791" 
d="M387 -15h28l18 -67c7 -30 12 -50 12 -70c0 -25 -15 -44 -43 -44c-29 0 -45 19 -45 44c0 20 4 40 13 70zM735 172c0 -113 -73 -181 -179 -181c-91 0 -138 61 -152 105h-4c-15 -42 -61 -105 -152 -105c-96 0 -171 63 -171 165c0 70 41 112 58 125v3h-91v55h230v-55h-6
c-89 0 -132 -63 -132 -126c0 -74 49 -112 114 -112c71 0 123 55 123 150v24h57v-26c0 -91 55 -148 126 -148c72 0 121 47 121 127c0 197 -323 200 -323 367c0 40 30 68 56 76v4c-24 5 -53 32 -53 74c0 60 46 95 112 95h281v-52h-281c-33 0 -55 -17 -55 -47s23 -47 56 -47
h148v-52h-147c-37 0 -59 -20 -59 -49c0 -127 323 -143 323 -370z" />
    <glyph glyph-name="tlJ" horiz-adv-x="751" 
d="M51 133c0 155 237 170 237 289c0 42 -28 79 -81 79c-48 0 -78 -35 -78 -76c0 -13 3 -35 11 -52h-59c-7 18 -10 37 -10 54c0 73 56 129 136 129h1h11c21 -2 40 -7 56 -15c92 -40 164 -149 293 -149c41 0 67 18 67 47c0 87 -250 54 -250 177c0 40 25 58 51 66v4
c-24 6 -52 32 -52 75c0 59 45 94 111 94h282v-52h-281c-33 0 -55 -17 -55 -46c0 -30 23 -47 56 -47h148v-52h-148c-37 0 -50 -21 -50 -43c0 -74 246 -39 246 -180c0 -64 -58 -96 -120 -96c-93 0 -176 60 -228 108c1 -8 2 -17 2 -25c0 -155 -236 -163 -236 -288
c0 -55 42 -88 106 -88c80 0 133 57 133 148v26h58v-25c0 -94 53 -149 123 -149c65 0 106 39 106 113c0 38 -14 68 -39 92l39 45c38 -33 59 -82 59 -137c0 -104 -66 -168 -162 -168c-92 0 -139 63 -153 105h-4c-14 -43 -60 -105 -163 -105s-163 61 -163 142z" />
    <glyph glyph-name="tlJH" horiz-adv-x="1301" 
d="M229 664v4c-24 6 -52 32 -52 75c0 59 45 94 110 94h288v-52h-287c-34 0 -54 -17 -54 -46c0 -30 21 -47 55 -47h151v-52h-151c-37 0 -55 -19 -55 -46c0 -32 21 -48 55 -48h21c149 -1 249 -108 249 -278c0 -59 -12 -110 -34 -152c38 -45 89 -70 150 -70
c99 0 168 79 168 224c0 140 -82 221 -177 221v55c138 0 236 -109 236 -276c0 -63 -11 -116 -31 -158c38 -43 87 -66 147 -66c99 0 167 79 167 224c0 140 -81 221 -176 221v55c137 0 236 -109 236 -276c0 -182 -91 -279 -226 -279c-73 0 -131 26 -178 73
c-40 -48 -97 -73 -165 -73c-75 0 -135 28 -183 78c-44 -50 -108 -78 -185 -78c-151 0 -252 107 -252 277c0 127 55 218 145 257c-15 16 -24 38 -24 65c0 41 28 66 52 74zM827 -15h27l17 -67c8 -30 13 -50 13 -70c0 -25 -16 -44 -44 -44c-29 0 -44 19 -44 44c0 20 5 40 13 70
zM116 268c0 -144 79 -222 191 -222c113 0 193 78 193 222c0 145 -80 223 -193 223c-112 0 -191 -78 -191 -223z" />
    <glyph glyph-name="tlNY" horiz-adv-x="1021" 
d="M688 -51h-56c-6 37 -20 80 -41 120c-56 -48 -127 -78 -204 -78c-131 0 -200 63 -200 143c0 83 74 137 190 137c93 0 167 -47 220 -112c39 51 64 115 64 183c0 93 -46 158 -124 158c-80 0 -125 -57 -125 -148v-16h-57v15c0 93 -67 149 -137 149c-65 0 -114 -40 -114 -113
c0 -35 10 -64 31 -87l-45 -35c-30 32 -46 75 -46 122c0 103 76 168 172 168c91 0 151 -64 166 -105h3c15 43 52 105 154 105c104 0 170 -77 180 -185h82v128c-49 9 -81 41 -81 92c0 41 29 66 53 74v4c-24 6 -53 32 -53 75c0 59 46 94 112 94h282v-52h-282
c-33 0 -55 -17 -55 -46c0 -30 22 -47 55 -47h150v-52h-150c-36 0 -55 -19 -55 -46s16 -43 42 -47h39v-177h125v-54h-264c-6 -75 -38 -148 -87 -206c31 -52 50 -110 56 -161zM387 45c62 0 124 28 173 74c-42 56 -102 98 -183 98c-86 0 -131 -32 -131 -83
c0 -46 44 -89 141 -89z" />
    <glyph glyph-name="tlTT" horiz-adv-x="849" 
d="M262 502c-66 0 -100 -46 -100 -91c0 -46 33 -93 99 -93c54 0 90 36 90 90c0 46 -28 94 -89 94zM294 705l-6 -152c74 -11 122 -72 122 -146c0 -88 -61 -143 -143 -143c-99 0 -136 74 -137 114h-4c-6 -27 -11 -61 -11 -96c0 -141 61 -236 158 -236c79 0 132 57 132 149v25
h57v-25c0 -92 53 -149 137 -149c70 0 139 53 139 167c0 212 -243 251 -243 389c0 42 29 64 52 69v4c-23 5 -52 32 -52 74c0 60 46 95 111 95h283v-52h-282c-33 0 -55 -17 -55 -46c0 -31 23 -48 56 -48h148v-52h-147c-38 0 -57 -17 -57 -46c0 -95 241 -149 241 -387
c0 -146 -82 -222 -192 -222c-106 0 -150 62 -165 105h-4c-14 -43 -60 -105 -162 -105c-133 0 -214 119 -214 291c0 166 85 252 172 270v153h66z" />
    <glyph glyph-name="tlTTH" horiz-adv-x="615" 
d="M56 268c0 123 52 212 137 253c-18 16 -29 40 -29 69c0 41 30 66 53 74v4c-23 6 -53 32 -53 75c0 59 47 94 112 94h282v-52h-282c-33 0 -55 -17 -55 -46c0 -30 23 -47 56 -47h148v-52h-148c-37 0 -56 -19 -56 -46c0 -32 23 -48 56 -48h21h10c150 0 251 -107 251 -278
c0 -170 -101 -277 -251 -277c-151 0 -252 107 -252 277zM115 268c0 -144 80 -223 192 -223c113 0 193 79 193 223c0 145 -80 223 -193 223c-112 0 -192 -78 -192 -223zM308 320c29 0 51 -21 51 -51c0 -27 -22 -50 -51 -50c-27 0 -50 23 -50 50c0 30 23 51 50 51z" />
    <glyph glyph-name="tlDD" horiz-adv-x="810" 
d="M622 44l-1 3c-1 -1 -8 -2 -13 -2c-51 0 -114 43 -114 126c0 73 56 134 137 134c77 0 140 -56 140 -140c0 -114 -88 -174 -188 -174c-107 0 -159 64 -175 105h-3c-15 -44 -62 -105 -163 -105c-113 0 -188 85 -188 216c0 154 100 280 244 323c-20 14 -32 35 -32 63
c0 42 29 63 53 71v4c-24 6 -53 32 -53 75c0 59 46 94 111 94h318v-52h-317c-34 0 -54 -17 -54 -46c0 -30 21 -47 55 -47h167v-52h-167c-38 0 -55 -19 -55 -46c0 -32 21 -48 55 -48h24h4c85 0 156 -23 217 -70l-36 -44c-48 37 -112 59 -181 59c-171 0 -293 -126 -293 -284
c0 -101 53 -161 131 -161c80 0 132 57 132 149v25h58v-25c0 -95 59 -158 146 -158c16 0 29 3 41 7zM547 166c0 -67 54 -98 94 -98c35 0 74 34 74 98c0 50 -36 87 -83 87c-48 0 -85 -35 -85 -87z" />
    <glyph glyph-name="tlDDH" horiz-adv-x="810" 
d="M319 664v4c-24 6 -53 32 -53 75c0 59 46 94 111 94h318v-52h-317c-34 0 -54 -17 -54 -46c0 -30 21 -47 55 -47h167v-52h-167c-38 0 -55 -19 -55 -46c0 -32 21 -48 55 -48h24h4c85 0 156 -23 217 -70l-36 -44c-48 37 -112 59 -181 59c-171 0 -293 -126 -293 -284
c0 -101 53 -161 131 -161c80 0 132 57 132 149v25h58v-25c0 -95 59 -158 146 -158c16 0 29 3 41 7l-1 3c-1 -1 -8 -2 -13 -2c-51 0 -114 43 -114 126c0 73 56 134 137 134c77 0 140 -56 140 -140c0 -114 -88 -174 -188 -174c-107 0 -159 64 -175 105h-3
c-15 -44 -62 -105 -163 -105c-113 0 -188 85 -188 216c0 154 100 280 244 323c-20 14 -32 35 -32 63c0 42 29 63 53 71zM420 -15l18 -67c7 -30 12 -50 12 -70c0 -25 -16 -44 -43 -44c-29 0 -45 19 -45 44c0 20 5 40 13 70l17 67h28zM547 166c0 -67 54 -98 94 -98
c35 0 74 34 74 98c0 50 -36 87 -83 87c-48 0 -85 -35 -85 -87z" />
    <glyph glyph-name="tlNN" horiz-adv-x="819" 
d="M707 263c0 150 -62 233 -157 233c-71 0 -114 -50 -121 -129h-58c-8 79 -61 129 -135 129c-76 0 -112 -41 -112 -93c0 -63 46 -100 125 -100h22v-54h-21c-89 0 -131 -43 -131 -104c0 -59 40 -96 116 -96c26 0 53 8 74 21l20 -54c-27 -14 -58 -21 -96 -21
c-106 0 -174 57 -174 149c0 78 53 122 106 131v4c-42 12 -101 44 -101 125c0 85 64 147 169 147c102 0 150 -62 165 -108h4c9 28 27 64 64 86c-17 16 -26 38 -26 65c0 42 28 67 52 75v4c-24 5 -52 32 -52 75c0 59 45 94 110 94h288v-52h-287c-33 0 -55 -17 -55 -46
c0 -31 23 -47 56 -47h150v-52h-150c-37 0 -56 -19 -56 -48c0 -27 17 -43 45 -46h11c132 0 210 -108 210 -288c0 -187 -103 -268 -201 -268c-89 0 -145 64 -145 141c0 87 62 143 142 143c98 0 132 -72 133 -111h4c5 26 12 60 12 95zM562 48c65 0 96 38 96 83
c0 47 -26 94 -96 94c-52 0 -87 -37 -87 -90c0 -42 24 -87 87 -87z" />
    <glyph glyph-name="tlT" horiz-adv-x="819" 
d="M765 275c0 -155 -131 -284 -356 -284s-355 129 -355 284c0 94 67 161 157 161c89 0 148 -60 148 -144c0 -83 -61 -140 -139 -140c-35 0 -60 8 -80 26l-3 -3c43 -76 136 -130 272 -130s230 54 272 130l-3 3c-20 -18 -44 -26 -79 -26c-78 0 -140 57 -140 140
c0 84 60 144 149 144c31 0 60 -8 84 -23c-12 53 -76 64 -148 70c-104 9 -225 9 -225 115c0 42 27 67 52 71v4c-22 5 -52 32 -52 75c0 59 47 94 112 94h320v-52h-320c-33 0 -55 -17 -55 -46c0 -31 23 -47 56 -47h168v-53h-168c-37 0 -55 -18 -55 -47c0 -60 90 -56 181 -65
c94 -8 189 -29 189 -145c0 -8 -1 -18 -3 -28c13 -24 21 -52 21 -84zM112 287c0 -51 31 -90 97 -90c59 0 93 41 93 95c0 56 -36 92 -92 92c-59 0 -98 -45 -98 -97zM516 292c0 -54 34 -95 94 -95c66 0 96 39 96 90c0 52 -40 97 -98 97c-55 0 -92 -36 -92 -92z" />
    <glyph glyph-name="tlTH" horiz-adv-x="812" 
d="M435 219v-24c0 -92 52 -149 132 -149c78 0 131 60 131 161c0 158 -120 284 -291 284s-293 -126 -293 -284c0 -101 53 -161 131 -161c80 0 132 57 132 149v24h58zM408 96h-3c-15 -44 -62 -105 -163 -105c-113 0 -188 85 -188 216c0 156 101 283 247 324
c-18 14 -30 35 -30 62c0 42 29 63 52 71v4c-23 6 -52 32 -52 75c0 59 46 94 111 94h317v-52h-316c-33 0 -55 -17 -55 -46c0 -30 22 -47 56 -47h166v-52h-166c-37 0 -56 -19 -56 -46c0 -32 22 -48 56 -48h24c199 0 350 -148 350 -339c0 -131 -75 -216 -188 -216
c-101 0 -147 61 -162 105zM406 411c29 0 52 -23 52 -52c0 -27 -23 -49 -52 -49c-28 0 -50 22 -50 49c0 29 22 52 50 52zM392 -15h28l17 -67c8 -30 13 -50 13 -70c0 -25 -16 -44 -43 -44c-29 0 -45 19 -45 44c0 20 5 40 12 70z" />
    <glyph glyph-name="tlD" horiz-adv-x="812" 
d="M435 220v-25c0 -92 52 -149 132 -149c78 0 131 60 131 161c0 158 -120 284 -291 284s-293 -126 -293 -284c0 -101 53 -161 131 -161c80 0 132 57 132 149v25h58zM408 96h-3c-15 -44 -62 -105 -163 -105c-113 0 -188 85 -188 216c0 156 101 283 247 324
c-18 14 -30 35 -30 62c0 42 29 63 52 71v4c-23 6 -52 32 -52 75c0 59 46 94 111 94h317v-52h-316c-33 0 -55 -17 -55 -46c0 -30 22 -47 56 -47h166v-52h-166c-37 0 -56 -19 -56 -46c0 -32 22 -48 56 -48h24c199 0 350 -148 350 -339c0 -131 -75 -216 -188 -216
c-101 0 -147 61 -162 105z" />
    <glyph glyph-name="tlDH" horiz-adv-x="812" 
d="M392 -15h28l17 -67c8 -30 13 -50 13 -70c0 -25 -16 -44 -43 -44c-29 0 -45 19 -45 44c0 20 5 40 12 70zM435 220v-25c0 -92 52 -149 132 -149c78 0 131 60 131 161c0 158 -120 284 -291 284s-293 -126 -293 -284c0 -101 53 -161 131 -161c80 0 132 57 132 149v25h58z
M408 96h-3c-15 -44 -62 -105 -163 -105c-113 0 -188 85 -188 216c0 156 101 283 247 324c-18 14 -30 35 -30 62c0 42 29 63 52 71v4c-23 6 -52 32 -52 75c0 59 46 94 111 94h317v-52h-316c-33 0 -55 -17 -55 -46c0 -30 22 -47 56 -47h166v-52h-166c-37 0 -56 -19 -56 -46
c0 -32 22 -48 56 -48h24c199 0 350 -148 350 -339c0 -131 -75 -216 -188 -216c-101 0 -147 61 -162 105z" />
    <glyph glyph-name="tlN" horiz-adv-x="751" 
d="M642 180c-5 217 -358 263 -358 419c0 37 24 66 54 73v4c-23 4 -52 32 -52 73c0 61 46 96 111 96h309v-52h-309c-33 0 -55 -17 -55 -46c0 -32 23 -49 56 -49h157v-52h-156c-37 0 -56 -21 -56 -49c0 -108 355 -164 355 -425c0 -126 -80 -181 -168 -181
c-196 0 -190 278 -334 278c-54 0 -97 -37 -97 -110c0 -65 30 -110 60 -142l-46 -32c-33 32 -73 89 -73 175c0 91 63 165 156 165c186 0 184 -280 332 -280c60 0 114 36 114 135z" />
    <glyph glyph-name="tlP" horiz-adv-x="752" 
d="M185 664v4c-24 6 -52 32 -52 75c0 59 45 94 110 94h282v-52h-281c-33 0 -55 -17 -55 -46c0 -30 23 -47 56 -47h148v-52h-148c-37 0 -56 -19 -56 -46c0 -32 22 -48 56 -48h21v-52h-21c-65 0 -112 34 -112 96c0 41 28 66 52 74zM448 488v58c159 -4 248 -140 248 -301
c0 -169 -73 -254 -178 -254c-73 0 -116 43 -150 95c-46 -66 -96 -95 -166 -95c-96 0 -162 70 -162 169c0 91 62 165 156 165c180 0 188 -280 317 -280c74 0 125 69 125 202c0 116 -57 241 -190 241zM202 44c62 0 109 47 135 96c-37 66 -71 130 -141 130
c-54 0 -98 -38 -98 -110c0 -66 42 -116 104 -116z" />
    <glyph glyph-name="tlPH" horiz-adv-x="752" 
d="M185 664v4c-24 6 -52 32 -52 75c0 59 45 94 110 94h282v-52h-281c-33 0 -55 -17 -55 -46c0 -30 23 -47 56 -47h148v-52h-148c-37 0 -56 -19 -56 -46c0 -32 22 -48 56 -48h21v-52h-21c-65 0 -112 34 -112 96c0 41 28 66 52 74zM346 -15h27l19 -67c7 -30 12 -50 12 -70
c0 -25 -15 -44 -44 -44c-28 0 -44 19 -44 44c0 20 4 40 13 70zM448 488v58c159 -4 248 -140 248 -301c0 -169 -73 -254 -178 -254c-73 0 -116 43 -150 95c-46 -66 -96 -95 -166 -95c-96 0 -162 70 -162 169c0 91 62 165 156 165c180 0 188 -280 317 -280
c74 0 125 69 125 202c0 116 -57 241 -190 241zM202 44c62 0 109 47 135 96c-37 66 -71 130 -141 130c-54 0 -98 -38 -98 -110c0 -66 42 -116 104 -116z" />
    <glyph glyph-name="tlB" horiz-adv-x="799" 
d="M685 206c0 211 -299 277 -299 404c0 41 31 62 53 71v4c-23 5 -53 31 -53 74c0 60 47 94 112 94h282v-52h-282c-33 0 -55 -16 -55 -46s23 -47 56 -47h148v-52h-147c-37 0 -56 -18 -56 -46c0 -84 300 -168 300 -404c0 -145 -96 -215 -198 -215c-93 0 -151 63 -165 105h-4
c-14 -43 -60 -105 -163 -105s-163 61 -163 142c0 155 237 170 237 289c0 42 -28 79 -81 79c-48 0 -78 -35 -78 -76c0 -13 3 -35 11 -52h-59c-7 18 -10 37 -10 54c0 73 56 129 136 129c91 0 140 -65 140 -134c0 -155 -236 -163 -236 -288c0 -55 42 -88 106 -88
c80 0 133 57 133 148v26h58v-25c0 -94 65 -149 135 -149c68 0 142 54 142 160z" />
    <glyph glyph-name="tlBH" horiz-adv-x="799" 
d="M685 206c0 211 -299 277 -299 404c0 41 31 62 53 71v4c-23 5 -53 31 -53 74c0 60 47 94 112 94h282v-52h-282c-33 0 -55 -16 -55 -46s23 -47 56 -47h148v-52h-147c-37 0 -56 -18 -56 -46c0 -84 300 -168 300 -404c0 -145 -96 -215 -198 -215c-93 0 -151 63 -165 105h-4
c-14 -43 -60 -105 -163 -105s-163 61 -163 142c0 155 237 170 237 289c0 42 -28 79 -81 79c-48 0 -78 -35 -78 -76c0 -13 3 -35 11 -52h-59c-7 18 -10 37 -10 54c0 73 56 129 136 129c91 0 140 -65 140 -134c0 -155 -236 -163 -236 -288c0 -55 42 -88 106 -88
c80 0 133 57 133 148v26h58v-25c0 -94 65 -149 135 -149c68 0 142 54 142 160zM423 -152c0 -25 -16 -44 -44 -44c-29 0 -45 19 -45 44c0 20 6 40 14 70l17 67h28l17 -67c8 -30 13 -50 13 -70z" />
    <glyph glyph-name="tlM" horiz-adv-x="1094" 
d="M529 -9c-80 0 -126 43 -161 95c-46 -66 -96 -95 -166 -95c-96 0 -162 70 -162 169c0 91 62 165 156 165c185 0 180 -280 329 -280c59 0 115 37 115 146c0 230 -359 254 -359 408c0 37 24 66 55 73v4c-24 4 -53 32 -53 73c0 61 46 96 111 96h309v-52h-309
c-33 0 -55 -17 -55 -46c0 -32 23 -49 56 -49h158v-52h-157c-37 0 -56 -21 -56 -49c0 -101 358 -147 358 -410c0 -36 -6 -67 -15 -93c34 -31 78 -48 128 -48c99 0 168 79 168 224c0 140 -82 221 -177 221v55c138 0 236 -109 236 -276c0 -182 -91 -279 -226 -279
c-62 0 -114 19 -157 55c-31 -37 -76 -55 -126 -55zM202 44c62 0 109 47 135 96c-37 66 -70 130 -141 130c-54 0 -98 -38 -98 -110c0 -66 42 -116 104 -116z" />
    <glyph glyph-name="tlY" horiz-adv-x="1301" 
d="M902 242c0 -52 -10 -97 -28 -133c37 -41 86 -63 144 -63c99 0 167 79 167 224c0 140 -81 221 -176 221v55c137 0 236 -109 236 -276c0 -182 -91 -279 -226 -279c-71 0 -129 26 -176 71c-41 -47 -100 -71 -167 -71c-75 0 -135 28 -183 78c-44 -50 -108 -78 -185 -78
c-151 0 -252 107 -252 277c0 171 101 278 252 278c150 0 251 -107 251 -278c0 -59 -12 -110 -34 -152c38 -45 89 -70 150 -70c93 0 168 69 168 197c0 216 -222 243 -222 362c0 41 24 57 48 66v4c-24 5 -52 32 -52 74c0 60 45 95 111 95h282v-52h-281c-34 0 -55 -17 -55 -46
c0 -31 22 -48 56 -48h147v-52h-147c-37 0 -51 -14 -51 -37c0 -79 223 -130 223 -367zM116 268c0 -144 79 -222 191 -222c113 0 193 78 193 222c0 145 -80 223 -193 223c-112 0 -191 -78 -191 -223z" />
    <glyph glyph-name="tlR" horiz-adv-x="615" 
d="M56 268c0 126 55 217 144 257c-16 16 -25 38 -25 65c0 41 28 66 52 74v4c-24 6 -52 32 -52 75c0 59 45 94 110 94h282v-52h-281c-33 0 -54 -17 -54 -46c0 -30 22 -47 55 -47h149v-52h-149c-36 0 -55 -19 -55 -46c0 -32 21 -48 55 -48h21c150 0 251 -107 251 -278
c0 -170 -101 -277 -251 -277c-151 0 -252 107 -252 277zM116 268c0 -144 79 -222 191 -222c113 0 193 78 193 222c0 145 -80 223 -193 223c-112 0 -191 -78 -191 -223z" />
    <glyph glyph-name="tlL" horiz-adv-x="766" 
d="M650 280c0 188 -199 197 -199 311c0 41 28 65 52 73v4c-24 6 -53 32 -53 75c0 59 46 94 111 94h283v-52h-282c-34 0 -55 -17 -55 -46c0 -30 22 -47 56 -47h147v-52h-147c-37 0 -55 -16 -55 -44c0 -82 202 -107 202 -318c0 -166 -118 -287 -320 -287
c-203 0 -334 148 -334 315c0 140 91 249 205 249c90 0 149 -66 149 -148c0 -90 -63 -145 -144 -145c-99 0 -137 79 -138 117h-4c-6 -27 -10 -37 -10 -73c0 -129 109 -260 276 -260c163 0 260 97 260 234zM161 410c0 -45 34 -94 100 -94c55 0 90 37 90 92c0 46 -28 94 -90 94
c-65 0 -100 -47 -100 -92z" />
    <glyph glyph-name="tlV" horiz-adv-x="751" 
d="M525 45c59 0 113 37 113 146c0 230 -357 254 -357 408c0 37 24 66 55 73v4c-24 4 -53 32 -53 73c0 61 46 96 111 96h309v-52h-309c-33 0 -55 -17 -55 -46c0 -32 23 -49 56 -49h157v-52h-156c-37 0 -56 -21 -56 -49c0 -101 355 -147 355 -410c0 -133 -72 -196 -166 -196
c-80 0 -126 43 -161 95c-46 -66 -96 -95 -166 -95c-96 0 -162 70 -162 169c0 91 62 165 156 165c185 0 180 -280 329 -280zM202 44c62 0 109 47 135 96c-37 66 -70 130 -141 130c-54 0 -98 -38 -98 -110c0 -66 42 -116 104 -116z" />
    <glyph glyph-name="tlSH" horiz-adv-x="553" 
d="M396 425c0 78 -150 68 -150 170c0 37 25 61 52 69v4c-24 6 -53 32 -53 75c0 59 46 94 111 94h282v-52h-282c-33 0 -54 -17 -54 -46c0 -30 22 -47 55 -47h149v-52h-148c-36 0 -54 -16 -54 -44c0 -63 150 -58 150 -171c0 -36 -14 -66 -35 -94c49 -44 80 -107 80 -178
c0 -96 -64 -162 -157 -162c-95 0 -143 67 -143 136c0 86 82 140 140 197c-28 14 -59 22 -91 22c-100 0 -136 -63 -136 -113c0 -32 8 -53 18 -68l-52 -20c-12 17 -24 49 -24 88c0 82 66 167 193 167c45 0 89 -13 128 -36c13 19 21 39 21 61zM342 44c53 0 100 36 100 109
c0 57 -23 105 -58 139c-57 -56 -128 -102 -128 -165c0 -46 30 -83 86 -83z" />
    <glyph glyph-name="tlSS" horiz-adv-x="751" 
d="M185 664v4c-24 6 -53 32 -53 75c0 59 46 94 111 94h282v-52h-281c-34 0 -55 -17 -55 -46c0 -30 22 -47 56 -47h148v-52h-148c-38 0 -56 -19 -56 -46c0 -32 22 -48 56 -48h21v-52h-22c-65 0 -112 34 -112 96c0 41 29 66 53 74zM448 488v58c158 -4 247 -139 247 -301
c0 -48 -6 -90 -17 -124l1 1c-15 -45 -25 -86 -25 -135c0 -47 12 -82 45 -114l-48 -27c-30 33 -47 70 -47 116c0 22 6 44 15 64c-28 -23 -62 -35 -101 -35c-73 0 -116 43 -150 95c-46 -66 -96 -95 -166 -95c-96 0 -162 70 -162 169c0 91 62 165 156 165
c180 0 188 -280 317 -280c74 0 125 69 125 202c0 116 -57 241 -190 241zM202 44c62 0 109 47 135 96c-37 66 -71 130 -141 130c-54 0 -98 -38 -98 -110c0 -66 42 -116 104 -116z" />
    <glyph glyph-name="tlS" horiz-adv-x="752" 
d="M185 664v4c-24 6 -52 32 -52 75c0 59 45 94 110 94h282v-52h-281c-34 0 -55 -17 -55 -46c0 -30 22 -47 56 -47h148v-52h-148c-37 0 -56 -19 -56 -46c0 -32 22 -48 56 -48h21v-52h-22c-65 0 -111 34 -111 96c0 41 28 66 52 74zM99 159c0 -65 30 -110 60 -142l-45 -32
c-36 31 -74 89 -74 175c0 91 63 165 156 165c181 0 189 -280 317 -280c74 0 125 69 125 202c0 116 -57 241 -190 241v58c158 -4 248 -139 248 -301c0 -168 -73 -254 -178 -254c-186 0 -176 278 -322 278c-54 0 -97 -37 -97 -110z" />
    <glyph glyph-name="tlH" horiz-adv-x="1060" 
d="M185 664v4c-24 6 -52 32 -52 75c0 59 45 94 110 94h282v-52h-281c-33 0 -55 -17 -55 -46c0 -30 22 -47 56 -47h148v-52h-148c-37 0 -56 -19 -56 -46c0 -32 22 -48 56 -48h21v-52h-22c-65 0 -111 34 -111 96c0 41 28 66 52 74zM797 407c0 -54 33 -91 94 -91
c49 0 84 37 84 92c0 57 -45 86 -92 86c-51 0 -86 -37 -86 -87zM448 492v54h426c96 0 156 -53 156 -138c0 -89 -67 -144 -139 -144c-100 0 -149 69 -149 138c0 59 34 88 48 91h-203c74 -57 109 -161 109 -266c0 -154 -75 -236 -174 -236c-76 0 -119 43 -154 95
c-45 -66 -96 -95 -166 -95c-96 0 -162 70 -162 169c0 91 62 165 156 165c183 0 184 -280 323 -280c68 0 119 64 119 185c0 109 -52 262 -190 262zM202 44c62 0 109 47 135 96c-37 66 -71 130 -141 130c-54 0 -97 -38 -97 -110c0 -66 41 -116 103 -116z" />
    <glyph glyph-name="tlRR" horiz-adv-x="871" 
d="M567 667v4c-24 5 -53 32 -53 75c0 59 46 94 112 94h281v-52h-281c-33 0 -55 -17 -55 -46c0 -31 23 -47 56 -47h148v-52h-148c-37 0 -56 -19 -56 -47c0 -24 14 -39 35 -45h10c99 0 199 -82 199 -269c0 -173 -83 -287 -215 -287c-102 0 -148 62 -162 106h-4
c-15 -44 -61 -106 -163 -106c-133 0 -215 115 -215 286c0 187 108 270 206 270c89 0 147 -67 147 -148c0 -88 -62 -144 -144 -144c-99 0 -134 75 -135 114h-4c-6 -23 -11 -56 -11 -92c0 -141 61 -231 158 -231c80 0 133 58 133 149v16h58v-15c0 -92 54 -150 133 -150
c98 0 159 89 159 231c0 161 -78 216 -140 216c-61 0 -90 -43 -90 -92c0 -60 37 -97 98 -101h18v-49h-231v49h109v5c-23 13 -50 50 -50 100c0 56 24 100 66 123c-14 15 -22 35 -22 61c0 41 29 66 53 74zM262 497c-66 0 -100 -45 -100 -91c0 -45 33 -93 98 -93
c55 0 90 36 90 92c0 45 -27 92 -88 92z" />
    <glyph glyph-name="tlRRR" horiz-adv-x="812" 
d="M323 664v4c-23 6 -52 32 -52 75c0 59 46 94 111 94h317v-52h-316c-33 0 -55 -17 -55 -46c0 -30 22 -47 56 -47h166v-52h-166c-37 0 -56 -19 -56 -46c0 -32 22 -48 56 -48h24c199 0 350 -148 350 -339c0 -131 -75 -216 -188 -216c-101 0 -147 61 -162 105h-3
c-15 -44 -62 -105 -163 -105c-113 0 -188 85 -188 216c0 156 101 283 247 324c-18 14 -30 35 -30 62c0 42 29 63 52 71zM407 491c-134 0 -239 -78 -277 -188h552c-38 110 -141 188 -275 188zM377 190h58c2 -89 54 -144 132 -144s131 60 131 161c0 15 -1 30 -3 45h-578
c-2 -15 -3 -30 -3 -45c0 -101 53 -161 131 -161s130 55 132 144z" />
    <glyph glyph-name="tlLL" horiz-adv-x="643" 
d="M191 117c0 54 35 87 84 112c-112 31 -231 72 -231 194c0 72 58 128 139 128c83 0 136 -60 136 -128c0 -72 -59 -111 -113 -111l-2 -4c53 -19 104 -33 148 -47c92 32 189 56 189 126c0 101 -184 103 -184 209c0 37 28 60 54 68v4c-23 6 -52 32 -52 75c0 59 46 94 111 94
h283v-52h-282c-34 0 -55 -17 -55 -46c0 -30 23 -47 56 -47h148v-52h-147c-38 0 -59 -18 -59 -43c0 -70 185 -79 185 -208c0 -90 -84 -126 -169 -155c61 -25 99 -57 99 -117c0 -67 -57 -126 -169 -126s-169 60 -169 126zM360 44c70 0 109 30 109 73c0 47 -51 71 -118 91
c-57 -21 -101 -45 -101 -91c0 -43 41 -73 110 -73zM102 422c0 -53 38 -80 78 -80c42 0 84 29 84 79c0 46 -28 78 -80 78s-82 -34 -82 -77z" />
    <glyph glyph-name="tlLLL" horiz-adv-x="871" 
d="M554 664v4c-24 5 -52 32 -52 75c0 59 45 94 111 94h281v-52h-280c-33 0 -55 -17 -55 -46c0 -31 22 -47 55 -47h149v-52h-149c-36 0 -55 -19 -55 -47c0 -27 16 -43 43 -47h7c98 0 206 -83 206 -270c0 -171 -83 -281 -216 -281c-101 0 -147 62 -161 106h-4
c-15 -44 -61 -106 -163 -106c-133 0 -215 115 -215 286c0 187 108 270 206 270c89 0 147 -67 147 -148c0 -88 -62 -144 -144 -144c-99 0 -134 75 -135 114h-4c-6 -23 -11 -56 -11 -92c0 -141 61 -231 158 -231c80 0 133 58 133 149v17h58v-17c0 -91 53 -149 133 -149
c98 0 159 85 159 226c0 36 -6 69 -11 92h-4c-1 -39 -37 -113 -135 -113c-82 0 -145 55 -145 143c0 53 25 100 67 126c-16 16 -26 38 -26 66c0 41 28 66 52 74zM262 497c-66 0 -100 -45 -100 -91c0 -45 33 -93 98 -93c55 0 90 36 90 92c0 45 -27 92 -88 92zM610 492
c-63 0 -90 -47 -90 -92c0 -56 36 -92 91 -92c65 0 98 48 98 94c0 45 -34 90 -99 90z" />
    <glyph glyph-name="tlKAA" horiz-adv-x="827" 
d="M48 41l25 52c49 -26 112 -47 184 -47c107 0 155 43 155 97c0 147 -356 28 -356 249c0 37 16 73 47 101h-79v53h616c96 0 157 -53 157 -138c0 -89 -67 -144 -140 -144c-99 0 -149 69 -149 138c0 54 29 86 42 91h-111l-24 -43c-45 30 -101 41 -152 41
c-99 0 -148 -47 -148 -98c0 -156 356 -44 356 -250c0 -86 -74 -152 -214 -152c-85 0 -161 21 -209 50zM563 407c0 -54 33 -91 94 -91c49 0 84 37 84 92c0 57 -44 86 -92 86c-51 0 -86 -37 -86 -87z" />
    <glyph glyph-name="tlKHAA" horiz-adv-x="1215" 
d="M951 407c0 -54 34 -91 94 -91c49 0 85 37 85 92c0 57 -45 86 -92 86c-51 0 -87 -37 -87 -87zM516 296c0 -73 -25 -142 -70 -195c44 -32 92 -56 150 -56c100 0 182 76 182 223c0 149 -93 219 -184 220v58h434c96 0 158 -53 158 -138c0 -89 -68 -144 -141 -144
c-99 0 -149 69 -149 138c0 54 29 86 43 91h-203c58 -42 101 -115 101 -225c0 -188 -105 -277 -241 -277c-79 0 -139 31 -191 69c-51 -43 -119 -69 -196 -69c-124 0 -179 67 -179 142c0 65 45 128 144 128c94 0 160 -67 229 -126c37 45 57 101 57 160c0 45 -7 83 -20 114
l-5 -1c10 -60 -42 -124 -125 -124c-97 0 -144 70 -144 137c0 68 51 134 147 134c118 0 203 -102 203 -259zM209 45c61 0 113 19 153 50c-64 56 -118 113 -188 113c-57 0 -86 -31 -86 -75c0 -46 29 -88 121 -88zM450 -152c0 -25 -17 -44 -45 -44c-27 0 -44 19 -44 44
c0 20 5 40 13 70l18 67h27l17 -67c9 -30 14 -50 14 -70zM224 421c0 -43 30 -83 87 -83c59 0 90 41 90 83c0 44 -30 82 -88 82c-57 0 -89 -39 -89 -82z" />
    <glyph glyph-name="tlGAA" horiz-adv-x="905" 
d="M52 493v53h667c96 0 157 -53 157 -138c0 -89 -67 -144 -141 -144c-98 0 -148 69 -148 138c0 54 28 86 42 91h-196c62 -55 99 -147 99 -254c0 -121 -29 -205 -62 -251l-51 25c35 57 54 123 54 226c0 146 -79 252 -179 252c-99 0 -178 -106 -178 -252
c0 -103 28 -172 62 -226l-51 -25c-34 46 -71 132 -71 251c0 107 37 200 99 254h-103zM642 407c0 -54 34 -91 93 -91c50 0 85 37 85 92c0 57 -44 86 -91 86c-51 0 -87 -37 -87 -87z" />
    <glyph glyph-name="tlGHAA" horiz-adv-x="1417" 
d="M794 493v53h436c96 0 157 -53 157 -138c0 -89 -67 -144 -140 -144c-99 0 -149 69 -149 138c0 54 29 86 42 91h-196c58 -46 94 -123 94 -223c0 -182 -91 -279 -226 -279c-67 0 -122 23 -167 63c-32 -42 -76 -63 -128 -63c-73 0 -115 43 -149 95c-46 -66 -96 -95 -167 -95
c-96 0 -162 70 -162 169c0 91 63 165 156 165c180 0 189 -280 317 -280c75 0 125 69 125 202c0 116 -56 241 -190 241v58c159 -4 248 -139 248 -301c0 -56 -8 -103 -23 -141c36 -38 83 -58 139 -58c99 0 167 79 167 224c0 140 -81 222 -177 222v1h-7zM1153 407
c0 -54 33 -91 94 -91c49 0 84 37 84 92c0 57 -45 86 -92 86c-51 0 -86 -37 -86 -87zM346 -15h27l18 -67c9 -30 12 -50 13 -70c0 -25 -16 -44 -44 -44s-44 19 -44 44c0 20 4 40 12 70zM201 44c63 0 110 47 135 95c-36 67 -71 131 -141 131c-54 0 -97 -38 -97 -110
c0 -66 41 -116 103 -116zM243 537h4c8 11 22 27 68 73l143 143l41 -41l-220 -219h-66l-144 142l40 41l68 -67c45 -47 56 -61 66 -72z" />
    <glyph glyph-name="tlNGAA" horiz-adv-x="1075" 
d="M591 263l39 41c44 -33 70 -85 70 -145c0 -103 -66 -168 -161 -168c-92 0 -139 63 -153 105h-4c-14 -43 -60 -105 -163 -105s-163 61 -163 142c0 155 236 170 236 289c0 42 -27 79 -80 79c-49 0 -79 -35 -79 -76c0 -13 4 -35 12 -52h-59c-8 18 -11 37 -11 54
c0 73 57 129 137 129c91 0 140 -65 140 -134c0 -9 -1 -18 -2 -26h124v99h-91v51h505c96 0 157 -53 157 -137c0 -90 -68 -144 -140 -144c-100 0 -149 68 -149 138c0 54 29 87 43 92h-269v-99h160v-53h-363v1c-61 -85 -212 -110 -212 -210c0 -55 42 -88 106 -88
c81 0 134 57 134 148v26h57v-25c0 -94 54 -149 124 -149c65 0 106 39 106 113c0 44 -19 78 -51 104zM811 408c0 -54 33 -91 94 -91c49 0 84 37 84 92c0 57 -45 85 -92 85c-51 0 -86 -36 -86 -86z" />
    <glyph glyph-name="tlCAA" horiz-adv-x="1104" 
d="M135 281v3h-91v55h230v-55h-6c-89 0 -132 -63 -132 -126c0 -67 49 -112 114 -112c71 0 123 55 123 150v24h57v-26c0 -91 55 -148 126 -148c72 0 121 59 121 183c0 149 -97 264 -247 264h-36v53h523c96 0 157 -53 157 -138c0 -89 -67 -144 -140 -144
c-99 0 -148 69 -148 138c0 54 28 86 42 91h-229c82 -51 136 -146 136 -261c0 -163 -73 -241 -179 -241c-91 0 -138 61 -152 105h-4c-15 -42 -61 -105 -152 -105c-96 0 -171 69 -171 165c0 70 41 112 58 125zM840 407c0 -54 34 -91 94 -91c49 0 84 37 84 92
c0 57 -44 86 -92 86c-51 0 -86 -37 -86 -87z" />
    <glyph glyph-name="tlCHAA" horiz-adv-x="1104" 
d="M387 -15h28l18 -67c7 -30 12 -50 12 -70c0 -25 -15 -44 -43 -44c-29 0 -45 19 -45 44c0 20 4 40 13 70zM135 281v3h-91v55h230v-55h-6c-89 0 -132 -63 -132 -126c0 -67 49 -112 114 -112c71 0 123 55 123 150v24h57v-26c0 -91 55 -148 126 -148c72 0 121 59 121 183
c0 149 -97 264 -247 264h-36v53h523c96 0 157 -53 157 -138c0 -89 -67 -144 -140 -144c-99 0 -148 69 -148 138c0 54 28 86 42 91h-229c82 -51 136 -146 136 -261c0 -163 -73 -241 -179 -241c-91 0 -138 61 -152 105h-4c-15 -42 -61 -105 -152 -105c-96 0 -171 69 -171 165
c0 70 41 112 58 125zM840 407c0 -54 34 -91 94 -91c49 0 84 37 84 92c0 57 -44 86 -92 86c-51 0 -86 -37 -86 -87z" />
    <glyph glyph-name="tlJAA" horiz-adv-x="1038" 
d="M51 133c0 155 237 170 237 289c0 42 -28 79 -81 79c-48 0 -78 -35 -78 -76c0 -13 3 -35 11 -52h-59c-7 18 -10 37 -10 54c0 73 56 129 136 129h1h5h6c1 0 1 0 2 -1h2c38 -3 68 -19 89 -41c58 -49 103 -125 218 -125c43 0 63 21 63 50c0 30 -17 51 -58 56h-61v52h378
c97 0 157 -53 157 -138c0 -89 -67 -144 -140 -144c-99 0 -148 69 -148 138c0 55 27 86 41 92h-139c18 -12 30 -31 30 -56c0 -67 -39 -103 -119 -103c-71 0 -137 42 -187 90v-4c0 -155 -236 -163 -236 -288c0 -55 42 -88 106 -88c80 0 133 57 133 148v26h58v-25
c0 -94 53 -149 123 -149c65 0 106 39 106 113c0 40 -16 72 -43 96l40 43c40 -33 62 -82 62 -139c0 -104 -66 -168 -162 -168c-92 0 -139 63 -153 105h-4c-14 -43 -60 -105 -163 -105s-163 61 -163 142zM776 408c0 -54 33 -91 93 -91c49 0 84 37 84 92c0 57 -44 86 -91 86
c-51 0 -86 -37 -86 -87z" />
    <glyph glyph-name="tlJHAA" horiz-adv-x="1624" 
d="M1360 407c0 -54 34 -91 94 -91c49 0 84 37 84 92c0 57 -44 86 -92 86c-51 0 -86 -37 -86 -87zM827 -15h27l17 -67c8 -30 13 -50 13 -70c0 -25 -16 -44 -44 -44c-29 0 -44 19 -44 44c0 20 5 40 13 70zM306 546h4c8 12 22 28 67 73l144 144l41 -41l-187 -184
c112 -27 184 -126 184 -270c0 -59 -12 -110 -34 -152c38 -45 89 -70 150 -70c99 0 168 79 168 224c0 140 -82 221 -177 221v55c138 0 236 -109 236 -276c0 -63 -11 -116 -31 -158c38 -43 87 -66 147 -66c99 0 167 79 167 224c0 140 -81 222 -176 222v54h428
c96 0 157 -53 157 -138c0 -89 -67 -144 -140 -144c-99 0 -148 69 -148 138c0 54 28 86 41 91h-198c59 -45 96 -122 96 -223c0 -182 -91 -279 -226 -279c-73 0 -131 26 -178 73c-40 -48 -97 -73 -165 -73c-75 0 -135 28 -183 78c-44 -50 -108 -78 -185 -78
c-151 0 -252 107 -252 277c0 144 72 243 185 270l-109 106l40 41l67 -67c45 -46 59 -59 67 -72zM116 268c0 -144 79 -222 191 -222c113 0 193 78 193 222c0 145 -80 223 -193 223c-112 0 -191 -78 -191 -223z" />
    <glyph glyph-name="tlNYAA" horiz-adv-x="1324" 
d="M1062 407c0 -54 33 -91 92 -91c49 0 85 37 85 92c0 57 -44 86 -92 86c-51 0 -85 -37 -85 -87zM687 -51h-56c-6 37 -19 80 -40 120c-56 -48 -127 -78 -204 -78c-132 0 -201 63 -201 143c0 83 74 137 190 137c94 0 168 -47 221 -112c39 51 64 115 64 183
c0 93 -46 158 -125 158s-124 -57 -124 -148v-16h-57v15c0 93 -67 149 -137 149c-65 0 -114 -40 -114 -113c0 -35 10 -64 31 -87l-46 -35c-29 32 -45 75 -45 122c0 103 75 168 172 168c91 0 151 -64 165 -105h4c14 43 52 105 153 105c104 0 171 -77 181 -185h84v124h-75v52
h410c96 0 157 -53 157 -138c0 -89 -67 -144 -141 -144c-98 0 -148 69 -148 138c0 54 28 87 42 92h-190v-124h99v-54h-238c-6 -75 -38 -148 -88 -206c31 -52 50 -110 56 -161zM387 45c62 0 123 28 173 74c-42 55 -103 98 -184 98c-85 0 -131 -32 -131 -83
c0 -46 45 -89 142 -89z" />
    <glyph glyph-name="tlTTAA" horiz-adv-x="1173" 
d="M910 407c0 -54 33 -91 94 -91c49 0 84 37 84 92c0 57 -45 86 -92 86c-51 0 -86 -37 -86 -87zM130 378h-4c-6 -27 -11 -61 -11 -96c0 -141 61 -236 158 -236c79 0 132 57 132 149v25h57v-25c0 -92 50 -149 130 -149c75 0 142 65 142 221c0 130 -59 209 -127 225v54h380
c96 0 157 -53 157 -138c0 -89 -67 -144 -140 -144c-99 0 -149 69 -149 138c0 54 28 86 42 91h-190c50 -45 86 -119 86 -227c0 -184 -81 -275 -199 -275c-101 0 -144 62 -158 105h-4c-14 -43 -60 -105 -162 -105c-133 0 -214 119 -214 291c0 170 89 256 178 271l-6 152h66
l-6 -152c74 -11 122 -72 122 -146c0 -88 -61 -143 -143 -143c-99 0 -136 74 -137 114zM262 502c-66 0 -100 -46 -100 -91c0 -46 33 -93 99 -93c54 0 90 36 90 90c0 46 -28 94 -89 94z" />
    <glyph glyph-name="tlTTHAA" horiz-adv-x="939" 
d="M56 268c0 99 34 177 93 225h-117v53h720c97 0 157 -53 157 -138c0 -89 -67 -144 -140 -144c-99 0 -148 69 -148 138c0 54 28 86 42 91h-196c58 -48 92 -126 92 -225c0 -170 -101 -277 -251 -277c-151 0 -252 107 -252 277zM115 268c0 -144 80 -223 192 -223
c113 0 193 79 193 223c0 145 -80 223 -193 223c-112 0 -192 -78 -192 -223zM308 320c29 0 51 -21 51 -51c0 -27 -22 -50 -51 -50c-27 0 -50 23 -50 50c0 30 23 51 50 51zM676 407c0 -54 34 -91 93 -91c49 0 84 37 84 92c0 57 -44 86 -91 86c-51 0 -86 -37 -86 -87z" />
    <glyph glyph-name="tlDDAA" horiz-adv-x="1071" 
d="M58 493v53h826c96 0 157 -53 157 -138c0 -89 -67 -144 -140 -144c-100 0 -149 69 -149 138c0 54 29 86 42 91h-194c8 -5 16 -11 24 -17l-36 -44c-48 37 -112 59 -181 59c-171 0 -293 -126 -293 -284c0 -101 53 -161 131 -161c80 0 132 57 132 149v25h58v-25
c0 -95 59 -158 146 -158c16 0 29 3 41 7l-1 3c-1 -1 -8 -2 -13 -2c-51 0 -114 43 -114 126c0 73 56 134 137 134c77 0 140 -56 140 -140c0 -114 -88 -174 -188 -174c-107 0 -159 64 -175 105h-3c-15 -44 -62 -105 -163 -105c-113 0 -188 85 -188 216c0 122 62 226 160 286
h-156zM807 407c0 -54 33 -91 94 -91c49 0 84 37 84 92c0 57 -45 86 -92 86c-51 0 -86 -37 -86 -87zM547 166c0 -67 54 -98 94 -98c35 0 74 34 74 98c0 50 -36 87 -83 87c-48 0 -85 -35 -85 -87z" />
    <glyph glyph-name="tlDDHAA" horiz-adv-x="1071" 
d="M420 -15l18 -67c7 -30 12 -50 12 -70c0 -25 -16 -44 -43 -44c-29 0 -45 19 -45 44c0 20 5 40 13 70l17 67h28zM622 44l-1 3c-1 -1 -8 -2 -13 -2c-51 0 -114 43 -114 126c0 73 56 134 137 134c77 0 140 -56 140 -140c0 -114 -88 -174 -188 -174c-107 0 -159 64 -175 105
h-3c-15 -44 -62 -105 -163 -105c-113 0 -188 85 -188 216c0 122 62 226 160 286h-156v53h826c96 0 157 -53 157 -138c0 -89 -67 -144 -140 -144c-100 0 -149 69 -149 138c0 54 29 86 42 91h-194c8 -5 16 -11 24 -17l-36 -44c-48 37 -112 59 -181 59
c-171 0 -293 -126 -293 -284c0 -101 53 -161 131 -161c80 0 132 57 132 149v25h58v-25c0 -95 59 -158 146 -158c16 0 29 3 41 7zM547 166c0 -67 54 -98 94 -98c35 0 74 34 74 98c0 50 -36 87 -83 87c-48 0 -85 -35 -85 -87zM807 407c0 -54 33 -91 94 -91c49 0 84 37 84 92
c0 57 -45 86 -92 86c-51 0 -86 -37 -86 -87z" />
    <glyph glyph-name="tlNNAA" horiz-adv-x="1145" 
d="M46 493v53h912c96 0 158 -53 158 -138c0 -89 -68 -144 -141 -144c-99 0 -149 69 -149 138c0 54 29 86 43 91h-185c50 -45 78 -122 78 -229c0 -187 -103 -269 -201 -269c-89 0 -145 63 -145 140c0 87 62 144 142 144c98 0 132 -73 133 -112h4c5 26 12 62 12 97
c0 150 -62 229 -157 229c-71 0 -114 -45 -121 -125h-58c-8 80 -61 125 -135 125c-76 0 -112 -34 -112 -87c0 -62 46 -103 125 -103h22v-54h-21c-89 0 -131 -43 -131 -104c0 -59 40 -96 116 -96c26 0 53 8 74 21l20 -54c-27 -14 -58 -21 -96 -21c-106 0 -174 57 -174 149
c0 78 53 121 106 131v4c-42 12 -101 48 -101 128c0 36 11 64 32 86h-50zM881 407c0 -54 34 -91 94 -91c49 0 84 37 84 92c0 57 -43 86 -92 86c-50 0 -86 -37 -86 -87zM398 444h4c5 16 14 34 27 49h-62c15 -15 25 -32 31 -49zM562 48c65 0 96 37 96 83s-26 94 -96 94
c-52 0 -87 -38 -87 -91c0 -42 24 -86 87 -86z" />
    <glyph glyph-name="tlTAA" horiz-adv-x="1139" 
d="M61 493v53h891c96 0 158 -53 158 -138c0 -89 -68 -144 -141 -144c-99 0 -149 69 -149 138c0 54 28 86 43 91h-169c34 -30 52 -73 52 -129v-9c12 -23 19 -50 19 -80c0 -155 -131 -284 -356 -284s-355 129 -355 284c0 94 67 161 157 161c89 0 148 -60 148 -144
c0 -83 -61 -140 -139 -140c-35 0 -60 8 -80 26l-3 -3c43 -76 136 -130 272 -130s230 54 272 130l-3 3c-20 -18 -44 -26 -79 -26c-78 0 -140 57 -140 140c0 84 60 144 149 144c29 0 56 -7 79 -20c-16 43 -62 72 -132 77h-494zM875 407c0 -54 34 -91 94 -91c49 0 85 37 85 92
c0 57 -45 86 -92 86c-51 0 -87 -37 -87 -87zM210 384c-59 0 -98 -45 -98 -97c0 -51 31 -90 97 -90c59 0 93 41 93 95c0 56 -36 92 -92 92zM608 384c-55 0 -92 -36 -92 -92c0 -54 34 -95 94 -95c66 0 96 39 96 90c0 52 -40 97 -98 97z" />
    <glyph glyph-name="tlTHAA" horiz-adv-x="1111" 
d="M62 493v53h863c96 0 157 -53 157 -138c0 -89 -68 -144 -140 -144c-100 0 -149 69 -149 138c0 54 28 86 43 91h-238c97 -59 160 -164 160 -286c0 -131 -75 -216 -188 -216c-101 0 -147 61 -162 105h-3c-15 -44 -62 -105 -163 -105c-113 0 -188 85 -188 216
c0 122 63 227 160 286h-152zM848 407c0 -54 34 -91 94 -91c49 0 84 37 84 92c0 57 -44 86 -92 86c-51 0 -86 -37 -86 -87zM406 411c29 0 52 -23 52 -52c0 -27 -23 -49 -52 -49c-28 0 -50 22 -50 49c0 29 22 52 50 52zM435 219v-24c0 -92 52 -149 132 -149
c78 0 131 60 131 161c0 158 -120 284 -291 284s-293 -126 -293 -284c0 -101 53 -161 131 -161c80 0 132 57 132 149v24h58zM392 -15h28l17 -67c8 -30 13 -50 13 -70c0 -25 -16 -44 -43 -44c-29 0 -45 19 -45 44c0 20 5 40 12 70z" />
    <glyph glyph-name="tlDAA" horiz-adv-x="1111" 
d="M62 493v53h863c96 0 157 -53 157 -138c0 -89 -68 -144 -140 -144c-100 0 -149 69 -149 138c0 54 28 86 43 91h-238c97 -59 160 -164 160 -286c0 -131 -75 -216 -188 -216c-101 0 -147 61 -162 105h-3c-15 -44 -62 -105 -163 -105c-113 0 -188 85 -188 216
c0 122 63 227 160 286h-152zM848 407c0 -54 34 -91 94 -91c49 0 84 37 84 92c0 57 -44 86 -92 86c-51 0 -86 -37 -86 -87zM435 220v-25c0 -92 52 -149 132 -149c78 0 131 60 131 161c0 158 -120 284 -291 284s-293 -126 -293 -284c0 -101 53 -161 131 -161
c80 0 132 57 132 149v25h58z" />
    <glyph glyph-name="tlDHAA" horiz-adv-x="1111" 
d="M405 96c-15 -44 -62 -105 -163 -105c-113 0 -188 85 -188 216c0 122 63 227 160 286h-152v53h863c96 0 157 -53 157 -138c0 -89 -68 -144 -140 -144c-100 0 -149 69 -149 138c0 54 28 86 43 91h-238c97 -59 160 -164 160 -286c0 -131 -75 -216 -188 -216
c-101 0 -147 61 -162 105h-3zM450 -152c0 -25 -16 -44 -43 -44c-29 0 -45 19 -45 44c0 20 5 40 12 70l18 67h28l17 -67c8 -30 13 -50 13 -70zM114 207c0 -101 53 -161 131 -161c80 0 132 57 132 149v25h58v-25c0 -92 52 -149 132 -149c78 0 131 60 131 161
c0 158 -120 284 -291 284s-293 -126 -293 -284zM848 407c0 -54 34 -91 94 -91c49 0 84 37 84 92c0 57 -44 86 -92 86c-51 0 -86 -37 -86 -87z" />
    <glyph glyph-name="tlNAA" horiz-adv-x="1072" 
d="M809 407c0 -54 33 -91 94 -91c49 0 84 37 84 92c0 57 -45 86 -92 86c-51 0 -86 -37 -86 -87zM159 17l-46 -32c-33 32 -73 89 -73 175c0 91 63 165 156 165c181 0 184 -280 321 -280c74 0 121 70 121 195c0 147 -89 253 -254 253h-342v53h844c96 0 156 -53 156 -138
c0 -89 -67 -144 -139 -144c-100 0 -149 69 -149 138c0 54 28 86 42 91h-227c78 -49 126 -139 126 -252c0 -163 -68 -250 -174 -250c-187 0 -183 278 -325 278c-54 0 -97 -37 -97 -110c0 -65 30 -110 60 -142z" />
    <glyph glyph-name="tlPAA" horiz-adv-x="1090" 
d="M47 493v53h534c-48 84 -120 130 -204 131v58c109 0 212 -64 270 -189h257c96 0 156 -53 156 -138c0 -89 -67 -144 -139 -144c-100 0 -149 69 -149 138c0 54 28 86 42 91h-146c18 -57 29 -125 29 -202c0 -233 -86 -300 -181 -300c-71 0 -114 43 -148 95
c-45 -65 -96 -95 -166 -95c-97 0 -162 70 -162 169c0 91 62 165 156 165c179 0 189 -280 316 -280c105 0 127 142 127 245c0 78 -12 146 -34 203h-558zM827 407c0 -54 33 -91 94 -91c49 0 84 37 84 92c0 57 -45 85 -92 85c-51 0 -86 -36 -86 -86zM202 44c62 0 109 48 135 96
c-37 67 -72 130 -141 130c-54 0 -98 -38 -98 -110c0 -66 42 -116 104 -116z" />
    <glyph glyph-name="tlPHAA" horiz-adv-x="1090" 
d="M346 -15h27l19 -67c7 -30 12 -50 12 -70c0 -25 -15 -44 -44 -44c-28 0 -44 19 -44 44c0 20 4 40 13 70zM47 493v53h534c-48 84 -120 130 -204 131v58c109 0 212 -64 270 -189h257c96 0 156 -53 156 -138c0 -89 -67 -144 -139 -144c-100 0 -149 69 -149 138
c0 54 28 86 42 91h-146c18 -57 29 -125 29 -202c0 -233 -86 -300 -181 -300c-71 0 -114 43 -148 95c-45 -65 -96 -95 -166 -95c-97 0 -162 70 -162 169c0 91 62 165 156 165c179 0 189 -280 316 -280c105 0 127 142 127 245c0 78 -12 146 -34 203h-558zM827 407
c0 -54 33 -91 94 -91c49 0 84 37 84 92c0 57 -45 85 -92 85c-51 0 -86 -36 -86 -86zM202 44c62 0 109 48 135 96c-37 67 -72 130 -141 130c-54 0 -98 -38 -98 -110c0 -66 42 -116 104 -116z" />
    <glyph glyph-name="tlBAA" horiz-adv-x="1119" 
d="M857 407c0 -54 33 -91 92 -91c50 0 85 37 85 92c0 57 -44 86 -92 86c-51 0 -85 -37 -85 -87zM684 246c0 124 -65 242 -207 242v58h456c96 0 157 -53 157 -138c0 -89 -67 -144 -141 -144c-98 0 -148 69 -148 138c0 54 28 86 42 91h-214c65 -44 114 -121 114 -238
c0 -179 -89 -264 -199 -264c-95 0 -149 63 -163 105h-4c-14 -43 -60 -105 -163 -105s-163 61 -163 142c0 155 237 170 237 289c0 42 -28 79 -81 79c-48 0 -78 -35 -78 -76c0 -13 3 -35 11 -52h-59c-7 18 -10 37 -10 54c0 73 56 129 136 129c91 0 140 -65 140 -134
c0 -155 -236 -163 -236 -288c0 -55 42 -88 106 -88c80 0 133 57 133 148v26h58v-25c0 -94 60 -149 134 -149s142 68 142 200z" />
    <glyph glyph-name="tlBHAA" horiz-adv-x="1119" 
d="M423 -152c0 -25 -16 -44 -44 -44c-29 0 -45 19 -45 44c0 20 6 40 14 70l17 67h28l17 -67c8 -30 13 -50 13 -70zM684 246c0 124 -65 242 -207 242v58h456c96 0 157 -53 157 -138c0 -89 -67 -144 -141 -144c-98 0 -148 69 -148 138c0 54 28 86 42 91h-214
c65 -44 114 -121 114 -238c0 -179 -89 -264 -199 -264c-95 0 -149 63 -163 105h-4c-14 -43 -60 -105 -163 -105s-163 61 -163 142c0 155 237 170 237 289c0 42 -28 79 -81 79c-48 0 -78 -35 -78 -76c0 -13 3 -35 11 -52h-59c-7 18 -10 37 -10 54c0 73 56 129 136 129
c91 0 140 -65 140 -134c0 -155 -236 -163 -236 -288c0 -55 42 -88 106 -88c80 0 133 57 133 148v26h58v-25c0 -94 60 -149 134 -149s142 68 142 200zM857 407c0 -54 33 -91 92 -91c50 0 85 37 85 92c0 57 -44 86 -92 86c-51 0 -85 -37 -85 -87z" />
    <glyph glyph-name="tlMAA" horiz-adv-x="1417" 
d="M1153 407c0 -54 33 -91 94 -91c49 0 84 37 84 92c0 57 -45 86 -92 86c-51 0 -86 -37 -86 -87zM794 493v53h436c96 0 157 -53 157 -138c0 -89 -67 -144 -140 -144c-99 0 -149 69 -149 138c0 54 29 86 42 91h-196c59 -46 94 -123 94 -223c0 -182 -91 -279 -226 -279
c-66 0 -121 22 -166 61c-30 -40 -74 -61 -124 -61c-76 0 -120 43 -154 95c-46 -66 -96 -95 -166 -95c-96 0 -162 70 -162 169c0 91 62 165 156 165c183 0 183 -280 322 -280c69 0 120 64 120 185c0 123 -79 263 -273 263h-59l-145 142l39 41l68 -67c46 -47 58 -60 68 -73h3
c8 11 21 28 67 73l144 144l41 -41l-173 -171c179 -24 277 -159 277 -314c0 -49 -8 -91 -21 -125c36 -36 82 -56 137 -56c99 0 168 79 168 224c0 140 -82 222 -177 222v1h-8zM202 44c62 0 109 47 135 96c-37 66 -71 130 -141 130c-54 0 -98 -38 -98 -110
c0 -66 42 -116 104 -116z" />
    <glyph glyph-name="tlYAA" horiz-adv-x="1624" 
d="M1001 493v53h436c96 0 157 -53 157 -138c0 -89 -67 -144 -140 -144c-99 0 -149 69 -149 138c0 54 29 86 42 91h-196c58 -46 94 -123 94 -223c0 -182 -91 -279 -226 -279c-73 0 -131 26 -178 73c-40 -48 -97 -73 -165 -73c-75 0 -135 28 -183 78
c-44 -50 -108 -78 -185 -78c-151 0 -252 107 -252 277c0 171 101 278 252 278c150 0 251 -107 251 -278c0 -59 -12 -110 -34 -152c38 -45 89 -70 150 -70c99 0 168 79 168 224c0 140 -82 223 -178 223h-37l-145 142l40 41l67 -67c46 -47 58 -60 67 -72h4c8 11 22 27 68 73
l143 143l40 -41l-179 -177c102 -29 169 -128 169 -265c0 -63 -11 -116 -31 -158c38 -43 87 -66 147 -66c99 0 167 79 167 224c0 140 -81 222 -176 222v1h-8zM1360 407c0 -54 33 -91 94 -91c49 0 84 37 84 92c0 57 -45 86 -92 86c-51 0 -86 -37 -86 -87zM116 268
c0 -144 79 -222 191 -222c113 0 193 78 193 222c0 145 -80 223 -193 223c-112 0 -191 -78 -191 -223z" />
    <glyph glyph-name="tlRAA" horiz-adv-x="938" 
d="M56 268c0 99 34 177 93 225h-126v53h728c96 0 158 -53 158 -138c0 -89 -68 -144 -141 -144c-100 0 -149 69 -149 138c0 54 29 86 43 91h-195c58 -48 92 -126 92 -225c0 -170 -101 -277 -251 -277c-151 0 -252 107 -252 277zM116 268c0 -144 79 -222 191 -222
c113 0 193 78 193 222c0 145 -80 223 -193 223c-112 0 -191 -78 -191 -223zM674 407c0 -54 34 -91 94 -91c49 0 84 37 84 92c0 57 -44 86 -92 86c-51 0 -86 -37 -86 -87z" />
    <glyph glyph-name="tlLAA" horiz-adv-x="1091" 
d="M261 502c-65 0 -100 -47 -100 -92s34 -94 100 -94c55 0 90 37 90 92c0 46 -28 94 -90 94zM513 493v53h393c96 0 156 -53 156 -138c0 -89 -67 -144 -140 -144c-99 0 -149 69 -149 138c0 54 28 86 43 91h-184c48 -40 78 -107 78 -198c0 -174 -131 -304 -326 -304
c-203 0 -328 148 -328 315c0 140 91 249 205 249c90 0 149 -66 149 -148c0 -90 -63 -145 -144 -145c-99 0 -137 79 -138 117h-4c-6 -27 -10 -37 -10 -73c0 -129 103 -260 270 -260c156 0 266 104 266 249c0 129 -71 194 -137 198zM829 407c0 -54 33 -91 93 -91
c49 0 85 37 85 92c0 57 -45 86 -92 86c-51 0 -86 -37 -86 -87z" />
    <glyph glyph-name="tlVAA" horiz-adv-x="1063" 
d="M52 493v53h825c96 0 157 -53 157 -138c0 -89 -67 -144 -141 -144c-98 0 -149 69 -149 138c0 54 29 86 43 91h-233c94 -56 141 -156 141 -266c0 -154 -74 -236 -173 -236c-76 0 -120 43 -154 95c-46 -66 -96 -95 -166 -95c-96 0 -162 70 -162 169c0 91 62 165 156 165
c183 0 183 -280 322 -280c69 0 120 64 120 185c0 123 -79 263 -273 263h-313zM800 407c0 -54 33 -91 93 -91c49 0 85 37 85 92c0 57 -45 86 -92 86c-51 0 -86 -37 -86 -87zM202 44c62 0 109 47 135 96c-37 66 -71 130 -141 130c-54 0 -98 -38 -98 -110
c0 -66 42 -116 104 -116z" />
    <glyph glyph-name="tlSHAA" horiz-adv-x="849" 
d="M64 493v53h598c97 0 157 -53 157 -138c0 -89 -67 -144 -140 -144c-99 0 -148 69 -148 138c0 54 28 86 42 91h-144c15 -16 24 -38 24 -68c0 -36 -14 -66 -34 -93c48 -45 80 -108 80 -179c0 -96 -64 -162 -157 -162c-96 0 -144 67 -144 136c0 86 82 141 140 197
c-28 14 -59 22 -91 22c-100 0 -135 -63 -135 -113c0 -32 8 -53 17 -68l-51 -20c-12 17 -24 49 -24 88c0 82 66 167 193 167c45 0 88 -13 126 -35c13 19 21 38 21 60c0 37 -27 68 -94 68h-236zM586 407c0 -54 33 -91 93 -91c49 0 84 37 84 92c0 57 -44 86 -91 86
c-51 0 -86 -37 -86 -87zM342 44c53 0 100 36 100 109c0 57 -23 105 -59 139c-57 -55 -127 -102 -127 -165c0 -46 29 -83 86 -83z" />
    <glyph glyph-name="tlSSAA" horiz-adv-x="1089" 
d="M601 -38c0 21 5 42 12 62c-28 -24 -62 -33 -97 -33c-71 0 -114 43 -148 95c-45 -65 -96 -95 -166 -95c-97 0 -162 70 -162 169c0 91 62 165 156 165c179 0 189 -280 316 -280c104 0 126 141 126 247c0 77 -12 145 -33 201h-558v53h534c-47 84 -120 130 -204 131v58
c109 0 212 -64 270 -189h256c96 0 156 -53 156 -138c0 -89 -67 -144 -139 -144c-100 0 -149 69 -149 138c0 54 28 86 42 91h-146c19 -57 29 -124 29 -200c0 -81 -10 -141 -27 -186c-12 -39 -20 -77 -20 -120c0 -47 13 -82 46 -114l-49 -27c-30 33 -45 70 -45 116zM202 44
c62 0 109 48 135 96c-37 67 -72 130 -141 130c-54 0 -98 -38 -98 -110c0 -66 42 -116 104 -116zM826 407c0 -54 33 -91 94 -91c49 0 84 37 84 92c0 57 -45 85 -92 85c-51 0 -86 -36 -86 -86z" />
    <glyph glyph-name="tlSAA" horiz-adv-x="1089" 
d="M516 -9c-182 0 -175 278 -320 278c-54 0 -97 -37 -97 -110c0 -65 30 -110 60 -142l-46 -32c-35 31 -74 89 -74 175c0 91 64 165 157 165c179 0 189 -280 316 -280c104 0 126 141 126 247c0 77 -12 145 -33 201h-558v53h534c-47 84 -120 130 -204 131v58
c109 0 212 -64 270 -189h256c96 0 156 -53 156 -138c0 -89 -67 -144 -139 -144c-100 0 -149 69 -149 138c0 54 27 86 42 91h-146c19 -57 29 -124 29 -200c0 -235 -85 -302 -180 -302zM826 407c0 -54 33 -91 94 -91c49 0 84 37 84 92c0 57 -45 85 -92 85
c-51 0 -86 -36 -86 -86z" />
    <glyph glyph-name="tlHAA" horiz-adv-x="1079" 
d="M246 537h4c7 11 22 27 68 73l142 143l41 -41l-222 -219h-63l-144 142l40 41l67 -67c46 -47 58 -60 67 -72zM797 407c0 -54 33 -91 94 -91c49 0 84 37 84 92c0 57 -45 86 -92 86c-51 0 -86 -37 -86 -87zM448 492v54h418c-16 18 -28 41 -28 72c0 58 47 102 117 102
c37 0 74 -11 96 -27l-25 -47c-18 14 -44 22 -71 22c-36 0 -60 -17 -60 -50c0 -49 54 -73 92 -108c28 -24 43 -59 43 -102c0 -89 -67 -144 -139 -144c-100 0 -149 69 -149 138c0 59 34 88 48 91h-203c74 -57 109 -161 109 -266c0 -154 -75 -236 -174 -236
c-76 0 -119 43 -154 95c-45 -66 -96 -95 -166 -95c-96 0 -162 70 -162 169c0 91 62 165 156 165c183 0 184 -280 323 -280c68 0 119 64 119 185c0 109 -52 262 -190 262zM202 44c62 0 109 47 135 96c-37 66 -71 130 -141 130c-54 0 -97 -38 -97 -110c0 -66 41 -116 103 -116
z" />
    <glyph glyph-name="tlRRAA" horiz-adv-x="1198" 
d="M936 407c0 -54 33 -91 93 -91c49 0 85 37 85 92c0 57 -45 86 -92 86c-51 0 -86 -37 -86 -87zM520 304v5c-23 13 -50 50 -50 100c0 84 57 137 145 137h398c96 0 156 -53 156 -138c0 -89 -67 -144 -140 -144c-99 0 -149 69 -149 138c0 59 35 88 49 91h-186
c43 -42 72 -112 72 -211c0 -173 -83 -287 -215 -287c-102 0 -148 62 -162 106h-4c-15 -44 -61 -106 -163 -106c-133 0 -215 115 -215 286c0 187 108 270 206 270c89 0 147 -67 147 -148c0 -88 -62 -144 -144 -144c-99 0 -134 75 -135 114h-4c-6 -23 -11 -56 -11 -92
c0 -141 61 -231 158 -231c80 0 133 58 133 149v16h58v-15c0 -92 54 -150 133 -150c98 0 159 89 159 231c0 157 -78 211 -140 211c-61 0 -90 -41 -90 -87c0 -60 37 -97 98 -101h18v-49h-231v49h109zM262 497c-66 0 -100 -45 -100 -91c0 -45 33 -93 98 -93c55 0 90 36 90 92
c0 45 -27 92 -88 92z" />
    <glyph glyph-name="tlRRRAA" horiz-adv-x="1118" 
d="M62 493v53h870c96 0 156 -53 156 -138c0 -89 -67 -144 -139 -144c-100 0 -149 69 -149 138c0 54 28 86 42 91h-244c97 -59 160 -164 160 -286c0 -131 -75 -216 -188 -216c-101 0 -147 61 -162 105h-3c-15 -44 -62 -105 -163 -105c-113 0 -188 85 -188 216
c0 122 63 227 160 286h-152zM855 407c0 -54 33 -91 94 -91c49 0 84 37 84 92c0 57 -45 86 -92 86c-51 0 -86 -37 -86 -87zM407 491c-134 0 -239 -78 -277 -188h552c-38 110 -141 188 -275 188zM377 190h58c2 -89 54 -144 132 -144s131 60 131 161c0 15 -1 30 -3 45h-578
c-2 -15 -3 -30 -3 -45c0 -101 53 -161 131 -161s130 55 132 144z" />
    <glyph glyph-name="tlLLAA" horiz-adv-x="978" 
d="M529 117c0 -67 -57 -126 -169 -126s-169 60 -169 126c0 56 35 89 82 113c-112 31 -229 72 -229 193c0 72 58 128 139 128c83 0 136 -60 136 -128c0 -72 -59 -111 -113 -111l-2 -4c52 -19 102 -33 146 -46c87 32 179 62 179 155c0 47 -32 76 -73 76h-16v53h352
c96 0 157 -53 157 -138c0 -89 -67 -144 -141 -144c-98 0 -148 69 -148 138c0 59 34 88 49 91h-150c16 -16 28 -41 28 -76c0 -108 -82 -149 -165 -180c66 -26 107 -58 107 -120zM360 44c70 0 109 30 109 73c0 48 -54 72 -123 92c-54 -20 -96 -45 -96 -92
c0 -43 41 -73 110 -73zM102 422c0 -53 38 -80 78 -80c42 0 84 29 84 79c0 46 -28 78 -80 78s-82 -34 -82 -77zM715 407c0 -54 34 -91 93 -91c49 0 85 37 85 92c0 57 -44 86 -92 86c-51 0 -86 -37 -86 -87z" />
    <glyph glyph-name="tlLLLAA" horiz-adv-x="1198" 
d="M262 497c-66 0 -100 -45 -100 -91c0 -45 33 -93 98 -93c55 0 90 36 90 92c0 45 -27 92 -88 92zM438 101h-4c-15 -44 -61 -106 -163 -106c-133 0 -215 115 -215 286c0 187 108 270 206 270c89 0 147 -67 147 -148c0 -88 -62 -144 -144 -144c-99 0 -134 75 -135 114h-4
c-6 -23 -11 -56 -11 -92c0 -141 61 -231 158 -231c80 0 133 58 133 149v17h58v-17c0 -91 53 -149 133 -149c98 0 159 85 159 226c0 36 -6 69 -11 92h-4c-1 -39 -37 -113 -135 -113c-82 0 -145 55 -145 143c0 81 59 148 148 148h8h396c96 0 156 -53 156 -138
c0 -89 -67 -144 -140 -144c-99 0 -149 69 -149 138c0 59 35 88 49 91h-192c46 -43 78 -115 78 -217c0 -171 -83 -281 -216 -281c-101 0 -147 62 -161 106zM610 492c-63 0 -90 -47 -90 -92c0 -56 36 -92 91 -92c65 0 98 48 98 94c0 45 -34 90 -99 90zM936 407
c0 -54 33 -91 93 -91c49 0 85 37 85 92c0 57 -45 86 -92 86c-51 0 -86 -37 -86 -87z" />
    <glyph glyph-name="tlKI" horiz-adv-x="506" 
d="M48 41l25 52c49 -26 112 -47 184 -47c107 0 155 43 155 97c0 147 -356 28 -356 249c0 46 24 90 70 119c-22 8 -43 19 -61 32l27 52c36 -28 90 -49 149 -49c85 0 152 46 152 136c0 13 -1 27 -4 39c-5 -52 -48 -95 -112 -95c-62 0 -124 41 -124 113c0 62 48 112 129 112
c102 0 167 -80 167 -169c0 -68 -29 -120 -76 -153c28 -8 52 -19 69 -31l-27 -47c-45 29 -101 40 -152 40c-99 0 -148 -47 -148 -99c0 -155 356 -43 356 -249c0 -86 -74 -152 -214 -152c-85 0 -161 21 -209 50zM285 681c45 1 68 27 67 60c-1 30 -27 57 -72 56
c-44 -2 -68 -30 -67 -60c2 -35 28 -57 72 -56z" />
    <glyph glyph-name="tlKHI" horiz-adv-x="896" 
d="M435 408c10 -60 -42 -124 -125 -124c-97 0 -144 70 -144 137c0 68 51 134 147 134c118 0 203 -102 203 -259c0 -73 -25 -142 -70 -195c44 -32 92 -56 150 -56c134 0 183 142 183 272c0 164 -40 282 -100 346h-8c10 -69 -41 -120 -115 -120c-62 0 -124 42 -124 113
c0 63 47 113 129 113c157 0 276 -170 276 -450c0 -147 -55 -328 -241 -328c-79 0 -139 31 -191 69c-51 -43 -119 -69 -196 -69c-124 0 -179 67 -179 142c0 65 45 128 144 128c94 0 160 -67 229 -126c37 45 57 101 57 160c0 45 -7 83 -20 114zM209 45c61 0 113 19 153 50
c-64 56 -118 113 -188 113c-57 0 -86 -31 -86 -75c0 -46 29 -88 121 -88zM450 -152c0 -25 -17 -44 -45 -44c-27 0 -44 19 -44 44c0 20 5 40 13 70l18 67h27l17 -67c8 -30 14 -50 14 -70zM224 421c0 -43 30 -83 87 -83c59 0 90 41 90 83c0 44 -30 82 -88 82
c-57 0 -89 -39 -89 -82zM560 596c46 0 70 27 70 60c0 32 -24 60 -70 60s-70 -28 -70 -60c0 -35 25 -60 70 -60z" />
    <glyph glyph-name="tlGI" horiz-adv-x="589" 
d="M178 13l-51 -25c-34 46 -71 132 -71 251c0 116 43 215 116 268c-28 8 -53 20 -74 36l27 52c36 -28 90 -49 149 -49c85 0 152 46 152 136c0 13 -1 27 -4 39c-5 -52 -48 -95 -112 -95c-62 0 -124 41 -124 113c0 62 48 112 129 112c102 0 167 -80 167 -169
c0 -74 -34 -129 -88 -161c86 -46 138 -154 138 -282c0 -121 -29 -205 -62 -251l-51 25c35 57 54 123 54 226c0 146 -79 252 -179 252c-99 0 -178 -106 -178 -252c0 -103 28 -172 62 -226zM318 681c45 1 68 27 67 60c-1 30 -27 57 -72 56c-44 -2 -68 -30 -67 -60
c2 -35 28 -57 72 -56z" />
    <glyph glyph-name="tlGHI" horiz-adv-x="1094" 
d="M346 -15h27l18 -67c9 -30 12 -50 13 -70c0 -25 -16 -44 -44 -44s-44 19 -44 44c0 20 4 40 12 70zM447 488v58c159 -4 248 -139 248 -301c0 -56 -8 -103 -23 -141c36 -38 83 -58 139 -58c99 0 167 79 167 224c0 140 -81 221 -177 221v55c138 0 237 -109 237 -276
c0 -182 -91 -279 -226 -279c-67 0 -122 23 -167 63c-32 -42 -76 -63 -128 -63c-73 0 -115 43 -149 95c-46 -66 -96 -95 -167 -95c-96 0 -162 70 -162 169c0 91 63 165 156 165c180 0 189 -280 317 -280c75 0 125 69 125 202c0 116 -56 241 -190 241zM201 44
c63 0 110 47 135 95c-36 67 -71 131 -141 131c-54 0 -97 -38 -97 -110c0 -66 41 -116 103 -116zM291 681c44 1 68 27 67 60c-2 30 -27 57 -72 56c-45 -2 -68 -30 -67 -60c1 -35 28 -57 72 -56zM98 595c35 -28 90 -49 149 -49c85 0 152 46 152 136c0 14 -1 28 -4 41
c-4 -53 -47 -97 -113 -97c-61 0 -123 41 -123 113c0 62 47 112 129 112c102 0 167 -80 167 -169c0 -119 -88 -190 -208 -190c-68 0 -130 17 -177 51z" />
    <glyph glyph-name="tlNGI" horiz-adv-x="755" 
d="M585 264l39 42c45 -33 72 -86 72 -147c0 -103 -66 -168 -162 -168c-92 0 -139 63 -153 105h-4c-14 -43 -60 -105 -163 -105s-163 61 -163 142c0 155 237 170 237 289c0 42 -28 79 -81 79c-48 0 -78 -35 -78 -76c0 -13 3 -35 11 -52h-59c-7 18 -10 37 -10 54
c0 73 56 129 136 129c91 0 140 -65 140 -134c0 -8 -1 -17 -2 -24h123v97c-46 2 -91 13 -127 31l22 50c33 -17 73 -29 115 -29c85 0 152 47 152 137c0 14 -1 27 -4 40c-5 -53 -48 -96 -112 -96c-62 0 -124 41 -124 113c0 62 48 112 129 112c103 0 167 -80 167 -169
c0 -103 -66 -169 -161 -185v-101h160v-53h-362c-60 -86 -212 -111 -212 -211c0 -55 42 -88 106 -88c80 0 133 57 133 148v26h58v-25c0 -94 53 -149 123 -149c65 0 106 39 106 113c0 45 -19 79 -52 105zM522 683c45 1 69 27 67 60c-1 30 -27 57 -72 56
c-44 -2 -68 -30 -67 -60c2 -35 28 -58 72 -56z" />
    <glyph glyph-name="tlCI" horiz-adv-x="792" 
d="M556 -9c-91 0 -138 61 -152 105h-4c-15 -42 -61 -105 -152 -105c-96 0 -171 69 -171 165c0 70 41 112 58 125v3h-91v55h230v-55h-6c-89 0 -132 -63 -132 -126c0 -67 49 -112 114 -112c71 0 123 55 123 150v24h57v-26c0 -91 55 -148 126 -148c72 0 122 60 122 184
c0 154 -71 261 -153 311c6 -11 9 -22 9 -35c0 -70 -51 -109 -120 -109c-63 0 -128 42 -128 114c0 63 48 113 130 113c155 0 319 -156 319 -390c0 -164 -72 -243 -179 -243zM416 571c-46 0 -72 -29 -72 -60c0 -36 27 -60 72 -60c46 0 72 26 72 60c0 31 -26 60 -72 60z" />
    <glyph glyph-name="tlCHI" horiz-adv-x="792" 
d="M387 -15h28l18 -67c7 -30 12 -50 12 -70c0 -25 -15 -44 -43 -44c-29 0 -45 19 -45 44c0 20 4 40 13 70zM556 -9c-91 0 -138 61 -152 105h-4c-15 -42 -61 -105 -152 -105c-96 0 -171 69 -171 165c0 70 41 112 58 125v3h-91v55h230v-55h-6c-89 0 -132 -63 -132 -126
c0 -67 49 -112 114 -112c71 0 123 55 123 150v24h57v-26c0 -91 55 -148 126 -148c72 0 122 60 122 184c0 154 -71 261 -153 311c6 -11 9 -22 9 -35c0 -70 -51 -109 -120 -109c-63 0 -128 42 -128 114c0 63 48 113 130 113c155 0 319 -156 319 -390
c0 -164 -72 -243 -179 -243zM416 571c-46 0 -72 -29 -72 -60c0 -36 27 -60 72 -60c46 0 72 26 72 60c0 31 -26 60 -72 60z" />
    <glyph glyph-name="tlJI" horiz-adv-x="751" 
d="M51 133c0 155 237 170 237 289c0 42 -28 79 -81 79c-48 0 -78 -35 -78 -76c0 -13 3 -35 11 -52h-59c-7 18 -10 37 -10 54c0 73 56 129 136 129h1c150 0 149 -178 317 -178c55 0 123 41 123 129c0 14 -1 27 -4 40c-5 -53 -48 -96 -112 -96c-62 0 -124 41 -124 113
c0 62 48 112 129 112c103 0 167 -80 167 -169c0 -117 -88 -183 -179 -183c-74 0 -127 31 -178 86c-12 -143 -236 -154 -236 -276c0 -55 42 -88 106 -88c80 0 133 57 133 148v26h58v-25c0 -94 53 -149 123 -149c65 0 106 39 106 113c0 38 -14 68 -38 91l41 42
c36 -33 56 -80 56 -133c0 -104 -66 -168 -162 -168c-92 0 -139 63 -153 105h-4c-14 -43 -60 -105 -163 -105s-163 61 -163 142zM610 564c0 31 -26 60 -72 60s-72 -29 -72 -60c0 -36 27 -60 72 -60c46 0 72 26 72 60z" />
    <glyph glyph-name="tlJHI" horiz-adv-x="1301" 
d="M827 -15h27l17 -67c8 -30 13 -50 13 -70c0 -25 -16 -44 -44 -44c-29 0 -44 19 -44 44c0 20 5 40 13 70zM56 268c0 117 47 204 125 247c-43 20 -68 59 -68 102c0 68 51 122 153 122c151 0 235 -121 237 -265v-19c36 -47 56 -110 56 -187c0 -59 -12 -110 -34 -152
c38 -45 89 -70 150 -70c99 0 168 79 168 224c0 140 -82 221 -177 221v55c138 0 236 -109 236 -276c0 -63 -11 -116 -31 -158c38 -43 87 -66 147 -66c99 0 167 79 167 224c0 140 -81 221 -176 221v55c137 0 236 -109 236 -276c0 -182 -91 -279 -226 -279
c-73 0 -131 26 -178 73c-40 -48 -97 -73 -165 -73c-75 0 -135 28 -183 78c-44 -50 -108 -78 -185 -78c-151 0 -252 107 -252 277zM116 268c0 -144 79 -222 191 -222c113 0 193 78 193 222c0 145 -80 223 -193 223c-112 0 -191 -78 -191 -223zM308 546c52 0 98 -13 136 -37
c-11 94 -72 178 -178 178c-66 0 -95 -27 -95 -70c0 -38 35 -71 97 -71h39h1z" />
    <glyph glyph-name="tlNYI" horiz-adv-x="1021" 
d="M687 -51h-56c-6 37 -19 80 -40 120c-56 -48 -127 -78 -204 -78c-132 0 -201 63 -201 143c0 83 74 137 190 137c94 0 168 -47 221 -112c39 51 64 115 64 183c0 93 -46 158 -125 158s-124 -57 -124 -148v-16h-57v15c0 93 -67 149 -137 149c-65 0 -114 -40 -114 -113
c0 -35 10 -64 31 -87l-46 -35c-29 32 -45 75 -45 122c0 103 75 168 172 168c91 0 151 -64 165 -105h4c14 43 52 105 153 105c104 0 170 -76 181 -183h92v130c-19 -5 -40 -7 -61 -7c-12 0 -24 2 -35 5l9 51c9 -3 17 -4 26 -4c85 0 152 47 152 137c0 14 -1 27 -4 40
c-5 -53 -48 -96 -112 -96c-62 0 -124 41 -124 113c0 62 48 112 129 112c103 0 167 -80 167 -169c0 -76 -35 -131 -92 -162v-150h93v-54h-240c-6 -76 -38 -150 -88 -208c31 -52 50 -110 56 -161zM387 45c62 0 123 28 173 74c-42 55 -103 98 -184 98c-85 0 -131 -32 -131 -83
c0 -46 45 -89 142 -89zM794 683c45 1 69 27 67 60c-1 30 -27 57 -72 56c-44 -2 -68 -30 -67 -60c2 -35 28 -58 72 -56z" />
    <glyph glyph-name="tlTTI" horiz-adv-x="849" 
d="M432 96c-14 -43 -60 -105 -162 -105c-133 0 -214 119 -214 291c0 170 89 256 178 271l-6 151h66l-6 -151c74 -11 122 -72 122 -146c0 -88 -61 -143 -143 -143c-99 0 -136 74 -137 114h-4c-6 -27 -11 -61 -11 -96c0 -141 61 -236 158 -236c79 0 132 57 132 149v25h57v-25
c0 -92 50 -149 130 -149c75 0 142 65 142 221c0 106 -57 226 -179 226v53h22c85 0 152 46 152 136c0 14 -1 28 -4 41c-4 -53 -47 -97 -113 -97c-61 0 -123 41 -123 113c0 62 47 112 129 112c102 0 167 -80 167 -169c0 -85 -45 -145 -114 -172c70 -40 122 -121 122 -244
c0 -184 -81 -275 -199 -275c-101 0 -144 62 -158 105h-4zM162 411c0 -46 33 -93 99 -93c54 0 90 36 90 90c0 46 -28 94 -89 94c-66 0 -100 -46 -100 -91zM621 681c44 1 68 27 67 60c-2 30 -27 57 -72 56c-45 -2 -68 -30 -67 -60c1 -34 28 -57 72 -56z" />
    <glyph glyph-name="tlTTHI" horiz-adv-x="615" 
d="M308 320c29 0 51 -21 51 -51c0 -27 -22 -50 -51 -50c-27 0 -50 23 -50 50c0 30 23 51 50 51zM56 268c0 117 47 204 125 247c-43 20 -68 59 -68 102c0 68 51 122 153 122c151 0 235 -121 237 -265v-19c36 -47 56 -110 56 -187c0 -170 -101 -277 -251 -277
c-151 0 -252 107 -252 277zM115 268c0 -144 80 -223 192 -223c113 0 193 79 193 223c0 145 -80 223 -193 223c-112 0 -192 -78 -192 -223zM308 546c52 0 98 -13 136 -37c-11 94 -72 178 -178 178c-66 0 -95 -27 -95 -70c0 -38 35 -71 97 -71h39h1z" />
    <glyph glyph-name="tlDDI" horiz-adv-x="810" 
d="M622 44l-1 3c-1 -1 -8 -2 -13 -2c-51 0 -114 43 -114 126c0 73 56 134 137 134c77 0 140 -56 140 -140c0 -114 -88 -174 -188 -174c-107 0 -159 64 -175 105h-3c-15 -44 -62 -105 -163 -105c-113 0 -188 85 -188 216c0 141 83 258 206 310c-16 7 -32 16 -46 26l28 52
c35 -28 90 -49 149 -49c84 0 152 46 152 136c0 14 -1 28 -4 41c-4 -53 -48 -97 -113 -97c-62 0 -124 41 -124 113c0 62 48 112 130 112c102 0 166 -80 166 -169c0 -68 -29 -120 -76 -153c37 -11 71 -29 102 -53l-36 -44c-48 37 -112 59 -181 59c-171 0 -293 -126 -293 -284
c0 -101 53 -161 131 -161c80 0 132 57 132 149v25h58v-25c0 -95 59 -158 146 -158c16 0 29 3 41 7zM547 166c0 -67 54 -98 94 -98c35 0 74 34 74 98c0 50 -36 87 -83 87c-48 0 -85 -35 -85 -87zM434 681c45 1 69 27 67 60c-1 30 -27 57 -71 56c-45 -2 -69 -30 -67 -60
c1 -35 28 -57 71 -56z" />
    <glyph glyph-name="tlDDHI" horiz-adv-x="810" 
d="M434 681c45 1 69 27 67 60c-1 30 -27 57 -71 56c-45 -2 -69 -30 -67 -60c1 -35 28 -57 71 -56zM242 595c35 -28 90 -49 149 -49c84 0 152 46 152 136c0 14 -1 28 -4 41c-4 -53 -48 -97 -113 -97c-62 0 -124 41 -124 113c0 62 48 112 130 112c102 0 166 -80 166 -169
c0 -68 -29 -120 -76 -153c37 -11 71 -29 102 -53l-36 -44c-48 37 -112 59 -181 59c-171 0 -293 -126 -293 -284c0 -101 53 -161 131 -161c80 0 132 57 132 149v25h58v-25c0 -95 59 -158 146 -158c16 0 29 3 41 7l-1 3c-1 -1 -8 -2 -13 -2c-51 0 -114 43 -114 126
c0 73 56 134 137 134c77 0 140 -56 140 -140c0 -114 -88 -174 -188 -174c-107 0 -159 64 -175 105h-3c-15 -44 -62 -105 -163 -105c-113 0 -188 85 -188 216c0 141 83 258 206 310c-16 7 -32 16 -46 26zM420 -15l18 -67c7 -30 12 -50 12 -70c0 -25 -16 -44 -43 -44
c-29 0 -45 19 -45 44c0 20 5 40 13 70l17 67h28zM547 166c0 -67 54 -98 94 -98c35 0 74 34 74 98c0 50 -36 87 -83 87c-48 0 -85 -35 -85 -87z" />
    <glyph glyph-name="tlNNI" horiz-adv-x="819" 
d="M707 263c0 150 -62 233 -157 233c-71 0 -114 -50 -121 -129h-58c-8 79 -61 129 -135 129c-76 0 -112 -41 -112 -93c0 -63 46 -100 125 -100h22v-54h-21c-89 0 -131 -43 -131 -104c0 -59 40 -96 116 -96c26 0 53 8 74 21l20 -54c-27 -14 -58 -21 -96 -21
c-106 0 -174 57 -174 149c0 78 53 122 106 131v4c-42 12 -101 44 -101 125c0 85 64 147 169 147c102 0 151 -63 165 -108h4c7 22 19 48 42 69c-28 9 -53 22 -75 39l27 50c36 -29 90 -51 149 -51c85 0 152 47 152 137c0 13 -1 27 -4 38c-5 -51 -48 -94 -112 -94
c-62 0 -124 41 -124 113c0 62 48 112 129 112c103 0 167 -80 167 -170c0 -77 -37 -134 -97 -164c68 -43 106 -133 106 -259c0 -187 -103 -268 -201 -268c-89 0 -145 64 -145 141c0 87 62 143 142 143c98 0 132 -72 133 -111h4c5 26 12 60 12 95zM562 48c65 0 96 38 96 83
c0 47 -26 94 -96 94c-52 0 -87 -37 -87 -90c0 -42 24 -87 87 -87zM589 685c45 2 68 28 67 60c-1 31 -27 58 -72 56c-44 -1 -68 -29 -67 -60c2 -34 28 -57 72 -56z" />
    <glyph glyph-name="tlTI" horiz-adv-x="819" 
d="M765 275c0 -155 -131 -284 -356 -284s-355 129 -355 284c0 94 67 161 157 161c89 0 148 -60 148 -144c0 -83 -61 -140 -139 -140c-35 0 -60 8 -80 26l-3 -3c43 -76 136 -130 272 -130s230 54 272 130l-3 3c-20 -18 -44 -26 -79 -26c-78 0 -140 57 -140 140
c0 84 60 144 149 144c33 0 62 -9 87 -25v2c0 136 -94 242 -183 274c10 -14 15 -28 15 -45c0 -70 -50 -109 -120 -109c-62 0 -128 42 -128 114c0 70 61 112 135 112c179 0 335 -149 335 -346c0 -17 -2 -37 -4 -56c13 -23 20 -51 20 -82zM112 287c0 -51 31 -90 97 -90
c59 0 93 41 93 95c0 56 -36 92 -92 92c-59 0 -98 -45 -98 -97zM516 292c0 -54 34 -95 94 -95c66 0 96 39 96 90c0 56 -40 97 -98 97c-55 0 -92 -36 -92 -92zM409 707c-46 0 -71 -29 -71 -60c0 -36 26 -60 71 -60c47 0 72 26 72 60c0 31 -25 60 -72 60z" />
    <glyph glyph-name="tlTHI" horiz-adv-x="812" 
d="M416 546c55 -1 106 -14 151 -35c-17 93 -103 176 -211 176c-76 0 -112 -31 -112 -74c0 -36 27 -67 91 -67h81zM408 96h-3c-15 -44 -62 -105 -163 -105c-113 0 -188 85 -188 216c0 137 79 252 197 306c-43 18 -65 56 -65 100c0 66 54 126 170 126c154 0 270 -121 271 -265
c81 -61 131 -157 131 -267c0 -131 -75 -216 -188 -216c-101 0 -147 61 -162 105zM406 411c29 0 52 -23 52 -52c0 -27 -23 -49 -52 -49c-28 0 -50 22 -50 49c0 29 22 52 50 52zM435 219v-24c0 -92 52 -149 132 -149c78 0 131 60 131 161c0 158 -120 284 -291 284
s-293 -126 -293 -284c0 -101 53 -161 131 -161c80 0 132 57 132 149v24h58zM392 -15h28l17 -67c8 -30 13 -50 13 -70c0 -25 -16 -44 -43 -44c-29 0 -45 19 -45 44c0 20 5 40 12 70z" />
    <glyph glyph-name="tlDI" horiz-adv-x="812" 
d="M416 546c55 -1 106 -14 151 -35c-17 93 -103 176 -211 176c-76 0 -112 -31 -112 -74c0 -36 27 -67 91 -67h81zM408 96h-3c-15 -44 -62 -105 -163 -105c-113 0 -188 85 -188 216c0 137 79 252 197 306c-43 18 -65 56 -65 100c0 66 54 126 170 126c154 0 270 -121 271 -265
c81 -61 131 -157 131 -267c0 -131 -75 -216 -188 -216c-101 0 -147 61 -162 105zM435 219v-24c0 -92 52 -149 132 -149c78 0 131 60 131 161c0 158 -120 284 -291 284s-293 -126 -293 -284c0 -101 53 -161 131 -161c80 0 132 57 132 149v24h58z" />
    <glyph glyph-name="tlDHI" horiz-adv-x="812" 
d="M415 546c55 -1 107 -14 152 -35c-17 93 -103 176 -211 176c-76 0 -112 -31 -112 -74c0 -36 27 -67 91 -67h80zM392 -15h28l17 -67c8 -30 13 -50 13 -70c0 -25 -16 -44 -43 -44c-29 0 -45 19 -45 44c0 20 5 40 12 70zM435 220v-25c0 -92 52 -149 132 -149
c78 0 131 60 131 161c0 158 -120 284 -291 284s-293 -126 -293 -284c0 -101 53 -161 131 -161c80 0 132 57 132 149v25h58zM408 96h-3c-15 -44 -62 -105 -163 -105c-113 0 -188 85 -188 216c0 137 79 252 197 306c-43 18 -65 56 -65 100c0 66 54 126 170 126
c154 0 270 -121 271 -265c81 -61 131 -157 131 -267c0 -131 -75 -216 -188 -216c-101 0 -147 61 -162 105z" />
    <glyph glyph-name="tlNI" horiz-adv-x="752" 
d="M638 241c-1 153 -72 258 -153 308c6 -11 8 -22 8 -35c0 -70 -50 -108 -119 -108c-62 0 -127 41 -127 113c0 63 48 112 130 112c157 0 318 -160 318 -389c0 -165 -69 -251 -173 -251c-188 0 -184 278 -326 278c-54 0 -97 -37 -97 -110c0 -65 30 -110 60 -142l-46 -32
c-33 32 -73 89 -73 175c0 91 63 165 156 165c181 0 184 -280 322 -280c75 0 120 70 120 196zM377 459c46 0 71 26 71 60c0 31 -25 60 -71 60s-72 -29 -72 -60c0 -36 27 -60 72 -60z" />
    <glyph glyph-name="tlPI" horiz-adv-x="752" 
d="M448 488v58c159 -4 248 -140 248 -301c0 -169 -73 -254 -178 -254c-73 0 -116 43 -150 95c-46 -66 -96 -95 -166 -95c-96 0 -162 70 -162 169c0 91 62 165 156 165c180 0 188 -280 317 -280c74 0 125 69 125 202c0 116 -57 241 -190 241zM202 44c62 0 109 47 135 96
c-37 66 -71 130 -141 130c-54 0 -98 -38 -98 -110c0 -66 42 -116 104 -116zM264 682c45 1 69 28 67 60c-1 30 -27 57 -71 56c-45 -1 -69 -30 -67 -60c1 -34 28 -57 71 -56zM71 596c36 -28 91 -49 150 -49c84 0 152 46 152 136c0 14 -1 28 -4 41c-4 -53 -48 -97 -113 -97
c-62 0 -124 42 -124 113c0 62 48 112 130 112c102 0 166 -79 166 -169c0 -119 -88 -189 -207 -189c-68 0 -130 17 -177 52z" />
    <glyph glyph-name="tlPHI" horiz-adv-x="752" 
d="M346 -15h27l19 -67c7 -30 12 -50 12 -70c0 -25 -15 -44 -44 -44c-28 0 -44 19 -44 44c0 20 4 40 13 70zM448 488v58c159 -4 248 -140 248 -301c0 -169 -73 -254 -178 -254c-73 0 -116 43 -150 95c-46 -66 -96 -95 -166 -95c-96 0 -162 70 -162 169c0 91 62 165 156 165
c180 0 188 -280 317 -280c74 0 125 69 125 202c0 116 -57 241 -190 241zM202 44c62 0 109 47 135 96c-37 66 -71 130 -141 130c-54 0 -98 -38 -98 -110c0 -66 42 -116 104 -116zM334 740c0 31 -26 60 -72 60s-72 -29 -72 -60c0 -36 27 -60 72 -60c46 0 72 26 72 60zM71 596
c36 -28 91 -49 150 -49c84 0 152 46 152 136c0 14 -1 28 -4 41c-4 -53 -48 -97 -113 -97c-62 0 -124 42 -124 113c0 62 48 112 130 112c102 0 166 -79 166 -169c0 -119 -88 -189 -207 -189c-68 0 -130 17 -177 52z" />
    <glyph glyph-name="tlBI" horiz-adv-x="802" 
d="M685 316c-1 187 -71 313 -152 373c4 -10 6 -19 6 -30c0 -70 -50 -109 -119 -109c-62 0 -127 42 -127 114c0 63 47 112 129 112c174 0 321 -187 321 -460c0 -241 -91 -325 -200 -325c-94 0 -148 63 -162 105h-4c-14 -43 -60 -105 -163 -105s-163 61 -163 142
c0 155 237 170 237 289c0 42 -28 79 -81 79c-48 0 -78 -35 -78 -76c0 -13 3 -35 11 -52h-59c-7 18 -10 37 -10 54c0 73 56 129 136 129c91 0 140 -65 140 -134c0 -155 -236 -163 -236 -288c0 -55 42 -88 106 -88c80 0 133 57 133 148v26h58v-25c0 -92 57 -149 128 -149
c126 0 148 154 149 270zM422 604c46 0 72 26 72 60c0 31 -26 60 -72 60s-71 -29 -71 -60c0 -36 26 -60 71 -60z" />
    <glyph glyph-name="tlBHI" horiz-adv-x="802" 
d="M423 -152c0 -25 -16 -44 -44 -44c-29 0 -45 19 -45 44c0 20 6 40 14 70l17 67h28l17 -67c8 -30 13 -50 13 -70zM685 316c-1 187 -71 313 -152 373c4 -10 6 -19 6 -30c0 -70 -50 -109 -119 -109c-62 0 -127 42 -127 114c0 63 47 112 129 112c174 0 321 -187 321 -460
c0 -241 -91 -325 -200 -325c-94 0 -148 63 -162 105h-4c-14 -43 -60 -105 -163 -105s-163 61 -163 142c0 155 237 170 237 289c0 42 -28 79 -81 79c-48 0 -78 -35 -78 -76c0 -13 3 -35 11 -52h-59c-7 18 -10 37 -10 54c0 73 56 129 136 129c91 0 140 -65 140 -134
c0 -155 -236 -163 -236 -288c0 -55 42 -88 106 -88c80 0 133 57 133 148v26h58v-25c0 -92 57 -149 128 -149c126 0 148 154 149 270zM422 604c46 0 72 26 72 60c0 31 -26 60 -72 60s-71 -29 -71 -60c0 -36 26 -60 71 -60z" />
    <glyph glyph-name="tlMI" horiz-adv-x="1094" 
d="M521 -9c-75 0 -119 43 -153 95c-46 -66 -96 -95 -166 -95c-96 0 -162 70 -162 169c0 91 62 165 156 165c183 0 183 -280 322 -280c75 0 120 71 120 196c-1 153 -72 258 -153 307c5 -10 8 -21 8 -34c0 -70 -50 -108 -120 -108c-62 0 -127 41 -127 113c0 63 48 112 130 112
c157 0 319 -160 319 -389c0 -55 -8 -102 -22 -139c36 -37 83 -57 138 -57c99 0 168 79 168 224c0 140 -82 221 -177 221v55c138 0 236 -109 236 -276c0 -182 -91 -279 -226 -279c-66 0 -121 22 -166 62c-30 -41 -73 -62 -125 -62zM202 44c62 0 109 47 135 96
c-37 66 -71 130 -141 130c-54 0 -98 -38 -98 -110c0 -66 42 -116 104 -116zM376 459c46 0 72 26 72 60c0 31 -26 60 -72 60s-72 -29 -72 -60c0 -36 27 -60 72 -60z" />
    <glyph glyph-name="tlYI" horiz-adv-x="1301" 
d="M56 268c0 171 101 278 252 278c150 0 251 -107 251 -278c0 -59 -12 -110 -34 -152c38 -45 89 -70 150 -70c99 0 168 79 168 224c0 140 -82 221 -177 221v55c138 0 236 -109 236 -276c0 -63 -11 -116 -31 -158c38 -43 87 -66 147 -66c99 0 167 79 167 224
c0 140 -81 221 -176 221v55c137 0 236 -109 236 -276c0 -182 -91 -279 -226 -279c-73 0 -131 26 -178 73c-40 -48 -97 -73 -165 -73c-75 0 -135 28 -183 78c-44 -50 -108 -78 -185 -78c-151 0 -252 107 -252 277zM116 268c0 -144 79 -222 191 -222c113 0 193 78 193 222
c0 145 -80 223 -193 223c-112 0 -191 -78 -191 -223z" />
    <glyph glyph-name="tlRI" horiz-adv-x="615" 
d="M308 546c52 0 98 -13 136 -37c-11 94 -72 178 -178 178c-66 0 -95 -27 -95 -70c0 -38 35 -71 97 -71h39h1zM56 268c0 117 47 204 125 247c-43 20 -68 59 -68 102c0 68 51 122 153 122c151 0 235 -121 237 -265v-19c36 -47 56 -110 56 -187c0 -170 -101 -277 -251 -277
c-151 0 -252 107 -252 277zM116 268c0 -144 79 -222 191 -222c113 0 193 78 193 222c0 145 -80 223 -193 223c-112 0 -191 -78 -191 -223z" />
    <glyph glyph-name="tlLI" horiz-adv-x="782" 
d="M384 -9c-194 0 -328 138 -328 306c0 140 91 240 205 240c90 0 149 -66 149 -148c0 -89 -63 -145 -144 -145c-99 0 -137 79 -138 117h-4c-3 -5 -10 -28 -10 -63c0 -131 112 -252 270 -252c159 0 280 120 280 311c0 167 -72 283 -150 337c5 -10 7 -21 7 -32
c0 -70 -50 -109 -120 -109c-62 0 -127 42 -127 114c0 62 48 112 130 112c167 0 319 -172 319 -422c0 -220 -139 -366 -339 -366zM404 607c46 0 72 26 72 59c0 32 -26 60 -72 60s-72 -28 -72 -60c0 -35 27 -59 72 -59zM161 392c0 -45 34 -94 100 -94c55 0 90 37 90 92
c0 46 -28 94 -90 94c-65 0 -100 -47 -100 -92z" />
    <glyph glyph-name="tlVI" horiz-adv-x="751" 
d="M522 -9c-76 0 -120 43 -154 95c-46 -66 -96 -95 -166 -95c-96 0 -162 70 -162 169c0 91 62 165 156 165c183 0 183 -280 322 -280c70 0 120 65 120 186c0 155 -70 265 -146 316c6 -10 8 -21 8 -33c0 -70 -51 -108 -120 -108c-62 0 -127 41 -127 113c0 63 48 112 130 112
c163 0 312 -168 312 -403c0 -156 -76 -237 -173 -237zM202 44c62 0 109 47 135 96c-37 66 -71 130 -141 130c-54 0 -98 -38 -98 -110c0 -66 42 -116 104 -116zM383 459c46 0 71 26 71 60c0 31 -25 60 -71 60s-72 -29 -72 -60c0 -36 27 -60 72 -60z" />
    <glyph glyph-name="tlSHI" horiz-adv-x="553" 
d="M493 511c0 -69 -39 -122 -86 -169c55 -45 92 -113 92 -189c0 -96 -64 -162 -157 -162c-90 0 -144 67 -144 141c0 84 61 144 122 200c-23 9 -47 14 -72 14c-100 0 -136 -63 -136 -113c0 -32 8 -53 18 -68l-51 -20c-13 17 -25 49 -25 88c0 82 66 167 193 167
c40 0 79 -10 114 -28c43 42 78 86 78 139c0 16 -2 32 -6 45c-3 -54 -47 -100 -114 -100c-61 0 -124 41 -124 113c0 63 48 112 130 112c103 0 168 -79 168 -170zM342 44c53 0 100 36 100 109c0 65 -30 118 -74 152c-57 -54 -113 -105 -113 -172c0 -51 34 -89 87 -89zM325 509
c46 0 72 26 72 60c0 31 -26 60 -72 60s-72 -29 -72 -60c0 -36 27 -60 72 -60z" />
    <glyph glyph-name="tlSSI" horiz-adv-x="751" 
d="M448 488v58c158 -4 247 -139 247 -301c0 -48 -6 -90 -17 -124l1 1c-15 -45 -25 -86 -25 -135c0 -47 12 -82 45 -114l-48 -27c-30 33 -47 70 -47 116c0 22 6 44 15 64c-28 -23 -62 -35 -101 -35c-73 0 -116 43 -150 95c-46 -66 -96 -95 -166 -95c-96 0 -162 70 -162 169
c0 91 62 165 156 165c180 0 188 -280 317 -280c74 0 125 69 125 202c0 116 -57 241 -190 241zM202 44c62 0 109 47 135 96c-37 66 -71 130 -141 130c-54 0 -98 -38 -98 -110c0 -66 42 -116 104 -116zM264 682c45 1 69 28 67 60c-1 30 -27 57 -71 56c-45 -1 -69 -30 -67 -60
c1 -34 28 -57 71 -56zM71 596c36 -28 91 -49 150 -49c84 0 152 46 152 136c0 14 -1 28 -4 41c-4 -53 -48 -97 -113 -97c-62 0 -124 42 -124 113c0 62 48 112 130 112c102 0 166 -79 166 -169c0 -119 -88 -189 -207 -189c-68 0 -130 17 -177 52z" />
    <glyph glyph-name="tlSI" horiz-adv-x="752" 
d="M99 159c0 -65 30 -110 60 -142l-45 -32c-36 31 -74 89 -74 175c0 91 63 165 156 165c181 0 189 -280 317 -280c74 0 125 69 125 202c0 116 -57 241 -190 241v58c158 -4 248 -139 248 -301c0 -168 -73 -254 -178 -254c-186 0 -176 278 -322 278c-54 0 -97 -37 -97 -110z
M265 682c44 1 68 28 67 60c-2 30 -28 57 -72 56c-45 -1 -69 -30 -67 -60c1 -34 28 -57 72 -56zM72 596c35 -28 90 -49 149 -49c85 0 152 46 152 136c0 14 -1 28 -4 41c-4 -53 -47 -97 -113 -97c-61 0 -123 42 -123 113c0 62 47 112 129 112c102 0 166 -79 166 -169
c0 -119 -88 -189 -207 -189c-68 0 -130 17 -177 52z" />
    <glyph glyph-name="tlHI" horiz-adv-x="1060" 
d="M797 407c0 -54 33 -91 94 -91c49 0 84 37 84 92c0 57 -45 86 -92 86c-51 0 -86 -37 -86 -87zM448 492v54h426c96 0 156 -53 156 -138c0 -89 -67 -144 -139 -144c-100 0 -149 69 -149 138c0 59 34 88 48 91h-203c74 -57 109 -161 109 -266c0 -154 -75 -236 -174 -236
c-76 0 -119 43 -154 95c-45 -66 -96 -95 -166 -95c-96 0 -162 70 -162 169c0 91 62 165 156 165c183 0 184 -280 323 -280c68 0 119 64 119 185c0 109 -52 262 -190 262zM202 44c62 0 109 47 135 96c-37 66 -71 130 -141 130c-54 0 -97 -38 -97 -110c0 -66 41 -116 103 -116
zM265 682c44 1 68 28 67 60c-2 30 -28 57 -72 56c-45 -1 -69 -30 -67 -60c1 -34 28 -57 72 -56zM72 596c35 -28 90 -49 149 -49c85 0 152 46 152 136c0 14 -1 28 -4 41c-4 -53 -47 -97 -113 -97c-61 0 -123 42 -123 113c0 62 47 112 129 112c102 0 166 -79 166 -169
c0 -119 -88 -189 -207 -189c-68 0 -130 17 -177 52z" />
    <glyph glyph-name="tlRRI" horiz-adv-x="871" 
d="M520 304v5c-23 13 -50 49 -50 100c0 42 13 76 37 100c-32 9 -60 23 -85 41l28 51c36 -29 90 -51 149 -51c85 0 152 47 152 137c0 14 -1 29 -4 41c-4 -53 -47 -97 -113 -97c-61 0 -123 41 -123 113c0 62 47 112 129 112c102 0 166 -80 166 -170c0 -77 -37 -133 -95 -164
c59 -37 104 -115 104 -241c0 -172 -83 -286 -215 -286c-102 0 -148 62 -162 106h-4c-15 -44 -61 -106 -163 -106c-133 0 -215 114 -215 286c0 187 108 269 206 269c89 0 147 -66 147 -147c0 -89 -62 -144 -144 -144c-99 0 -134 75 -135 114h-4c-6 -24 -11 -56 -11 -92
c0 -141 61 -231 158 -231c80 0 133 58 133 149v16h58v-16c0 -91 54 -149 133 -149c98 0 159 89 159 231c0 161 -78 215 -140 215c-61 0 -90 -42 -90 -91c0 -60 37 -97 98 -101h18v-49h-231v49h109zM262 497c-66 0 -100 -45 -100 -91s33 -93 98 -93c55 0 90 36 90 91
c0 45 -27 93 -88 93zM643 685c44 2 68 28 67 60c-2 31 -28 58 -72 56c-45 -1 -69 -29 -67 -60c1 -34 28 -57 72 -56z" />
    <glyph glyph-name="tlRRRI" horiz-adv-x="812" 
d="M414 546c55 -1 106 -13 151 -34c-17 92 -102 175 -210 175c-76 0 -111 -31 -111 -74c0 -36 27 -67 90 -67h80zM407 491c-134 0 -239 -78 -277 -188h552c-38 110 -141 188 -275 188zM377 190h58c2 -89 54 -144 132 -144s131 60 131 161c0 15 -1 30 -3 45h-578
c-2 -15 -3 -30 -3 -45c0 -101 53 -161 131 -161s130 55 132 144zM408 96h-3c-15 -44 -62 -105 -163 -105c-113 0 -188 85 -188 216c0 137 78 252 197 306c-43 18 -66 56 -66 100c0 66 54 126 170 126c154 0 269 -121 271 -264c81 -62 132 -158 132 -268
c0 -131 -75 -216 -188 -216c-101 0 -147 61 -162 105z" />
    <glyph glyph-name="tlLLI" horiz-adv-x="642" 
d="M559 530c0 77 -32 133 -72 164c5 -10 7 -21 7 -32c0 -71 -50 -110 -120 -110c-62 0 -127 42 -127 114c0 71 62 113 134 113c125 0 236 -101 236 -249c0 -170 -110 -238 -210 -287c74 -27 122 -59 122 -126s-57 -126 -169 -126s-169 60 -169 126c0 54 30 88 73 115
c-109 31 -220 73 -220 191c0 72 58 128 139 128c83 0 136 -60 136 -128c0 -72 -59 -111 -113 -111l-2 -4c45 -16 87 -29 126 -40c104 50 229 99 229 262zM360 44c70 0 109 30 109 73c0 50 -57 73 -129 94c-52 -26 -90 -52 -90 -94c0 -43 41 -73 110 -73zM102 422
c0 -53 38 -80 78 -80c42 0 84 29 84 79c0 46 -28 78 -80 78s-82 -34 -82 -77zM377 606c46 0 72 27 72 60c0 32 -26 60 -72 60s-72 -28 -72 -60c0 -35 27 -60 72 -60z" />
    <glyph glyph-name="tlLLLI" horiz-adv-x="871" 
d="M262 497c-66 0 -100 -45 -100 -91c0 -45 33 -93 98 -93c55 0 90 36 90 92c0 45 -27 92 -88 92zM438 101h-4c-15 -44 -61 -106 -163 -106c-133 0 -215 115 -215 286c0 187 108 270 206 270c89 0 147 -67 147 -148c0 -88 -62 -144 -144 -144c-99 0 -134 75 -135 114h-4
c-6 -23 -11 -56 -11 -92c0 -141 61 -231 158 -231c80 0 133 58 133 149v17h58v-17c0 -91 53 -149 133 -149c98 0 159 85 159 226c0 36 -6 69 -11 92h-4c-1 -39 -37 -113 -135 -113c-82 0 -145 55 -145 143c0 43 17 83 46 110c-29 9 -55 21 -78 38l28 50
c35 -29 90 -50 148 -50c85 0 152 46 152 136c0 14 -1 27 -3 40c-6 -53 -48 -96 -113 -96c-62 0 -124 41 -124 113c0 62 48 112 129 112c103 0 167 -80 167 -169c0 -80 -40 -138 -103 -167c59 -39 105 -117 105 -239c0 -171 -83 -281 -216 -281c-101 0 -147 62 -161 106z
M610 492c-63 0 -90 -47 -90 -92c0 -56 36 -92 91 -92c65 0 98 48 98 94c0 45 -34 90 -99 90zM649 681c45 1 69 27 67 60c-1 30 -27 57 -72 56c-44 -2 -68 -30 -67 -60c2 -35 29 -57 72 -56z" />
    <glyph glyph-name="tlKII" horiz-adv-x="506" 
d="M48 41l25 52c49 -26 112 -47 184 -47c107 0 155 43 155 97c0 147 -356 28 -356 249c0 46 24 90 70 119c-22 8 -43 19 -61 32l27 52c36 -28 90 -49 149 -49c85 0 152 46 152 136c0 13 -1 27 -4 39c-5 -52 -48 -95 -112 -95c-62 0 -124 41 -124 113c0 62 48 112 129 112h13
c-6 12 -10 27 -10 42c0 54 44 97 117 97c37 0 73 -11 95 -28l-25 -46c-17 13 -43 22 -71 22c-35 0 -60 -16 -60 -50c0 -32 27 -54 50 -76c37 -31 58 -79 58 -130c0 -68 -29 -120 -76 -153c28 -8 52 -19 69 -31l-27 -47c-45 29 -101 40 -152 40c-99 0 -148 -47 -148 -99
c0 -155 356 -43 356 -249c0 -86 -74 -152 -214 -152c-85 0 -161 21 -209 50zM285 681c45 1 68 27 67 60c-1 30 -27 57 -72 56c-44 -2 -68 -30 -67 -60c2 -35 28 -57 72 -56z" />
    <glyph glyph-name="tlKHII" horiz-adv-x="896" 
d="M435 408c10 -60 -42 -124 -125 -124c-97 0 -144 70 -144 137c0 68 51 134 147 134c118 0 203 -102 203 -259c0 -73 -25 -142 -70 -195c44 -32 92 -56 150 -56c134 0 183 142 183 272c0 164 -40 282 -100 346h-8c10 -69 -41 -120 -115 -120c-62 0 -124 42 -124 113
c0 63 47 113 129 113c11 0 22 -1 32 -2c-6 13 -10 27 -10 43c0 54 44 97 117 97c37 0 73 -12 96 -28l-25 -46c-18 13 -44 22 -71 22c-36 0 -60 -17 -60 -50c0 -35 26 -59 52 -82c88 -69 145 -210 145 -404c0 -147 -55 -328 -241 -328c-79 0 -139 31 -191 69
c-51 -43 -119 -69 -196 -69c-124 0 -179 67 -179 142c0 65 45 128 144 128c94 0 160 -67 229 -126c37 45 57 101 57 160c0 45 -7 83 -20 114zM209 45c61 0 113 19 153 50c-64 56 -118 113 -188 113c-57 0 -86 -31 -86 -75c0 -46 29 -88 121 -88zM450 -152
c0 -25 -17 -44 -45 -44c-27 0 -44 19 -44 44c0 20 5 40 13 70l18 67h27l17 -67c8 -30 14 -50 14 -70zM224 421c0 -43 30 -83 87 -83c59 0 90 41 90 83c0 44 -30 82 -88 82c-57 0 -89 -39 -89 -82zM560 596c46 0 70 27 70 60c0 32 -24 60 -70 60s-70 -28 -70 -60
c0 -35 25 -60 70 -60z" />
    <glyph glyph-name="tlGII" horiz-adv-x="589" 
d="M446 790h-1c24 -30 37 -68 37 -108c0 -74 -34 -129 -88 -161c86 -46 138 -154 138 -282c0 -121 -29 -205 -62 -251l-51 25c35 57 54 123 54 226c0 146 -79 252 -179 252c-99 0 -178 -106 -178 -252c0 -103 28 -172 62 -226l-51 -25c-34 46 -71 132 -71 251
c0 116 43 215 116 268c-28 8 -53 20 -74 36l27 52c36 -28 90 -49 149 -49c85 0 152 46 152 136c0 13 -1 27 -4 39c-5 -52 -48 -95 -112 -95c-62 0 -124 41 -124 113c0 62 48 112 129 112h13c-6 13 -10 27 -10 42c0 54 44 97 117 97c37 0 73 -11 95 -28l-25 -46
c-17 13 -43 22 -71 22c-35 0 -60 -16 -60 -50c0 -43 49 -69 72 -98zM318 681c45 1 68 27 67 60c-1 30 -27 57 -72 56c-44 -2 -68 -30 -67 -60c2 -35 28 -57 72 -56z" />
    <glyph glyph-name="tlGHII" horiz-adv-x="1094" 
d="M346 -15h27l18 -67c9 -30 12 -50 13 -70c0 -25 -16 -44 -44 -44s-44 19 -44 44c0 20 4 40 12 70zM447 488v58c159 -4 248 -139 248 -301c0 -56 -8 -103 -23 -141c36 -38 83 -58 139 -58c99 0 167 79 167 224c0 140 -81 221 -177 221v55c138 0 237 -109 237 -276
c0 -182 -91 -279 -226 -279c-67 0 -122 23 -167 63c-32 -42 -76 -63 -128 -63c-73 0 -115 43 -149 95c-46 -66 -96 -95 -167 -95c-96 0 -162 70 -162 169c0 91 63 165 156 165c180 0 189 -280 317 -280c75 0 125 69 125 202c0 116 -56 241 -190 241zM201 44
c63 0 110 47 135 95c-36 67 -71 131 -141 131c-54 0 -97 -38 -97 -110c0 -66 41 -116 103 -116zM291 681c44 1 68 27 67 60c-2 30 -27 57 -72 56c-45 -2 -68 -30 -67 -60c1 -35 28 -57 72 -56zM98 595c35 -28 90 -49 149 -49c85 0 152 46 152 136c0 14 -1 28 -4 41
c-4 -53 -47 -97 -113 -97c-61 0 -123 41 -123 113c0 62 47 112 129 112h13c-6 13 -10 27 -10 42c0 54 43 97 116 97c37 0 74 -11 96 -28l-25 -46c-18 13 -44 22 -71 22c-36 0 -60 -16 -60 -50c0 -32 27 -54 50 -76c37 -31 58 -79 58 -130c0 -119 -88 -190 -208 -190
c-68 0 -130 17 -177 51z" />
    <glyph glyph-name="tlNGII" horiz-adv-x="755" 
d="M650 792c23 -30 36 -68 36 -108c0 -103 -66 -169 -161 -185v-101h160v-53h-362c-60 -86 -212 -111 -212 -211c0 -55 42 -88 106 -88c80 0 133 57 133 148v26h58v-25c0 -94 53 -149 123 -149c65 0 106 39 106 113c0 45 -19 79 -52 105l39 42c45 -33 72 -86 72 -147
c0 -103 -66 -168 -162 -168c-92 0 -139 63 -153 105h-4c-14 -43 -60 -105 -163 -105s-163 61 -163 142c0 155 237 170 237 289c0 42 -28 79 -81 79c-48 0 -78 -35 -78 -76c0 -13 3 -35 11 -52h-59c-7 18 -10 37 -10 54c0 73 56 129 136 129c91 0 140 -65 140 -134
c0 -8 -1 -17 -2 -24h123v97c-46 2 -91 13 -127 31l22 50c33 -17 73 -29 115 -29c85 0 152 47 152 137c0 14 -1 27 -4 40c-5 -53 -48 -96 -112 -96c-62 0 -124 41 -124 113c0 62 48 112 129 112h13c-6 13 -10 27 -10 42c0 54 44 97 117 97c37 0 73 -12 95 -28l-25 -46
c-17 13 -43 22 -71 22c-35 0 -60 -17 -60 -50c0 -43 50 -69 72 -98zM522 683c45 1 69 27 67 60c-1 30 -27 57 -72 56c-44 -2 -68 -30 -67 -60c2 -35 28 -58 72 -56z" />
    <glyph glyph-name="tlCII" horiz-adv-x="792" 
d="M556 -9c-91 0 -138 61 -152 105h-4c-15 -42 -61 -105 -152 -105c-96 0 -171 69 -171 165c0 70 41 112 58 125v3h-91v55h230v-55h-6c-89 0 -132 -63 -132 -126c0 -67 49 -112 114 -112c71 0 123 55 123 150v24h57v-26c0 -91 55 -148 126 -148c72 0 122 60 122 184
c0 154 -71 261 -153 311c6 -11 9 -22 9 -35c0 -70 -51 -109 -120 -109c-63 0 -128 42 -128 114c0 63 48 113 130 113c12 0 24 -1 36 -3c-10 16 -16 33 -16 54c0 54 43 97 116 97c37 0 74 -12 96 -28l-25 -47c-18 14 -43 23 -71 23c-35 0 -60 -17 -60 -51
c0 -39 36 -67 66 -88c99 -62 177 -186 177 -347c0 -164 -72 -243 -179 -243zM416 571c-46 0 -72 -29 -72 -60c0 -36 27 -60 72 -60c46 0 72 26 72 60c0 31 -26 60 -72 60z" />
    <glyph glyph-name="tlCHII" horiz-adv-x="792" 
d="M556 -9c-91 0 -138 61 -152 105h-4c-15 -42 -61 -105 -152 -105c-96 0 -171 69 -171 165c0 70 41 112 58 125v3h-91v55h230v-55h-6c-89 0 -132 -63 -132 -126c0 -67 49 -112 114 -112c71 0 123 55 123 150v24h57v-26c0 -91 55 -148 126 -148c72 0 122 60 122 184
c0 154 -71 261 -153 311c6 -11 9 -22 9 -35c0 -70 -51 -109 -120 -109c-63 0 -128 42 -128 114c0 63 48 113 130 113c12 0 24 -1 36 -3c-10 16 -16 33 -16 54c0 54 43 97 116 97c37 0 74 -12 96 -28l-25 -47c-18 14 -43 23 -71 23c-35 0 -60 -17 -60 -51
c0 -39 36 -67 66 -88c99 -62 177 -186 177 -347c0 -164 -72 -243 -179 -243zM387 -15h28l18 -67c7 -30 12 -50 12 -70c0 -25 -15 -44 -43 -44c-29 0 -45 19 -45 44c0 20 4 40 13 70zM416 571c-46 0 -72 -29 -72 -60c0 -36 27 -60 72 -60c46 0 72 26 72 60
c0 31 -26 60 -72 60z" />
    <glyph glyph-name="tlJII" horiz-adv-x="751" 
d="M668 615c23 -30 36 -68 36 -108c0 -117 -88 -183 -179 -183c-74 0 -127 31 -178 86c-12 -143 -236 -154 -236 -276c0 -55 42 -88 106 -88c80 0 133 57 133 148v26h58v-25c0 -94 53 -149 123 -149c65 0 106 39 106 113c0 38 -14 68 -38 91l41 42c36 -33 56 -80 56 -133
c0 -104 -66 -168 -162 -168c-92 0 -139 63 -153 105h-4c-14 -43 -60 -105 -163 -105s-163 61 -163 142c0 155 237 170 237 289c0 42 -28 79 -81 79c-48 0 -78 -35 -78 -76c0 -13 3 -35 11 -52h-59c-7 18 -10 37 -10 54c0 73 56 129 136 129h1c150 0 149 -178 317 -178
c55 0 123 41 123 129c0 14 -1 27 -4 40c-5 -53 -48 -96 -112 -96c-62 0 -124 41 -124 113c0 62 48 112 129 112h13c-6 12 -10 26 -10 42c0 54 44 97 117 97c37 0 73 -12 95 -28l-25 -46c-17 13 -43 22 -71 22c-35 0 -60 -17 -60 -50c0 -43 50 -69 72 -98zM610 564
c0 31 -26 60 -72 60s-72 -29 -72 -60c0 -36 27 -60 72 -60c46 0 72 26 72 60z" />
    <glyph glyph-name="tlJHII" horiz-adv-x="1301" 
d="M827 -15h27l17 -67c8 -30 13 -50 13 -70c0 -25 -16 -44 -44 -44c-29 0 -44 19 -44 44c0 20 5 40 13 70zM56 268c0 117 47 204 125 247c-43 20 -68 59 -68 102c0 68 51 122 153 122c17 0 33 -2 48 -4c-4 11 -7 23 -7 36c0 54 43 97 116 97c37 0 74 -12 96 -28l-25 -46
c-18 13 -44 22 -71 22c-36 0 -60 -17 -60 -50c0 -39 41 -65 65 -92c48 -49 74 -121 75 -200v-19c36 -47 56 -110 56 -187c0 -59 -12 -110 -34 -152c38 -45 89 -70 150 -70c99 0 168 79 168 224c0 140 -82 221 -177 221v55c138 0 236 -109 236 -276c0 -63 -11 -116 -31 -158
c38 -43 87 -66 147 -66c99 0 167 79 167 224c0 140 -81 221 -176 221v55c137 0 236 -109 236 -276c0 -182 -91 -279 -226 -279c-73 0 -131 26 -178 73c-40 -48 -97 -73 -165 -73c-75 0 -135 28 -183 78c-44 -50 -108 -78 -185 -78c-151 0 -252 107 -252 277zM116 268
c0 -144 79 -222 191 -222c113 0 193 78 193 222c0 145 -80 223 -193 223c-112 0 -191 -78 -191 -223zM308 546c52 0 98 -13 136 -37c-11 94 -72 178 -178 178c-66 0 -95 -27 -95 -70c0 -38 35 -71 97 -71h39h1z" />
    <glyph glyph-name="tlNYII" horiz-adv-x="1021" 
d="M687 -51h-56c-6 37 -19 80 -40 120c-56 -48 -127 -78 -204 -78c-132 0 -201 63 -201 143c0 83 74 137 190 137c94 0 168 -47 221 -112c39 51 64 115 64 183c0 93 -46 158 -125 158s-124 -57 -124 -148v-16h-57v15c0 93 -67 149 -137 149c-65 0 -114 -40 -114 -113
c0 -35 10 -64 31 -87l-46 -35c-29 32 -45 75 -45 122c0 103 75 168 172 168c91 0 151 -64 165 -105h4c14 43 52 105 153 105c104 0 170 -76 181 -183h92v130c-19 -5 -40 -7 -61 -7c-12 0 -24 2 -35 5l9 51c9 -3 17 -4 26 -4c85 0 152 47 152 137c0 14 -1 27 -4 40
c-5 -53 -48 -96 -112 -96c-62 0 -124 41 -124 113c0 62 48 112 129 112h13c-6 13 -10 27 -10 42c0 54 44 97 117 97c37 0 73 -12 95 -28l-25 -46c-17 13 -43 22 -71 22c-35 0 -60 -17 -60 -50c0 -32 27 -54 50 -76c4 -3 8 -7 12 -10c3 -4 7 -8 10 -12c23 -30 36 -68 36 -108
c0 -76 -35 -131 -92 -162v-150h93v-54h-240c-6 -76 -38 -150 -88 -208c31 -52 50 -110 56 -161zM387 45c62 0 123 28 173 74c-42 55 -103 98 -184 98c-85 0 -131 -32 -131 -83c0 -46 45 -89 142 -89zM794 683c45 1 69 27 67 60c-1 30 -27 57 -72 56c-44 -2 -68 -30 -67 -60
c2 -35 28 -58 72 -56z" />
    <glyph glyph-name="tlTTII" horiz-adv-x="849" 
d="M432 96c-14 -43 -60 -105 -162 -105c-133 0 -214 119 -214 291c0 170 89 256 178 271l-6 151h66l-6 -151c74 -11 122 -72 122 -146c0 -88 -61 -143 -143 -143c-99 0 -136 74 -137 114h-4c-6 -27 -11 -61 -11 -96c0 -141 61 -236 158 -236c79 0 132 57 132 149v25h57v-25
c0 -92 50 -149 130 -149c75 0 142 65 142 221c0 106 -57 226 -179 226v53h22c85 0 152 46 152 136c0 14 -1 28 -4 41c-4 -53 -47 -97 -113 -97c-61 0 -123 41 -123 113c0 62 47 112 129 112h12c-5 13 -9 27 -9 42c0 54 43 97 116 97c37 0 74 -11 96 -28l-25 -46
c-18 13 -43 22 -71 22c-35 0 -60 -16 -60 -50c0 -32 27 -54 50 -76c37 -31 58 -79 58 -130c0 -85 -45 -145 -114 -172c70 -40 122 -121 122 -244c0 -184 -81 -275 -199 -275c-101 0 -144 62 -158 105h-4zM162 411c0 -46 33 -93 99 -93c54 0 90 36 90 90c0 46 -28 94 -89 94
c-66 0 -100 -46 -100 -91zM621 681c44 1 68 27 67 60c-2 30 -27 57 -72 56c-45 -2 -68 -30 -67 -60c1 -34 28 -57 72 -56z" />
    <glyph glyph-name="tlTTHII" horiz-adv-x="615" 
d="M308 320c29 0 51 -21 51 -51c0 -27 -22 -50 -51 -50c-27 0 -50 23 -50 50c0 30 23 51 50 51zM56 268c0 117 47 204 125 247c-43 20 -68 59 -68 102c0 68 51 122 153 122c18 0 34 -2 50 -5c-3 10 -5 20 -5 31c0 54 44 97 117 97c37 0 73 -11 96 -28l-25 -46
c-18 13 -44 22 -71 22c-36 0 -60 -16 -60 -50c0 -43 49 -69 70 -96c41 -49 64 -116 65 -190v-19c36 -47 56 -110 56 -187c0 -170 -101 -277 -251 -277c-151 0 -252 107 -252 277zM115 268c0 -144 80 -223 192 -223c113 0 193 79 193 223c0 145 -80 223 -193 223
c-112 0 -192 -78 -192 -223zM308 546c52 0 98 -13 136 -37c-11 94 -72 178 -178 178c-66 0 -95 -27 -95 -70c0 -38 35 -71 97 -71h39h1z" />
    <glyph glyph-name="tlDDII" horiz-adv-x="810" 
d="M562 790c23 -30 36 -68 36 -108c0 -68 -29 -120 -76 -153c37 -11 71 -29 102 -53l-36 -44c-48 37 -112 59 -181 59c-171 0 -293 -126 -293 -284c0 -101 53 -161 131 -161c80 0 132 57 132 149v25h58v-25c0 -95 59 -158 146 -158c16 0 29 3 41 7l-1 3c-1 -1 -8 -2 -13 -2
c-51 0 -114 43 -114 126c0 73 56 134 137 134c77 0 140 -56 140 -140c0 -114 -88 -174 -188 -174c-107 0 -159 64 -175 105h-3c-15 -44 -62 -105 -163 -105c-113 0 -188 85 -188 216c0 141 83 258 206 310c-16 7 -32 16 -46 26l28 52c35 -28 90 -49 149 -49
c84 0 152 46 152 136c0 14 -1 28 -4 41c-4 -53 -48 -97 -113 -97c-62 0 -124 41 -124 113c0 62 48 112 130 112h12c-6 13 -10 27 -10 42c0 54 44 97 117 97c37 0 73 -11 96 -28l-25 -46c-18 13 -44 22 -71 22c-36 0 -60 -16 -60 -50c0 -43 49 -69 71 -98zM547 166
c0 -67 54 -98 94 -98c35 0 74 34 74 98c0 50 -36 87 -83 87c-48 0 -85 -35 -85 -87zM434 681c45 1 69 27 67 60c-1 30 -27 57 -71 56c-45 -2 -69 -30 -67 -60c1 -35 28 -57 71 -56z" />
    <glyph glyph-name="tlDDHII" horiz-adv-x="810" 
d="M562 790c23 -30 36 -68 36 -108c0 -68 -29 -120 -76 -153c37 -11 71 -29 102 -53l-36 -44c-48 37 -112 59 -181 59c-171 0 -293 -126 -293 -284c0 -101 53 -161 131 -161c80 0 132 57 132 149v25h58v-25c0 -95 59 -158 146 -158c16 0 29 3 41 7l-1 3c-1 -1 -8 -2 -13 -2
c-51 0 -114 43 -114 126c0 73 56 134 137 134c77 0 140 -56 140 -140c0 -114 -88 -174 -188 -174c-107 0 -159 64 -175 105h-3c-15 -44 -62 -105 -163 -105c-113 0 -188 85 -188 216c0 141 83 258 206 310c-16 7 -32 16 -46 26l28 52c35 -28 90 -49 149 -49
c84 0 152 46 152 136c0 14 -1 28 -4 41c-4 -53 -48 -97 -113 -97c-62 0 -124 41 -124 113c0 62 48 112 130 112h12c-6 13 -10 27 -10 42c0 54 44 97 117 97c37 0 73 -11 96 -28l-25 -46c-18 13 -44 22 -71 22c-36 0 -60 -16 -60 -50c0 -43 49 -69 71 -98zM434 681
c45 1 69 27 67 60c-1 30 -27 57 -71 56c-45 -2 -69 -30 -67 -60c1 -35 28 -57 71 -56zM420 -15l18 -67c7 -30 12 -50 12 -70c0 -25 -16 -44 -43 -44c-29 0 -45 19 -45 44c0 20 5 40 13 70l17 67h28zM547 166c0 -67 54 -98 94 -98c35 0 74 34 74 98c0 50 -36 87 -83 87
c-48 0 -85 -35 -85 -87z" />
    <glyph glyph-name="tlNNII" horiz-adv-x="819" 
d="M707 263c0 150 -62 233 -157 233c-71 0 -114 -50 -121 -129h-58c-8 79 -61 129 -135 129c-76 0 -112 -41 -112 -93c0 -63 46 -100 125 -100h22v-54h-21c-89 0 -131 -43 -131 -104c0 -59 40 -96 116 -96c26 0 53 8 74 21l20 -54c-27 -14 -58 -21 -96 -21
c-106 0 -174 57 -174 149c0 78 53 122 106 131v4c-42 12 -101 44 -101 125c0 85 64 147 169 147c102 0 151 -63 165 -108h4c7 22 19 48 42 69c-28 9 -53 22 -75 39l27 50c36 -29 90 -51 149 -51c85 0 152 47 152 137c0 13 -1 27 -4 38c-5 -51 -48 -94 -112 -94
c-62 0 -124 41 -124 113c0 62 48 112 129 112h13c-6 13 -10 27 -10 42c0 54 44 97 117 97c37 0 73 -12 95 -28l-25 -46c-17 13 -43 22 -71 22c-35 0 -60 -17 -60 -50c0 -32 28 -55 51 -77c37 -31 57 -79 57 -130c0 -77 -37 -134 -97 -164c68 -43 106 -133 106 -259
c0 -187 -103 -268 -201 -268c-89 0 -145 64 -145 141c0 87 62 143 142 143c98 0 132 -72 133 -111h4c5 26 12 60 12 95zM562 48c65 0 96 38 96 83c0 47 -26 94 -96 94c-52 0 -87 -37 -87 -90c0 -42 24 -87 87 -87zM589 685c45 2 68 28 67 60c-1 31 -27 58 -72 56
c-44 -1 -68 -29 -67 -60c2 -34 28 -57 72 -56z" />
    <glyph glyph-name="tlTII" horiz-adv-x="819" 
d="M765 275c0 -155 -131 -284 -356 -284s-355 129 -355 284c0 94 67 161 157 161c89 0 148 -60 148 -144c0 -83 -61 -140 -139 -140c-35 0 -60 8 -80 26l-3 -3c43 -76 136 -130 272 -130s230 54 272 130l-3 3c-20 -18 -44 -26 -79 -26c-78 0 -140 57 -140 140
c0 84 60 144 149 144c33 0 62 -9 87 -25v2c0 136 -94 242 -183 274c10 -14 15 -28 15 -45c0 -70 -50 -109 -120 -109c-62 0 -128 42 -128 114c0 70 61 112 135 112h12c-18 20 -30 44 -30 75c0 54 44 97 117 97c37 0 73 -12 96 -29l-25 -46c-18 14 -44 23 -71 23
c-36 0 -60 -17 -60 -51c0 -41 37 -70 73 -89c128 -47 223 -172 223 -326c0 -17 -2 -37 -4 -56c13 -23 20 -51 20 -82zM112 287c0 -51 31 -90 97 -90c59 0 93 41 93 95c0 56 -36 92 -92 92c-59 0 -98 -45 -98 -97zM516 292c0 -54 34 -95 94 -95c66 0 96 39 96 90
c0 56 -40 97 -98 97c-55 0 -92 -36 -92 -92zM409 707c-46 0 -71 -29 -71 -60c0 -36 26 -60 71 -60c47 0 72 26 72 60c0 31 -25 60 -72 60z" />
    <glyph glyph-name="tlTHII" horiz-adv-x="812" 
d="M546 664h-1c51 -49 81 -116 82 -190c81 -61 131 -157 131 -267c0 -131 -75 -216 -188 -216c-101 0 -147 61 -162 105h-3c-15 -44 -62 -105 -163 -105c-113 0 -188 85 -188 216c0 137 79 252 197 306c-43 18 -65 56 -65 100c0 66 54 126 170 126c24 0 47 -3 69 -8
c-4 11 -7 23 -7 36c0 54 44 97 117 97c37 0 73 -11 95 -28l-25 -46c-17 13 -43 22 -71 22c-35 0 -60 -16 -60 -50c0 -43 45 -71 72 -98zM416 546c55 -1 106 -14 151 -35c-17 93 -103 176 -211 176c-76 0 -112 -31 -112 -74c0 -36 27 -67 91 -67h81zM406 411
c29 0 52 -23 52 -52c0 -27 -23 -49 -52 -49c-28 0 -50 22 -50 49c0 29 22 52 50 52zM435 219v-24c0 -92 52 -149 132 -149c78 0 131 60 131 161c0 158 -120 284 -291 284s-293 -126 -293 -284c0 -101 53 -161 131 -161c80 0 132 57 132 149v24h58zM392 -15h28l17 -67
c8 -30 13 -50 13 -70c0 -25 -16 -44 -43 -44c-29 0 -45 19 -45 44c0 20 5 40 12 70z" />
    <glyph glyph-name="tlDII" horiz-adv-x="812" 
d="M546 664h-1c51 -49 81 -116 82 -190c81 -61 131 -157 131 -267c0 -131 -75 -216 -188 -216c-101 0 -147 61 -162 105h-3c-15 -44 -62 -105 -163 -105c-113 0 -188 85 -188 216c0 137 79 252 197 306c-43 18 -65 56 -65 100c0 66 54 126 170 126c24 0 47 -3 69 -8
c-4 11 -7 23 -7 36c0 54 44 97 117 97c37 0 73 -11 95 -28l-25 -46c-17 13 -43 22 -71 22c-35 0 -60 -16 -60 -50c0 -43 45 -71 72 -98zM416 546c55 -1 106 -14 151 -35c-17 93 -103 176 -211 176c-76 0 -112 -31 -112 -74c0 -36 27 -67 91 -67h81zM435 219v-24
c0 -92 52 -149 132 -149c78 0 131 60 131 161c0 158 -120 284 -291 284s-293 -126 -293 -284c0 -101 53 -161 131 -161c80 0 132 57 132 149v24h58z" />
    <glyph glyph-name="tlDHII" horiz-adv-x="812" 
d="M546 664h-1c51 -49 81 -116 82 -190c81 -61 131 -157 131 -267c0 -131 -75 -216 -188 -216c-101 0 -147 61 -162 105h-3c-15 -44 -62 -105 -163 -105c-113 0 -188 85 -188 216c0 137 79 252 197 306c-43 18 -65 56 -65 100c0 66 54 126 170 126c24 0 47 -3 69 -8
c-4 11 -7 23 -7 36c0 54 44 97 117 97c37 0 73 -11 95 -28l-25 -46c-17 13 -43 22 -71 22c-35 0 -60 -16 -60 -50c0 -43 45 -71 72 -98zM415 546c55 -1 107 -14 152 -35c-17 93 -103 176 -211 176c-76 0 -112 -31 -112 -74c0 -36 27 -67 91 -67h80zM392 -15h28l17 -67
c8 -30 13 -50 13 -70c0 -25 -16 -44 -43 -44c-29 0 -45 19 -45 44c0 20 5 40 12 70zM435 220v-25c0 -92 52 -149 132 -149c78 0 131 60 131 161c0 158 -120 284 -291 284s-293 -126 -293 -284c0 -101 53 -161 131 -161c80 0 132 57 132 149v25h58z" />
    <glyph glyph-name="tlNII" horiz-adv-x="752" 
d="M638 241c-1 153 -72 258 -153 308c6 -11 8 -22 8 -35c0 -70 -50 -108 -119 -108c-62 0 -127 41 -127 113c0 63 48 112 130 112c8 0 16 0 25 -1c-14 17 -23 37 -23 62c0 54 44 97 117 97c37 0 73 -12 95 -28l-24 -46c-18 13 -44 22 -72 22c-35 0 -60 -17 -60 -50
c0 -40 36 -68 65 -88c108 -58 195 -189 195 -357c0 -165 -69 -251 -173 -251c-188 0 -184 278 -326 278c-54 0 -97 -37 -97 -110c0 -65 30 -110 60 -142l-46 -32c-33 32 -73 89 -73 175c0 91 63 165 156 165c181 0 184 -280 322 -280c75 0 120 70 120 196zM377 459
c46 0 71 26 71 60c0 31 -25 60 -71 60s-72 -29 -72 -60c0 -36 27 -60 72 -60z" />
    <glyph glyph-name="tlPII" horiz-adv-x="752" 
d="M392 791c23 -30 36 -68 36 -108c0 -119 -88 -189 -207 -189c-68 0 -130 17 -177 52l27 50c36 -28 91 -49 150 -49c84 0 152 46 152 136c0 14 -1 28 -4 41c-4 -53 -48 -97 -113 -97c-62 0 -124 42 -124 113c0 62 48 112 130 112h12c-6 13 -10 27 -10 42c0 54 44 97 117 97
c37 0 73 -11 96 -28l-25 -46c-18 13 -44 22 -71 22c-36 0 -60 -16 -60 -50c0 -32 27 -55 50 -76c6 -5 11 -11 16 -16c2 -2 4 -4 5 -6zM448 488v58c159 -4 248 -140 248 -301c0 -169 -73 -254 -178 -254c-73 0 -116 43 -150 95c-46 -66 -96 -95 -166 -95
c-96 0 -162 70 -162 169c0 91 62 165 156 165c180 0 188 -280 317 -280c74 0 125 69 125 202c0 116 -57 241 -190 241zM202 44c62 0 109 47 135 96c-37 66 -71 130 -141 130c-54 0 -98 -38 -98 -110c0 -66 42 -116 104 -116zM264 682c45 1 69 28 67 60c-1 30 -27 57 -71 56
c-45 -1 -69 -30 -67 -60c1 -34 28 -57 71 -56z" />
    <glyph glyph-name="tlPHII" horiz-adv-x="752" 
d="M392 791c23 -30 36 -68 36 -108c0 -119 -88 -189 -207 -189c-68 0 -130 17 -177 52l27 50c36 -28 91 -49 150 -49c84 0 152 46 152 136c0 14 -1 28 -4 41c-4 -53 -48 -97 -113 -97c-62 0 -124 42 -124 113c0 62 48 112 130 112h12c-6 13 -10 27 -10 42c0 54 44 97 117 97
c37 0 73 -11 96 -28l-25 -46c-18 13 -44 22 -71 22c-36 0 -60 -16 -60 -50c0 -32 27 -55 50 -76c6 -5 11 -11 16 -16c2 -2 4 -4 5 -6zM346 -15h27l19 -67c7 -30 12 -50 12 -70c0 -25 -15 -44 -44 -44c-28 0 -44 19 -44 44c0 20 4 40 13 70zM448 488v58
c159 -4 248 -140 248 -301c0 -169 -73 -254 -178 -254c-73 0 -116 43 -150 95c-46 -66 -96 -95 -166 -95c-96 0 -162 70 -162 169c0 91 62 165 156 165c180 0 188 -280 317 -280c74 0 125 69 125 202c0 116 -57 241 -190 241zM202 44c62 0 109 47 135 96
c-37 66 -71 130 -141 130c-54 0 -98 -38 -98 -110c0 -66 42 -116 104 -116zM334 740c0 31 -26 60 -72 60s-72 -29 -72 -60c0 -36 27 -60 72 -60c46 0 72 26 72 60z" />
    <glyph glyph-name="tlBII" horiz-adv-x="802" 
d="M685 316c-1 187 -71 313 -152 373c4 -10 6 -19 6 -30c0 -70 -50 -109 -119 -109c-62 0 -127 42 -127 114c0 63 47 112 129 112c11 0 22 -1 32 -2c-12 18 -21 39 -21 62c0 54 44 97 117 97c37 0 73 -11 96 -28l-25 -46c-18 13 -44 22 -71 22c-36 0 -60 -17 -60 -50
c0 -43 42 -78 70 -97c107 -70 183 -222 183 -418c0 -241 -91 -325 -200 -325c-94 0 -148 63 -162 105h-4c-14 -43 -60 -105 -163 -105s-163 61 -163 142c0 155 237 170 237 289c0 42 -28 79 -81 79c-48 0 -78 -35 -78 -76c0 -13 3 -35 11 -52h-59c-7 18 -10 37 -10 54
c0 73 56 129 136 129c91 0 140 -65 140 -134c0 -155 -236 -163 -236 -288c0 -55 42 -88 106 -88c80 0 133 57 133 148v26h58v-25c0 -92 57 -149 128 -149c126 0 148 154 149 270zM422 604c46 0 72 26 72 60c0 31 -26 60 -72 60s-71 -29 -71 -60c0 -36 26 -60 71 -60z" />
    <glyph glyph-name="tlBHII" horiz-adv-x="802" 
d="M423 -152c0 -25 -16 -44 -44 -44c-29 0 -45 19 -45 44c0 20 6 40 14 70l17 67h28l17 -67c8 -30 13 -50 13 -70zM685 316c-1 187 -71 313 -152 373c4 -10 6 -19 6 -30c0 -70 -50 -109 -119 -109c-62 0 -127 42 -127 114c0 63 47 112 129 112c11 0 22 -1 32 -2
c-12 18 -21 39 -21 62c0 54 44 97 117 97c37 0 73 -11 96 -28l-25 -46c-18 13 -44 22 -71 22c-36 0 -60 -17 -60 -50c0 -43 42 -78 70 -97c107 -70 183 -222 183 -418c0 -241 -91 -325 -200 -325c-94 0 -148 63 -162 105h-4c-14 -43 -60 -105 -163 -105s-163 61 -163 142
c0 155 237 170 237 289c0 42 -28 79 -81 79c-48 0 -78 -35 -78 -76c0 -13 3 -35 11 -52h-59c-7 18 -10 37 -10 54c0 73 56 129 136 129c91 0 140 -65 140 -134c0 -155 -236 -163 -236 -288c0 -55 42 -88 106 -88c80 0 133 57 133 148v26h58v-25c0 -92 57 -149 128 -149
c126 0 148 154 149 270zM422 604c46 0 72 26 72 60c0 31 -26 60 -72 60s-71 -29 -71 -60c0 -36 26 -60 71 -60z" />
    <glyph glyph-name="tlMII" horiz-adv-x="1094" 
d="M521 -9c-75 0 -119 43 -153 95c-46 -66 -96 -95 -166 -95c-96 0 -162 70 -162 169c0 91 62 165 156 165c183 0 183 -280 322 -280c75 0 120 71 120 196c-1 153 -72 258 -153 307c5 -10 8 -21 8 -34c0 -70 -50 -108 -120 -108c-62 0 -127 41 -127 113c0 63 48 112 130 112
c9 0 17 0 26 -1c-14 17 -23 37 -23 62c0 54 44 97 117 97c36 0 73 -12 95 -28l-25 -46c-18 13 -43 22 -71 22c-35 0 -60 -17 -60 -50c0 -41 38 -70 68 -90c107 -59 192 -189 192 -355c0 -55 -8 -102 -22 -139c36 -37 83 -57 138 -57c99 0 168 79 168 224
c0 140 -82 221 -177 221v55c138 0 236 -109 236 -276c0 -182 -91 -279 -226 -279c-66 0 -121 22 -166 62c-30 -41 -73 -62 -125 -62zM202 44c62 0 109 47 135 96c-37 66 -71 130 -141 130c-54 0 -98 -38 -98 -110c0 -66 42 -116 104 -116zM376 459c46 0 72 26 72 60
c0 31 -26 60 -72 60s-72 -29 -72 -60c0 -36 27 -60 72 -60z" />
    <glyph glyph-name="tlYII" horiz-adv-x="1629" 
d="M1357 407c0 -54 33 -91 93 -91c50 0 84 37 84 92c0 57 -44 86 -91 86c-51 0 -86 -37 -86 -87zM56 268c0 171 101 278 252 278c150 0 251 -107 251 -278c0 -59 -12 -110 -34 -152c38 -45 89 -70 150 -70c99 0 168 79 168 224c0 140 -82 222 -177 222l1 53
c138 0 235 -108 235 -275c0 -63 -11 -116 -31 -158c38 -43 87 -66 147 -66c99 0 167 78 167 224c0 140 -81 221 -176 221v55h424c97 0 157 -53 157 -138c0 -89 -67 -144 -140 -144c-99 0 -148 69 -148 138c0 59 34 88 48 91h-204c61 -46 99 -124 99 -224
c0 -181 -91 -278 -226 -278c-73 0 -131 26 -178 73c-40 -48 -97 -73 -165 -73c-75 0 -135 28 -183 78c-44 -50 -108 -78 -185 -78c-151 0 -252 107 -252 277zM116 268c0 -144 79 -222 191 -222c113 0 193 78 193 222c0 145 -80 223 -193 223c-112 0 -191 -78 -191 -223z" />
    <glyph glyph-name="tlRII" horiz-adv-x="615" 
d="M308 546c52 0 98 -13 136 -37c-11 94 -72 178 -178 178c-66 0 -95 -27 -95 -70c0 -38 35 -71 97 -71h39h1zM56 268c0 117 47 204 125 247c-43 20 -68 59 -68 102c0 68 51 122 153 122c17 0 34 -2 50 -5c-4 11 -6 21 -6 33c0 54 44 97 117 97c37 0 73 -11 95 -28l-25 -46
c-17 13 -43 22 -71 22c-35 0 -60 -16 -60 -50s30 -58 54 -80c53 -49 82 -125 83 -208v-19c36 -47 56 -110 56 -187c0 -170 -101 -277 -251 -277c-151 0 -252 107 -252 277zM116 268c0 -144 79 -222 191 -222c113 0 193 78 193 222c0 145 -80 223 -193 223
c-112 0 -191 -78 -191 -223z" />
    <glyph glyph-name="tlLII" horiz-adv-x="782" 
d="M557 728c97 -69 166 -202 166 -371c0 -220 -139 -366 -339 -366c-194 0 -328 138 -328 306c0 140 91 240 205 240c90 0 149 -66 149 -148c0 -89 -63 -145 -144 -145c-99 0 -137 79 -138 117h-4c-3 -5 -10 -28 -10 -63c0 -131 112 -252 270 -252c159 0 280 120 280 311
c0 167 -72 283 -150 337c5 -10 7 -21 7 -32c0 -70 -50 -109 -120 -109c-62 0 -127 42 -127 114c0 62 48 112 130 112c13 0 26 -1 38 -3c-9 14 -14 31 -14 50c0 54 44 97 117 97c37 0 73 -12 95 -28l-25 -46c-17 13 -43 22 -71 22c-35 0 -60 -17 -60 -51c0 -38 37 -67 65 -86
c2 -2 5 -4 7 -6h1zM404 607c46 0 72 26 72 59c0 32 -26 60 -72 60s-72 -28 -72 -60c0 -35 27 -59 72 -59zM161 392c0 -45 34 -94 100 -94c55 0 90 37 90 92c0 46 -28 94 -90 94c-65 0 -100 -47 -100 -92z" />
    <glyph glyph-name="tlVII" horiz-adv-x="751" 
d="M522 -9c-76 0 -120 43 -154 95c-46 -66 -96 -95 -166 -95c-96 0 -162 70 -162 169c0 91 62 165 156 165c183 0 183 -280 322 -280c70 0 120 65 120 186c0 155 -70 265 -146 316c6 -10 8 -21 8 -33c0 -70 -51 -108 -120 -108c-62 0 -127 41 -127 113c0 63 48 112 130 112
c13 0 27 -1 40 -3c-7 13 -12 28 -12 46c0 54 44 97 117 97c37 0 73 -12 95 -28l-25 -46c-17 13 -43 22 -71 22c-35 0 -60 -17 -60 -50c0 -36 32 -63 58 -82c98 -65 170 -196 170 -359c0 -156 -76 -237 -173 -237zM202 44c62 0 109 47 135 96c-37 66 -71 130 -141 130
c-54 0 -98 -38 -98 -110c0 -66 42 -116 104 -116zM383 459c46 0 71 26 71 60c0 31 -25 60 -71 60s-72 -29 -72 -60c0 -36 27 -60 72 -60z" />
    <glyph glyph-name="tlSHII" horiz-adv-x="553" 
d="M493 511c0 -69 -39 -122 -86 -169c55 -45 92 -113 92 -189c0 -96 -64 -162 -157 -162c-90 0 -144 67 -144 141c0 84 61 144 122 200c-23 9 -47 14 -72 14c-100 0 -136 -63 -136 -113c0 -32 8 -53 18 -68l-51 -20c-13 17 -25 49 -25 88c0 82 66 167 193 167
c40 0 79 -10 114 -28c43 42 78 86 78 139c0 16 -2 32 -6 45c-3 -54 -47 -100 -114 -100c-61 0 -124 41 -124 113c0 63 48 112 130 112h12c-7 14 -11 29 -11 46c0 54 43 97 116 97c37 0 73 -12 96 -28l-25 -47c-18 14 -44 23 -71 23c-36 0 -60 -17 -60 -51
c0 -33 31 -57 55 -81c36 -31 56 -78 56 -129zM342 44c53 0 100 36 100 109c0 65 -30 118 -74 152c-57 -54 -113 -105 -113 -172c0 -51 34 -89 87 -89zM325 509c46 0 72 26 72 60c0 31 -26 60 -72 60s-72 -29 -72 -60c0 -36 27 -60 72 -60z" />
    <glyph glyph-name="tlSSII" horiz-adv-x="751" 
d="M392 791c23 -30 36 -68 36 -108c0 -119 -88 -189 -207 -189c-68 0 -130 17 -177 52l27 50c36 -28 91 -49 150 -49c84 0 152 46 152 136c0 14 -1 28 -4 41c-4 -53 -48 -97 -113 -97c-62 0 -124 42 -124 113c0 62 48 112 130 112h12c-6 13 -10 27 -10 42c0 54 44 97 117 97
c37 0 73 -11 96 -28l-25 -46c-18 13 -44 22 -71 22c-36 0 -60 -16 -60 -50c0 -32 27 -55 50 -76c6 -5 11 -11 16 -16c2 -2 4 -4 5 -6zM448 488v58c158 -4 247 -139 247 -301c0 -48 -6 -90 -17 -124l1 1c-15 -45 -25 -86 -25 -135c0 -47 12 -82 45 -114l-48 -27
c-30 33 -47 70 -47 116c0 22 6 44 15 64c-28 -23 -62 -35 -101 -35c-73 0 -116 43 -150 95c-46 -66 -96 -95 -166 -95c-96 0 -162 70 -162 169c0 91 62 165 156 165c180 0 188 -280 317 -280c74 0 125 69 125 202c0 116 -57 241 -190 241zM202 44c62 0 109 47 135 96
c-37 66 -71 130 -141 130c-54 0 -98 -38 -98 -110c0 -66 42 -116 104 -116zM264 682c45 1 69 28 67 60c-1 30 -27 57 -71 56c-45 -1 -69 -30 -67 -60c1 -34 28 -57 71 -56z" />
    <glyph glyph-name="tlSII" horiz-adv-x="752" 
d="M392 791c23 -30 36 -68 36 -108c0 -119 -88 -189 -207 -189c-68 0 -130 17 -177 52l28 50c35 -28 90 -49 149 -49c85 0 152 46 152 136c0 14 -1 28 -4 41c-4 -53 -47 -97 -113 -97c-61 0 -123 42 -123 113c0 62 47 112 129 112h12c-5 13 -9 27 -9 42c0 54 43 97 116 97
c37 0 73 -11 96 -28l-25 -46c-18 13 -44 22 -71 22c-36 0 -60 -16 -60 -50c0 -32 27 -55 50 -76c6 -5 11 -11 16 -16c2 -2 4 -4 5 -6zM99 159c0 -65 30 -110 60 -142l-45 -32c-36 31 -74 89 -74 175c0 91 63 165 156 165c181 0 189 -280 317 -280c74 0 125 69 125 202
c0 116 -57 241 -190 241v58c158 -4 248 -139 248 -301c0 -168 -73 -254 -178 -254c-186 0 -176 278 -322 278c-54 0 -97 -37 -97 -110zM265 682c44 1 68 28 67 60c-2 30 -28 57 -72 56c-45 -1 -69 -30 -67 -60c1 -34 28 -57 72 -56z" />
    <glyph glyph-name="tlHII" horiz-adv-x="1060" 
d="M392 791c23 -30 36 -68 36 -108c0 -119 -88 -189 -207 -189c-68 0 -130 17 -177 52l28 50c35 -28 90 -49 149 -49c85 0 152 46 152 136c0 14 -1 28 -4 41c-4 -53 -47 -97 -113 -97c-61 0 -123 42 -123 113c0 62 47 112 129 112h12c-5 13 -9 27 -9 42c0 54 43 97 116 97
c37 0 73 -11 96 -28l-25 -46c-18 13 -44 22 -71 22c-36 0 -60 -16 -60 -50c0 -32 27 -55 50 -76c6 -5 11 -11 16 -16c2 -2 4 -4 5 -6zM797 407c0 -54 33 -91 94 -91c49 0 84 37 84 92c0 57 -45 86 -92 86c-51 0 -86 -37 -86 -87zM448 492v54h426c96 0 156 -53 156 -138
c0 -89 -67 -144 -139 -144c-100 0 -149 69 -149 138c0 59 34 88 48 91h-203c74 -57 109 -161 109 -266c0 -154 -75 -236 -174 -236c-76 0 -119 43 -154 95c-45 -66 -96 -95 -166 -95c-96 0 -162 70 -162 169c0 91 62 165 156 165c183 0 184 -280 323 -280
c68 0 119 64 119 185c0 109 -52 262 -190 262zM202 44c62 0 109 47 135 96c-37 66 -71 130 -141 130c-54 0 -97 -38 -97 -110c0 -66 41 -116 103 -116zM265 682c44 1 68 28 67 60c-2 30 -28 57 -72 56c-45 -1 -69 -30 -67 -60c1 -34 28 -57 72 -56z" />
    <glyph glyph-name="tlRRII" horiz-adv-x="871" 
d="M770 795c23 -30 36 -69 36 -109c0 -77 -37 -133 -95 -164c59 -37 104 -115 104 -241c0 -172 -83 -286 -215 -286c-102 0 -148 62 -162 106h-4c-15 -44 -61 -106 -163 -106c-133 0 -215 114 -215 286c0 187 108 269 206 269c89 0 147 -66 147 -147
c0 -89 -62 -144 -144 -144c-99 0 -134 75 -135 114h-4c-6 -24 -11 -56 -11 -92c0 -141 61 -231 158 -231c80 0 133 58 133 149v16h58v-16c0 -91 54 -149 133 -149c98 0 159 89 159 231c0 161 -78 215 -140 215c-61 0 -90 -42 -90 -91c0 -60 37 -97 98 -101h18v-49h-231v49
h109v5c-23 13 -50 49 -50 100c0 42 13 76 37 100c-32 9 -60 23 -85 41l28 51c36 -29 90 -51 149 -51c85 0 152 47 152 137c0 14 -1 29 -4 41c-4 -53 -47 -97 -113 -97c-61 0 -123 41 -123 113c0 62 47 112 129 112h12c-6 13 -10 27 -10 42c0 54 44 97 117 97
c37 0 73 -11 96 -28l-25 -46c-18 13 -44 22 -71 22c-36 0 -60 -17 -60 -50c0 -43 49 -69 71 -98zM262 497c-66 0 -100 -45 -100 -91s33 -93 98 -93c55 0 90 36 90 91c0 45 -27 93 -88 93zM643 685c44 2 68 28 67 60c-2 31 -28 58 -72 56c-45 -1 -69 -29 -67 -60
c1 -34 28 -57 72 -56z" />
    <glyph glyph-name="tlRRRII" horiz-adv-x="812" 
d="M557 651c42 -47 68 -110 69 -176c81 -62 132 -158 132 -268c0 -131 -75 -216 -188 -216c-101 0 -147 61 -162 105h-3c-15 -44 -62 -105 -163 -105c-113 0 -188 85 -188 216c0 137 78 252 197 306c-43 18 -66 56 -66 100c0 66 54 126 170 126c28 0 54 -4 79 -11
c-3 8 -4 17 -4 26c0 54 43 97 116 97c37 0 74 -12 96 -28l-25 -46c-18 13 -43 22 -71 22c-35 0 -60 -17 -60 -50c0 -43 47 -70 71 -98zM414 546c55 -1 106 -13 151 -34c-17 92 -102 175 -210 175c-76 0 -111 -31 -111 -74c0 -36 27 -67 90 -67h80zM407 491
c-134 0 -239 -78 -277 -188h552c-38 110 -141 188 -275 188zM377 190h58c2 -89 54 -144 132 -144s131 60 131 161c0 15 -1 30 -3 45h-578c-2 -15 -3 -30 -3 -45c0 -101 53 -161 131 -161s130 55 132 144z" />
    <glyph glyph-name="tlLLII" horiz-adv-x="642" 
d="M559 530c0 77 -32 133 -72 164c5 -10 7 -21 7 -32c0 -71 -50 -110 -120 -110c-62 0 -127 42 -127 114c0 71 62 113 134 113h3c-14 19 -24 41 -24 66c0 54 44 97 117 97c37 0 73 -12 95 -28l-25 -46c-17 13 -43 22 -71 22c-35 0 -60 -17 -60 -50c0 -40 37 -66 67 -85
c77 -38 134 -119 134 -225c0 -170 -110 -238 -210 -287c74 -27 122 -59 122 -126s-57 -126 -169 -126s-169 60 -169 126c0 54 30 88 73 115c-109 31 -220 73 -220 191c0 72 58 128 139 128c83 0 136 -60 136 -128c0 -72 -59 -111 -113 -111l-2 -4c45 -16 87 -29 126 -40
c104 50 229 99 229 262zM360 44c70 0 109 30 109 73c0 50 -57 73 -129 94c-52 -26 -90 -52 -90 -94c0 -43 41 -73 110 -73zM102 422c0 -53 38 -80 78 -80c42 0 84 29 84 79c0 46 -28 78 -80 78s-82 -34 -82 -77zM377 606c46 0 72 27 72 60c0 32 -26 60 -72 60
s-72 -28 -72 -60c0 -35 27 -60 72 -60z" />
    <glyph glyph-name="tlLLLII" horiz-adv-x="871" 
d="M262 497c-66 0 -100 -45 -100 -91c0 -45 33 -93 98 -93c55 0 90 36 90 92c0 45 -27 92 -88 92zM438 101h-4c-15 -44 -61 -106 -163 -106c-133 0 -215 115 -215 286c0 187 108 270 206 270c89 0 147 -67 147 -148c0 -88 -62 -144 -144 -144c-99 0 -134 75 -135 114h-4
c-6 -23 -11 -56 -11 -92c0 -141 61 -231 158 -231c80 0 133 58 133 149v17h58v-17c0 -91 53 -149 133 -149c98 0 159 85 159 226c0 36 -6 69 -11 92h-4c-1 -39 -37 -113 -135 -113c-82 0 -145 55 -145 143c0 43 17 83 46 110c-29 9 -55 21 -78 38l28 50
c35 -29 90 -50 148 -50c85 0 152 46 152 136c0 14 -1 27 -3 40c-6 -53 -48 -96 -113 -96c-62 0 -124 41 -124 113c0 62 48 112 129 112h13c-6 13 -10 27 -10 42c0 54 44 97 117 97c37 0 73 -11 95 -28l-25 -46c-17 13 -43 23 -71 23c-35 0 -60 -17 -60 -51
c0 -30 24 -52 46 -72c40 -32 62 -81 62 -134c0 -80 -40 -138 -103 -167c59 -39 105 -117 105 -239c0 -171 -83 -281 -216 -281c-101 0 -147 62 -161 106zM610 492c-63 0 -90 -47 -90 -92c0 -56 36 -92 91 -92c65 0 98 48 98 94c0 45 -34 90 -99 90zM649 681
c45 1 69 27 67 60c-1 30 -27 57 -72 56c-44 -2 -68 -30 -67 -60c2 -35 29 -57 72 -56z" />
    <glyph glyph-name="tlKU" horiz-adv-x="890" 
d="M48 41l25 52c49 -26 112 -47 184 -47c107 0 155 43 155 97c0 147 -356 28 -356 249c0 65 48 125 137 146l-109 106l40 41l68 -67c45 -46 57 -59 66 -72h4c8 12 22 28 68 73l143 144l41 -41l-185 -182c46 -8 88 -24 113 -42l-27 -47c-45 29 -101 40 -152 40
c-99 0 -148 -47 -148 -99c0 -155 356 -43 356 -249c0 -13 -2 -26 -5 -38c36 -38 84 -59 140 -59c100 0 168 78 168 224c0 140 -82 221 -177 221v55c138 0 236 -109 236 -277c0 -181 -91 -278 -225 -278c-69 0 -124 23 -169 64c-35 -39 -96 -64 -182 -64
c-85 0 -161 21 -209 50z" />
    <glyph glyph-name="tlKHU" horiz-adv-x="1234" 
d="M516 296c0 -73 -25 -142 -70 -195c44 -32 92 -56 150 -56c100 0 182 76 182 223c0 149 -93 219 -184 220v58c112 -1 243 -86 243 -278c0 -63 -12 -115 -33 -156c37 -43 87 -66 146 -66c100 0 168 78 168 224c0 140 -82 221 -177 221v55c138 0 236 -109 236 -277
c0 -181 -91 -278 -225 -278c-74 0 -133 27 -179 74c-44 -50 -106 -74 -177 -74c-79 0 -139 31 -191 69c-51 -43 -119 -69 -196 -69c-124 0 -179 67 -179 142c0 65 45 128 144 128c94 0 160 -67 229 -126c37 45 57 101 57 160c0 45 -7 83 -20 114l-5 -1
c10 -60 -42 -124 -125 -124c-97 0 -144 70 -144 137c0 68 51 134 147 134c118 0 203 -102 203 -259zM209 45c61 0 113 19 153 50c-64 56 -118 113 -188 113c-57 0 -86 -31 -86 -75c0 -46 29 -88 121 -88zM450 -152c0 -25 -17 -44 -45 -44c-27 0 -44 19 -44 44
c0 20 5 40 13 70l18 67h27l17 -67c9 -30 14 -50 14 -70zM224 421c0 -43 30 -83 87 -83c59 0 90 41 90 83c0 44 -30 82 -88 82c-57 0 -89 -39 -89 -82z" />
    <glyph glyph-name="tlGU" horiz-adv-x="950" 
d="M178 13l-51 -25c-34 46 -71 132 -71 251c0 145 67 263 174 297l-111 108l40 41l67 -67c46 -46 58 -59 67 -72h4c8 12 23 28 68 73l144 144l39 -41l-188 -186c106 -35 172 -154 172 -297c0 -48 -5 -90 -12 -127c37 -43 86 -66 146 -66c100 0 168 78 168 224
c0 140 -82 221 -177 221v55c138 0 236 -109 236 -277c0 -181 -91 -278 -225 -278c-67 0 -121 22 -165 61c-10 -26 -21 -48 -33 -64l-51 25c35 57 54 123 54 226c0 146 -79 252 -179 252c-99 4 -178 -105 -178 -252c0 -103 28 -172 62 -226z" />
    <glyph glyph-name="tlGHU" horiz-adv-x="1434" 
d="M346 -15h27l18 -67c9 -30 12 -50 13 -70c0 -25 -16 -44 -44 -44s-44 19 -44 44c0 20 4 40 12 70zM447 488v58c159 -4 248 -139 248 -301c0 -56 -8 -103 -23 -141c36 -38 83 -58 139 -58c99 0 167 79 167 224c0 140 -81 221 -177 221v55c138 0 237 -109 237 -276
c0 -64 -11 -118 -32 -160c37 -42 86 -64 144 -64c100 0 168 78 168 224c0 140 -82 221 -177 221v55c138 0 236 -109 236 -277c0 -181 -91 -278 -225 -278c-72 0 -130 26 -176 71c-40 -47 -97 -71 -164 -71s-122 23 -167 63c-32 -42 -76 -63 -128 -63c-73 0 -115 43 -149 95
c-46 -66 -96 -95 -167 -95c-96 0 -162 70 -162 169c0 91 63 165 156 165c180 0 189 -280 317 -280c75 0 125 69 125 202c0 116 -56 241 -190 241zM201 44c63 0 110 47 135 95c-36 67 -71 131 -141 131c-54 0 -97 -38 -97 -110c0 -66 41 -116 103 -116zM243 537h4
c8 11 22 27 68 73l143 143l41 -41l-220 -219h-66l-144 142l40 41l68 -67c45 -47 56 -61 66 -72z" />
    <glyph glyph-name="tlNGU" horiz-adv-x="1292" 
d="M625 304c44 -33 71 -86 71 -146c0 -103 -67 -167 -162 -167c-92 0 -139 63 -153 105h-4c-14 -43 -60 -105 -163 -105s-163 61 -163 142c0 155 237 170 237 289c0 42 -28 79 -81 79c-48 0 -78 -35 -78 -76c0 -13 3 -35 11 -52h-59c-7 18 -10 37 -10 54
c0 73 56 129 136 129c91 0 140 -65 140 -134v-5h121v139h57v-139h113c246 0 178 -372 386 -372c91 0 152 86 152 225c0 140 -81 221 -176 221v55c138 0 236 -109 236 -277c0 -175 -85 -279 -212 -279c-256 0 -196 374 -385 374h-305c-49 -102 -223 -123 -223 -230
c0 -55 42 -88 106 -88c80 0 133 57 133 148v26h58v-25c0 -94 53 -149 123 -149c65 0 106 39 106 112c0 45 -19 79 -51 105z" />
    <glyph glyph-name="tlCU" horiz-adv-x="1148" 
d="M135 281v3h-91v55h230v-55h-6c-89 0 -132 -63 -132 -126c0 -67 49 -112 114 -112c71 0 123 55 123 150v24h57v-26c0 -91 55 -148 126 -148s121 59 121 183c0 148 -97 264 -247 264h-66l-144 142l40 41l67 -67c46 -47 59 -60 67 -72h4c9 11 23 27 68 73l144 143l39 -41
l-169 -169c144 -13 255 -146 255 -311c0 -47 -6 -87 -17 -120c37 -43 86 -66 146 -66c100 0 168 78 168 224c0 140 -82 221 -177 221v55c138 0 236 -109 236 -277c0 -181 -91 -278 -225 -278c-71 0 -128 25 -174 69c-32 -46 -79 -69 -136 -69c-91 0 -138 61 -152 105h-4
c-15 -42 -61 -105 -152 -105c-96 0 -171 69 -171 165c0 70 41 112 58 125z" />
    <glyph glyph-name="tlCHU" horiz-adv-x="1148" 
d="M387 -15h28l18 -67c7 -30 12 -50 12 -70c0 -25 -15 -44 -43 -44c-29 0 -45 19 -45 44c0 20 4 40 13 70zM394 537h4c9 10 22 27 68 73l144 143l39 -41l-169 -169c144 -13 255 -146 255 -311c0 -47 -6 -87 -17 -120c37 -43 86 -66 146 -66c100 0 168 78 168 224
c0 140 -82 221 -177 221v55c138 0 236 -109 236 -277c0 -181 -91 -278 -225 -278c-71 0 -128 25 -174 69c-32 -46 -79 -69 -136 -69c-91 0 -138 61 -152 105h-4c-15 -42 -61 -105 -152 -105c-96 0 -171 69 -171 165c0 70 41 112 58 125v3h-91v55h230v-55h-6
c-89 0 -132 -63 -132 -126c0 -67 49 -112 114 -112c71 0 123 55 123 150v24h57v-26c0 -91 55 -148 126 -148s121 59 121 183c0 148 -97 264 -247 264h-66l-144 142l40 41l67 -67c46 -47 58 -61 67 -72z" />
    <glyph glyph-name="tlJU" horiz-adv-x="753" 
d="M51 133c0 155 237 170 237 289c0 42 -28 79 -81 79c-48 0 -78 -35 -78 -76c0 -13 3 -35 11 -52h-59c-7 18 -10 37 -10 54c0 73 56 129 136 129c91 0 140 -65 140 -134v-7c12 -5 27 -9 50 -9c48 0 76 28 76 70c0 20 -12 46 -31 61l54 24c21 -18 35 -50 35 -86
c0 -22 -4 -41 -11 -57c12 -6 29 -12 57 -12c48 0 77 28 77 70c0 20 -12 46 -31 61l53 24c21 -18 35 -50 35 -86c0 -76 -48 -118 -119 -118c-39 0 -75 14 -96 28c-21 -18 -50 -28 -85 -28c-27 0 -53 7 -73 16c-43 -110 -227 -129 -227 -239c0 -55 42 -88 106 -88
c80 0 133 57 133 148v26h58v-25c0 -94 53 -149 123 -149c65 0 106 39 106 113c0 54 -31 92 -73 119l35 42c61 -30 97 -89 97 -161c0 -104 -66 -168 -162 -168c-92 0 -139 63 -153 105h-4c-14 -43 -60 -105 -163 -105s-163 61 -163 142z" />
    <glyph glyph-name="tlJHU" horiz-adv-x="1644" 
d="M827 -15h27l17 -67c8 -30 13 -50 13 -70c0 -25 -16 -44 -44 -44c-29 0 -44 19 -44 44c0 20 5 40 13 70zM306 546h4c8 12 22 28 67 73l144 144l41 -41l-187 -184c112 -27 184 -126 184 -270c0 -59 -12 -110 -34 -152c38 -45 89 -70 150 -70c99 0 168 79 168 224
c0 140 -82 221 -177 221v55c138 0 236 -109 236 -276c0 -63 -11 -116 -31 -158c38 -43 87 -66 147 -66c99 0 167 79 167 224c0 140 -81 221 -176 221v55c137 0 236 -109 236 -276c0 -63 -11 -116 -31 -158c37 -43 87 -66 146 -66c100 0 168 78 168 224
c0 140 -82 221 -177 221v55c138 0 236 -109 236 -277c0 -181 -91 -278 -225 -278c-73 0 -132 26 -178 73c-40 -48 -97 -73 -165 -73c-73 0 -131 26 -178 73c-40 -48 -97 -73 -165 -73c-75 0 -135 28 -183 78c-44 -50 -108 -78 -185 -78c-151 0 -252 107 -252 277
c0 144 72 243 185 270l-109 106l40 41l67 -67c45 -46 59 -59 67 -72zM116 268c0 -144 79 -222 191 -222c113 0 193 78 193 222c0 145 -80 223 -193 223c-112 0 -191 -78 -191 -223z" />
    <glyph glyph-name="tlNYU" horiz-adv-x="1493" 
d="M1201 546c138 0 236 -109 236 -277c0 -175 -85 -279 -212 -279c-256 0 -196 328 -385 328h-121c-6 -76 -38 -150 -88 -208c31 -52 50 -110 56 -161h-56c-6 37 -19 80 -40 120c-56 -48 -127 -78 -204 -78c-132 0 -201 63 -201 143c0 83 74 137 190 137
c94 0 168 -47 221 -112c39 51 64 115 64 183c0 93 -46 158 -125 158s-124 -57 -124 -148v-16h-57v15c0 93 -67 149 -137 149c-65 0 -114 -40 -114 -113c0 -35 10 -64 31 -87l-46 -35c-29 32 -45 75 -45 122c0 103 75 168 172 168c91 0 151 -64 165 -105h4
c14 43 52 105 153 105c104 0 171 -76 181 -184h92v175h58v-177c211 -25 157 -324 356 -324c91 0 152 86 152 225c0 140 -81 221 -176 221v55zM387 45c62 0 123 28 173 74c-42 55 -103 98 -184 98c-85 0 -131 -32 -131 -83c0 -46 45 -89 142 -89z" />
    <glyph glyph-name="tlTTU" horiz-adv-x="1198" 
d="M130 378h-4c-6 -27 -11 -61 -11 -96c0 -141 61 -236 158 -236c79 0 132 57 132 149v25h57v-25c0 -92 50 -149 130 -149c75 0 142 65 142 221c0 130 -59 206 -127 223v62c93 -17 186 -112 186 -286c0 -62 -9 -113 -26 -153c37 -44 87 -67 147 -67c100 0 168 78 168 224
c0 140 -82 221 -177 221v55c138 0 236 -109 236 -277c0 -181 -91 -278 -225 -278c-72 0 -130 26 -176 71c-35 -47 -86 -71 -146 -71c-101 0 -144 62 -158 105h-4c-14 -43 -60 -105 -162 -105c-133 0 -214 119 -214 291c0 170 89 256 178 271l-6 152h66l-6 -152
c74 -11 122 -72 122 -146c0 -88 -61 -143 -143 -143c-99 0 -136 74 -137 114zM262 502c-66 0 -100 -46 -100 -91c0 -46 33 -93 99 -93c54 0 90 36 90 90c0 46 -28 94 -89 94z" />
    <glyph glyph-name="tlTTHU" horiz-adv-x="957" 
d="M56 268c0 144 72 243 185 270l-109 106l40 41l67 -67c45 -46 59 -59 67 -72h4c8 12 22 28 67 73l144 144l41 -41l-187 -184c112 -27 184 -126 184 -270c0 -59 -12 -111 -35 -153c38 -45 88 -69 149 -69c100 0 168 78 168 224c0 140 -82 221 -177 221v55
c138 0 236 -109 236 -277c0 -181 -91 -278 -225 -278c-76 0 -136 28 -183 78c-44 -50 -108 -78 -184 -78c-151 0 -252 107 -252 277zM115 268c0 -144 80 -223 192 -223c113 0 193 79 193 223c0 145 -80 223 -193 223c-112 0 -192 -78 -192 -223zM308 320c29 0 51 -21 51 -51
c0 -27 -22 -50 -51 -50c-27 0 -50 23 -50 50c0 30 23 51 50 51z" />
    <glyph glyph-name="tlDDU" horiz-adv-x="1182" 
d="M405 546h3c8 12 22 28 68 73l143 144l41 -41l-184 -182c55 -9 104 -30 148 -64l-36 -44c-48 37 -112 59 -181 59c-171 0 -293 -126 -293 -284c0 -101 53 -161 131 -161c80 0 132 57 132 149v25h58v-25c0 -95 59 -158 146 -158c16 0 29 3 41 7l-1 3c-1 -1 -8 -2 -13 -2
c-51 0 -114 43 -114 126c0 73 56 134 137 134c77 0 140 -56 140 -140c0 -23 -4 -44 -10 -63c36 -36 82 -56 137 -56c100 0 168 78 168 224c0 140 -82 221 -177 221v55c138 0 236 -109 236 -277c0 -181 -91 -278 -225 -278c-68 0 -123 22 -167 62c-35 -41 -91 -62 -150 -62
c-107 0 -159 64 -175 105h-3c-15 -44 -62 -105 -163 -105c-113 0 -188 85 -188 216c0 168 119 303 283 333l-106 104l39 41l68 -67c45 -46 58 -59 67 -72zM547 166c0 -67 54 -98 94 -98c35 0 74 34 74 98c0 50 -36 87 -83 87c-48 0 -85 -35 -85 -87z" />
    <glyph glyph-name="tlDDHU" horiz-adv-x="1182" 
d="M420 -15l18 -67c7 -30 12 -50 12 -70c0 -25 -16 -44 -43 -44c-29 0 -45 19 -45 44c0 20 5 40 13 70l17 67h28zM405 546h3c8 12 22 28 68 73l143 144l41 -41l-184 -182c55 -9 104 -30 148 -64l-36 -44c-48 37 -112 59 -181 59c-171 0 -293 -126 -293 -284
c0 -101 53 -161 131 -161c80 0 132 57 132 149v25h58v-25c0 -95 59 -158 146 -158c16 0 29 3 41 7l-1 3c-1 -1 -8 -2 -13 -2c-51 0 -114 43 -114 126c0 73 56 134 137 134c77 0 140 -56 140 -140c0 -23 -4 -44 -10 -63c36 -36 82 -56 137 -56c100 0 168 78 168 224
c0 140 -82 221 -177 221v55c138 0 236 -109 236 -277c0 -181 -91 -278 -225 -278c-68 0 -123 22 -167 62c-35 -41 -91 -62 -150 -62c-107 0 -159 64 -175 105h-3c-15 -44 -62 -105 -163 -105c-113 0 -188 85 -188 216c0 168 119 303 283 333l-106 104l39 41l68 -67
c45 -46 58 -59 67 -72zM547 166c0 -67 54 -98 94 -98c35 0 74 34 74 98c0 50 -36 87 -83 87c-48 0 -85 -35 -85 -87z" />
    <glyph glyph-name="tlNNU" horiz-adv-x="1165" 
d="M707 263c0 150 -62 233 -157 233c-71 0 -114 -50 -121 -129h-58c-8 79 -61 129 -135 129c-76 0 -112 -41 -112 -93c0 -63 46 -100 125 -100h22v-54h-21c-89 0 -131 -43 -131 -104c0 -59 40 -96 116 -96c26 0 53 8 74 21l20 -54c-27 -14 -58 -21 -96 -21
c-106 0 -174 57 -174 149c0 78 53 122 106 131v4c-42 12 -101 44 -101 125c0 85 64 147 169 147c102 0 150 -62 165 -108h4c14 45 51 108 150 108c132 0 210 -108 210 -288c0 -61 -11 -110 -29 -149c37 -44 88 -68 148 -68c100 0 168 78 168 224c0 140 -82 221 -177 221v55
c138 0 236 -109 236 -277c0 -181 -91 -278 -225 -278c-74 0 -133 27 -179 74c-39 -48 -92 -70 -143 -70c-89 0 -145 64 -145 141c0 87 62 143 142 143c98 0 132 -72 133 -111h4c5 26 12 60 12 95zM562 48c65 0 96 38 96 83c0 47 -26 94 -96 94c-52 0 -87 -37 -87 -90
c0 -42 24 -87 87 -87z" />
    <glyph glyph-name="tlTU" horiz-adv-x="1157" 
d="M765 275c0 -55 -17 -107 -48 -151c38 -50 91 -78 156 -78c100 0 168 78 168 224c0 140 -82 221 -177 221v55c138 0 236 -109 236 -277c0 -181 -91 -278 -225 -278c-83 0 -146 33 -195 91c-61 -56 -153 -91 -271 -91c-225 0 -355 129 -355 284c0 94 67 161 157 161
c89 0 148 -60 148 -144c0 -83 -61 -140 -139 -140c-35 0 -60 8 -80 26l-3 -3c43 -76 136 -130 272 -130s230 54 272 130l-3 3c-20 -18 -44 -26 -79 -26c-78 0 -140 57 -140 140c0 84 60 144 149 144c29 0 55 -7 78 -19c-19 47 -73 76 -158 76h-146l-145 143l40 40l67 -67
c46 -46 59 -60 67 -72h4c8 11 23 27 68 73l143 144l41 -41l-170 -168h30c137 0 219 -63 219 -182v-8c12 -23 19 -50 19 -80zM112 287c0 -51 31 -90 97 -90c59 0 93 41 93 95c0 56 -36 92 -92 92c-59 0 -98 -45 -98 -97zM516 292c0 -54 34 -95 94 -95c66 0 96 39 96 90
c0 56 -40 97 -98 97c-55 0 -92 -36 -92 -92z" />
    <glyph glyph-name="tlTHU" horiz-adv-x="1177" 
d="M408 96h-3c-15 -44 -62 -105 -163 -105c-113 0 -188 85 -188 216c0 168 118 303 283 333l-107 104l39 41l69 -67c45 -46 57 -59 67 -72h3c8 12 22 28 68 73l143 144l41 -41l-185 -182c165 -30 283 -165 283 -333c0 -34 -5 -64 -14 -91c37 -45 88 -70 149 -70
c100 0 168 78 168 224c0 140 -82 221 -177 221v55c138 0 236 -109 236 -277c0 -181 -91 -278 -225 -278c-73 0 -131 26 -178 73c-33 -47 -84 -73 -147 -73c-101 0 -147 61 -162 105zM406 411c29 0 52 -23 52 -52c0 -27 -23 -49 -52 -49c-28 0 -50 22 -50 49
c0 29 22 52 50 52zM435 219v-24c0 -92 52 -149 132 -149c78 0 131 60 131 161c0 158 -120 284 -291 284s-293 -126 -293 -284c0 -101 53 -161 131 -161c80 0 132 57 132 149v24h58zM392 -15h28l17 -67c8 -30 13 -50 13 -70c0 -25 -16 -44 -43 -44c-29 0 -45 19 -45 44
c0 20 5 40 12 70z" />
    <glyph glyph-name="tlDU" horiz-adv-x="1177" 
d="M435 220v-25c0 -92 52 -149 132 -149c78 0 131 60 131 161c0 158 -120 284 -291 284s-293 -126 -293 -284c0 -101 53 -161 131 -161c80 0 132 57 132 149v25h58zM408 96h-3c-15 -44 -62 -105 -163 -105c-113 0 -188 85 -188 216c0 168 118 303 283 333l-107 104l39 41
l69 -67c45 -46 57 -59 67 -72h3c8 12 22 28 68 73l143 144l41 -41l-185 -182c165 -30 283 -165 283 -333c0 -34 -5 -64 -14 -91c37 -45 88 -70 149 -70c100 0 168 78 168 224c0 140 -82 221 -177 221v55c138 0 236 -109 236 -277c0 -181 -91 -278 -225 -278
c-73 0 -131 26 -178 73c-33 -47 -84 -73 -147 -73c-101 0 -147 61 -162 105z" />
    <glyph glyph-name="tlDHU" horiz-adv-x="1177" 
d="M392 -15h28l17 -67c8 -30 13 -50 13 -70c0 -25 -16 -44 -43 -44c-29 0 -45 19 -45 44c0 20 5 40 12 70zM435 220v-25c0 -92 52 -149 132 -149c78 0 131 60 131 161c0 158 -120 284 -291 284s-293 -126 -293 -284c0 -101 53 -161 131 -161c80 0 132 57 132 149v25h58z
M408 96h-3c-15 -44 -62 -105 -163 -105c-113 0 -188 85 -188 216c0 168 118 303 283 333l-107 104l39 41l69 -67c45 -46 57 -59 67 -72h3c8 12 22 28 68 73l143 144l41 -41l-185 -182c165 -30 283 -165 283 -333c0 -34 -5 -64 -14 -91c37 -45 88 -70 149 -70
c100 0 168 78 168 224c0 140 -82 221 -177 221v55c138 0 236 -109 236 -277c0 -181 -91 -278 -225 -278c-73 0 -131 26 -178 73c-33 -47 -84 -73 -147 -73c-101 0 -147 61 -162 105z" />
    <glyph glyph-name="tlNU" horiz-adv-x="1108" 
d="M159 17l-46 -32c-33 32 -73 89 -73 175c0 91 63 165 156 165c181 0 184 -280 321 -280c74 0 121 70 121 195c0 148 -89 253 -254 253h-79l-144 142l39 41l67 -67c47 -47 59 -60 68 -73h3c8 11 22 28 68 73l143 144l41 -41l-170 -168c162 -2 275 -132 275 -303
c0 -49 -6 -92 -18 -127c37 -44 88 -68 148 -68c100 0 168 78 168 224c0 140 -82 221 -177 221v55c138 0 236 -109 236 -277c0 -181 -91 -278 -225 -278c-72 0 -129 25 -175 70c-31 -46 -76 -70 -131 -70c-187 0 -183 278 -325 278c-54 0 -97 -37 -97 -110
c0 -65 30 -110 60 -142z" />
    <glyph glyph-name="tlPU" horiz-adv-x="1092" 
d="M246 537h4c7 11 22 27 68 73l142 143l41 -41l-222 -219h-63l-144 142l40 41l67 -67c46 -47 58 -60 67 -72zM202 44c62 0 109 47 134 95c-44 79 -75 131 -140 131c-54 0 -98 -38 -98 -110c0 -66 42 -116 104 -116zM1035 227c0 -234 -130 -361 -326 -361
c-162 0 -260 93 -341 220c-46 -66 -96 -95 -166 -95c-96 0 -162 70 -162 169c0 91 62 165 156 165c180 0 188 -280 317 -280c74 0 125 69 125 202c0 116 -57 241 -190 241v58c159 -4 248 -140 248 -301c0 -168 -71 -251 -175 -251c-5 0 -11 1 -16 2c51 -47 120 -75 198 -75
c161 0 273 101 273 306c0 164 -81 264 -179 264v55c140 0 238 -131 238 -319z" />
    <glyph glyph-name="tlPHU" horiz-adv-x="1092" 
d="M202 44c62 0 109 47 134 95c-44 79 -75 131 -140 131c-54 0 -98 -38 -98 -110c0 -66 42 -116 104 -116zM1035 227c0 -234 -130 -361 -326 -361c-162 0 -260 93 -341 220c-46 -66 -96 -95 -166 -95c-96 0 -162 70 -162 169c0 91 62 165 156 165c180 0 188 -280 317 -280
c74 0 125 69 125 202c0 116 -57 241 -190 241v58c159 -4 248 -140 248 -301c0 -168 -71 -251 -175 -251c-5 0 -11 1 -16 2c51 -47 120 -75 198 -75c161 0 273 101 273 306c0 164 -81 264 -179 264v55c140 0 238 -131 238 -319zM345 -15h28l18 -67c7 -30 13 -50 13 -70
c0 -26 -16 -44 -45 -44c-28 0 -44 18 -44 44c0 20 5 40 13 70zM246 537h4c7 11 22 27 68 73l142 143l41 -41l-222 -219h-63l-144 142l40 41l67 -67c46 -47 58 -60 67 -72z" />
    <glyph glyph-name="tlBU" horiz-adv-x="1149" 
d="M684 246c0 124 -65 242 -207 242v58c121 0 266 -90 266 -291c0 -57 -9 -104 -25 -142c37 -44 87 -67 147 -67c100 0 168 78 168 224c0 140 -82 221 -177 221v55c138 0 236 -109 236 -277c0 -181 -91 -278 -225 -278c-73 0 -131 26 -177 72c-36 -49 -88 -72 -146 -72
c-95 0 -149 63 -163 105h-4c-14 -43 -60 -105 -163 -105s-163 61 -163 142c0 155 237 170 237 289c0 42 -28 79 -81 79c-48 0 -78 -35 -78 -76c0 -13 3 -35 11 -52h-59c-7 18 -10 37 -10 54c0 73 56 129 136 129c91 0 140 -65 140 -134c0 -155 -236 -163 -236 -288
c0 -55 42 -88 106 -88c80 0 133 57 133 148v26h58v-25c0 -94 60 -149 134 -149s142 68 142 200z" />
    <glyph glyph-name="tlBHU" horiz-adv-x="1149" 
d="M423 -152c0 -25 -16 -44 -44 -44c-29 0 -45 19 -45 44c0 20 6 40 14 70l17 67h28l17 -67c8 -30 13 -50 13 -70zM684 246c0 124 -65 242 -206 242h-8l-144 142l40 41l67 -67c45 -47 58 -60 67 -72h4c7 11 22 27 67 73l143 143l41 -40l-183 -181c91 -36 171 -123 171 -272
c0 -57 -9 -104 -25 -142c37 -44 87 -67 147 -67c100 0 168 78 168 224c0 140 -82 221 -177 221v55c138 0 236 -109 236 -277c0 -181 -91 -278 -225 -278c-73 0 -131 26 -177 72c-36 -49 -88 -72 -146 -72c-95 0 -149 63 -163 105h-4c-14 -43 -60 -105 -163 -105
s-163 61 -163 142c0 155 237 170 237 289c0 42 -28 79 -81 79c-48 0 -78 -35 -78 -76c0 -13 3 -35 11 -52h-59c-7 18 -10 37 -10 54c0 73 56 129 136 129c91 0 140 -65 140 -134c0 -155 -236 -163 -236 -288c0 -55 42 -88 106 -88c80 0 133 57 133 148v26h58v-25
c0 -94 60 -149 134 -149s142 68 142 200z" />
    <glyph glyph-name="tlMU" horiz-adv-x="1436" 
d="M336 536h3c8 11 21 28 67 73l144 144l41 -41l-173 -171c179 -24 277 -159 277 -314c0 -49 -8 -91 -21 -125c36 -36 82 -56 137 -56c99 0 168 79 168 224c0 140 -82 221 -177 221v55c138 0 236 -109 236 -276c0 -64 -11 -117 -31 -159c37 -42 86 -65 145 -65
c100 0 168 78 168 224c0 140 -82 221 -177 221v55c138 0 236 -109 236 -277c0 -181 -91 -278 -225 -278c-73 0 -131 26 -178 72c-39 -47 -96 -72 -164 -72c-66 0 -121 22 -165 62c-31 -41 -75 -62 -125 -62c-76 0 -120 43 -154 95c-46 -66 -96 -95 -166 -95
c-96 0 -162 70 -162 169c0 91 62 165 156 165c183 0 183 -280 322 -280c69 0 120 64 120 185c0 123 -79 263 -273 263h-59l-145 142l39 41l68 -67c46 -47 58 -60 68 -73zM202 44c62 0 109 47 135 96c-37 66 -71 130 -141 130c-54 0 -98 -38 -98 -110c0 -66 42 -116 104 -116
z" />
    <glyph glyph-name="tlYU" horiz-adv-x="1644" 
d="M56 268c0 171 101 278 252 278c150 0 251 -107 251 -278c0 -59 -12 -110 -34 -152c38 -45 89 -70 150 -70c99 0 168 79 168 224c0 140 -82 223 -178 223h-37l-145 142l40 41l67 -67c46 -47 58 -60 67 -72h4c8 11 22 27 68 73l143 143l40 -41l-179 -177
c102 -29 169 -128 169 -265c0 -63 -11 -116 -31 -158c38 -43 87 -66 147 -66c99 0 167 79 167 224c0 140 -81 221 -176 221v55c137 0 236 -109 236 -276c0 -63 -11 -116 -31 -158c37 -43 87 -66 146 -66c100 0 168 78 168 224c0 140 -82 221 -177 221v55
c138 0 236 -109 236 -277c0 -181 -91 -278 -225 -278c-73 0 -132 26 -178 73c-40 -48 -97 -73 -165 -73c-73 0 -131 26 -178 73c-40 -48 -97 -73 -165 -73c-75 0 -135 28 -183 78c-44 -50 -108 -78 -185 -78c-151 0 -252 107 -252 277zM116 268c0 -144 79 -222 191 -222
c113 0 193 78 193 222c0 145 -80 223 -193 223c-112 0 -191 -78 -191 -223z" />
    <glyph glyph-name="tlRU" horiz-adv-x="957" 
d="M56 268c0 144 72 243 185 270l-109 106l40 41l67 -67c45 -46 59 -59 67 -72h4c8 12 22 28 67 73l144 144l41 -41l-187 -184c112 -27 184 -126 184 -270c0 -59 -12 -111 -35 -153c38 -45 88 -69 149 -69c100 0 168 78 168 224c0 140 -82 221 -177 221v55
c138 0 236 -109 236 -277c0 -181 -91 -278 -225 -278c-76 0 -136 28 -183 78c-44 -50 -108 -78 -184 -78c-151 0 -252 107 -252 277zM116 268c0 -144 79 -222 191 -222c113 0 193 78 193 222c0 145 -80 223 -193 223c-112 0 -191 -78 -191 -223z" />
    <glyph glyph-name="tlLU" horiz-adv-x="1095" 
d="M710 295c0 -66 -19 -125 -53 -174c38 -49 90 -75 154 -75c100 0 168 78 168 224c0 140 -82 221 -177 221v55c138 0 236 -109 236 -277c0 -181 -91 -278 -225 -278c-81 0 -143 32 -192 88c-57 -55 -139 -88 -237 -88c-203 0 -328 148 -328 315c0 140 91 249 205 249
c90 0 149 -66 149 -148c0 -90 -63 -145 -144 -145c-99 0 -137 79 -138 117h-4c-6 -27 -10 -37 -10 -73c0 -129 103 -260 270 -260c156 0 266 104 266 249c0 139 -71 204 -137 211v56c108 -8 197 -106 197 -267zM161 410c0 -45 34 -94 100 -94c55 0 90 37 90 92
c0 46 -28 94 -90 94c-65 0 -100 -47 -100 -92z" />
    <glyph glyph-name="tlVU" horiz-adv-x="1091" 
d="M336 536h3c8 11 21 28 67 73l144 144l41 -41l-173 -171c179 -24 277 -159 277 -314c0 -150 -74 -233 -167 -233c-8 0 -16 1 -24 2c51 -47 121 -75 199 -75c161 0 273 101 273 306c0 164 -81 264 -179 264v55c140 0 238 -131 238 -319c0 -234 -130 -361 -326 -361
c-162 0 -260 93 -341 220c-46 -66 -96 -95 -166 -95c-96 0 -162 70 -162 169c0 91 62 165 156 165c183 0 186 -280 322 -280c69 0 120 64 120 185c0 123 -79 263 -273 263h-59l-145 142l39 41l68 -67c46 -47 58 -60 68 -73zM202 44c62 0 109 47 134 95
c-44 79 -75 131 -140 131c-54 0 -98 -38 -98 -110c0 -66 42 -116 104 -116z" />
    </font>
</defs>
</svg>
