<svg xmlns="http://www.w3.org/2000/svg" width="134.15" height="23.5" viewBox="0 0 134.15 23.5">
  <path id="Path_413" data-name="Path 413" d="M-57.887.4c4.625,0,6.85-2.425,6.85-7h-.6c0,1.4-.25,5.35-3.6,5.35A3.748,3.748,0,0,1-58.012-2.3c-1.025-1.125-1.275-2.875-1.275-6.975,0-2.125.1-4.925.2-6.4.1-1.35.45-1.775,1.175-1.775a1.474,1.474,0,0,1,1.1.525,46.9,46.9,0,0,1,5.05,7.35h.5l-.125-7.375a21.4,21.4,0,0,0-6.5-.925,9.128,9.128,0,0,0-9.15,9.1A9.176,9.176,0,0,0-57.887.4Zm18.425-4.95V0h7.225V-3.825c0-2.25-.65-4.675-3.75-5.025l-.675-.075v-.15l.675-.05A4.064,4.064,0,0,0-32.112-13.4a4.013,4.013,0,0,0-3.3-3.95,11.234,11.234,0,0,0-1.65-.15h-12.05V0h7.2V-8.75h.675a1.568,1.568,0,0,1,1.2.35C-39.562-7.925-39.463-6.825-39.463-4.55Zm-2.45-4.7V-17h.65a1.634,1.634,0,0,1,1.225.35c.45.45.45,1.35.45,3.45,0,2.2-.025,3.125-.475,3.575a1.543,1.543,0,0,1-1.2.375ZM-30.112,0h14.375V-7.925h-.475A26.707,26.707,0,0,1-20.763-1.2a2.471,2.471,0,0,1-2.15.7V-8.925a1.517,1.517,0,0,1,1.225.475,13.81,13.81,0,0,1,2.25,3.375h.45v-8.2h-.45A13.336,13.336,0,0,1-21.687-9.9a1.517,1.517,0,0,1-1.225.475V-17c1.225,0,1.7.15,2.15.55a22.916,22.916,0,0,1,4.25,5.8h.5V-17.5h-14.1Zm6.475-20.375-.9,1.775,1.85-.425c1.775-.4,3.725-.75,3.725-2.3a1.661,1.661,0,0,0-1.7-1.775C-21.987-23.1-22.888-21.85-23.638-20.375ZM-13.587,0h8.275c5.3,0,9.15-3.675,9.15-8.75s-3.85-8.75-9.15-8.75h-8.275Zm8.275-.5H-6.387V-16.975L-5.312-17a1.255,1.255,0,0,1,1.35,1.375v13.75A1.28,1.28,0,0,1-5.312-.5Zm10.9.5h7.2V-17.5h-7.2Zm13.65,0h7.2V-17a1.082,1.082,0,0,1,1.075.525,27.916,27.916,0,0,1,3.2,6.9h.5V-17.5H14.462v7.925h.5a27.916,27.916,0,0,1,3.2-6.9A1.082,1.082,0,0,1,19.237-17Zm22.05.4a9.154,9.154,0,0,0,9.15-9.15,9.133,9.133,0,0,0-9.15-9.125,9.133,9.133,0,0,0-9.15,9.125A9.154,9.154,0,0,0,41.288.4Zm0-.5a1.207,1.207,0,0,1-1.3-1.3V-16.075a1.207,1.207,0,0,1,1.3-1.3,1.219,1.219,0,0,1,1.3,1.3V-1.4A1.219,1.219,0,0,1,41.288-.1Zm17.95.5A9.4,9.4,0,0,0,64.563-.8a5.345,5.345,0,0,0,2.55-4.725c0-3.575-2.675-4.975-5.275-6.35-2.225-1.175-5.225-2.075-5.225-3.875,0-1.3,1.2-1.575,1.925-1.575,1.75,0,4.075,2.425,7.025,5.925h.55l-.175-5.725a29.757,29.757,0,0,0-6.6-.75c-3.125,0-7.8,1.425-7.8,5.825,0,3.6,3.3,4.825,6.2,6.275,2.425,1.2,4.575,2.075,4.575,3.95a1.612,1.612,0,0,1-1.8,1.675c-2.65,0-6.9-5.925-7.775-7.075h-.55v6.45A20.442,20.442,0,0,0,59.237.4Z" transform="translate(67.037 23.1)"/>
</svg>
