<svg xmlns="http://www.w3.org/2000/svg" width="193.176" height="33.84" viewBox="0 0 193.176 33.84">
  <path id="Path_412" data-name="Path 412" d="M-83.358.576c6.66,0,9.864-3.492,9.864-10.08h-.864c0,2.016-.36,7.7-5.184,7.7a5.4,5.4,0,0,1-4-1.512c-1.476-1.62-1.836-4.14-1.836-10.044,0-3.06.144-7.092.288-9.216.144-1.944.648-2.556,1.692-2.556a2.123,2.123,0,0,1,1.584.756c1.512,1.512,4.716,6.156,7.272,10.584h.72L-74-24.408a30.82,30.82,0,0,0-9.36-1.332,13.144,13.144,0,0,0-13.176,13.1A13.213,13.213,0,0,0-83.358.576Zm26.532-7.128V0h10.4V-5.508c0-3.24-.936-6.732-5.4-7.236l-.972-.108v-.216l.972-.072a5.853,5.853,0,0,0,5.58-6.156,5.779,5.779,0,0,0-4.752-5.688A16.177,16.177,0,0,0-53.37-25.2H-70.722V0h10.368V-12.6h.972a2.258,2.258,0,0,1,1.728.5C-56.97-11.412-56.826-9.828-56.826-6.552Zm-3.528-6.768V-24.48h.936a2.353,2.353,0,0,1,1.764.5c.648.648.648,1.944.648,4.968,0,3.168-.036,4.5-.684,5.148a2.221,2.221,0,0,1-1.728.54ZM-43.362,0h20.7V-11.412h-.684A38.458,38.458,0,0,1-29.9-1.728c-.792.792-1.4,1.008-3.1,1.008V-12.852a2.184,2.184,0,0,1,1.764.684,19.886,19.886,0,0,1,3.24,4.86h.648V-19.116h-.648a19.2,19.2,0,0,1-3.24,4.86,2.184,2.184,0,0,1-1.764.684V-24.48c1.764,0,2.448.216,3.1.792a33,33,0,0,1,6.12,8.352h.72V-25.2h-20.3Zm9.324-29.34-1.3,2.556,2.664-.612c2.556-.576,5.364-1.08,5.364-3.312a2.392,2.392,0,0,0-2.448-2.556C-31.662-33.264-32.958-31.464-34.038-29.34ZM-19.566,0H-7.65C-.018,0,5.526-5.292,5.526-12.6S-.018-25.2-7.65-25.2H-19.566ZM-7.65-.72H-9.2V-24.444l1.548-.036A1.807,1.807,0,0,1-5.706-22.5V-2.7A1.843,1.843,0,0,1-7.65-.72ZM8.046,0H18.414V-25.2H8.046ZM27.7,0H38.07V-24.48a1.558,1.558,0,0,1,1.548.756,40.2,40.2,0,0,1,4.608,9.936h.72V-25.2H20.826v11.412h.72a40.2,40.2,0,0,1,4.608-9.936A1.558,1.558,0,0,1,27.7-24.48ZM59.454.576A13.182,13.182,0,0,0,72.63-12.6,13.152,13.152,0,0,0,59.454-25.74,13.152,13.152,0,0,0,46.278-12.6,13.182,13.182,0,0,0,59.454.576Zm0-.72a1.738,1.738,0,0,1-1.872-1.872V-23.148a1.738,1.738,0,0,1,1.872-1.872,1.755,1.755,0,0,1,1.872,1.872V-2.016A1.755,1.755,0,0,1,59.454-.144ZM85.3.576c2.808,0,5.688-.324,7.668-1.728a7.7,7.7,0,0,0,3.672-6.8c0-5.148-3.852-7.164-7.6-9.144-3.2-1.692-7.524-2.988-7.524-5.58,0-1.872,1.728-2.268,2.772-2.268,2.52,0,5.868,3.492,10.116,8.532H95.2L94.95-24.66a42.85,42.85,0,0,0-9.5-1.08c-4.5,0-11.232,2.052-11.232,8.388,0,5.184,4.752,6.948,8.928,9.036,3.492,1.728,6.588,2.988,6.588,5.688A2.321,2.321,0,0,1,87.138-.216c-3.816,0-9.936-8.532-11.2-10.188H75.15v9.288A29.436,29.436,0,0,0,85.3.576Z" transform="translate(96.534 33.264)"/>
</svg>
