<?xml version="1.0" encoding="utf-8"?>
<!-- Generator: Adobe Illustrator 18.0.0, SVG Export Plug-In . SVG Version: 6.00 Build 0)  -->
<!DOCTYPE svg PUBLIC "-//W3C//DTD SVG 1.1//EN" "http://www.w3.org/Graphics/SVG/1.1/DTD/svg11.dtd">
<svg version="1.1" id="Capa_1" xmlns="http://www.w3.org/2000/svg" xmlns:xlink="http://www.w3.org/1999/xlink" x="0px" y="0px"
	 viewBox="0 0 210 16" enable-background="new 0 0 210 16" xml:space="preserve">
<g>
	<g>
		<path d="M53.1,8.5c0.2-1,0.7-1.8,1.3-2.3c0.6-0.5,1.4-0.8,2.4-0.8c0.6,0,1.1,0.1,1.6,0.3c0.5,0.2,0.9,0.5,1.2,0.9
			C59.8,7,60,7.4,60,7.9c0,0.7-0.2,1.2-0.7,1.7c-0.5,0.5-1.1,0.7-1.8,0.7c-0.4,0-0.8-0.1-1.2-0.3c-0.4-0.2-0.7-0.4-0.9-0.7
			c-0.2-0.3-0.4-0.7-0.4-1c0-0.4,0.2-0.8,0.5-1.1c0.3-0.3,0.7-0.5,1.1-0.5c0.3,0,0.4,0.1,0.4,0.3c0,0,0,0.1,0,0.1c0,0,0,0.1,0,0.1
			c-0.9,0.1-1.4,0.4-1.4,1.1c0,0.4,0.2,0.8,0.5,1c0.4,0.3,0.8,0.4,1.4,0.4c0.6,0,1-0.2,1.4-0.5c0.4-0.3,0.5-0.8,0.5-1.3
			c0-0.6-0.2-1-0.7-1.4C58.2,6.1,57.5,6,56.8,6c-0.8,0-1.5,0.2-2,0.6C54.3,7,54,7.6,54,8.3c0,0.8,0.3,1.4,1,1.9
			c0.6,0.5,1.4,0.8,2.4,0.8c0.6,0,1.2-0.1,1.8-0.4c0.5-0.3,0.9-0.6,1.2-1.1c0.3-0.5,0.5-1,0.5-1.7c0-1.1-0.5-2-1.6-2.6
			c-1.1-0.7-2.5-1-4.2-1c-1.9,0-3.4,0.3-4.7,1c-1.2,0.6-2,1.5-2.2,2.6c-0.2-1.1-1-1.9-2.2-2.6c-1.2-0.6-2.8-1-4.7-1
			c-1.7,0-3.1,0.3-4.2,1c-1.1,0.7-1.6,1.5-1.6,2.6c0,0.6,0.1,1.1,0.4,1.6c0.3,0.5,0.7,0.9,1.2,1.1c0.5,0.3,1.1,0.4,1.8,0.4
			c0.9,0,1.7-0.3,2.4-0.8c0.6-0.5,1-1.2,1-1.9c0-0.7-0.3-1.2-0.8-1.7c-0.5-0.4-1.2-0.6-2-0.6c-0.7,0-1.3,0.2-1.8,0.6
			c-0.5,0.4-0.7,0.9-0.7,1.4c0,0.5,0.2,0.9,0.5,1.3c0.4,0.3,0.8,0.5,1.4,0.5c0.6,0,1-0.1,1.4-0.4c0.4-0.3,0.5-0.6,0.5-1
			c0-0.7-0.5-1-1.4-1.1c0,0,0-0.1,0-0.1c0,0,0-0.1,0-0.1c0-0.2,0.1-0.3,0.4-0.3c0.4,0,0.8,0.2,1.1,0.5c0.3,0.3,0.5,0.7,0.5,1.1
			c0,0.4-0.1,0.7-0.3,1c-0.2,0.3-0.5,0.6-0.9,0.7c-0.4,0.2-0.8,0.3-1.3,0.3c-0.7,0-1.3-0.2-1.8-0.7c-0.5-0.5-0.7-1-0.7-1.7
			c0-0.5,0.1-0.9,0.4-1.3C37,6.3,37.4,6,37.8,5.7c0.5-0.2,1-0.4,1.6-0.4c1,0,1.8,0.3,2.4,0.8c0.6,0.5,1.1,1.3,1.3,2.3
			c0.4,1.8,1.3,2.7,2.7,2.7c0.6,0,1.1-0.2,1.5-0.5c0.4-0.3,0.7-0.8,0.8-1.4c0.1,0.6,0.4,1.1,0.8,1.4c0.4,0.3,0.9,0.5,1.5,0.5
			C51.9,11.2,52.7,10.3,53.1,8.5z"/>
	</g>
	<g>
		<line fill="none" stroke="#000000" stroke-linecap="round" stroke-miterlimit="10" x1="6.8" y1="7.9" x2="35.7" y2="7.9"/>
		<line fill="none" stroke="#000000" stroke-linecap="round" stroke-miterlimit="10" x1="60.3" y1="7.9" x2="204.4" y2="7.9"/>
	</g>
</g>
</svg>
