<?xml version="1.0" encoding="utf-8"?>
<!-- Generator: Adobe Illustrator 18.0.0, SVG Export Plug-In . SVG Version: 6.00 Build 0)  -->
<!DOCTYPE svg PUBLIC "-//W3C//DTD SVG 1.1//EN" "http://www.w3.org/Graphics/SVG/1.1/DTD/svg11.dtd">
<svg version="1.1" id="Capa_1" xmlns="http://www.w3.org/2000/svg" xmlns:xlink="http://www.w3.org/1999/xlink" x="0px" y="0px"
	 viewBox="0 0 307 149" enable-background="new 0 0 307 149" xml:space="preserve">
<g>
	<path fill="none" stroke="#000000" stroke-width="2.5" stroke-linecap="round" stroke-linejoin="round" stroke-miterlimit="10" d="
		M249.1,131.6c0,0-22.6,2-36.5,1.6c-10.7-0.3-21.5-0.9-24.7-3.6c-6.7-5.6-14-26.3-7-27.9c7-1.6,28.5,11.5,22,17.9
		c-6.4,6.4-19.8,8.5-28.6,2.1c-8.4-6.1-9.3-14-14.7-19.7c-5.7-6.1-16.5-1.4-24.4,2.9c-6,3.3-15.4,9.7-24.7,6.1
		c-4.9-1.9-10.4-6.4-11.1-17.2c-1.1-16.9,1.4-61.6,24-64.8c22.6-3.2,40.8,46.6,24.7,55.1c-16.1,8.6-32.9-7.2-27.6-17.9
		c5.4-10.7,53.7-26.1,65.2-22.9c11.5,3.2,2.5,25.4-5.4,35.8c-8.7,11.5-33.3,20.8-34.4,9c-1.1-11.8-5.4-23.6,8.6-23.6
		c14,0,31.2,4.7,38,12.2c6.9,7.7,10.6,25.1-5.7,33.5c-18.8,9.7-47.8,9.7-61.8-12.9c-8.3-13.5-18.1-13.1-24.5-13.1
		c-6.4,0-12.2,2.9-11.1,7.5c1.1,4.7,11.5,8.2,20.1,0.7c8.6-7.5,27.9-31.5,25.8-43.3c-2.1-11.8-28.3-15.4-39.7-12.5
		c-10,2.5-14.4,16.1-8.6,24c5,6.8,19.2,1.6,29.7-2.9c15-6.4,41.2-24.4,47.6-27.6c6.4-3.2,17.2-2.9,25.2,9.1c1.1,1.7,3.8,6.6,0.2,9.5
		c-3.6,2.9-14-1.4-24-10c-6.4-5.5-11.1-12.5-7.2-17.9c2.5-3.4,12.5-7.9,26.1-4.3c16.1,4.3,22.2,19.4,22.2,28.3
		c0,8.2-4.7,14-10.4,16.5c-8.1,3.5-17.8,1.6-27.9-4.7c-15-9.3-17.1-26.6-26.9-35.5c-7.9-7.2-28.7-6.4-37.1,6.8
		c-4.1,6.4-3.3,17.6,2.7,25.8c7.2,9.7,23.6,22.3,46.6,31.1c15.4,5.9,40.7,10.6,54.4,7.6c9.7-2.1,7.2-11.8-0.4-15.8
		c-9.7-5.1-34.8,23.2-46.9,33.7c-7.9,6.8-24.4,12.2-35.8,12.9c-17.6,1.1-19.8-14.4-10.7-22.2c10.4-9,28.5-7.7,30.1,3.6
		c1.6,11.3-14.5,25.1-30.4,27.4c-26.3,3.8-47.6-1.6-56.2-1.6"/>
	
		<polyline fill="none" stroke="#000000" stroke-width="2.5" stroke-linecap="round" stroke-linejoin="round" stroke-miterlimit="10" points="
		52.5,128.5 46,130.5 44.6,110.6 33.1,95.6 31,113.1 15,124.1 18.1,129.4 	"/>
	<path fill="none" stroke="#000000" stroke-width="2.5" stroke-linecap="round" stroke-linejoin="round" stroke-miterlimit="10" d="
		M33.1,97.7C32,89.7,34.2,73,35.8,69.3"/>
	
		<polyline fill="none" stroke="#000000" stroke-width="2.5" stroke-linecap="round" stroke-linejoin="round" stroke-miterlimit="10" points="
		36,69.4 39.2,87.9 49.2,94 	"/>
	<path fill="none" stroke="#000000" stroke-width="2.5" stroke-linecap="round" stroke-linejoin="round" stroke-miterlimit="10" d="
		M34.5,69.1c0,0-11.2,11.9-12.3,13.5c-1.1,1.6-4.8,16.7-4.8,16.7"/>
	<path fill="none" stroke="#000000" stroke-width="2.5" stroke-linecap="round" stroke-linejoin="round" stroke-miterlimit="10" d="
		M36.5,66.7c-5.2,1.4-8.4-12-0.7-12C43.5,54.8,44.2,64.6,36.5,66.7z"/>
	
		<polyline fill="none" stroke="#000000" stroke-width="2.5" stroke-linecap="round" stroke-linejoin="round" stroke-miterlimit="10" points="
		253.4,130 260.3,130.5 261.4,112.8 273.9,97.7 277.3,115.3 291.8,125.5 290.2,131.4 	"/>
	<path fill="none" stroke="#000000" stroke-width="2.5" stroke-linecap="round" stroke-linejoin="round" stroke-miterlimit="10" d="
		M274.5,97c0.4-16.5-2.3-24-3.9-27.8"/>
	
		<polyline fill="none" stroke="#000000" stroke-width="2.5" stroke-linecap="round" stroke-linejoin="round" stroke-miterlimit="10" points="
		269.5,70.5 268,88.8 260.5,95.2 	"/>
	<path fill="none" stroke="#000000" stroke-width="2.5" stroke-linecap="round" stroke-linejoin="round" stroke-miterlimit="10" d="
		M271.4,69.4c0,0,12.2,13.2,13.2,14.8c1.1,1.6-3.9,15.1-3.9,15.1"/>
	<path fill="none" stroke="#000000" stroke-width="2.5" stroke-linecap="round" stroke-linejoin="round" stroke-miterlimit="10" d="
		M268.8,66c4.9-0.6,7.7-10.9,0.6-10.9C262.3,55.1,260.9,66.9,268.8,66z"/>
</g>
</svg>
