<?xml version="1.0" encoding="utf-8"?>
<!-- Generator: Adobe Illustrator 18.0.0, SVG Export Plug-In . SVG Version: 6.00 Build 0)  -->
<!DOCTYPE svg PUBLIC "-//W3C//DTD SVG 1.1//EN" "http://www.w3.org/Graphics/SVG/1.1/DTD/svg11.dtd">
<svg version="1.1" id="Capa_1" xmlns="http://www.w3.org/2000/svg" xmlns:xlink="http://www.w3.org/1999/xlink" x="0px" y="0px"
	 viewBox="0 0 37.5 32.8" enable-background="new 0 0 37.5 32.8" xml:space="preserve">
<path id="Trazado_25_2_" fill-rule="evenodd" clip-rule="evenodd" d="M26.3,20.7l-0.7,0.7c-0.7,0.8-1.7,1.2-2.7,1.2l0,0
	c-1.7-0.2-3.2-1-4.3-2.3l-3.8-3.8c-1-0.9-1.8-2.1-2.2-3.4c-0.3-1.3,0.1-2.7,1.1-3.6l0.7-0.7c0.4-0.4,1.1-0.5,1.6-0.2
	c0.9,0.7,1.6,1.5,2.1,2.4c0.2,0.3,0.3,0.7,0.2,1.1c-0.1,0.2-0.2,0.5-0.4,0.6c-0.2,0.2-0.5,0.4-0.7,0.6c-0.4,0.4-0.3,1.1,0.1,1.4
	c0,0,0,0,0.1,0.1l3,3c0.3,0.4,1,0.5,1.4,0.2c0,0,0.1,0,0.1-0.1c0.2-0.2,0.4-0.5,0.6-0.7c0.2-0.3,0.5-0.5,0.9-0.5
	c0.3,0,0.5,0.1,0.8,0.2c1,0.5,1.8,1.3,2.4,2.1C26.8,19.7,26.7,20.3,26.3,20.7z M19.4,4.8c-6.1,0-11,4.9-11,11c0,1.9,0.5,3.8,1.5,5.5
	l-1.8,5.4c0,0.1,0,0.3,0.1,0.4c0.1,0.1,0.2,0.1,0.3,0.1c0,0,0.1,0,0.1,0l5.9-1.6c1.5,0.8,3.3,1.2,5,1.2c6.1,0,11-4.9,11-11
	C30.4,9.7,25.5,4.8,19.4,4.8z"/>
<g>
	<g id="Grupo_120_2_">
		<g>
			<defs>
				<circle id="SVGID_131_" cx="85.4" cy="16.9" r="3.2"/>
			</defs>
			<use xlink:href="#SVGID_131_"  overflow="visible"/>
			<clipPath id="SVGID_2_">
				<use xlink:href="#SVGID_131_"  overflow="visible"/>
			</clipPath>
			<g id="Grupo_119_2_" clip-path="url(#SVGID_2_)">
				<g id="Grupo_118_2_">
					<rect id="Rectángulo_72_2_" x="-125.6" y="4.2" width="227.3" height="25.6"/>
					<g>
						<defs>
							<rect id="SVGID_133_" x="-125.6" y="4.2" width="227.3" height="25.6"/>
						</defs>
						<use xlink:href="#SVGID_133_"  overflow="visible"/>
						<clipPath id="SVGID_4_">
							<use xlink:href="#SVGID_133_"  overflow="visible"/>
						</clipPath>
					</g>
				</g>
			</g>
		</g>
	</g>
</g>
</svg>
