<?xml version="1.0" encoding="utf-8"?>
<!-- Generator: Adobe Illustrator 18.0.0, SVG Export Plug-In . SVG Version: 6.00 Build 0)  -->
<!DOCTYPE svg PUBLIC "-//W3C//DTD SVG 1.1//EN" "http://www.w3.org/Graphics/SVG/1.1/DTD/svg11.dtd">
<svg version="1.1" id="Capa_1" xmlns="http://www.w3.org/2000/svg" xmlns:xlink="http://www.w3.org/1999/xlink" x="0px" y="0px"
	 viewBox="0 0 37.5 32.8" enable-background="new 0 0 37.5 32.8" xml:space="preserve">
<g>
	<g id="Grupo_120_2_">
		<g>
			<defs>
				<circle id="SVGID_131_" cx="133.9" cy="16.9" r="3.2"/>
			</defs>
			<use xlink:href="#SVGID_131_"  overflow="visible"/>
			<clipPath id="SVGID_2_">
				<use xlink:href="#SVGID_131_"  overflow="visible"/>
			</clipPath>
			<g id="Grupo_119_2_" clip-path="url(#SVGID_2_)">
				<g id="Grupo_118_2_">
					<rect id="Rectángulo_72_2_" x="-77.1" y="4.2" width="227.3" height="25.6"/>
					<g>
						<defs>
							<rect id="SVGID_133_" x="-77.1" y="4.2" width="227.3" height="25.6"/>
						</defs>
						<use xlink:href="#SVGID_133_"  overflow="visible"/>
						<clipPath id="SVGID_4_">
							<use xlink:href="#SVGID_133_"  overflow="visible"/>
						</clipPath>
					</g>
				</g>
			</g>
		</g>
	</g>
</g>
<path id="Trazado_27_2_" fill-rule="evenodd" clip-rule="evenodd" d="M28,9.5c1-0.7,1.8-1.7,2.2-2.9c-1,0.6-2,1-3.1,1.3
	c-0.9-1-2.2-1.6-3.6-1.6c-2.8,0.1-5,2.4-5,5.2c0,0.4,0,0.8,0.1,1.2c-4-0.2-7.8-2.2-10.2-5.5C7.9,7.9,7.7,8.9,7.7,9.8
	c0,1.7,0.8,3.3,2.2,4.3c-0.8,0-1.6-0.3-2.2-0.7v0.1c0,2.4,1.6,4.6,4,5.1c-0.4,0.1-0.9,0.2-1.3,0.2c-0.3,0-0.6,0-0.9-0.1
	c0.6,2.1,2.5,3.6,4.6,3.6c-1.7,1.4-3.9,2.2-6.2,2.2c-0.4,0-0.8,0-1.2-0.1c2.2,1.5,4.9,2.3,7.6,2.3c9.1,0,14.1-8,14.1-14.9
	c0-0.2,0-0.5,0-0.7c1-0.7,1.8-1.7,2.5-2.7C29.9,9.1,29,9.3,28,9.5z"/>
</svg>
