<?xml version="1.0" encoding="utf-8"?>
<!-- Generator: Adobe Illustrator 18.0.0, SVG Export Plug-In . SVG Version: 6.00 Build 0)  -->
<!DOCTYPE svg PUBLIC "-//W3C//DTD SVG 1.1//EN" "http://www.w3.org/Graphics/SVG/1.1/DTD/svg11.dtd">
<svg version="1.1" id="Capa_1" xmlns="http://www.w3.org/2000/svg" xmlns:xlink="http://www.w3.org/1999/xlink" x="0px" y="0px"
	 viewBox="0 0 780 428" enable-background="new 0 0 780 428" xml:space="preserve">
<g>
	<path d="M98,28.2c1.7,0,2.9,0.4,3.6,1.1c0.7,0.7,1,2,1,3.8v16.7c0,5.9-1.3,10.2-3.8,13.1c-2.5,2.8-6.4,4.3-11.6,4.3H70
		c-1.8,0-3-0.4-3.8-1.1c-0.7-0.7-1.1-2-1.1-3.8V38c0-2.1-0.8-3.1-2.4-3.1c-1.1,0-2,0.4-2.5,1.1v35.3h26.6c1.1,0,1.7,0.5,1.7,1.5v3.6
		c0,0.9-0.6,1.4-1.7,1.4H60.2v35.3c0.6,0.7,1.4,1.1,2.5,1.1c1.6,0,2.4-1,2.4-3.1V87.2c0-1.8,0.4-3,1.1-3.8c0.7-0.7,2-1.1,3.8-1.1
		h17.2c5.2,0,9.1,1.4,11.6,4.3c2.5,2.8,3.8,7.2,3.8,13.1v16.7c0,1.8-0.3,3-1,3.8c-0.7,0.7-1.9,1.1-3.6,1.1H27.3
		c-1.7,0-2.9-0.4-3.6-1.1c-0.7-0.7-1-2-1-3.8V44.1c0-2.3-0.2-4-0.6-5.1c-0.4-1.1-1-2.1-2-2.9c-0.9-0.9-2.5-2.1-4.8-3.6
		c-0.5-0.3-0.7-0.7-0.7-1.3v-1.7c0-0.9,0.6-1.4,1.7-1.4H98z"/>
	<path d="M148.6,28.2c1.7,0,2.9,0.4,3.6,1.1c0.7,0.7,1.1,2,1.1,3.8v80.1c0.6,0.7,1.4,1.1,2.5,1.1c1.6,0,2.4-1,2.4-3.1V84.4
		c0-1.8,0.4-3,1.1-3.8c0.7-0.7,2-1.1,3.8-1.1h17.2c5.2,0,9.1,1.4,11.6,4.3c2.5,2.8,3.8,7.2,3.8,13.1v19.5c0,1.8-0.4,3-1.1,3.8
		c-0.7,0.7-1.9,1.1-3.6,1.1h-70.7c-1.7,0-2.9-0.4-3.6-1.1c-0.7-0.7-1-2-1-3.8V44.1c0-2.3-0.2-4-0.6-5.1c-0.4-1.1-1-2.1-2-2.9
		c-0.9-0.9-2.5-2.1-4.8-3.6c-0.5-0.3-0.7-0.7-0.7-1.3v-1.7c0-0.9,0.6-1.4,1.7-1.4H148.6z"/>
	<path d="M304,53.4c-0.7-0.5-1.3-0.7-2-0.7c-0.7,0-1.2,0.2-1.7,0.6c-0.5,0.4-0.7,0.9-0.7,1.5c0,0.7,0.2,1.9,0.7,3.6l13.3,54.9
		c0.4,1.8,0.6,2.9,0.6,3.5c0,3-1.5,4.5-4.6,4.5h-24.8c-2,0-3.4-0.4-4.3-1.3c-0.9-0.8-1.7-2.5-2.3-5l-15.4-61.6
		c-0.7-0.5-1.4-0.7-2.2-0.7c-0.6,0-1,0.2-1.5,0.6c-0.4,0.4-0.6,0.9-0.6,1.5c0,0.7,0.2,1.9,0.7,3.6l13.3,54.9
		c0.6,2.1,0.8,3.6,0.8,4.5c0,2.3-1.4,3.5-4.3,3.5h-35.1c-1.9,0-3.3-0.4-4.3-1.3c-1-0.9-1.5-2.1-1.5-3.7c0-2.1,2.1-8.6,6.4-19.7
		c4.2-11.1,11.3-28.4,21.2-52.1c0.6-1.3,0.8-2.5,0.8-3.5c0-1.6-0.4-2.9-1.2-4.1c-0.8-1.1-2.3-2.4-4.4-3.8c-0.9-0.6-1.4-1.2-1.4-1.8
		v-1.7c0-0.9,0.6-1.4,1.7-1.4h26.9c3.7,0,6.6,0.6,8.6,1.8c2,1.2,3.6,3.1,4.8,6l5.5,12.6l2.4-5.2c0.8-2,1.3-3.4,1.3-4.3
		c0-1.1-0.3-2.1-0.9-3c-0.6-0.9-1.7-1.8-3.2-2.9c-0.9-0.6-1.4-1.2-1.4-1.8v-1.7c0-0.9,0.6-1.4,1.7-1.4h25.2c6.1,0,10,2.6,11.9,7.7
		l24.9,71.1c1.8,5,2.7,8.3,2.7,9.8c0,3-1.5,4.5-4.6,4.5H326c-2,0-3.4-0.4-4.3-1.3c-0.9-0.8-1.7-2.5-2.3-5L304,53.4z"/>
	<path d="M399,28.2c1.7,0,2.9,0.4,3.6,1.1c0.7,0.7,1.1,2,1.1,3.8v79.7c0,2.5,0.9,3.8,2.7,3.8c1.8,0,2.7-1.3,2.7-3.8V33.1
		c0-1.8,0.4-3,1-3.8c0.7-0.7,1.9-1.1,3.6-1.1h30.9c1.7,0,2.9,0.4,3.6,1.1c0.7,0.7,1.1,1.8,1.1,3.4v50.3c0,13.4-3.6,23.6-10.8,30.4
		c-7.2,6.9-17.9,10.3-32.1,10.3c-14.1,0-24.8-3.4-32.1-10.3c-7.3-6.9-10.9-17-10.9-30.4V44.1c0-2.3-0.2-4-0.6-5.1
		c-0.4-1.1-1-2.1-2-2.9c-0.9-0.9-2.5-2.1-4.8-3.6c-0.5-0.3-0.7-0.7-0.7-1.3v-1.7c0-0.9,0.6-1.4,1.7-1.4H399z"/>
	<path d="M536.3,93c0.5,0.2,0.9,0.3,1.4,0.3c0.6,0,1.1-0.2,1.5-0.6s0.7-1,0.7-1.6c0-1.2-0.5-2.6-1.5-4.2l-32.2-53.2
		c-0.5-0.7-0.8-1.3-0.9-1.6c-0.1-0.3-0.2-0.7-0.2-1.2V30c0-0.7,0.1-1.2,0.4-1.5c0.3-0.2,0.7-0.4,1.4-0.4h35.8c1.7,0,2.9,0.4,3.6,1.1
		c0.7,0.7,1.1,2,1.1,3.8v83.3c0,1.8-0.3,3-1.1,3.8c-0.7,0.7-1.9,1.1-3.6,1.1h-17.9c-4.3,0-7.7-0.7-10.1-2.2
		c-2.4-1.5-4.9-4.2-7.3-8.3l-32.9-54.3c-0.5-0.2-0.9-0.3-1.3-0.3c-0.6,0-1.1,0.2-1.6,0.6c-0.5,0.4-0.8,1-0.8,1.6
		c0,1,0.5,2.4,1.5,4.2l32.2,53.2c0.5,0.7,0.8,1.3,0.9,1.6c0.1,0.3,0.2,0.7,0.2,1.2v0.8c0,0.7-0.1,1.1-0.4,1.4
		c-0.2,0.3-0.7,0.4-1.5,0.4h-35.8c-1.7,0-2.9-0.4-3.6-1.1c-0.7-0.7-1-2-1-3.8V44.1c0-2.3-0.2-4-0.6-5.1c-0.4-1.1-1-2.1-2-2.9
		c-0.9-0.9-2.5-2.1-4.8-3.6c-0.5-0.3-0.7-0.7-0.7-1.3v-1.7c0-0.9,0.6-1.4,1.7-1.4H486c4.3,0,7.7,0.7,10.1,2.2
		c2.4,1.5,4.9,4.2,7.3,8.3L536.3,93z"/>
	<path d="M606.2,28.2c13.8,0,24.6,4.1,32.3,12.3c7.7,8.2,11.5,19.5,11.5,34.1c0,9.1-1.8,17.2-5.3,24.3c-3.5,7-8.7,12.6-15.3,16.5
		c-6.7,4-14.4,6-23.3,6h-38.4c-1.7,0-2.9-0.4-3.6-1.1c-0.7-0.7-1.1-2-1.1-3.8V44c0-3-0.4-5.1-1.1-6.4c-0.7-1.3-2.8-3-6.2-5.1
		c-0.5-0.3-0.7-0.7-0.7-1.3v-1.7c0-0.9,0.6-1.4,1.7-1.4H606.2z M600.6,113.4c0.6,0.7,1.4,1.1,2.7,1.1c0.8,0,1.5-0.3,2-1
		c0.5-0.7,0.7-1.5,0.7-2.5V38.4c0-1-0.2-1.9-0.7-2.5c-0.5-0.7-1.1-1-2-1c-1.2,0-2.1,0.4-2.7,1.1V113.4z"/>
	<path d="M703.9,123.6c-15.3,0-27.1-4.3-35.5-12.8c-8.4-8.5-12.5-20.6-12.5-36.2c0-15.6,4.2-27.6,12.5-36.1
		c8.4-8.5,20.2-12.7,35.5-12.7c15.3,0,27.1,4.2,35.5,12.7c8.4,8.5,12.5,20.5,12.5,36.1c0,15.6-4.2,27.6-12.5,36.2
		C731,119.4,719.2,123.6,703.9,123.6z M703.9,116.5c1.8,0,2.7-1.3,2.7-3.8v-76c0-2.5-0.9-3.8-2.7-3.8c-1.8,0-2.7,1.3-2.7,3.8v76
		C701.2,115.2,702.1,116.5,703.9,116.5z"/>
	<path d="M15.6,248.7c0-3.4,0.7-6.5,2.2-9.4c1.4-2.9,3.5-5.5,6.3-7.7c2.8-2.2,6-3.8,9.7-4.8C22.5,218,16.9,205,16.9,187.6
		c0-15.6,4.2-27.6,12.6-36.1c8.4-8.5,20.3-12.7,35.6-12.7c15.3,0,27.1,4.2,35.4,12.7c8.3,8.5,12.5,20.5,12.5,36.1
		c0,11.9-2.5,21.5-7.4,28.9c-4.9,7.4-12.1,12-21.4,13.6c3.1,0.3,6,1.1,8.9,2.4c2.8,1.3,5.6,2.8,8.3,4.6c2.7,1.7,5.2,3.4,7.6,5.1
		c2.4,1.7,4.8,3.1,7,4.2c2.2,1.1,4.3,1.7,6.3,1.7c4.3,0,7.1-2.3,8.4-7c0.4-1.5,0.7-2.4,0.9-2.7c0.2-0.3,0.6-0.4,1.2-0.4h1.5
		c0.7,0,1.3,0.3,1.5,0.9c0.3,0.6,0.4,2,0.4,4.1c0,7.4-2.5,13.4-7.6,18s-11.5,6.9-19.3,6.9c-4.9,0-9.6-0.7-14-2.2
		c-4.4-1.5-8.7-3.8-12.9-7c-4.2-3.2-8.8-7.6-13.9-13.2c-4.9-5.4-9.3-9.2-13.2-11.4c-4-2.2-8.3-3.3-13-3.3c-3.7,0-7.2,0.7-10.4,2.2
		c-3.2,1.5-5.7,3.6-7.7,6.2c-2,2.7-2.9,5.6-2.9,8.9c0,4.2,1.4,7.6,4.3,10.3c2.9,2.7,6.6,4,11.2,4c2.1,0,3.1-0.7,3.1-2.1
		c0-0.5-0.1-0.9-0.3-1.3c-4,0-7.3-1-9.9-3.1c-2.6-2.1-3.9-4.8-3.9-8c0-3.8,1.5-6.9,4.6-9.2c3.1-2.3,7.1-3.5,12-3.5
		c5.4,0,10,1.5,13.7,4.5c3.7,3,5.5,6.8,5.5,11.3c0,5-2.1,9.1-6.4,12.3c-4.2,3.1-9.8,4.7-16.6,4.7c-6.9,0-12.5-1.8-16.8-5.4
		C17.8,259,15.6,254.4,15.6,248.7z M65.1,225.7c1.8,0,2.7-1.2,2.7-3.6v-72.4c0-2.5-0.9-3.8-2.7-3.8c-1.8,0-2.7,1.3-2.7,3.8v72.2
		C62.4,224.5,63.3,225.7,65.1,225.7z"/>
	<path d="M158.4,141.2c1.7,0,2.9,0.4,3.6,1.1c0.7,0.7,1,2,1,3.8v79.7c0,2.5,0.9,3.8,2.7,3.8c1.8,0,2.7-1.3,2.7-3.8v-79.7
		c0-1.8,0.3-3,1-3.8c0.7-0.7,1.9-1.1,3.6-1.1h30.9c1.7,0,2.9,0.4,3.6,1.1c0.7,0.7,1.1,1.8,1.1,3.4v50.3c0,13.4-3.6,23.6-10.8,30.4
		c-7.2,6.9-17.9,10.3-32.1,10.3c-14.1,0-24.8-3.4-32.1-10.3c-7.3-6.9-10.9-17-10.9-30.4v-38.8c0-2.3-0.2-4-0.6-5.1
		c-0.4-1.1-1-2.1-2-2.9c-0.9-0.9-2.5-2.1-4.8-3.6c-0.5-0.3-0.7-0.7-0.7-1.3v-1.7c0-0.9,0.6-1.4,1.7-1.4H158.4z"/>
	<path d="M298.3,141.2c1.7,0,2.9,0.4,3.6,1.1c0.7,0.7,1,2,1,3.8v16.7c0,5.9-1.3,10.2-3.8,13.1c-2.5,2.8-6.4,4.3-11.6,4.3h-17.2
		c-1.8,0-3-0.4-3.8-1.1c-0.7-0.7-1.1-2-1.1-3.8V151c0-2.1-0.8-3.1-2.4-3.1c-1.1,0-2,0.4-2.5,1.1v35.3h26.6c1.1,0,1.7,0.5,1.7,1.5
		v3.6c0,0.9-0.6,1.4-1.7,1.4h-26.6v35.3c0.6,0.7,1.4,1.1,2.5,1.1c1.6,0,2.4-1,2.4-3.1v-23.9c0-1.8,0.4-3,1.1-3.8
		c0.7-0.7,2-1.1,3.8-1.1h17.2c5.2,0,9.1,1.4,11.6,4.3c2.5,2.8,3.8,7.2,3.8,13.1v16.7c0,1.8-0.3,3-1,3.8c-0.7,0.7-1.9,1.1-3.6,1.1
		h-70.7c-1.7,0-2.9-0.4-3.6-1.1c-0.7-0.7-1-2-1-3.8v-72.2c0-2.3-0.2-4-0.6-5.1c-0.4-1.1-1-2.1-2-2.9c-0.9-0.9-2.5-2.1-4.8-3.6
		c-0.5-0.3-0.7-0.7-0.7-1.3v-1.7c0-0.9,0.6-1.4,1.7-1.4H298.3z"/>
	<path d="M426.7,207.7c0,9.3-3.9,16.5-11.6,21.5c-7.7,5-18.9,7.5-33.3,7.5c-13.4,0-23.6-2-30.6-6.1c-7-4.1-10.4-10-10.4-17.7
		c0-4.8,1.7-8.7,5.2-11.7c3.5-3,7.9-4.6,13.3-4.6c6.3,0,11.2,1.4,14.9,4.1c3.7,2.8,5.5,6.5,5.5,11.1c0,3.5-1.2,6.3-3.6,8.4
		c-2.4,2.1-5.8,3.2-10.2,3.4c-0.6,0.6-0.8,1.2-0.8,1.8c0,0.7,0.3,1.2,0.9,1.5c0.6,0.4,1.4,0.6,2.3,0.6c4.7,0,8.6-1.5,11.7-4.5
		c3.1-3,4.7-6.7,4.7-11.2c0-3.6-0.7-6.6-2.2-9c-1.5-2.4-3.9-4.5-7.2-6.4c-3.3-1.9-7.8-3.7-13.5-5.5c-6.4-2-11.3-4.9-14.6-8.8
		c-3.3-3.9-4.9-8.7-4.9-14.4c0-5.6,1.8-10.6,5.3-14.9c3.5-4.3,8.5-7.8,15.1-10.3s14.3-3.8,23-3.8c12.3,0,22,2.1,28.9,6.3
		c7,4.2,10.4,10,10.4,17.5c0,4.8-1.8,8.7-5.4,11.7c-3.6,3-8.2,4.6-13.9,4.6c-5.9,0-10.6-1.4-14.2-4.2c-3.6-2.8-5.4-6.5-5.4-11.1
		c0-3.5,1.2-6.3,3.6-8.4c2.4-2.1,5.8-3.2,10.2-3.4c0.6-0.6,0.8-1.2,0.8-1.8c0-0.7-0.3-1.2-0.9-1.5c-0.6-0.4-1.4-0.6-2.3-0.6
		c-3,0-5.7,0.7-8.2,2c-2.5,1.4-4.5,3.2-5.9,5.6c-1.5,2.4-2.2,5.1-2.2,8c0,5.1,1.7,9.3,5.2,12.4c3.5,3.1,9.4,5.9,17.8,8.2
		c7.7,2.1,13.5,5.1,17.2,9C424.8,196.9,426.7,201.8,426.7,207.7z"/>
	<path d="M511.4,141.2c1.7,0,2.9,0.4,3.6,1.1c0.7,0.7,1.1,2,1.1,3.8v16.7c0,5.9-1.3,10.2-3.8,13.1c-2.5,2.8-6.4,4.3-11.6,4.3h-17.2
		c-1.8,0-3-0.4-3.8-1.1c-0.7-0.7-1.1-2-1.1-3.8V151c0-2.1-0.8-3.1-2.4-3.1c-1.1,0-2,0.4-2.5,1.1v35.3h26.6c1.1,0,1.7,0.5,1.7,1.5
		v3.6c0,0.9-0.6,1.4-1.7,1.4h-26.6v35.3c0.6,0.7,1.4,1.1,2.5,1.1c1.6,0,2.4-1,2.4-3.1v-23.9c0-1.8,0.4-3,1.1-3.8
		c0.7-0.7,2-1.1,3.8-1.1h17.2c5.2,0,9.1,1.4,11.6,4.3c2.5,2.8,3.8,7.2,3.8,13.1v16.7c0,1.8-0.4,3-1.1,3.8c-0.7,0.7-1.9,1.1-3.6,1.1
		h-70.7c-1.7,0-2.9-0.4-3.6-1.1c-0.7-0.7-1-2-1-3.8v-72.2c0-2.3-0.2-4-0.6-5.1c-0.4-1.1-1-2.1-2-2.9c-0.9-0.9-2.5-2.1-4.8-3.6
		c-0.5-0.3-0.7-0.7-0.7-1.3v-1.7c0-0.9,0.6-1.4,1.7-1.4H511.4z"/>
	<path d="M184.1,323.6h-5.2l4.1,15.7c0.6,2.1,0.8,3.6,0.8,4.5c0,2.3-1.4,3.5-4.3,3.5h-36.5c-1.9,0-3.3-0.4-4.3-1.3
		c-1-0.9-1.5-2.1-1.5-3.7c0-2.1,2.1-8.7,6.4-19.6c4.3-10.9,11.6-28.3,21.8-52.2c0.6-1.3,0.8-2.5,0.8-3.5c0-1.6-0.4-2.9-1.2-4.1
		c-0.8-1.1-2.3-2.4-4.4-3.8c-0.9-0.6-1.4-1.2-1.4-1.8v-1.7c0-0.9,0.6-1.4,1.7-1.4h32.5c3.1,0,5.6,0.6,7.5,1.8
		c1.9,1.2,3.4,3.2,4.4,5.9l27,71.1c1.8,4.6,2.7,7.8,2.7,9.8c0,3-1.5,4.5-4.6,4.5h-35.1c-2,0-3.4-0.4-4.3-1.3c-0.9-0.8-1.7-2.5-2.3-5
		L184.1,323.6z M177.2,317h5.2l-9.8-37.7c-0.5-0.5-1.1-0.7-1.8-0.7c-0.7,0-1.4,0.2-1.8,0.6c-0.5,0.4-0.7,1-0.7,1.6
		c0,0.4,0,0.8,0.1,1.3c0.1,0.5,0.2,1,0.4,1.7L177.2,317z"/>
	<path d="M247.8,254.2c6.4,0,11.4,1.4,14.8,4.2c3.5,2.8,6,7.5,7.7,14l15.3,58.1c0.5,0.5,1.2,0.7,2.1,0.7c0.6,0,1.1-0.2,1.5-0.6
		c0.5-0.4,0.7-1,0.7-1.6c0-0.7-0.2-1.7-0.6-2.9l-14.3-55.7c-0.5-1.7-1.1-3.5-2-5.5s-1.7-3.5-2.5-4.6s-1.4-1.9-1.5-2.2
		c-0.2-0.4-0.3-0.8-0.3-1.4v-1c0-0.9,0.6-1.4,1.8-1.4h45.2c1.9,0,3.3,0.4,4.3,1.3c1,0.9,1.5,2.1,1.5,3.7c0,3.5-2.8,13.5-8.3,30.2
		c-5.6,16.7-11.7,33.4-18.5,50.2c-1,2.7-2.5,4.7-4.4,5.9c-1.9,1.2-4.4,1.8-7.5,1.8h-20.3c-3.1,0-5.6-0.6-7.5-1.8
		c-1.9-1.2-3.4-3.2-4.4-5.9l-28-73.8c-0.6-1.5-1.3-2.7-2.3-3.7c-1-1-2.6-2.2-5-3.6c-0.5-0.3-0.7-0.7-0.7-1.3v-1.7
		c0-0.9,0.6-1.4,1.7-1.4H247.8z"/>
	<path d="M409.5,254.2c1.7,0,2.9,0.4,3.6,1.1c0.7,0.7,1.1,2,1.1,3.8v16.7c0,5.9-1.3,10.2-3.8,13.1c-2.5,2.8-6.4,4.3-11.6,4.3h-17.2
		c-1.8,0-3-0.4-3.8-1.1c-0.7-0.7-1.1-2-1.1-3.8V264c0-2.1-0.8-3.1-2.4-3.1c-1.1,0-2,0.4-2.5,1.1v35.3h26.6c1.1,0,1.7,0.5,1.7,1.5
		v3.6c0,0.9-0.6,1.4-1.7,1.4h-26.6v35.3c0.6,0.7,1.4,1.1,2.5,1.1c1.6,0,2.4-1,2.4-3.1v-23.9c0-1.8,0.4-3,1.1-3.8
		c0.7-0.7,2-1.1,3.8-1.1h17.2c5.2,0,9.1,1.4,11.6,4.3c2.5,2.8,3.8,7.2,3.8,13.1v16.7c0,1.8-0.4,3-1.1,3.8c-0.7,0.7-1.9,1.1-3.6,1.1
		h-70.7c-1.7,0-2.9-0.4-3.6-1.1c-0.7-0.7-1-2-1-3.8v-72.2c0-2.3-0.2-4-0.6-5.1c-0.4-1.1-1-2.1-2-2.9c-0.9-0.9-2.5-2.1-4.8-3.6
		c-0.5-0.3-0.7-0.7-0.7-1.3v-1.7c0-0.9,0.6-1.4,1.7-1.4H409.5z"/>
	<path d="M470.2,258.8c-6.1,0-11.2,2-15.3,6c-4.1,4-6.2,9-6.2,14.8c0,7.4,2.7,13.4,8,18.2c5.4,4.8,12.3,7.1,20.7,7.1
		c4.9,0,9.6-0.9,13.9-2.8c4.3-1.9,7.9-4.4,10.7-7.7c0.6-0.7,1-1.1,1.3-1.3c0.3-0.2,0.6-0.4,1-0.4h2.1c0.7,0,1.1,0.3,1.5,0.8
		c0.3,0.5,0.6,1.5,0.9,3c0.4,1.9,0.6,4,0.6,6.3c0,8.7-1.8,16.5-5.5,23.6c-3.6,7-8.8,12.7-15.4,16.9c-6.6,4.2-14.2,6.3-22.8,6.3
		c-8.7,0-16.6-2.1-23.7-6.2c-7.1-4.1-12.8-10-17.1-17.6c-4.2-7.7-6.4-16.4-6.4-26.2c0-9.1,1.9-17.3,5.7-24.6
		c3.8-7.2,9.3-12.9,16.4-17.1c7.1-4.2,15.3-6.2,24.6-6.2c7,0,13.3,1.1,18.9,3.4c5.6,2.3,10.1,5.5,13.4,9.7c3.3,4.2,5,9,5,14.4
		c0,6.3-2.2,11.3-6.7,15c-4.5,3.8-10.4,5.7-17.8,5.7c-4.5,0-8.6-0.9-12.3-2.6c-3.7-1.7-6.6-4.2-8.8-7.3c-2.2-3.1-3.3-6.7-3.3-10.7
		c0-5,1.7-9.1,5.2-12c3.5-3,8.1-4.5,14-4.5c0.6-0.6,0.8-1.2,0.8-1.8c0-0.7-0.3-1.3-1-1.8C472.1,259,471.2,258.8,470.2,258.8z"/>
	<path d="M555.2,342.4c0,1.8-0.4,3-1,3.8c-0.7,0.7-1.9,1.1-3.6,1.1h-28.3c-1.7,0-2.9-0.4-3.6-1.1c-0.7-0.7-1-2-1-3.8v-72.2
		c0-2.3-0.2-4-0.6-5.1c-0.4-1.1-1-2.1-2-2.9c-0.9-0.9-2.5-2.1-4.8-3.6c-0.5-0.3-0.7-0.7-0.7-1.3v-1.7c0-0.9,0.6-1.4,1.7-1.4h39.2
		c1.7,0,2.9,0.4,3.6,1.1c0.7,0.7,1,2,1,3.8V342.4z"/>
	<path d="M643.7,319c0.5,0.2,0.9,0.3,1.4,0.3c0.6,0,1.1-0.2,1.5-0.6c0.5-0.4,0.7-1,0.7-1.6c0-1.2-0.5-2.6-1.5-4.2l-32.2-53.2
		c-0.5-0.7-0.8-1.3-0.9-1.6c-0.1-0.3-0.2-0.7-0.2-1.2V256c0-0.7,0.1-1.2,0.4-1.5c0.3-0.2,0.7-0.4,1.4-0.4h35.8
		c1.7,0,2.9,0.4,3.6,1.1c0.7,0.7,1,2,1,3.8v83.3c0,1.8-0.3,3-1,3.8c-0.7,0.7-1.9,1.1-3.6,1.1h-17.9c-4.3,0-7.7-0.7-10.1-2.2
		c-2.4-1.5-4.9-4.2-7.3-8.3l-32.9-54.3c-0.5-0.2-0.9-0.3-1.3-0.3c-0.6,0-1.1,0.2-1.6,0.6c-0.5,0.4-0.8,1-0.8,1.6
		c0,1,0.5,2.4,1.5,4.2l32.2,53.2c0.5,0.7,0.8,1.3,0.9,1.6c0.1,0.3,0.2,0.7,0.2,1.2v0.8c0,0.7-0.1,1.1-0.3,1.4
		c-0.2,0.3-0.7,0.4-1.5,0.4h-35.8c-1.7,0-2.9-0.4-3.6-1.1c-0.7-0.7-1.1-2-1.1-3.8v-72.2c0-2.3-0.2-4-0.6-5.1c-0.4-1.1-1-2.1-2-2.9
		c-0.9-0.9-2.5-2.1-4.8-3.6c-0.5-0.3-0.7-0.7-0.7-1.3v-1.7c0-0.9,0.6-1.4,1.7-1.4h28.8c4.3,0,7.7,0.7,10.1,2.2
		c2.4,1.5,4.9,4.2,7.3,8.3L643.7,319z"/>
	<path d="M708.6,323.6h-5.2l4.1,15.7c0.6,2.1,0.8,3.6,0.8,4.5c0,2.3-1.4,3.5-4.3,3.5h-36.5c-1.9,0-3.3-0.4-4.3-1.3
		c-1-0.9-1.5-2.1-1.5-3.7c0-2.1,2.1-8.7,6.4-19.6c4.3-10.9,11.6-28.3,21.8-52.2c0.6-1.3,0.8-2.5,0.8-3.5c0-1.6-0.4-2.9-1.2-4.1
		c-0.8-1.1-2.3-2.4-4.4-3.8c-0.9-0.6-1.4-1.2-1.4-1.8v-1.7c0-0.9,0.6-1.4,1.7-1.4H718c3.1,0,5.6,0.6,7.5,1.8
		c1.9,1.2,3.4,3.2,4.4,5.9l27,71.1c1.8,4.6,2.7,7.8,2.7,9.8c0,3-1.5,4.5-4.6,4.5h-35.1c-2,0-3.4-0.4-4.3-1.3c-0.9-0.8-1.7-2.5-2.3-5
		L708.6,323.6z M701.8,317h5.2l-9.8-37.7c-0.5-0.5-1.1-0.7-1.8-0.7c-0.7,0-1.4,0.2-1.8,0.6c-0.5,0.4-0.7,1-0.7,1.6
		c0,0.4,0,0.8,0.1,1.3c0.1,0.5,0.2,1,0.4,1.7L701.8,317z"/>
</g>
<g>
	<g>
		<path d="M464.6,399.9c0.7-3,2-5.3,3.8-6.9c1.9-1.6,4.2-2.4,7.1-2.4c1.6,0,3.2,0.3,4.6,1c1.4,0.6,2.6,1.5,3.5,2.7
			c0.9,1.2,1.3,2.5,1.3,3.9c0,2-0.7,3.7-2.2,5c-1.4,1.4-3.2,2-5.4,2c-1.3,0-2.5-0.3-3.6-0.8c-1.1-0.5-2-1.2-2.7-2.1
			c-0.7-0.9-1.1-1.9-1.1-3.1c0-1.2,0.5-2.3,1.4-3.3c0.9-0.9,2-1.4,3.2-1.4c0.9,0,1.3,0.3,1.3,0.8c0,0.1,0,0.2,0,0.2
			c0,0.1-0.1,0.2-0.1,0.2c-2.7,0.2-4,1.3-4,3.3c0,1.2,0.5,2.3,1.6,3.1c1.1,0.8,2.4,1.2,4.1,1.2c1.6,0,3-0.5,4.1-1.5
			c1.1-1,1.6-2.2,1.6-3.8c0-1.7-0.7-3.1-2.2-4.2c-1.4-1.1-3.2-1.7-5.4-1.7c-2.4,0-4.4,0.6-5.9,1.9c-1.5,1.3-2.3,2.9-2.3,4.9
			c0,2.3,1,4.2,2.9,5.7c1.9,1.5,4.3,2.3,7.1,2.3c1.9,0,3.7-0.4,5.2-1.2c1.5-0.8,2.8-1.9,3.7-3.3c0.9-1.4,1.4-3.1,1.4-4.9
			c0-3.2-1.6-5.8-4.7-7.7c-3.2-2-7.3-2.9-12.5-2.9c-5.6,0-10.2,0.9-13.8,2.8c-3.7,1.9-5.9,4.4-6.6,7.6c-0.7-3.2-2.9-5.7-6.6-7.6
			c-3.7-1.9-8.3-2.8-13.8-2.8c-5.2,0-9.3,1-12.5,2.9c-3.2,2-4.7,4.5-4.7,7.7c0,1.7,0.4,3.3,1.3,4.7c0.8,1.4,2.1,2.6,3.6,3.4
			c1.6,0.8,3.4,1.3,5.4,1.3c2.8,0,5.1-0.8,7-2.3c1.9-1.5,2.8-3.5,2.8-5.7c0-2-0.8-3.6-2.3-4.9c-1.5-1.3-3.5-1.9-5.9-1.9
			c-2.2,0-4,0.6-5.4,1.7c-1.4,1.1-2.2,2.6-2.2,4.2c0,1.5,0.5,2.8,1.6,3.8c1.1,1,2.4,1.5,4.1,1.5c1.6,0,3-0.4,4.1-1.2
			c1.1-0.8,1.6-1.8,1.6-3.1c0-2-1.3-3.1-4-3.3c0-0.1-0.1-0.2-0.1-0.2c0-0.1,0-0.2,0-0.2c0-0.6,0.4-0.8,1.3-0.8
			c1.2,0,2.3,0.5,3.2,1.4c0.9,0.9,1.4,2,1.4,3.3c0,1-0.3,2-1,2.9c-0.6,0.9-1.5,1.6-2.7,2.2c-1.1,0.6-2.4,0.8-3.8,0.8
			c-2.2,0-4-0.7-5.4-2c-1.4-1.4-2.2-3-2.2-5c0-1.4,0.4-2.6,1.2-3.8c0.8-1.1,1.9-2.1,3.4-2.8c1.4-0.7,3-1.1,4.8-1.1
			c2.8,0,5.2,0.8,7.1,2.4c1.9,1.6,3.1,3.9,3.8,6.9c1.2,5.2,3.8,7.9,7.9,7.9c1.8,0,3.3-0.5,4.5-1.5c1.2-1,2-2.4,2.4-4.1
			c0.4,1.8,1.2,3.1,2.4,4.1c1.2,1,2.7,1.5,4.5,1.5C460.8,407.8,463.4,405.1,464.6,399.9z"/>
	</g>
	<g>
		<line fill="none" stroke="#000000" stroke-width="3" stroke-miterlimit="10" x1="134.5" y1="397.8" x2="412.4" y2="397.8"/>
		<line fill="none" stroke="#000000" stroke-width="3" stroke-miterlimit="10" x1="487.2" y1="397.8" x2="765" y2="397.8"/>
	</g>
</g>
</svg>
