<?xml version="1.0" encoding="utf-8"?>
<!-- Generator: Adobe Illustrator 18.0.0, SVG Export Plug-In . SVG Version: 6.00 Build 0)  -->
<!DOCTYPE svg PUBLIC "-//W3C//DTD SVG 1.1//EN" "http://www.w3.org/Graphics/SVG/1.1/DTD/svg11.dtd">
<svg version="1.1" id="Capa_1" xmlns="http://www.w3.org/2000/svg" xmlns:xlink="http://www.w3.org/1999/xlink" x="0px" y="0px"
	 viewBox="0 0 252.7 153.7" enable-background="new 0 0 252.7 153.7" xml:space="preserve">
<g>
	<path d="M35.9,10.7c0.5,0,0.9,0.1,1.1,0.4c0.2,0.2,0.3,0.6,0.3,1.2v5.2c0,1.8-0.4,3.2-1.2,4.1c-0.8,0.9-2,1.3-3.6,1.3h-5.4
		c-0.6,0-1-0.1-1.2-0.4c-0.2-0.2-0.4-0.6-0.4-1.2v-7.6c0-0.6-0.2-1-0.7-1c-0.4,0-0.6,0.1-0.8,0.4v11.1h8.3c0.4,0,0.5,0.2,0.5,0.5
		v1.1c0,0.3-0.2,0.4-0.5,0.4h-8.3v11.1c0.2,0.2,0.4,0.4,0.8,0.4c0.5,0,0.7-0.3,0.7-1v-7.5c0-0.6,0.1-1,0.4-1.2
		c0.2-0.2,0.6-0.4,1.2-0.4h5.4c1.6,0,2.9,0.4,3.6,1.3c0.8,0.9,1.2,2.3,1.2,4.1v5.2c0,0.6-0.1,1-0.3,1.2c-0.2,0.2-0.6,0.4-1.1,0.4
		H13.8c-0.5,0-0.9-0.1-1.1-0.4c-0.2-0.2-0.3-0.6-0.3-1.2V15.7c0-0.7-0.1-1.3-0.2-1.6c-0.1-0.3-0.3-0.6-0.6-0.9
		c-0.3-0.3-0.8-0.7-1.5-1.1c-0.1-0.1-0.2-0.2-0.2-0.4v-0.5c0-0.3,0.2-0.4,0.5-0.4H35.9z"/>
	<path d="M51.8,10.7c0.5,0,0.9,0.1,1.1,0.4c0.2,0.2,0.3,0.6,0.3,1.2v25.1c0.2,0.2,0.4,0.4,0.8,0.4c0.5,0,0.7-0.3,0.7-1v-8.4
		c0-0.6,0.1-1,0.4-1.2c0.2-0.2,0.6-0.4,1.2-0.4h5.4c1.6,0,2.9,0.4,3.6,1.3c0.8,0.9,1.2,2.3,1.2,4.1v6.1c0,0.6-0.1,1-0.3,1.2
		c-0.2,0.2-0.6,0.4-1.1,0.4H43c-0.5,0-0.9-0.1-1.1-0.4c-0.2-0.2-0.3-0.6-0.3-1.2V15.7c0-0.7-0.1-1.3-0.2-1.6
		c-0.1-0.3-0.3-0.6-0.6-0.9c-0.3-0.3-0.8-0.7-1.5-1.1C39.1,12,39,11.8,39,11.7v-0.5c0-0.3,0.2-0.4,0.5-0.4H51.8z"/>
	<path d="M100.5,18.6c-0.2-0.1-0.4-0.2-0.6-0.2c-0.2,0-0.4,0.1-0.5,0.2c-0.1,0.1-0.2,0.3-0.2,0.5c0,0.2,0.1,0.6,0.2,1.1l4.2,17.2
		c0.1,0.6,0.2,0.9,0.2,1.1c0,0.9-0.5,1.4-1.4,1.4h-7.8c-0.6,0-1.1-0.1-1.3-0.4c-0.3-0.3-0.5-0.8-0.7-1.6l-4.8-19.3
		c-0.2-0.1-0.4-0.2-0.7-0.2c-0.2,0-0.3,0.1-0.5,0.2c-0.1,0.1-0.2,0.3-0.2,0.5c0,0.2,0.1,0.6,0.2,1.1l4.2,17.2
		c0.2,0.7,0.3,1.1,0.3,1.4c0,0.7-0.5,1.1-1.4,1.1h-11c-0.6,0-1-0.1-1.3-0.4c-0.3-0.3-0.5-0.7-0.5-1.2c0-0.6,0.7-2.7,2-6.2
		c1.3-3.5,3.5-8.9,6.6-16.3c0.2-0.4,0.3-0.8,0.3-1.1c0-0.5-0.1-0.9-0.4-1.3c-0.2-0.4-0.7-0.7-1.4-1.2c-0.3-0.2-0.4-0.4-0.4-0.6v-0.5
		c0-0.3,0.2-0.4,0.5-0.4h8.4c1.2,0,2.1,0.2,2.7,0.5c0.6,0.4,1.1,1,1.5,1.9l1.7,4l0.7-1.6c0.3-0.6,0.4-1.1,0.4-1.4
		c0-0.4-0.1-0.7-0.3-0.9c-0.2-0.3-0.5-0.6-1-0.9c-0.3-0.2-0.4-0.4-0.4-0.6v-0.5c0-0.3,0.2-0.4,0.5-0.4h7.9c1.9,0,3.1,0.8,3.7,2.4
		l7.8,22.3c0.6,1.6,0.8,2.6,0.8,3.1c0,0.9-0.5,1.4-1.4,1.4h-9.7c-0.6,0-1.1-0.1-1.3-0.4c-0.3-0.3-0.5-0.8-0.7-1.6L100.5,18.6z"/>
	<path d="M130.3,10.7c0.5,0,0.9,0.1,1.1,0.4c0.2,0.2,0.3,0.6,0.3,1.2v25c0,0.8,0.3,1.2,0.8,1.2c0.6,0,0.8-0.4,0.8-1.2v-25
		c0-0.6,0.1-1,0.3-1.2c0.2-0.2,0.6-0.4,1.1-0.4h9.7c0.5,0,0.9,0.1,1.1,0.3c0.2,0.2,0.4,0.6,0.4,1.1v15.8c0,4.2-1.1,7.4-3.4,9.5
		c-2.3,2.2-5.6,3.2-10.1,3.2c-4.4,0-7.8-1.1-10.1-3.2c-2.3-2.2-3.4-5.3-3.4-9.5V15.7c0-0.7-0.1-1.3-0.2-1.6
		c-0.1-0.3-0.3-0.6-0.6-0.9c-0.3-0.3-0.8-0.7-1.5-1.1c-0.1-0.1-0.2-0.2-0.2-0.4v-0.5c0-0.3,0.2-0.4,0.5-0.4H130.3z"/>
	<path d="M173.4,31c0.1,0.1,0.3,0.1,0.4,0.1c0.2,0,0.3-0.1,0.5-0.2c0.1-0.1,0.2-0.3,0.2-0.5c0-0.4-0.2-0.8-0.5-1.3l-10.1-16.7
		c-0.1-0.2-0.2-0.4-0.3-0.5c0-0.1-0.1-0.2-0.1-0.4v-0.3c0-0.2,0-0.4,0.1-0.5c0.1-0.1,0.2-0.1,0.4-0.1h11.2c0.5,0,0.9,0.1,1.1,0.4
		c0.2,0.2,0.3,0.6,0.3,1.2v26.1c0,0.6-0.1,1-0.3,1.2c-0.2,0.2-0.6,0.4-1.1,0.4h-5.6c-1.3,0-2.4-0.2-3.2-0.7
		c-0.8-0.5-1.5-1.3-2.3-2.6l-10.3-17c-0.1-0.1-0.3-0.1-0.4-0.1c-0.2,0-0.3,0.1-0.5,0.2c-0.2,0.1-0.2,0.3-0.2,0.5
		c0,0.3,0.2,0.8,0.5,1.3l10.1,16.7c0.1,0.2,0.2,0.4,0.3,0.5c0,0.1,0.1,0.2,0.1,0.4v0.3c0,0.2,0,0.4-0.1,0.4
		c-0.1,0.1-0.2,0.1-0.5,0.1H152c-0.5,0-0.9-0.1-1.1-0.4c-0.2-0.2-0.3-0.6-0.3-1.2V15.7c0-0.7-0.1-1.3-0.2-1.6
		c-0.1-0.3-0.3-0.6-0.6-0.9c-0.3-0.3-0.8-0.7-1.5-1.1c-0.1-0.1-0.2-0.2-0.2-0.4v-0.5c0-0.3,0.2-0.4,0.5-0.4h9c1.3,0,2.4,0.2,3.2,0.7
		c0.8,0.5,1.5,1.3,2.3,2.6L173.4,31z"/>
	<path d="M195.3,10.7c4.3,0,7.7,1.3,10.1,3.8c2.4,2.6,3.6,6.1,3.6,10.7c0,2.9-0.6,5.4-1.7,7.6c-1.1,2.2-2.7,3.9-4.8,5.2
		c-2.1,1.2-4.5,1.9-7.3,1.9h-12c-0.5,0-0.9-0.1-1.1-0.4c-0.2-0.2-0.3-0.6-0.3-1.2V15.6c0-0.9-0.1-1.6-0.4-2
		c-0.2-0.4-0.9-0.9-1.9-1.6c-0.1-0.1-0.2-0.2-0.2-0.4v-0.5c0-0.3,0.2-0.4,0.5-0.4H195.3z M193.5,37.4c0.2,0.2,0.5,0.4,0.8,0.4
		c0.3,0,0.5-0.1,0.6-0.3c0.1-0.2,0.2-0.5,0.2-0.8V13.9c0-0.3-0.1-0.6-0.2-0.8c-0.1-0.2-0.4-0.3-0.6-0.3c-0.4,0-0.7,0.1-0.8,0.4V37.4
		z"/>
	<path d="M225.9,40.6c-4.8,0-8.5-1.3-11.1-4c-2.6-2.7-3.9-6.5-3.9-11.3c0-4.9,1.3-8.7,3.9-11.3c2.6-2.7,6.3-4,11.1-4
		c4.8,0,8.5,1.3,11.1,4c2.6,2.7,3.9,6.4,3.9,11.3c0,4.9-1.3,8.7-3.9,11.3C234.4,39.3,230.7,40.6,225.9,40.6z M225.9,38.4
		c0.6,0,0.8-0.4,0.8-1.2V13.4c0-0.8-0.3-1.2-0.8-1.2c-0.6,0-0.8,0.4-0.8,1.2v23.8C225.1,38,225.3,38.4,225.9,38.4z"/>
	<path d="M10.1,79.8c0-1.1,0.2-2,0.7-3c0.5-0.9,1.1-1.7,2-2.4c0.9-0.7,1.9-1.2,3.1-1.5c-3.5-2.7-5.3-6.8-5.3-12.2
		c0-4.9,1.3-8.7,3.9-11.3c2.6-2.7,6.3-4,11.1-4c4.8,0,8.5,1.3,11.1,4c2.6,2.7,3.9,6.4,3.9,11.3c0,3.7-0.8,6.7-2.3,9.1
		c-1.6,2.3-3.8,3.8-6.7,4.3c1,0.1,1.9,0.3,2.8,0.7c0.9,0.4,1.8,0.9,2.6,1.4c0.8,0.5,1.6,1.1,2.4,1.6c0.8,0.5,1.5,1,2.2,1.3
		c0.7,0.4,1.4,0.5,2,0.5c1.3,0,2.2-0.7,2.6-2.2c0.1-0.5,0.2-0.7,0.3-0.8c0.1-0.1,0.2-0.1,0.4-0.1h0.5c0.2,0,0.4,0.1,0.5,0.3
		c0.1,0.2,0.1,0.6,0.1,1.3c0,2.3-0.8,4.2-2.4,5.6c-1.6,1.4-3.6,2.2-6.1,2.2c-1.6,0-3-0.2-4.4-0.7c-1.4-0.5-2.7-1.2-4-2.2
		c-1.3-1-2.8-2.4-4.3-4.1c-1.5-1.7-2.9-2.9-4.1-3.6c-1.2-0.7-2.6-1-4.1-1c-1.2,0-2.3,0.2-3.2,0.7c-1,0.5-1.8,1.1-2.4,2
		c-0.6,0.8-0.9,1.8-0.9,2.8c0,1.3,0.5,2.4,1.4,3.2c0.9,0.8,2.1,1.3,3.5,1.3c0.6,0,1-0.2,1-0.7c0-0.1,0-0.3-0.1-0.4
		c-1.3,0-2.3-0.3-3.1-1c-0.8-0.7-1.2-1.5-1.2-2.5c0-1.2,0.5-2.2,1.4-2.9c1-0.7,2.2-1.1,3.8-1.1c1.7,0,3.1,0.5,4.3,1.4
		c1.2,1,1.7,2.1,1.7,3.5c0,1.6-0.7,2.9-2,3.8c-1.3,1-3.1,1.5-5.2,1.5c-2.2,0-3.9-0.6-5.3-1.7C10.8,83.1,10.1,81.6,10.1,79.8z
		 M25.6,72.6c0.6,0,0.8-0.4,0.8-1.1V48.8c0-0.8-0.3-1.2-0.8-1.2c-0.6,0-0.8,0.4-0.8,1.2v22.6C24.8,72.2,25.1,72.6,25.6,72.6z"/>
	<path d="M54.9,46.1c0.5,0,0.9,0.1,1.1,0.4c0.2,0.2,0.3,0.6,0.3,1.2v25c0,0.8,0.3,1.2,0.8,1.2c0.6,0,0.8-0.4,0.8-1.2v-25
		c0-0.6,0.1-1,0.3-1.2c0.2-0.2,0.6-0.4,1.1-0.4h9.7c0.5,0,0.9,0.1,1.1,0.3c0.2,0.2,0.4,0.6,0.4,1.1v15.8c0,4.2-1.1,7.4-3.4,9.5
		C65,75,61.6,76,57.2,76c-4.4,0-7.8-1.1-10.1-3.2c-2.3-2.2-3.4-5.3-3.4-9.5V51.1c0-0.7-0.1-1.3-0.2-1.6c-0.1-0.3-0.3-0.6-0.6-0.9
		c-0.3-0.3-0.8-0.7-1.5-1.1c-0.1-0.1-0.2-0.2-0.2-0.4v-0.5c0-0.3,0.2-0.4,0.5-0.4H54.9z"/>
	<path d="M98.7,46.1c0.5,0,0.9,0.1,1.1,0.4c0.2,0.2,0.3,0.6,0.3,1.2v5.2c0,1.8-0.4,3.2-1.2,4.1c-0.8,0.9-2,1.3-3.6,1.3H90
		c-0.6,0-1-0.1-1.2-0.4c-0.2-0.2-0.4-0.6-0.4-1.2v-7.6c0-0.6-0.2-1-0.7-1c-0.4,0-0.6,0.1-0.8,0.4v11.1h8.3c0.4,0,0.5,0.2,0.5,0.5
		v1.1c0,0.3-0.2,0.4-0.5,0.4h-8.3v11.1c0.2,0.2,0.4,0.4,0.8,0.4c0.5,0,0.7-0.3,0.7-1v-7.5c0-0.6,0.1-1,0.4-1.2
		c0.2-0.2,0.6-0.4,1.2-0.4h5.4c1.6,0,2.9,0.4,3.6,1.3c0.8,0.9,1.2,2.3,1.2,4.1v5.2c0,0.6-0.1,1-0.3,1.2c-0.2,0.2-0.6,0.4-1.1,0.4
		H76.6c-0.5,0-0.9-0.1-1.1-0.4c-0.2-0.2-0.3-0.6-0.3-1.2V51.1c0-0.7-0.1-1.3-0.2-1.6c-0.1-0.3-0.3-0.6-0.6-0.9
		c-0.3-0.3-0.8-0.7-1.5-1.1c-0.1-0.1-0.2-0.2-0.2-0.4v-0.5c0-0.3,0.2-0.4,0.5-0.4H98.7z"/>
	<path d="M139,67c0,2.9-1.2,5.2-3.6,6.7c-2.4,1.6-5.9,2.3-10.4,2.3c-4.2,0-7.4-0.6-9.6-1.9c-2.2-1.3-3.3-3.1-3.3-5.6
		c0-1.5,0.5-2.7,1.6-3.7c1.1-1,2.5-1.4,4.2-1.4c2,0,3.5,0.4,4.7,1.3c1.2,0.9,1.7,2,1.7,3.5c0,1.1-0.4,2-1.1,2.6
		c-0.8,0.6-1.8,1-3.2,1.1c-0.2,0.2-0.3,0.4-0.3,0.6c0,0.2,0.1,0.4,0.3,0.5c0.2,0.1,0.4,0.2,0.7,0.2c1.5,0,2.7-0.5,3.7-1.4
		c1-0.9,1.5-2.1,1.5-3.5c0-1.1-0.2-2.1-0.7-2.8c-0.5-0.7-1.2-1.4-2.3-2c-1-0.6-2.5-1.2-4.2-1.7c-2-0.6-3.5-1.5-4.6-2.8
		c-1-1.2-1.5-2.7-1.5-4.5c0-1.8,0.5-3.3,1.6-4.7c1.1-1.4,2.7-2.4,4.7-3.2c2.1-0.8,4.5-1.2,7.2-1.2c3.9,0,6.9,0.7,9.1,2
		c2.2,1.3,3.3,3.1,3.3,5.5c0,1.5-0.6,2.7-1.7,3.7c-1.1,1-2.6,1.4-4.4,1.4c-1.8,0-3.3-0.4-4.5-1.3c-1.1-0.9-1.7-2-1.7-3.5
		c0-1.1,0.4-2,1.1-2.6c0.8-0.6,1.8-1,3.2-1.1c0.2-0.2,0.3-0.4,0.3-0.6c0-0.2-0.1-0.4-0.3-0.5c-0.2-0.1-0.4-0.2-0.7-0.2
		c-0.9,0-1.8,0.2-2.6,0.6c-0.8,0.4-1.4,1-1.9,1.8c-0.5,0.7-0.7,1.6-0.7,2.5c0,1.6,0.5,2.9,1.6,3.9c1.1,1,2.9,1.8,5.6,2.6
		c2.4,0.7,4.2,1.6,5.4,2.8C138.4,63.6,139,65.1,139,67z"/>
	<path d="M165.5,46.1c0.5,0,0.9,0.1,1.1,0.4c0.2,0.2,0.3,0.6,0.3,1.2v5.2c0,1.8-0.4,3.2-1.2,4.1c-0.8,0.9-2,1.3-3.6,1.3h-5.4
		c-0.6,0-1-0.1-1.2-0.4c-0.2-0.2-0.4-0.6-0.4-1.2v-7.6c0-0.6-0.2-1-0.7-1c-0.4,0-0.6,0.1-0.8,0.4v11.1h8.3c0.4,0,0.5,0.2,0.5,0.5
		v1.1c0,0.3-0.2,0.4-0.5,0.4h-8.3v11.1c0.2,0.2,0.4,0.4,0.8,0.4c0.5,0,0.7-0.3,0.7-1v-7.5c0-0.6,0.1-1,0.4-1.2
		c0.2-0.2,0.6-0.4,1.2-0.4h5.4c1.6,0,2.9,0.4,3.6,1.3c0.8,0.9,1.2,2.3,1.2,4.1v5.2c0,0.6-0.1,1-0.3,1.2c-0.2,0.2-0.6,0.4-1.1,0.4
		h-22.2c-0.5,0-0.9-0.1-1.1-0.4c-0.2-0.2-0.3-0.6-0.3-1.2V51.1c0-0.7-0.1-1.3-0.2-1.6c-0.1-0.3-0.3-0.6-0.6-0.9
		c-0.3-0.3-0.8-0.7-1.5-1.1c-0.1-0.1-0.2-0.2-0.2-0.4v-0.5c0-0.3,0.2-0.4,0.5-0.4H165.5z"/>
	<path d="M62.9,103.3h-1.6l1.3,4.9c0.2,0.7,0.3,1.1,0.3,1.4c0,0.7-0.5,1.1-1.4,1.1H50c-0.6,0-1-0.1-1.3-0.4
		c-0.3-0.3-0.5-0.7-0.5-1.2c0-0.7,0.7-2.7,2-6.1c1.3-3.4,3.6-8.9,6.8-16.4c0.2-0.4,0.3-0.8,0.3-1.1c0-0.5-0.1-0.9-0.4-1.3
		c-0.2-0.4-0.7-0.7-1.4-1.2c-0.3-0.2-0.4-0.4-0.4-0.6V82c0-0.3,0.2-0.4,0.5-0.4h10.2c1,0,1.7,0.2,2.3,0.6c0.6,0.4,1.1,1,1.4,1.8
		l8.5,22.3c0.6,1.4,0.8,2.5,0.8,3.1c0,0.9-0.5,1.4-1.4,1.4h-11c-0.6,0-1.1-0.1-1.3-0.4c-0.3-0.3-0.5-0.8-0.7-1.6L62.9,103.3z
		 M60.8,101.2h1.6l-3.1-11.8c-0.1-0.1-0.3-0.2-0.6-0.2c-0.2,0-0.4,0.1-0.6,0.2C58,89.5,58,89.7,58,89.9c0,0.1,0,0.2,0,0.4
		c0,0.1,0.1,0.3,0.1,0.5L60.8,101.2z"/>
	<path d="M82.9,81.5c2,0,3.6,0.4,4.7,1.3c1.1,0.9,1.9,2.3,2.4,4.4l4.8,18.2c0.1,0.1,0.4,0.2,0.7,0.2c0.2,0,0.3-0.1,0.5-0.2
		c0.1-0.1,0.2-0.3,0.2-0.5c0-0.2-0.1-0.5-0.2-0.9l-4.5-17.5c-0.1-0.5-0.4-1.1-0.6-1.7c-0.3-0.6-0.5-1.1-0.8-1.4
		c-0.3-0.4-0.4-0.6-0.5-0.7c-0.1-0.1-0.1-0.3-0.1-0.4V82c0-0.3,0.2-0.4,0.6-0.4h14.2c0.6,0,1,0.1,1.3,0.4c0.3,0.3,0.5,0.7,0.5,1.2
		c0,1.1-0.9,4.2-2.6,9.5c-1.7,5.2-3.7,10.5-5.8,15.7c-0.3,0.8-0.8,1.5-1.4,1.8c-0.6,0.4-1.4,0.6-2.3,0.6h-6.4c-1,0-1.7-0.2-2.3-0.6
		c-0.6-0.4-1.1-1-1.4-1.8L75,85.2c-0.2-0.5-0.4-0.9-0.7-1.2c-0.3-0.3-0.8-0.7-1.6-1.1c-0.1-0.1-0.2-0.2-0.2-0.4V82
		c0-0.3,0.2-0.4,0.5-0.4H82.9z"/>
	<path d="M133.6,81.5c0.5,0,0.9,0.1,1.1,0.4c0.2,0.2,0.3,0.6,0.3,1.2v5.2c0,1.8-0.4,3.2-1.2,4.1c-0.8,0.9-2,1.3-3.6,1.3h-5.4
		c-0.6,0-1-0.1-1.2-0.4c-0.2-0.2-0.4-0.6-0.4-1.2v-7.6c0-0.6-0.2-1-0.7-1c-0.4,0-0.6,0.1-0.8,0.4v11.1h8.3c0.4,0,0.5,0.2,0.5,0.5
		v1.1c0,0.3-0.2,0.4-0.5,0.4h-8.3v11.1c0.2,0.2,0.4,0.4,0.8,0.4c0.5,0,0.7-0.3,0.7-1v-7.5c0-0.6,0.1-1,0.4-1.2
		c0.2-0.2,0.6-0.4,1.2-0.4h5.4c1.6,0,2.9,0.4,3.6,1.3c0.8,0.9,1.2,2.3,1.2,4.1v5.2c0,0.6-0.1,1-0.3,1.2c-0.2,0.2-0.6,0.4-1.1,0.4
		h-22.2c-0.5,0-0.9-0.1-1.1-0.4c-0.2-0.2-0.3-0.6-0.3-1.2V86.5c0-0.7-0.1-1.3-0.2-1.6c-0.1-0.3-0.3-0.6-0.6-0.9
		c-0.3-0.3-0.8-0.7-1.5-1.1c-0.1-0.1-0.2-0.2-0.2-0.4V82c0-0.3,0.2-0.4,0.5-0.4H133.6z"/>
	<path d="M152.6,83c-1.9,0-3.5,0.6-4.8,1.9c-1.3,1.3-1.9,2.8-1.9,4.7c0,2.3,0.8,4.2,2.5,5.7c1.7,1.5,3.8,2.2,6.5,2.2
		c1.6,0,3-0.3,4.4-0.9c1.4-0.6,2.5-1.4,3.4-2.4c0.2-0.2,0.3-0.3,0.4-0.4c0.1-0.1,0.2-0.1,0.3-0.1h0.7c0.2,0,0.4,0.1,0.5,0.2
		c0.1,0.2,0.2,0.5,0.3,0.9c0.1,0.6,0.2,1.2,0.2,2c0,2.7-0.6,5.2-1.7,7.4c-1.1,2.2-2.8,4-4.8,5.3c-2.1,1.3-4.5,2-7.2,2
		c-2.7,0-5.2-0.6-7.4-1.9c-2.2-1.3-4-3.1-5.4-5.5c-1.3-2.4-2-5.1-2-8.2c0-2.9,0.6-5.4,1.8-7.7c1.2-2.3,2.9-4.1,5.1-5.4
		c2.2-1.3,4.8-2,7.7-2c2.2,0,4.2,0.4,5.9,1.1c1.8,0.7,3.2,1.7,4.2,3.1c1,1.3,1.6,2.8,1.6,4.5c0,2-0.7,3.5-2.1,4.7
		c-1.4,1.2-3.3,1.8-5.6,1.8c-1.4,0-2.7-0.3-3.8-0.8c-1.2-0.5-2.1-1.3-2.8-2.3c-0.7-1-1-2.1-1-3.4c0-1.6,0.5-2.8,1.6-3.8
		c1.1-0.9,2.5-1.4,4.4-1.4c0.2-0.2,0.3-0.4,0.3-0.6c0-0.2-0.1-0.4-0.3-0.5C153.2,83.1,153,83,152.6,83z"/>
	<path d="M179.3,109.2c0,0.6-0.1,1-0.3,1.2c-0.2,0.2-0.6,0.4-1.1,0.4H169c-0.5,0-0.9-0.1-1.1-0.4c-0.2-0.2-0.3-0.6-0.3-1.2V86.5
		c0-0.7-0.1-1.3-0.2-1.6c-0.1-0.3-0.3-0.6-0.6-0.9c-0.3-0.3-0.8-0.7-1.5-1.1c-0.1-0.1-0.2-0.2-0.2-0.4V82c0-0.3,0.2-0.4,0.5-0.4
		h12.3c0.5,0,0.9,0.1,1.1,0.4c0.2,0.2,0.3,0.6,0.3,1.2V109.2z"/>
	<path d="M207,101.9c0.1,0.1,0.3,0.1,0.4,0.1c0.2,0,0.3-0.1,0.5-0.2c0.1-0.1,0.2-0.3,0.2-0.5c0-0.4-0.2-0.8-0.5-1.3l-10.1-16.7
		c-0.1-0.2-0.2-0.4-0.3-0.5c0-0.1-0.1-0.2-0.1-0.4v-0.3c0-0.2,0-0.4,0.1-0.5c0.1-0.1,0.2-0.1,0.4-0.1H209c0.5,0,0.9,0.1,1.1,0.4
		c0.2,0.2,0.3,0.6,0.3,1.2v26.1c0,0.6-0.1,1-0.3,1.2c-0.2,0.2-0.6,0.4-1.1,0.4h-5.6c-1.3,0-2.4-0.2-3.2-0.7
		c-0.8-0.5-1.5-1.3-2.3-2.6l-10.3-17c-0.1-0.1-0.3-0.1-0.4-0.1c-0.2,0-0.3,0.1-0.5,0.2c-0.2,0.1-0.2,0.3-0.2,0.5
		c0,0.3,0.2,0.8,0.5,1.3l10.1,16.7c0.1,0.2,0.2,0.4,0.3,0.5c0,0.1,0.1,0.2,0.1,0.4v0.3c0,0.2,0,0.4-0.1,0.4
		c-0.1,0.1-0.2,0.1-0.5,0.1h-11.2c-0.5,0-0.9-0.1-1.1-0.4c-0.2-0.2-0.3-0.6-0.3-1.2V86.5c0-0.7-0.1-1.3-0.2-1.6
		c-0.1-0.3-0.3-0.6-0.6-0.9c-0.3-0.3-0.8-0.7-1.5-1.1c-0.1-0.1-0.2-0.2-0.2-0.4V82c0-0.3,0.2-0.4,0.5-0.4h9c1.3,0,2.4,0.2,3.2,0.7
		c0.8,0.5,1.5,1.3,2.3,2.6L207,101.9z"/>
	<path d="M227.4,103.3h-1.6l1.3,4.9c0.2,0.7,0.3,1.1,0.3,1.4c0,0.7-0.5,1.1-1.4,1.1h-11.5c-0.6,0-1-0.1-1.3-0.4
		c-0.3-0.3-0.5-0.7-0.5-1.2c0-0.7,0.7-2.7,2-6.1c1.3-3.4,3.6-8.9,6.8-16.4c0.2-0.4,0.3-0.8,0.3-1.1c0-0.5-0.1-0.9-0.4-1.3
		c-0.2-0.4-0.7-0.7-1.4-1.2c-0.3-0.2-0.4-0.4-0.4-0.6V82c0-0.3,0.2-0.4,0.5-0.4h10.2c1,0,1.7,0.2,2.3,0.6c0.6,0.4,1.1,1,1.4,1.8
		l8.5,22.3c0.6,1.4,0.8,2.5,0.8,3.1c0,0.9-0.5,1.4-1.4,1.4h-11c-0.6,0-1.1-0.1-1.3-0.4c-0.3-0.3-0.5-0.8-0.7-1.6L227.4,103.3z
		 M225.2,101.2h1.6l-3.1-11.8c-0.1-0.1-0.3-0.2-0.6-0.2c-0.2,0-0.4,0.1-0.6,0.2c-0.1,0.1-0.2,0.3-0.2,0.5c0,0.1,0,0.2,0,0.4
		c0,0.1,0.1,0.3,0.1,0.5L225.2,101.2z"/>
</g>
<g>
	<g>
		<path d="M93,142.2c0.2-1,0.7-1.8,1.3-2.3c0.6-0.5,1.4-0.8,2.4-0.8c0.6,0,1.1,0.1,1.6,0.3c0.5,0.2,0.9,0.5,1.2,0.9
			c0.3,0.4,0.4,0.8,0.4,1.3c0,0.7-0.2,1.2-0.7,1.7c-0.5,0.5-1.1,0.7-1.8,0.7c-0.4,0-0.8-0.1-1.2-0.3c-0.4-0.2-0.7-0.4-0.9-0.7
			c-0.2-0.3-0.4-0.7-0.4-1c0-0.4,0.2-0.8,0.5-1.1c0.3-0.3,0.7-0.5,1.1-0.5c0.3,0,0.4,0.1,0.4,0.3c0,0,0,0.1,0,0.1c0,0,0,0.1,0,0.1
			c-0.9,0.1-1.4,0.4-1.4,1.1c0,0.4,0.2,0.8,0.5,1c0.4,0.3,0.8,0.4,1.4,0.4c0.6,0,1-0.2,1.4-0.5c0.4-0.3,0.5-0.8,0.5-1.3
			c0-0.6-0.2-1-0.7-1.4c-0.5-0.4-1.1-0.6-1.8-0.6c-0.8,0-1.5,0.2-2,0.6c-0.5,0.4-0.8,1-0.8,1.7c0,0.8,0.3,1.4,1,1.9
			c0.6,0.5,1.4,0.8,2.4,0.8c0.6,0,1.2-0.1,1.8-0.4c0.5-0.3,0.9-0.6,1.2-1.1c0.3-0.5,0.5-1,0.5-1.7c0-1.1-0.5-2-1.6-2.6
			c-1.1-0.7-2.5-1-4.2-1c-1.9,0-3.4,0.3-4.7,1c-1.2,0.6-2,1.5-2.2,2.6c-0.2-1.1-1-1.9-2.2-2.6c-1.2-0.6-2.8-1-4.7-1
			c-1.7,0-3.1,0.3-4.2,1c-1.1,0.7-1.6,1.5-1.6,2.6c0,0.6,0.1,1.1,0.4,1.6c0.3,0.5,0.7,0.9,1.2,1.1c0.5,0.3,1.1,0.4,1.8,0.4
			c0.9,0,1.7-0.3,2.4-0.8c0.6-0.5,1-1.2,1-1.9c0-0.7-0.3-1.2-0.8-1.7c-0.5-0.4-1.2-0.6-2-0.6c-0.7,0-1.3,0.2-1.8,0.6
			c-0.5,0.4-0.7,0.9-0.7,1.4c0,0.5,0.2,0.9,0.5,1.3c0.4,0.3,0.8,0.5,1.4,0.5c0.6,0,1-0.1,1.4-0.4c0.4-0.3,0.5-0.6,0.5-1
			c0-0.7-0.5-1-1.4-1.1c0,0,0-0.1,0-0.1c0,0,0-0.1,0-0.1c0-0.2,0.1-0.3,0.4-0.3c0.4,0,0.8,0.2,1.1,0.5c0.3,0.3,0.5,0.7,0.5,1.1
			c0,0.4-0.1,0.7-0.3,1c-0.2,0.3-0.5,0.6-0.9,0.7c-0.4,0.2-0.8,0.3-1.3,0.3c-0.7,0-1.3-0.2-1.8-0.7c-0.5-0.5-0.7-1-0.7-1.7
			c0-0.5,0.1-0.9,0.4-1.3c0.3-0.4,0.6-0.7,1.1-0.9c0.5-0.2,1-0.4,1.6-0.4c1,0,1.8,0.3,2.4,0.8c0.6,0.5,1.1,1.3,1.3,2.3
			c0.4,1.8,1.3,2.7,2.7,2.7c0.6,0,1.1-0.2,1.5-0.5c0.4-0.3,0.7-0.8,0.8-1.4c0.1,0.6,0.4,1.1,0.8,1.4c0.4,0.3,0.9,0.5,1.5,0.5
			C91.7,144.9,92.5,144,93,142.2z"/>
	</g>
	<g>
		<line fill="none" stroke="#000000" stroke-linecap="round" stroke-miterlimit="10" x1="46.6" y1="141.7" x2="75.5" y2="141.7"/>
		<line fill="none" stroke="#000000" stroke-linecap="round" stroke-miterlimit="10" x1="100.1" y1="141.7" x2="244.2" y2="141.7"/>
	</g>
</g>
</svg>
